<svg width="500" height="170" viewBox="0 0 500 170" fill="none" xmlns="http://www.w3.org/2000/svg">
<rect width="500" height="170" fill="white"/>
<path d="M195 110V147H206.5" stroke="#B4B4C0" stroke-linecap="round" stroke-linejoin="round"/>
<path d="M220.33 144.1H221.42C221.68 144.1 221.817 144.237 221.83 144.51L222.11 151H221.11L220.87 144.93H220.67L219.27 149.84C219.21 150.067 219.067 150.18 218.84 150.18H217.97C217.737 150.18 217.59 150.067 217.53 149.84L216.12 144.93H215.93L215.7 151H214.71L214.97 144.51C214.983 144.237 215.12 144.1 215.38 144.1H216.49C216.697 144.1 216.837 144.213 216.91 144.44L218.08 148.48C218.147 148.72 218.223 149.03 218.31 149.41H218.49C218.57 149.057 218.65 148.743 218.73 148.47L219.89 144.44C219.963 144.213 220.11 144.1 220.33 144.1ZM227.309 148.92H224.559L223.919 151H222.899L225.059 144.37C225.112 144.19 225.235 144.1 225.429 144.1H226.449C226.649 144.1 226.769 144.19 226.809 144.37L228.979 151H227.949L227.309 148.92ZM227.049 148.05L226.239 145.43C226.219 145.37 226.189 145.277 226.149 145.15C226.115 145.023 226.089 144.93 226.069 144.87H225.799L225.639 145.43L224.829 148.05H227.049ZM230.908 151H229.908V144.1H230.908V151ZM237.984 144.1V150.61C237.984 150.87 237.861 151 237.614 151H236.664C236.464 151 236.321 150.897 236.234 150.69L234.084 145.99C233.844 145.47 233.707 145.15 233.674 145.03H233.534C233.567 145.297 233.584 145.617 233.584 145.99V151H232.584V144.49C232.584 144.23 232.711 144.1 232.964 144.1H233.884C234.077 144.1 234.224 144.203 234.324 144.41L236.414 148.99C236.441 149.05 236.487 149.15 236.554 149.29C236.621 149.423 236.681 149.553 236.734 149.68C236.794 149.8 236.847 149.913 236.894 150.02H237.044C237.011 149.62 236.994 149.263 236.994 148.95V144.1H237.984ZM245.321 147.4V147.44C245.821 147.487 246.174 147.663 246.381 147.97C246.594 148.27 246.701 148.707 246.701 149.28C246.701 149.973 246.534 150.447 246.201 150.7C245.874 150.953 245.301 151.08 244.481 151.08C243.354 151.08 242.488 151.053 241.881 151V144.1C242.421 144.047 243.188 144.02 244.181 144.02C245.048 144.02 245.648 144.147 245.981 144.4C246.321 144.647 246.491 145.12 246.491 145.82C246.491 146.32 246.398 146.7 246.211 146.96C246.024 147.213 245.728 147.36 245.321 147.4ZM242.861 147.04H244.261C244.741 147.04 245.071 146.967 245.251 146.82C245.438 146.667 245.531 146.373 245.531 145.94C245.531 145.513 245.431 145.23 245.231 145.09C245.031 144.943 244.664 144.87 244.131 144.87H242.861V147.04ZM242.861 150.22L244.331 150.23C244.858 150.23 245.214 150.157 245.401 150.01C245.594 149.857 245.691 149.557 245.691 149.11C245.691 148.61 245.588 148.27 245.381 148.09C245.181 147.91 244.811 147.817 244.271 147.81H242.861V150.22ZM249.082 144.1V149.52C249.082 149.753 249.128 149.92 249.222 150.02C249.315 150.113 249.478 150.16 249.712 150.16H252.162L252.212 150.93C251.565 150.99 250.678 151.02 249.552 151.02C248.572 151.02 248.082 150.567 248.082 149.66V144.1H249.082ZM255.611 143.97C256.638 143.97 257.355 144.23 257.761 144.75C258.168 145.27 258.371 146.203 258.371 147.55C258.371 148.897 258.168 149.83 257.761 150.35C257.355 150.87 256.638 151.13 255.611 151.13C254.591 151.13 253.878 150.87 253.471 150.35C253.065 149.83 252.861 148.897 252.861 147.55C252.861 146.203 253.065 145.27 253.471 144.75C253.878 144.23 254.591 143.97 255.611 143.97ZM256.951 145.44C256.705 145.053 256.258 144.86 255.611 144.86C254.965 144.86 254.518 145.053 254.271 145.44C254.031 145.827 253.911 146.53 253.911 147.55C253.911 148.57 254.031 149.273 254.271 149.66C254.518 150.047 254.965 150.24 255.611 150.24C256.258 150.24 256.705 150.047 256.951 149.66C257.198 149.273 257.321 148.57 257.321 147.55C257.321 146.53 257.198 145.827 256.951 145.44ZM264.231 150.12L264.331 150.88C263.778 151.04 263.094 151.12 262.281 151.12C261.274 151.12 260.568 150.853 260.161 150.32C259.754 149.787 259.551 148.863 259.551 147.55C259.551 146.237 259.754 145.313 260.161 144.78C260.568 144.247 261.274 143.98 262.281 143.98C263.001 143.98 263.638 144.047 264.191 144.18L264.091 144.95C263.558 144.897 262.954 144.87 262.281 144.87C261.648 144.87 261.208 145.063 260.961 145.45C260.721 145.837 260.601 146.537 260.601 147.55C260.601 148.563 260.721 149.263 260.961 149.65C261.208 150.037 261.648 150.23 262.281 150.23C263.128 150.23 263.778 150.193 264.231 150.12ZM267.234 147.81H266.454C266.5 148.09 266.524 148.327 266.524 148.52V151H265.524V144.1H266.524V146.22C266.524 146.507 266.5 146.767 266.454 147H267.234L269.264 144.1H270.354L268.404 146.92C268.297 147.073 268.157 147.233 267.984 147.4V147.43C268.17 147.59 268.33 147.763 268.464 147.95L270.484 151H269.374L267.234 147.81Z" fill="#B4B4C0"/>
<path d="M410.28 21.4V21.44C410.78 21.4867 411.133 21.6633 411.34 21.97C411.553 22.27 411.66 22.7067 411.66 23.28C411.66 23.9733 411.493 24.4467 411.16 24.7C410.833 24.9533 410.26 25.08 409.44 25.08C408.313 25.08 407.447 25.0533 406.84 25V18.1C407.38 18.0467 408.147 18.02 409.14 18.02C410.007 18.02 410.607 18.1467 410.94 18.4C411.28 18.6467 411.45 19.12 411.45 19.82C411.45 20.32 411.357 20.7 411.17 20.96C410.983 21.2133 410.687 21.36 410.28 21.4ZM407.82 21.04H409.22C409.7 21.04 410.03 20.9667 410.21 20.82C410.397 20.6667 410.49 20.3733 410.49 19.94C410.49 19.5133 410.39 19.23 410.19 19.09C409.99 18.9433 409.623 18.87 409.09 18.87H407.82V21.04ZM407.82 24.22L409.29 24.23C409.817 24.23 410.173 24.1567 410.36 24.01C410.553 23.8567 410.65 23.5567 410.65 23.11C410.65 22.61 410.547 22.27 410.34 22.09C410.14 21.91 409.77 21.8167 409.23 21.81H407.82V24.22ZM414.041 18.1V23.52C414.041 23.7533 414.087 23.92 414.181 24.02C414.274 24.1133 414.437 24.16 414.671 24.16H417.121L417.171 24.93C416.524 24.99 415.637 25.02 414.511 25.02C413.531 25.02 413.041 24.5667 413.041 23.66V18.1H414.041ZM420.57 17.97C421.597 17.97 422.314 18.23 422.72 18.75C423.127 19.27 423.33 20.2033 423.33 21.55C423.33 22.8967 423.127 23.83 422.72 24.35C422.314 24.87 421.597 25.13 420.57 25.13C419.55 25.13 418.837 24.87 418.43 24.35C418.024 23.83 417.82 22.8967 417.82 21.55C417.82 20.2033 418.024 19.27 418.43 18.75C418.837 18.23 419.55 17.97 420.57 17.97ZM421.91 19.44C421.664 19.0533 421.217 18.86 420.57 18.86C419.924 18.86 419.477 19.0533 419.23 19.44C418.99 19.8267 418.87 20.53 418.87 21.55C418.87 22.57 418.99 23.2733 419.23 23.66C419.477 24.0467 419.924 24.24 420.57 24.24C421.217 24.24 421.664 24.0467 421.91 23.66C422.157 23.2733 422.28 22.57 422.28 21.55C422.28 20.53 422.157 19.8267 421.91 19.44ZM429.19 24.12L429.29 24.88C428.737 25.04 428.053 25.12 427.24 25.12C426.233 25.12 425.527 24.8533 425.12 24.32C424.713 23.7867 424.51 22.8633 424.51 21.55C424.51 20.2367 424.713 19.3133 425.12 18.78C425.527 18.2467 426.233 17.98 427.24 17.98C427.96 17.98 428.597 18.0467 429.15 18.18L429.05 18.95C428.517 18.8967 427.913 18.87 427.24 18.87C426.607 18.87 426.167 19.0633 425.92 19.45C425.68 19.8367 425.56 20.5367 425.56 21.55C425.56 22.5633 425.68 23.2633 425.92 23.65C426.167 24.0367 426.607 24.23 427.24 24.23C428.087 24.23 428.737 24.1933 429.19 24.12ZM432.193 21.81H431.413C431.459 22.09 431.483 22.3267 431.483 22.52V25H430.483V18.1H431.483V20.22C431.483 20.5067 431.459 20.7667 431.413 21H432.193L434.223 18.1H435.313L433.363 20.92C433.256 21.0733 433.116 21.2333 432.943 21.4V21.43C433.129 21.59 433.289 21.7633 433.423 21.95L435.443 25H434.333L432.193 21.81ZM443.589 18.1V25H442.589V21.75H439.569V25H438.569V18.1H439.569V20.89H442.589V18.1H443.589ZM449.508 24.17L449.558 24.94C448.951 24.9933 447.964 25.02 446.598 25.02C446.171 25.02 445.834 24.91 445.588 24.69C445.341 24.4633 445.214 24.16 445.208 23.78V19.32C445.214 18.94 445.341 18.64 445.588 18.42C445.834 18.1933 446.171 18.08 446.598 18.08C447.964 18.08 448.951 18.1067 449.558 18.16L449.508 18.94H446.768C446.568 18.94 446.424 18.99 446.338 19.09C446.258 19.1833 446.218 19.3467 446.218 19.58V20.96H449.128V21.77H446.218V23.53C446.218 23.7633 446.258 23.93 446.338 24.03C446.424 24.1233 446.568 24.17 446.768 24.17H449.508ZM451.883 25H450.883V18.1H451.883V25ZM458.359 21.02V25H457.619L457.519 24.3C456.939 24.8533 456.255 25.13 455.469 25.13C454.709 25.13 454.159 24.84 453.819 24.26C453.479 23.68 453.309 22.7667 453.309 21.52C453.309 20.5933 453.405 19.8767 453.599 19.37C453.792 18.8567 454.095 18.4967 454.509 18.29C454.922 18.0767 455.502 17.97 456.249 17.97C456.969 17.97 457.609 18.04 458.169 18.18L458.069 18.94C457.509 18.8867 456.922 18.86 456.309 18.86C455.995 18.86 455.742 18.88 455.549 18.92C455.355 18.9533 455.175 19.0233 455.009 19.13C454.842 19.2367 454.715 19.3933 454.629 19.6C454.549 19.8067 454.485 20.07 454.439 20.39C454.392 20.71 454.369 21.11 454.369 21.59C454.369 22.5833 454.469 23.2767 454.669 23.67C454.875 24.0633 455.235 24.26 455.749 24.26C456.235 24.26 456.779 24.0567 457.379 23.65V21.02H458.359ZM464.868 18.1V25H463.868V21.75H460.848V25H459.848V18.1H460.848V20.89H463.868V18.1H464.868ZM471.317 18.99H469.127V25H468.117V18.99H465.947V18.1H471.317V18.99Z" fill="#B4B4C0"/>
<rect x="206" y="145" width="4" height="4" rx="2" fill="#B4B4C0"/>
<path d="M387 54.5V21H398.5" stroke="#B4B4C0" stroke-linecap="round" stroke-linejoin="round"/>
<rect width="4" height="4" rx="2" transform="matrix(1 0 0 -1 398 23)" fill="#B4B4C0"/>
<path d="M39 110V147H50.5" stroke="#B4B4C0" stroke-linecap="round" stroke-linejoin="round"/>
<circle cx="242" cy="92" r="3" fill="#333351"/>
<circle cx="253" cy="92" r="3" fill="#333351"/>
<circle cx="264" cy="92" r="3" fill="#333351"/>
<circle cx="461" cy="92" r="3" fill="#333351"/>
<circle cx="472" cy="92" r="3" fill="#333351"/>
<circle cx="483" cy="92" r="3" fill="#333351"/>
<g filter="url(#filter0_d)">
<rect x="93" y="68" width="48" height="48" rx="10" fill="white"/>
<rect x="94" y="69" width="46" height="46" rx="9" stroke="#4C93E0" stroke-width="2"/>
</g>
<path d="M124.119 101L122.637 88.416L119.283 101H115.669L112.315 88.572L110.885 101H107.167L109.403 81.76H113.095L117.515 96.502L121.909 81.76H125.575L127.837 101H124.119Z" fill="#4C93E0"/>
<path d="M114.715 55.244L114.643 53.864C115.571 53.672 116.499 53.576 117.427 53.576C118.355 53.576 119.047 53.712 119.503 53.984C119.967 54.256 120.199 54.76 120.199 55.496C120.199 55.992 120.107 56.432 119.923 56.816C119.747 57.192 119.391 57.664 118.855 58.232L116.731 60.44C117.035 60.384 117.443 60.356 117.955 60.356H120.439V62H114.571V60.98C114.571 60.668 114.659 60.42 114.835 60.236L116.863 58.052C117.855 57.02 118.347 56.232 118.339 55.688C118.331 55.456 118.243 55.308 118.075 55.244C117.907 55.172 117.619 55.136 117.211 55.136C116.363 55.136 115.531 55.172 114.715 55.244Z" fill="#333351"/>
<g filter="url(#filter1_d)">
<path d="M12.2303 94.0548C11.4728 92.7896 11.4728 91.2104 12.2303 89.9452L23.8353 70.5625C24.5578 69.3559 25.8608 68.6173 27.2672 68.6173H50.7328C52.1392 68.6173 53.4422 69.3559 54.1647 70.5625L65.7697 89.9452C66.5272 91.2104 66.5272 92.7896 65.7697 94.0548L54.1647 113.437C53.4422 114.644 52.1392 115.383 50.7328 115.383H27.2672C25.8608 115.383 24.5578 114.644 23.8353 113.437L12.2303 94.0548Z" fill="#4C93E0"/>
<path d="M37.4138 101.13C35.8885 101.13 34.6925 100.74 33.8258 99.96C32.9591 99.18 32.3525 98.088 32.0058 96.684C31.6765 95.2627 31.5118 93.4947 31.5118 91.38C31.5118 89.1613 31.7025 87.35 32.0838 85.946C32.4825 84.542 33.1931 83.4673 34.2158 82.722C35.2558 81.9593 36.7205 81.578 38.6098 81.578C39.8405 81.578 40.9498 81.656 41.9378 81.812C42.9258 81.9507 43.9831 82.1587 45.1098 82.436V85.4C44.4338 85.3133 43.5671 85.2353 42.5098 85.166C41.4698 85.0793 40.4038 85.036 39.3118 85.036C38.2025 85.036 37.3705 85.2353 36.8158 85.634C36.2611 86.0153 35.8798 86.6567 35.6718 87.558C35.4638 88.442 35.3598 89.7247 35.3598 91.406C35.3598 93.0873 35.4638 94.37 35.6718 95.254C35.8798 96.1207 36.2178 96.7273 36.6858 97.074C37.1538 97.4207 37.8211 97.594 38.6878 97.594C39.3465 97.594 39.9965 97.542 40.6378 97.438C41.2791 97.334 41.8338 97.204 42.3018 97.048V93.304H38.8438V90.262C39.3638 90.1927 40.0398 90.132 40.8718 90.08C41.7211 90.028 42.5271 90.002 43.2898 90.002C44.3645 90.002 45.2658 90.028 45.9938 90.08V101H43.1078L42.5878 99.7C41.9465 100.081 41.1665 100.419 40.2478 100.714C39.3465 100.991 38.4018 101.13 37.4138 101.13Z" fill="white"/>
<path d="M40.4597 62H38.6357V56.168C38.6357 55.816 38.6597 55.516 38.7077 55.268L36.7757 55.772L36.5597 54.548L38.6357 53.72H40.4597V62Z" fill="#333351"/>
</g>
<path d="M85.3536 92.3536C85.5488 92.1583 85.5488 91.8417 85.3536 91.6464L82.1716 88.4645C81.9763 88.2692 81.6597 88.2692 81.4645 88.4645C81.2692 88.6597 81.2692 88.9763 81.4645 89.1716L84.2929 92L81.4645 94.8284C81.2692 95.0237 81.2692 95.3403 81.4645 95.5355C81.6597 95.7308 81.9763 95.7308 82.1716 95.5355L85.3536 92.3536ZM73 92.5L85 92.5L85 91.5L73 91.5L73 92.5Z" fill="#333351"/>
<path d="M438.354 92.3536C438.549 92.1583 438.549 91.8417 438.354 91.6464L435.172 88.4645C434.976 88.2692 434.66 88.2692 434.464 88.4645C434.269 88.6597 434.269 88.9763 434.464 89.1716L437.293 92L434.464 94.8284C434.269 95.0237 434.269 95.3403 434.464 95.5355C434.66 95.7308 434.976 95.7308 435.172 95.5355L438.354 92.3536ZM426 92.5L438 92.5L438 91.5L426 91.5L426 92.5Z" fill="#333351"/>
<path d="M356.354 92.3536C356.549 92.1583 356.549 91.8417 356.354 91.6464L353.172 88.4645C352.976 88.2692 352.66 88.2692 352.464 88.4645C352.269 88.6597 352.269 88.9763 352.464 89.1716L355.293 92L352.464 94.8284C352.269 95.0237 352.269 95.3403 352.464 95.5355C352.66 95.7308 352.976 95.7308 353.172 95.5355L356.354 92.3536ZM344 92.5L356 92.5L356 91.5L344 91.5L344 92.5Z" fill="#333351"/>
<path d="M162.354 92.3536C162.549 92.1583 162.549 91.8417 162.354 91.6464L159.172 88.4645C158.976 88.2692 158.66 88.2692 158.464 88.4645C158.269 88.6597 158.269 88.9763 158.464 89.1716L161.293 92L158.464 94.8284C158.269 95.0237 158.269 95.3403 158.464 95.5355C158.66 95.7308 158.976 95.7308 159.172 95.5355L162.354 92.3536ZM150 92.5L162 92.5L162 91.5L150 91.5L150 92.5Z" fill="#333351"/>
<g filter="url(#filter2_d)">
<path d="M365.23 94.0548C364.473 92.7896 364.473 91.2104 365.23 89.9452L376.835 70.5625C377.558 69.3559 378.861 68.6173 380.267 68.6173H403.733C405.139 68.6173 406.442 69.3559 407.165 70.5625L418.77 89.9452C419.527 91.2104 419.527 92.7896 418.77 94.0548L407.165 113.437C406.442 114.644 405.139 115.383 403.733 115.383H380.267C378.861 115.383 377.558 114.644 376.835 113.437L365.23 94.0548Z" fill="#4C93E0"/>
<path d="M390.414 101.13C388.888 101.13 387.692 100.74 386.826 99.96C385.959 99.18 385.352 98.088 385.006 96.684C384.676 95.2627 384.512 93.4947 384.512 91.38C384.512 89.1613 384.702 87.35 385.084 85.946C385.482 84.542 386.193 83.4673 387.216 82.722C388.256 81.9593 389.72 81.578 391.61 81.578C392.84 81.578 393.95 81.656 394.938 81.812C395.926 81.9507 396.983 82.1587 398.11 82.436V85.4C397.434 85.3133 396.567 85.2353 395.51 85.166C394.47 85.0793 393.404 85.036 392.312 85.036C391.202 85.036 390.37 85.2353 389.816 85.634C389.261 86.0153 388.88 86.6567 388.672 87.558C388.464 88.442 388.36 89.7247 388.36 91.406C388.36 93.0873 388.464 94.37 388.672 95.254C388.88 96.1207 389.218 96.7273 389.686 97.074C390.154 97.4207 390.821 97.594 391.688 97.594C392.346 97.594 392.996 97.542 393.638 97.438C394.279 97.334 394.834 97.204 395.302 97.048V93.304H391.844V90.262C392.364 90.1927 393.04 90.132 393.872 90.08C394.721 90.028 395.527 90.002 396.29 90.002C397.364 90.002 398.266 90.028 398.994 90.08V101H396.108L395.588 99.7C394.946 100.081 394.166 100.419 393.248 100.714C392.346 100.991 391.402 101.13 390.414 101.13Z" fill="white"/>
<path d="M385.817 55.244L385.745 53.864C386.673 53.672 387.601 53.576 388.529 53.576C389.457 53.576 390.149 53.712 390.605 53.984C391.069 54.256 391.301 54.76 391.301 55.496C391.301 55.992 391.209 56.432 391.025 56.816C390.849 57.192 390.493 57.664 389.957 58.232L387.833 60.44C388.137 60.384 388.545 60.356 389.057 60.356H391.541V62H385.673V60.98C385.673 60.668 385.761 60.42 385.937 60.236L387.965 58.052C388.957 57.02 389.449 56.232 389.441 55.688C389.433 55.456 389.345 55.308 389.177 55.244C389.009 55.172 388.721 55.136 388.313 55.136C387.465 55.136 386.633 55.172 385.817 55.244ZM392.802 55.1L392.718 53.78C393.606 53.636 394.474 53.564 395.322 53.564C396.306 53.564 397.002 53.704 397.41 53.984C397.818 54.264 398.022 54.764 398.022 55.484C398.022 56.108 397.93 56.592 397.746 56.936C397.562 57.28 397.234 57.492 396.762 57.572V57.62C397.298 57.708 397.674 57.92 397.89 58.256C398.114 58.584 398.23 59.064 398.238 59.696C398.254 60.568 398.046 61.196 397.614 61.58C397.182 61.964 396.446 62.156 395.406 62.156C394.59 62.156 393.642 62.084 392.562 61.94L392.634 60.572C393.53 60.628 394.29 60.656 394.914 60.656C395.498 60.656 395.898 60.576 396.114 60.416C396.33 60.248 396.438 59.928 396.438 59.456C396.438 59.048 396.35 58.756 396.174 58.58C395.998 58.396 395.662 58.308 395.166 58.316H393.618V57.068H395.166C395.646 57.068 395.954 56.98 396.09 56.804C396.234 56.62 396.302 56.34 396.294 55.964C396.294 55.572 396.21 55.324 396.042 55.22C395.874 55.108 395.53 55.052 395.01 55.052C394.322 55.052 393.586 55.068 392.802 55.1Z" fill="#333351"/>
</g>
<g filter="url(#filter3_d)">
<rect x="171" y="68" width="48" height="48" rx="10" fill="white"/>
<rect x="172" y="69" width="46" height="46" rx="9" stroke="#4C93E0" stroke-width="2"/>
</g>
<path d="M202.119 101L200.637 88.416L197.283 101H193.669L190.315 88.572L188.885 101H185.167L187.403 81.76H191.095L195.515 96.502L199.909 81.76H203.575L205.837 101H202.119Z" fill="#4C93E0"/>
<path d="M192.834 55.1L192.75 53.78C193.638 53.636 194.506 53.564 195.354 53.564C196.338 53.564 197.034 53.704 197.442 53.984C197.85 54.264 198.054 54.764 198.054 55.484C198.054 56.108 197.962 56.592 197.778 56.936C197.594 57.28 197.266 57.492 196.794 57.572V57.62C197.33 57.708 197.706 57.92 197.922 58.256C198.146 58.584 198.262 59.064 198.27 59.696C198.286 60.568 198.078 61.196 197.646 61.58C197.214 61.964 196.478 62.156 195.438 62.156C194.622 62.156 193.674 62.084 192.594 61.94L192.666 60.572C193.562 60.628 194.322 60.656 194.946 60.656C195.53 60.656 195.93 60.576 196.146 60.416C196.362 60.248 196.47 59.928 196.47 59.456C196.47 59.048 196.382 58.756 196.206 58.58C196.03 58.396 195.694 58.308 195.198 58.316H193.65V57.068H195.198C195.678 57.068 195.986 56.98 196.122 56.804C196.266 56.62 196.334 56.34 196.326 55.964C196.326 55.572 196.242 55.324 196.074 55.22C195.906 55.108 195.562 55.052 195.042 55.052C194.354 55.052 193.618 55.068 192.834 55.1Z" fill="#333351"/>
<g filter="url(#filter4_d)">
<rect x="287" y="68" width="48" height="48" rx="10" fill="white"/>
<rect x="288" y="69" width="46" height="46" rx="9" stroke="#4C93E0" stroke-width="2"/>
</g>
<path d="M318.119 101L316.637 88.416L313.283 101H309.669L306.315 88.572L304.885 101H301.167L303.403 81.76H307.095L311.515 96.502L315.909 81.76H319.575L321.837 101H318.119Z" fill="#4C93E0"/>
<path d="M304.747 55.244L304.675 53.864C305.603 53.672 306.531 53.576 307.459 53.576C308.387 53.576 309.079 53.712 309.535 53.984C309.999 54.256 310.23 54.76 310.23 55.496C310.23 55.992 310.139 56.432 309.955 56.816C309.779 57.192 309.423 57.664 308.887 58.232L306.763 60.44C307.067 60.384 307.475 60.356 307.987 60.356H310.471V62H304.603V60.98C304.603 60.668 304.691 60.42 304.867 60.236L306.895 58.052C307.887 57.02 308.379 56.232 308.371 55.688C308.363 55.456 308.275 55.308 308.107 55.244C307.939 55.172 307.651 55.136 307.243 55.136C306.395 55.136 305.563 55.172 304.747 55.244ZM311.684 55.244L311.612 53.864C312.54 53.672 313.468 53.576 314.396 53.576C315.324 53.576 316.016 53.712 316.472 53.984C316.936 54.256 317.168 54.76 317.168 55.496C317.168 55.992 317.076 56.432 316.892 56.816C316.716 57.192 316.36 57.664 315.824 58.232L313.7 60.44C314.004 60.384 314.412 60.356 314.924 60.356H317.408V62H311.54V60.98C311.54 60.668 311.628 60.42 311.804 60.236L313.832 58.052C314.824 57.02 315.316 56.232 315.308 55.688C315.3 55.456 315.212 55.308 315.044 55.244C314.876 55.172 314.588 55.136 314.18 55.136C313.332 55.136 312.5 55.172 311.684 55.244Z" fill="#333351"/>
<path d="M63.64 147.02V151H62.9L62.8 150.3C62.22 150.853 61.5367 151.13 60.75 151.13C59.99 151.13 59.44 150.84 59.1 150.26C58.76 149.68 58.59 148.767 58.59 147.52C58.59 146.593 58.6867 145.877 58.88 145.37C59.0733 144.857 59.3767 144.497 59.79 144.29C60.2033 144.077 60.7833 143.97 61.53 143.97C62.25 143.97 62.89 144.04 63.45 144.18L63.35 144.94C62.79 144.887 62.2033 144.86 61.59 144.86C61.2767 144.86 61.0233 144.88 60.83 144.92C60.6367 144.953 60.4567 145.023 60.29 145.13C60.1233 145.237 59.9967 145.393 59.91 145.6C59.83 145.807 59.7667 146.07 59.72 146.39C59.6733 146.71 59.65 147.11 59.65 147.59C59.65 148.583 59.75 149.277 59.95 149.67C60.1567 150.063 60.5167 150.26 61.03 150.26C61.5167 150.26 62.06 150.057 62.66 149.65V147.02H63.64ZM69.3691 150.17L69.4191 150.94C68.8124 150.993 67.8257 151.02 66.4591 151.02C66.0324 151.02 65.6957 150.91 65.4491 150.69C65.2024 150.463 65.0757 150.16 65.0691 149.78V145.32C65.0757 144.94 65.2024 144.64 65.4491 144.42C65.6957 144.193 66.0324 144.08 66.4591 144.08C67.8257 144.08 68.8124 144.107 69.4191 144.16L69.3691 144.94H66.6291C66.4291 144.94 66.2857 144.99 66.1991 145.09C66.1191 145.183 66.0791 145.347 66.0791 145.58V146.96H68.9891V147.77H66.0791V149.53C66.0791 149.763 66.1191 149.93 66.1991 150.03C66.2857 150.123 66.4291 150.17 66.6291 150.17H69.3691ZM76.1443 144.1V150.61C76.1443 150.87 76.021 151 75.7743 151H74.8243C74.6243 151 74.481 150.897 74.3943 150.69L72.2443 145.99C72.0043 145.47 71.8676 145.15 71.8343 145.03H71.6943C71.7276 145.297 71.7443 145.617 71.7443 145.99V151H70.7443V144.49C70.7443 144.23 70.871 144.1 71.1243 144.1H72.0443C72.2376 144.1 72.3843 144.203 72.4843 144.41L74.5743 148.99C74.601 149.05 74.6476 149.15 74.7143 149.29C74.781 149.423 74.841 149.553 74.8943 149.68C74.9543 149.8 75.0076 149.913 75.0543 150.02H75.2043C75.171 149.62 75.1543 149.263 75.1543 148.95V144.1H76.1443ZM82.0644 150.17L82.1144 150.94C81.5077 150.993 80.521 151.02 79.1544 151.02C78.7277 151.02 78.391 150.91 78.1444 150.69C77.8977 150.463 77.771 150.16 77.7644 149.78V145.32C77.771 144.94 77.8977 144.64 78.1444 144.42C78.391 144.193 78.7277 144.08 79.1544 144.08C80.521 144.08 81.5077 144.107 82.1144 144.16L82.0644 144.94H79.3244C79.1244 144.94 78.981 144.99 78.8944 145.09C78.8144 145.183 78.7744 145.347 78.7744 145.58V146.96H81.6844V147.77H78.7744V149.53C78.7744 149.763 78.8144 149.93 78.8944 150.03C78.981 150.123 79.1244 150.17 79.3244 150.17H82.0644ZM85.8996 148.15L84.4996 147.76C84.0063 147.627 83.6529 147.403 83.4396 147.09C83.2329 146.77 83.1296 146.34 83.1296 145.8C83.1296 145.407 83.1696 145.09 83.2496 144.85C83.3363 144.603 83.4829 144.417 83.6896 144.29C83.8963 144.163 84.1263 144.08 84.3796 144.04C84.6329 144 84.9729 143.98 85.3996 143.98C86.2129 143.98 86.9063 144.05 87.4796 144.19L87.4196 144.92C86.4529 144.887 85.7929 144.87 85.4396 144.87C84.9196 144.87 84.5729 144.923 84.3996 145.03C84.2263 145.13 84.1396 145.397 84.1396 145.83C84.1396 146.17 84.1996 146.41 84.3196 146.55C84.4463 146.69 84.6629 146.8 84.9696 146.88L86.3396 147.26C86.8529 147.4 87.2129 147.627 87.4196 147.94C87.6329 148.253 87.7396 148.68 87.7396 149.22C87.7396 149.98 87.5663 150.487 87.2196 150.74C86.8729 150.993 86.2629 151.12 85.3896 151.12C84.6563 151.12 83.9329 151.053 83.2196 150.92L83.2896 150.18C84.3296 150.213 85.0363 150.23 85.4096 150.23C85.9296 150.223 86.2763 150.157 86.4496 150.03C86.6296 149.903 86.7196 149.63 86.7196 149.21C86.7196 148.857 86.6596 148.613 86.5396 148.48C86.4196 148.34 86.2063 148.23 85.8996 148.15ZM90.0744 151H89.0744V144.1H90.0744V151ZM94.2102 148.15L92.8102 147.76C92.3168 147.627 91.9635 147.403 91.7502 147.09C91.5435 146.77 91.4402 146.34 91.4402 145.8C91.4402 145.407 91.4802 145.09 91.5602 144.85C91.6468 144.603 91.7935 144.417 92.0002 144.29C92.2068 144.163 92.4368 144.08 92.6902 144.04C92.9435 144 93.2835 143.98 93.7102 143.98C94.5235 143.98 95.2168 144.05 95.7902 144.19L95.7302 144.92C94.7635 144.887 94.1035 144.87 93.7502 144.87C93.2302 144.87 92.8835 144.923 92.7102 145.03C92.5368 145.13 92.4502 145.397 92.4502 145.83C92.4502 146.17 92.5102 146.41 92.6302 146.55C92.7568 146.69 92.9735 146.8 93.2802 146.88L94.6502 147.26C95.1635 147.4 95.5235 147.627 95.7302 147.94C95.9435 148.253 96.0502 148.68 96.0502 149.22C96.0502 149.98 95.8768 150.487 95.5302 150.74C95.1835 150.993 94.5735 151.12 93.7002 151.12C92.9668 151.12 92.2435 151.053 91.5302 150.92L91.6002 150.18C92.6402 150.213 93.3468 150.23 93.7202 150.23C94.2402 150.223 94.5868 150.157 94.7602 150.03C94.9402 149.903 95.0302 149.63 95.0302 149.21C95.0302 148.857 94.9702 148.613 94.8502 148.48C94.7302 148.34 94.5168 148.23 94.2102 148.15ZM103.042 147.4V147.44C103.542 147.487 103.895 147.663 104.102 147.97C104.315 148.27 104.422 148.707 104.422 149.28C104.422 149.973 104.255 150.447 103.922 150.7C103.595 150.953 103.022 151.08 102.202 151.08C101.075 151.08 100.208 151.053 99.6017 151V144.1C100.142 144.047 100.908 144.02 101.902 144.02C102.768 144.02 103.368 144.147 103.702 144.4C104.042 144.647 104.212 145.12 104.212 145.82C104.212 146.32 104.118 146.7 103.932 146.96C103.745 147.213 103.448 147.36 103.042 147.4ZM100.582 147.04H101.982C102.462 147.04 102.792 146.967 102.972 146.82C103.158 146.667 103.252 146.373 103.252 145.94C103.252 145.513 103.152 145.23 102.952 145.09C102.752 144.943 102.385 144.87 101.852 144.87H100.582V147.04ZM100.582 150.22L102.052 150.23C102.578 150.23 102.935 150.157 103.122 150.01C103.315 149.857 103.412 149.557 103.412 149.11C103.412 148.61 103.308 148.27 103.102 148.09C102.902 147.91 102.532 147.817 101.992 147.81H100.582V150.22ZM106.802 144.1V149.52C106.802 149.753 106.849 149.92 106.942 150.02C107.036 150.113 107.199 150.16 107.432 150.16H109.882L109.932 150.93C109.286 150.99 108.399 151.02 107.272 151.02C106.292 151.02 105.802 150.567 105.802 149.66V144.1H106.802ZM113.332 143.97C114.359 143.97 115.076 144.23 115.482 144.75C115.889 145.27 116.092 146.203 116.092 147.55C116.092 148.897 115.889 149.83 115.482 150.35C115.076 150.87 114.359 151.13 113.332 151.13C112.312 151.13 111.599 150.87 111.192 150.35C110.786 149.83 110.582 148.897 110.582 147.55C110.582 146.203 110.786 145.27 111.192 144.75C111.599 144.23 112.312 143.97 113.332 143.97ZM114.672 145.44C114.426 145.053 113.979 144.86 113.332 144.86C112.686 144.86 112.239 145.053 111.992 145.44C111.752 145.827 111.632 146.53 111.632 147.55C111.632 148.57 111.752 149.273 111.992 149.66C112.239 150.047 112.686 150.24 113.332 150.24C113.979 150.24 114.426 150.047 114.672 149.66C114.919 149.273 115.042 148.57 115.042 147.55C115.042 146.53 114.919 145.827 114.672 145.44ZM121.952 150.12L122.052 150.88C121.498 151.04 120.815 151.12 120.002 151.12C118.995 151.12 118.288 150.853 117.882 150.32C117.475 149.787 117.272 148.863 117.272 147.55C117.272 146.237 117.475 145.313 117.882 144.78C118.288 144.247 118.995 143.98 120.002 143.98C120.722 143.98 121.358 144.047 121.912 144.18L121.812 144.95C121.278 144.897 120.675 144.87 120.002 144.87C119.368 144.87 118.928 145.063 118.682 145.45C118.442 145.837 118.322 146.537 118.322 147.55C118.322 148.563 118.442 149.263 118.682 149.65C118.928 150.037 119.368 150.23 120.002 150.23C120.848 150.23 121.498 150.193 121.952 150.12ZM124.954 147.81H124.174C124.221 148.09 124.244 148.327 124.244 148.52V151H123.244V144.1H124.244V146.22C124.244 146.507 124.221 146.767 124.174 147H124.954L126.984 144.1H128.074L126.124 146.92C126.018 147.073 125.878 147.233 125.704 147.4V147.43C125.891 147.59 126.051 147.763 126.184 147.95L128.204 151H127.094L124.954 147.81Z" fill="#B4B4C0"/>
<rect x="50" y="145" width="4" height="4" rx="2" fill="#B4B4C0"/>
<defs>
<filter id="filter0_d" x="83" y="68" width="68" height="73" filterUnits="userSpaceOnUse" color-interpolation-filters="sRGB">
<feFlood flood-opacity="0" result="BackgroundImageFix"/>
<feColorMatrix in="SourceAlpha" type="matrix" values="0 0 0 0 0 0 0 0 0 0 0 0 0 0 0 0 0 0 127 0"/>
<feOffset dy="15"/>
<feGaussianBlur stdDeviation="5"/>
<feColorMatrix type="matrix" values="0 0 0 0 0.298039 0 0 0 0 0.576471 0 0 0 0 0.878431 0 0 0 0.15 0"/>
<feBlend mode="normal" in2="BackgroundImageFix" result="effect1_dropShadow"/>
<feBlend mode="normal" in="SourceGraphic" in2="effect1_dropShadow" result="shape"/>
</filter>
<filter id="filter1_d" x="1.66211" y="53.72" width="74.6757" height="87.28" filterUnits="userSpaceOnUse" color-interpolation-filters="sRGB">
<feFlood flood-opacity="0" result="BackgroundImageFix"/>
<feColorMatrix in="SourceAlpha" type="matrix" values="0 0 0 0 0 0 0 0 0 0 0 0 0 0 0 0 0 0 127 0"/>
<feOffset dy="15"/>
<feGaussianBlur stdDeviation="5"/>
<feColorMatrix type="matrix" values="0 0 0 0 0.298039 0 0 0 0 0.576471 0 0 0 0 0.878431 0 0 0 0.15 0"/>
<feBlend mode="normal" in2="BackgroundImageFix" result="effect1_dropShadow"/>
<feBlend mode="normal" in="SourceGraphic" in2="effect1_dropShadow" result="shape"/>
</filter>
<filter id="filter2_d" x="354.662" y="53.564" width="74.6757" height="87.436" filterUnits="userSpaceOnUse" color-interpolation-filters="sRGB">
<feFlood flood-opacity="0" result="BackgroundImageFix"/>
<feColorMatrix in="SourceAlpha" type="matrix" values="0 0 0 0 0 0 0 0 0 0 0 0 0 0 0 0 0 0 127 0"/>
<feOffset dy="15"/>
<feGaussianBlur stdDeviation="5"/>
<feColorMatrix type="matrix" values="0 0 0 0 0.298039 0 0 0 0 0.576471 0 0 0 0 0.878431 0 0 0 0.15 0"/>
<feBlend mode="normal" in2="BackgroundImageFix" result="effect1_dropShadow"/>
<feBlend mode="normal" in="SourceGraphic" in2="effect1_dropShadow" result="shape"/>
</filter>
<filter id="filter3_d" x="161" y="68" width="68" height="73" filterUnits="userSpaceOnUse" color-interpolation-filters="sRGB">
<feFlood flood-opacity="0" result="BackgroundImageFix"/>
<feColorMatrix in="SourceAlpha" type="matrix" values="0 0 0 0 0 0 0 0 0 0 0 0 0 0 0 0 0 0 127 0"/>
<feOffset dy="15"/>
<feGaussianBlur stdDeviation="5"/>
<feColorMatrix type="matrix" values="0 0 0 0 0.298039 0 0 0 0 0.576471 0 0 0 0 0.878431 0 0 0 0.15 0"/>
<feBlend mode="normal" in2="BackgroundImageFix" result="effect1_dropShadow"/>
<feBlend mode="normal" in="SourceGraphic" in2="effect1_dropShadow" result="shape"/>
</filter>
<filter id="filter4_d" x="277" y="68" width="68" height="73" filterUnits="userSpaceOnUse" color-interpolation-filters="sRGB">
<feFlood flood-opacity="0" result="BackgroundImageFix"/>
<feColorMatrix in="SourceAlpha" type="matrix" values="0 0 0 0 0 0 0 0 0 0 0 0 0 0 0 0 0 0 127 0"/>
<feOffset dy="15"/>
<feGaussianBlur stdDeviation="5"/>
<feColorMatrix type="matrix" values="0 0 0 0 0.298039 0 0 0 0 0.576471 0 0 0 0 0.878431 0 0 0 0.15 0"/>
<feBlend mode="normal" in2="BackgroundImageFix" result="effect1_dropShadow"/>
<feBlend mode="normal" in="SourceGraphic" in2="effect1_dropShadow" result="shape"/>
</filter>
</defs>
</svg>
