<svg width="503" height="363" viewBox="0 0 503 363" fill="none" xmlns="http://www.w3.org/2000/svg">
<path fill-rule="evenodd" clip-rule="evenodd" d="M98.0058 157.179L93.5387 156.636C93.2646 156.603 93.0694 156.353 93.1028 156.079L93.6462 151.612C93.6796 151.338 93.9289 151.143 94.203 151.176C94.4771 151.21 94.6723 151.459 94.6389 151.733L94.2412 155.002L152.842 109.113L153.459 109.9L94.8578 155.789L98.1266 156.187C98.4007 156.22 98.5959 156.469 98.5625 156.744C98.5292 157.018 98.2799 157.213 98.0058 157.179Z" fill="#4C93E0"/>
<path fill-rule="evenodd" clip-rule="evenodd" d="M216.891 172.412L215.777 176.772C215.708 177.039 215.436 177.201 215.168 177.132L210.808 176.018C210.541 175.95 210.379 175.677 210.448 175.41C210.516 175.142 210.789 174.981 211.056 175.049L214.246 175.864L171.107 103.111L171.967 102.601L215.107 175.354L215.922 172.164C215.99 171.897 216.263 171.735 216.53 171.803C216.798 171.872 216.959 172.144 216.891 172.412Z" fill="#4C93E0"/>
<path fill-rule="evenodd" clip-rule="evenodd" d="M391.715 231.602L392.826 235.963C392.894 236.231 392.733 236.503 392.465 236.571L388.104 237.682C387.837 237.75 387.564 237.588 387.496 237.321C387.428 237.053 387.59 236.781 387.857 236.713L391.048 235.9L167.794 103.286L168.305 102.427L391.559 235.04L390.746 231.849C390.678 231.582 390.84 231.309 391.107 231.241C391.375 231.173 391.647 231.335 391.715 231.602Z" fill="#4C93E0"/>
<path fill-rule="evenodd" clip-rule="evenodd" d="M263.185 113.338L265.853 116.962C266.017 117.184 265.969 117.497 265.747 117.661L262.123 120.329C261.901 120.493 261.588 120.445 261.424 120.223C261.26 120.001 261.308 119.688 261.53 119.524L264.182 117.571L170.561 103.351L170.711 102.362L264.332 116.583L262.38 113.931C262.216 113.709 262.263 113.396 262.486 113.232C262.708 113.068 263.021 113.116 263.185 113.338Z" fill="#4C93E0"/>
<path fill-rule="evenodd" clip-rule="evenodd" d="M339.799 42.2454L343.829 44.2472C344.076 44.3701 344.177 44.6702 344.054 44.9175L342.052 48.9477C341.929 49.195 341.629 49.2959 341.382 49.173C341.135 49.0502 341.034 48.7501 341.157 48.5028L342.621 45.5537L170.795 103.33L170.476 102.382L342.303 44.6058L339.354 43.1409C339.106 43.0181 339.005 42.718 339.128 42.4707C339.251 42.2234 339.551 42.1225 339.799 42.2454Z" fill="#4C93E0"/>
<path fill-rule="evenodd" clip-rule="evenodd" d="M173.849 266.977L170.802 270.288C170.615 270.492 170.298 270.505 170.095 270.318L166.784 267.271C166.58 267.084 166.567 266.768 166.754 266.564C166.941 266.361 167.258 266.348 167.461 266.535L169.884 268.765L162.926 101.435L163.925 101.394L170.883 268.723L173.113 266.3C173.3 266.097 173.616 266.084 173.819 266.271C174.022 266.458 174.036 266.774 173.849 266.977Z" fill="#4C93E0"/>
<g filter="url(#filter0_d)">
<path d="M101.455 197.624C101.455 222.879 80.9821 243.352 55.7275 243.352C30.4729 243.352 10 222.879 10 197.624C10 172.37 30.4729 151.897 55.7275 151.897C80.9821 151.897 101.455 172.37 101.455 197.624Z" fill="#00367A"/>
</g>
<path d="M50.148 204.333C49.536 204.333 48.822 204.297 48.006 204.225C47.202 204.165 46.566 204.081 46.098 203.973V202.569C47.094 202.665 48.42 202.713 50.076 202.713C50.928 202.713 51.588 202.587 52.056 202.335C52.524 202.071 52.758 201.597 52.758 200.913V200.139C52.758 199.023 52.164 198.465 50.976 198.465H49.626C48.438 198.465 47.538 198.207 46.926 197.691C46.314 197.163 46.008 196.305 46.008 195.117V194.379C46.008 193.155 46.338 192.261 46.998 191.697C47.67 191.133 48.666 190.851 49.986 190.851C50.562 190.851 51.222 190.893 51.966 190.977C52.71 191.061 53.346 191.151 53.874 191.247V192.651L53.496 192.633C51.96 192.525 50.856 192.471 50.184 192.471C49.368 192.471 48.756 192.615 48.348 192.903C47.94 193.191 47.736 193.713 47.736 194.469V195.009C47.736 195.633 47.898 196.077 48.222 196.341C48.558 196.605 49.056 196.737 49.716 196.737H51.174C52.254 196.737 53.076 197.031 53.64 197.619C54.204 198.195 54.486 198.963 54.486 199.923V200.859C54.486 202.167 54.108 203.073 53.352 203.577C52.596 204.081 51.528 204.333 50.148 204.333Z" fill="white"/>
<path d="M59.5986 204.225C58.6866 204.225 57.9906 204.009 57.5106 203.577C57.0306 203.145 56.7906 202.425 56.7906 201.417V190.959H58.6086V201.147C58.6086 201.687 58.7346 202.059 58.9866 202.263C59.2386 202.467 59.5866 202.569 60.0306 202.569H64.6206V204.225H59.5986Z" fill="white"/>
<path fill-rule="evenodd" clip-rule="evenodd" d="M118.851 213.174C118.851 212.622 118.403 212.174 117.851 212.174H69.0496C68.4973 212.174 68.0496 212.622 68.0496 213.174V261.897C68.0496 262.449 68.4973 262.897 69.0496 262.897H110.085C110.332 262.897 110.571 262.805 110.755 262.639L118.521 255.623C118.731 255.434 118.851 255.164 118.851 254.881V213.174Z" fill="white"/>
<path fill-rule="evenodd" clip-rule="evenodd" d="M117.851 212.674H69.0496C68.7734 212.674 68.5496 212.898 68.5496 213.174V261.897C68.5496 262.173 68.7734 262.397 69.0496 262.397H110.085C110.209 262.397 110.328 262.351 110.42 262.268L118.186 255.252C118.291 255.158 118.351 255.023 118.351 254.881V213.174C118.351 212.898 118.127 212.674 117.851 212.674ZM117.851 212.174C118.403 212.174 118.851 212.622 118.851 213.174V254.881C118.851 255.164 118.731 255.434 118.521 255.623L110.755 262.639C110.571 262.805 110.332 262.897 110.085 262.897H69.0496C68.4973 262.897 68.0496 262.449 68.0496 261.897V213.174C68.0496 212.622 68.4973 212.174 69.0496 212.174H117.851Z" fill="#4C93E0"/>
<path fill-rule="evenodd" clip-rule="evenodd" d="M111.379 255.297C110.965 255.297 110.629 255.633 110.629 256.047V262.23H110.129V256.047C110.129 255.357 110.689 254.797 111.379 254.797H118.587V255.297H111.379Z" fill="#4C93E0"/>
<path d="M79.6706 221.807H82.2086C83.4326 221.807 84.0446 222.383 84.0446 223.535C84.0446 223.925 83.9576 224.249 83.7836 224.507C83.6156 224.759 83.3906 224.921 83.1086 224.993C83.4266 225.071 83.6966 225.245 83.9186 225.515C84.1466 225.779 84.2606 226.145 84.2606 226.613C84.2606 227.273 84.0986 227.744 83.7746 228.026C83.4506 228.308 82.9646 228.449 82.3166 228.449H79.6706V221.807ZM82.2266 224.615C82.4546 224.615 82.6376 224.531 82.7756 224.363C82.9136 224.195 82.9826 223.97 82.9826 223.688C82.9826 223.1 82.7216 222.806 82.1996 222.806H80.7776V224.615H82.2266ZM82.2806 227.45C82.5806 227.45 82.8086 227.372 82.9646 227.216C83.1206 227.054 83.1986 226.79 83.1986 226.424C83.1986 226.13 83.1116 225.899 82.9376 225.731C82.7696 225.563 82.5506 225.479 82.2806 225.479H80.7776V227.45H82.2806Z" fill="#00367A"/>
<path d="M86.7278 228.449C86.2358 228.449 85.8638 228.335 85.6118 228.107C85.3658 227.873 85.2428 227.492 85.2428 226.964V221.807H86.3498V226.784C86.3498 227.03 86.4068 227.201 86.5208 227.297C86.6408 227.393 86.8028 227.441 87.0068 227.441H89.2118V228.449H86.7278Z" fill="#00367A"/>
<path d="M92.5085 228.503C91.8665 228.503 91.3565 228.419 90.9785 228.251C90.6005 228.077 90.3155 227.75 90.1235 227.27C89.9315 226.784 89.8355 226.076 89.8355 225.146C89.8355 224.216 89.9315 223.505 90.1235 223.013C90.3215 222.521 90.6095 222.188 90.9875 222.014C91.3655 221.834 91.8725 221.744 92.5085 221.744C93.1505 221.744 93.6605 221.834 94.0385 222.014C94.4225 222.188 94.7105 222.521 94.9025 223.013C95.0945 223.499 95.1905 224.21 95.1905 225.146C95.1905 226.076 95.0915 226.784 94.8935 227.27C94.7015 227.75 94.4165 228.077 94.0385 228.251C93.6665 228.419 93.1565 228.503 92.5085 228.503ZM92.5085 227.504C92.9225 227.504 93.2375 227.444 93.4535 227.324C93.6755 227.204 93.8345 226.979 93.9305 226.649C94.0265 226.313 94.0745 225.812 94.0745 225.146C94.0745 224.456 94.0235 223.94 93.9215 223.598C93.8255 223.256 93.6695 223.028 93.4535 222.914C93.2375 222.8 92.9225 222.743 92.5085 222.743C92.1065 222.743 91.7975 222.803 91.5815 222.923C91.3655 223.037 91.2065 223.265 91.1045 223.607C91.0025 223.943 90.9515 224.456 90.9515 225.146C90.9515 225.818 90.9965 226.319 91.0865 226.649C91.1825 226.979 91.3385 227.204 91.5545 227.324C91.7705 227.444 92.0885 227.504 92.5085 227.504Z" fill="#00367A"/>
<path d="M98.4783 228.503C97.9143 228.503 97.4643 228.416 97.1283 228.242C96.7923 228.062 96.5343 227.726 96.3543 227.234C96.1803 226.742 96.0933 226.031 96.0933 225.101C96.0933 224.219 96.1833 223.535 96.3633 223.049C96.5433 222.557 96.8073 222.218 97.1553 222.032C97.5033 221.84 97.9533 221.744 98.5053 221.744C98.8653 221.744 99.2253 221.774 99.5853 221.834C99.9513 221.888 100.263 221.954 100.521 222.032V222.887C100.341 222.851 100.083 222.818 99.7473 222.788C99.4173 222.758 99.0783 222.743 98.7303 222.743C98.3343 222.743 98.0283 222.806 97.8123 222.932C97.6023 223.052 97.4493 223.28 97.3533 223.616C97.2573 223.952 97.2093 224.453 97.2093 225.119C97.2093 225.785 97.2543 226.286 97.3443 226.622C97.4343 226.958 97.5843 227.189 97.7943 227.315C98.0043 227.441 98.3133 227.504 98.7213 227.504C99.4053 227.504 100.005 227.471 100.521 227.405V228.26C99.9753 228.422 99.2943 228.503 98.4783 228.503Z" fill="#00367A"/>
<path d="M101.52 221.807H102.627V224.642H103.617L105.138 221.807H106.326L104.499 225.137L106.371 228.449H105.183L103.608 225.65H102.627V228.449H101.52V221.807Z" fill="#00367A"/>
<g filter="url(#filter1_d)">
<path d="M190 88.397C190 105.794 175.673 119.897 158 119.897C140.327 119.897 126 105.794 126 88.397C126 71 140.327 56.897 158 56.897C175.673 56.897 190 71 190 88.397Z" fill="#1959AA"/>
</g>
<path d="M150.95 81.631H153.254L157.682 94.897H155.792L154.622 91.423H149.546L148.394 94.897H146.522L150.95 81.631ZM154.172 89.785L152.084 83.197L149.978 89.785H154.172Z" fill="white"/>
<path d="M159.513 81.631H164.877C166.473 81.631 167.613 82.189 168.297 83.305C168.981 84.421 169.323 86.077 169.323 88.273C169.323 90.421 168.945 92.065 168.189 93.205C167.445 94.333 166.341 94.897 164.877 94.897H159.513V81.631ZM164.715 93.277C166.575 93.277 167.505 91.609 167.505 88.273C167.505 87.013 167.403 86.017 167.199 85.285C167.007 84.553 166.707 84.031 166.299 83.719C165.903 83.407 165.375 83.251 164.715 83.251H161.331V93.277H164.715Z" fill="white"/>
<path fill-rule="evenodd" clip-rule="evenodd" d="M221.851 95.897C221.851 95.3447 221.403 94.897 220.851 94.897H172.05C171.497 94.897 171.05 95.3447 171.05 95.897V144.62C171.05 145.172 171.497 145.62 172.05 145.62H213.085C213.332 145.62 213.571 145.528 213.755 145.362L221.521 138.346C221.731 138.157 221.851 137.887 221.851 137.604V95.897Z" fill="white"/>
<path fill-rule="evenodd" clip-rule="evenodd" d="M220.851 95.397H172.05C171.773 95.397 171.55 95.6208 171.55 95.897V144.62C171.55 144.896 171.773 145.12 172.05 145.12H213.085C213.209 145.12 213.328 145.074 213.42 144.991L221.186 137.975C221.291 137.88 221.351 137.746 221.351 137.604V95.897C221.351 95.6208 221.127 95.397 220.851 95.397ZM220.851 94.897C221.403 94.897 221.851 95.3447 221.851 95.897V137.604C221.851 137.887 221.731 138.157 221.521 138.346L213.755 145.362C213.571 145.528 213.332 145.62 213.085 145.62H172.05C171.497 145.62 171.05 145.172 171.05 144.62V95.897C171.05 95.3447 171.497 94.897 172.05 94.897H220.851Z" fill="#4C93E0"/>
<path d="M184.799 115.586L186.435 117.426L188.846 117.922L188.07 120.258L188.846 122.595L186.435 123.091L184.799 124.931L183.164 123.091L180.753 122.595L181.529 120.258L180.753 117.922L183.164 117.426L184.799 115.586Z" fill="#00367A"/>
<path d="M197.144 115.586L198.779 117.426L201.19 117.922L200.415 120.258L201.19 122.595L198.779 123.091L197.144 124.931L195.509 123.091L193.098 122.595L193.873 120.258L193.098 117.922L195.509 117.426L197.144 115.586Z" fill="#00367A"/>
<path d="M209.489 115.586L211.124 117.426L213.535 117.922L212.759 120.258L213.535 122.595L211.124 123.091L209.489 124.931L207.853 123.091L205.442 122.595L206.218 120.258L205.442 117.922L207.853 117.426L209.489 115.586Z" fill="#00367A"/>
<path fill-rule="evenodd" clip-rule="evenodd" d="M214.379 138.02C213.965 138.02 213.629 138.356 213.629 138.77V144.953H213.129V138.77C213.129 138.08 213.689 137.52 214.379 137.52H221.587V138.02H214.379Z" fill="#4C93E0"/>
<path d="M182.671 104.53H185.209C186.433 104.53 187.045 105.106 187.045 106.258C187.045 106.648 186.958 106.972 186.784 107.23C186.616 107.482 186.391 107.644 186.109 107.716C186.427 107.794 186.697 107.968 186.919 108.238C187.147 108.502 187.261 108.868 187.261 109.336C187.261 109.996 187.099 110.467 186.775 110.749C186.451 111.031 185.965 111.172 185.317 111.172H182.671V104.53ZM185.227 107.338C185.455 107.338 185.638 107.254 185.776 107.086C185.914 106.918 185.983 106.693 185.983 106.411C185.983 105.823 185.722 105.529 185.2 105.529H183.778V107.338H185.227ZM185.281 110.173C185.581 110.173 185.809 110.095 185.965 109.939C186.121 109.777 186.199 109.513 186.199 109.147C186.199 108.853 186.112 108.622 185.938 108.454C185.77 108.286 185.551 108.202 185.281 108.202H183.778V110.173H185.281Z" fill="#00367A"/>
<path d="M189.728 111.172C189.236 111.172 188.864 111.058 188.612 110.83C188.366 110.596 188.243 110.215 188.243 109.687V104.53H189.35V109.507C189.35 109.753 189.407 109.924 189.521 110.02C189.641 110.116 189.803 110.164 190.007 110.164H192.212V111.172H189.728Z" fill="#00367A"/>
<path d="M195.509 111.226C194.867 111.226 194.357 111.142 193.979 110.974C193.601 110.8 193.315 110.473 193.123 109.993C192.931 109.507 192.835 108.799 192.835 107.869C192.835 106.939 192.931 106.228 193.123 105.736C193.321 105.244 193.61 104.911 193.988 104.737C194.366 104.557 194.873 104.467 195.509 104.467C196.151 104.467 196.66 104.557 197.038 104.737C197.422 104.911 197.711 105.244 197.903 105.736C198.095 106.222 198.191 106.933 198.191 107.869C198.191 108.799 198.092 109.507 197.894 109.993C197.702 110.473 197.416 110.8 197.038 110.974C196.666 111.142 196.157 111.226 195.509 111.226ZM195.509 110.227C195.923 110.227 196.237 110.167 196.453 110.047C196.675 109.927 196.835 109.702 196.931 109.372C197.027 109.036 197.075 108.535 197.075 107.869C197.075 107.179 197.024 106.663 196.922 106.321C196.826 105.979 196.669 105.751 196.453 105.637C196.237 105.523 195.923 105.466 195.509 105.466C195.107 105.466 194.797 105.526 194.582 105.646C194.365 105.76 194.206 105.988 194.104 106.33C194.002 106.666 193.951 107.179 193.951 107.869C193.951 108.541 193.997 109.042 194.087 109.372C194.183 109.702 194.338 109.927 194.554 110.047C194.77 110.167 195.089 110.227 195.509 110.227Z" fill="#00367A"/>
<path d="M201.478 111.226C200.914 111.226 200.464 111.139 200.128 110.965C199.792 110.785 199.534 110.449 199.354 109.957C199.18 109.465 199.093 108.754 199.093 107.824C199.093 106.942 199.183 106.258 199.363 105.772C199.543 105.28 199.807 104.941 200.155 104.755C200.503 104.563 200.953 104.467 201.505 104.467C201.865 104.467 202.225 104.497 202.585 104.557C202.951 104.611 203.263 104.677 203.521 104.755V105.61C203.341 105.574 203.083 105.541 202.747 105.511C202.417 105.481 202.078 105.466 201.73 105.466C201.334 105.466 201.028 105.529 200.812 105.655C200.602 105.775 200.449 106.003 200.353 106.339C200.257 106.675 200.209 107.176 200.209 107.842C200.209 108.508 200.254 109.009 200.344 109.345C200.434 109.681 200.584 109.912 200.794 110.038C201.004 110.164 201.313 110.227 201.721 110.227C202.405 110.227 203.005 110.194 203.521 110.128V110.983C202.975 111.145 202.294 111.226 201.478 111.226Z" fill="#00367A"/>
<path d="M204.52 104.53H205.627V107.365H206.617L208.138 104.53H209.326L207.499 107.86L209.371 111.172H208.183L206.608 108.373H205.627V111.172H204.52V104.53Z" fill="#00367A"/>
<g filter="url(#filter2_d)">
<path d="M262.05 212.397C262.05 229.794 247.723 243.897 230.05 243.897C212.376 243.897 198.05 229.794 198.05 212.397C198.05 195 212.376 180.897 230.05 180.897C247.723 180.897 262.05 195 262.05 212.397Z" fill="#1959AA"/>
</g>
<path d="M223.344 206.631H225.648L230.076 219.897H228.186L227.016 216.423H221.94L220.788 219.897H218.916L223.344 206.631ZM226.566 214.785L224.478 208.197L222.372 214.785H226.566Z" fill="white"/>
<path d="M231.908 206.631H237.272C238.868 206.631 240.008 207.189 240.692 208.305C241.376 209.421 241.718 211.077 241.718 213.273C241.718 215.421 241.34 217.065 240.584 218.205C239.84 219.333 238.736 219.897 237.272 219.897H231.908V206.631ZM237.11 218.277C238.97 218.277 239.9 216.609 239.9 213.273C239.9 212.013 239.798 211.017 239.594 210.285C239.402 209.553 239.102 209.031 238.694 208.719C238.298 208.407 237.77 208.251 237.11 208.251H233.726V218.277H237.11Z" fill="white"/>
<path fill-rule="evenodd" clip-rule="evenodd" d="M293.851 219.897C293.851 219.345 293.403 218.897 292.851 218.897H244.05C243.497 218.897 243.05 219.345 243.05 219.897V268.62C243.05 269.172 243.497 269.62 244.05 269.62H285.085C285.332 269.62 285.571 269.528 285.755 269.362L293.521 262.346C293.731 262.157 293.851 261.887 293.851 261.604V219.897Z" fill="white"/>
<path fill-rule="evenodd" clip-rule="evenodd" d="M292.851 219.397H244.05C243.773 219.397 243.55 219.621 243.55 219.897V268.62C243.55 268.896 243.773 269.12 244.05 269.12H285.085C285.209 269.12 285.328 269.074 285.42 268.991L293.186 261.975C293.291 261.88 293.351 261.746 293.351 261.604V219.897C293.351 219.621 293.127 219.397 292.851 219.397ZM292.851 218.897C293.403 218.897 293.851 219.345 293.851 219.897V261.604C293.851 261.887 293.731 262.157 293.521 262.346L285.755 269.362C285.571 269.528 285.332 269.62 285.085 269.62H244.05C243.497 269.62 243.05 269.172 243.05 268.62V219.897C243.05 219.345 243.497 218.897 244.05 218.897H292.851Z" fill="#4C93E0"/>
<path fill-rule="evenodd" clip-rule="evenodd" d="M286.379 262.02C285.965 262.02 285.629 262.356 285.629 262.77V268.953H285.129V262.77C285.129 262.08 285.689 261.52 286.379 261.52H293.587V262.02H286.379Z" fill="#4C93E0"/>
<path d="M254.671 228.53H257.209C258.433 228.53 259.045 229.106 259.045 230.258C259.045 230.648 258.958 230.972 258.784 231.23C258.616 231.482 258.391 231.644 258.109 231.716C258.427 231.794 258.697 231.968 258.919 232.238C259.147 232.502 259.261 232.868 259.261 233.336C259.261 233.996 259.099 234.467 258.775 234.749C258.451 235.031 257.965 235.172 257.317 235.172H254.671V228.53ZM257.227 231.338C257.455 231.338 257.638 231.254 257.776 231.086C257.914 230.918 257.983 230.693 257.983 230.411C257.983 229.823 257.722 229.529 257.2 229.529H255.778V231.338H257.227ZM257.281 234.173C257.581 234.173 257.809 234.095 257.965 233.939C258.121 233.777 258.199 233.513 258.199 233.147C258.199 232.853 258.112 232.622 257.938 232.454C257.77 232.286 257.551 232.202 257.281 232.202H255.778V234.173H257.281Z" fill="#00367A"/>
<path d="M261.728 235.172C261.236 235.172 260.864 235.058 260.612 234.83C260.366 234.596 260.243 234.215 260.243 233.687V228.53H261.35V233.507C261.35 233.753 261.407 233.924 261.521 234.02C261.641 234.116 261.803 234.164 262.007 234.164H264.212V235.172H261.728Z" fill="#00367A"/>
<path d="M267.509 235.226C266.867 235.226 266.357 235.142 265.979 234.974C265.601 234.8 265.315 234.473 265.123 233.993C264.931 233.507 264.835 232.799 264.835 231.869C264.835 230.939 264.931 230.228 265.123 229.736C265.321 229.244 265.61 228.911 265.988 228.737C266.366 228.557 266.873 228.467 267.509 228.467C268.151 228.467 268.66 228.557 269.038 228.737C269.422 228.911 269.711 229.244 269.903 229.736C270.095 230.222 270.191 230.933 270.191 231.869C270.191 232.799 270.092 233.507 269.894 233.993C269.702 234.473 269.416 234.8 269.038 234.974C268.666 235.142 268.157 235.226 267.509 235.226ZM267.509 234.227C267.923 234.227 268.237 234.167 268.453 234.047C268.675 233.927 268.835 233.702 268.931 233.372C269.027 233.036 269.075 232.535 269.075 231.869C269.075 231.179 269.024 230.663 268.922 230.321C268.826 229.979 268.669 229.751 268.453 229.637C268.237 229.523 267.923 229.466 267.509 229.466C267.107 229.466 266.797 229.526 266.582 229.646C266.365 229.76 266.206 229.988 266.104 230.33C266.002 230.666 265.951 231.179 265.951 231.869C265.951 232.541 265.997 233.042 266.087 233.372C266.183 233.702 266.338 233.927 266.554 234.047C266.77 234.167 267.089 234.227 267.509 234.227Z" fill="#00367A"/>
<path d="M273.478 235.226C272.914 235.226 272.464 235.139 272.128 234.965C271.792 234.785 271.534 234.449 271.354 233.957C271.18 233.465 271.093 232.754 271.093 231.824C271.093 230.942 271.183 230.258 271.363 229.772C271.543 229.28 271.807 228.941 272.155 228.755C272.503 228.563 272.953 228.467 273.505 228.467C273.865 228.467 274.225 228.497 274.585 228.557C274.951 228.611 275.263 228.677 275.521 228.755V229.61C275.341 229.574 275.083 229.541 274.747 229.511C274.417 229.481 274.078 229.466 273.73 229.466C273.334 229.466 273.028 229.529 272.812 229.655C272.602 229.775 272.449 230.003 272.353 230.339C272.257 230.675 272.209 231.176 272.209 231.842C272.209 232.508 272.254 233.009 272.344 233.345C272.434 233.681 272.584 233.912 272.794 234.038C273.004 234.164 273.313 234.227 273.721 234.227C274.405 234.227 275.005 234.194 275.521 234.128V234.983C274.975 235.145 274.294 235.226 273.478 235.226Z" fill="#00367A"/>
<path d="M276.52 228.53H277.627V231.365H278.617L280.138 228.53H281.326L279.499 231.86L281.371 235.172H280.183L278.608 232.373H277.627V235.172H276.52V228.53Z" fill="#00367A"/>
<g filter="url(#filter3_d)">
<path d="M200.05 303.397C200.05 320.794 185.723 334.897 168.05 334.897C150.376 334.897 136.05 320.794 136.05 303.397C136.05 286 150.376 271.897 168.05 271.897C185.723 271.897 200.05 286 200.05 303.397Z" fill="#1959AA"/>
</g>
<path d="M161.344 297.631H163.648L168.076 310.897H166.186L165.016 307.423H159.94L158.788 310.897H156.916L161.344 297.631ZM164.566 305.785L162.478 299.197L160.372 305.785H164.566Z" fill="white"/>
<path d="M169.908 297.631H175.272C176.868 297.631 178.008 298.189 178.692 299.305C179.376 300.421 179.718 302.077 179.718 304.273C179.718 306.421 179.34 308.065 178.584 309.205C177.84 310.333 176.736 310.897 175.272 310.897H169.908V297.631ZM175.11 309.277C176.97 309.277 177.9 307.609 177.9 304.273C177.9 303.013 177.798 302.017 177.594 301.285C177.402 300.553 177.102 300.031 176.694 299.719C176.298 299.407 175.77 299.251 175.11 299.251H171.726V309.277H175.11Z" fill="white"/>
<path fill-rule="evenodd" clip-rule="evenodd" d="M231.851 310.897C231.851 310.345 231.403 309.897 230.851 309.897H182.05C181.497 309.897 181.05 310.345 181.05 310.897V359.62C181.05 360.172 181.497 360.62 182.05 360.62H223.085C223.332 360.62 223.571 360.528 223.755 360.362L231.521 353.346C231.731 353.157 231.851 352.887 231.851 352.604V310.897Z" fill="white"/>
<path fill-rule="evenodd" clip-rule="evenodd" d="M230.851 310.397H182.05C181.773 310.397 181.55 310.621 181.55 310.897V359.62C181.55 359.896 181.773 360.12 182.05 360.12H223.085C223.209 360.12 223.328 360.074 223.42 359.991L231.186 352.975C231.291 352.88 231.351 352.746 231.351 352.604V310.897C231.351 310.621 231.127 310.397 230.851 310.397ZM230.851 309.897C231.403 309.897 231.851 310.345 231.851 310.897V352.604C231.851 352.887 231.731 353.157 231.521 353.346L223.755 360.362C223.571 360.528 223.332 360.62 223.085 360.62H182.05C181.497 360.62 181.05 360.172 181.05 359.62V310.897C181.05 310.345 181.497 309.897 182.05 309.897H230.851Z" fill="#4C93E0"/>
<path d="M194.799 330.375L196.435 332.215L198.846 332.712L198.07 335.048L198.846 337.384L196.435 337.88L194.799 339.72L193.164 337.88L190.753 337.384L191.529 335.048L190.753 332.712L193.164 332.215L194.799 330.375Z" fill="#00367A"/>
<path d="M206.806 330.375L208.441 332.215L210.852 332.712L210.077 335.048L210.852 337.384L208.441 337.88L206.806 339.72L205.171 337.88L202.76 337.384L203.535 335.048L202.76 332.712L205.171 332.215L206.806 330.375Z" fill="#00367A"/>
<path d="M218.813 330.375L220.448 332.215L222.859 332.712L222.083 335.048L222.859 337.384L220.448 337.88L218.813 339.72L217.177 337.88L214.766 337.384L215.542 335.048L214.766 332.712L217.177 332.215L218.813 330.375Z" fill="#00367A"/>
<path fill-rule="evenodd" clip-rule="evenodd" d="M224.379 353.02C223.965 353.02 223.629 353.356 223.629 353.77V359.953H223.129V353.77C223.129 353.08 223.689 352.52 224.379 352.52H231.587V353.02H224.379Z" fill="#4C93E0"/>
<path d="M192.671 319.53H195.209C196.433 319.53 197.045 320.106 197.045 321.258C197.045 321.648 196.958 321.972 196.784 322.23C196.616 322.482 196.391 322.644 196.109 322.716C196.427 322.794 196.697 322.968 196.919 323.238C197.147 323.502 197.261 323.868 197.261 324.336C197.261 324.996 197.099 325.467 196.775 325.749C196.451 326.031 195.965 326.172 195.317 326.172H192.671V319.53ZM195.227 322.338C195.455 322.338 195.638 322.254 195.776 322.086C195.914 321.918 195.983 321.693 195.983 321.411C195.983 320.823 195.722 320.529 195.2 320.529H193.778V322.338H195.227ZM195.281 325.173C195.581 325.173 195.809 325.095 195.965 324.939C196.121 324.777 196.199 324.513 196.199 324.147C196.199 323.853 196.112 323.622 195.938 323.454C195.77 323.286 195.551 323.202 195.281 323.202H193.778V325.173H195.281Z" fill="#00367A"/>
<path d="M199.728 326.172C199.236 326.172 198.864 326.058 198.612 325.83C198.366 325.596 198.243 325.215 198.243 324.687V319.53H199.35V324.507C199.35 324.753 199.407 324.924 199.521 325.02C199.641 325.116 199.803 325.164 200.007 325.164H202.212V326.172H199.728Z" fill="#00367A"/>
<path d="M205.509 326.226C204.867 326.226 204.357 326.142 203.979 325.974C203.601 325.8 203.315 325.473 203.123 324.993C202.931 324.507 202.835 323.799 202.835 322.869C202.835 321.939 202.931 321.228 203.123 320.736C203.321 320.244 203.61 319.911 203.988 319.737C204.366 319.557 204.873 319.467 205.509 319.467C206.151 319.467 206.66 319.557 207.038 319.737C207.422 319.911 207.711 320.244 207.903 320.736C208.095 321.222 208.191 321.933 208.191 322.869C208.191 323.799 208.092 324.507 207.894 324.993C207.702 325.473 207.416 325.8 207.038 325.974C206.666 326.142 206.157 326.226 205.509 326.226ZM205.509 325.227C205.923 325.227 206.237 325.167 206.453 325.047C206.675 324.927 206.835 324.702 206.931 324.372C207.027 324.036 207.075 323.535 207.075 322.869C207.075 322.179 207.024 321.663 206.922 321.321C206.826 320.979 206.669 320.751 206.453 320.637C206.237 320.523 205.923 320.466 205.509 320.466C205.107 320.466 204.797 320.526 204.582 320.646C204.365 320.76 204.206 320.988 204.104 321.33C204.002 321.666 203.951 322.179 203.951 322.869C203.951 323.541 203.997 324.042 204.087 324.372C204.183 324.702 204.338 324.927 204.554 325.047C204.77 325.167 205.089 325.227 205.509 325.227Z" fill="#00367A"/>
<path d="M211.478 326.226C210.914 326.226 210.464 326.139 210.128 325.965C209.792 325.785 209.534 325.449 209.354 324.957C209.18 324.465 209.093 323.754 209.093 322.824C209.093 321.942 209.183 321.258 209.363 320.772C209.543 320.28 209.807 319.941 210.155 319.755C210.503 319.563 210.953 319.467 211.505 319.467C211.865 319.467 212.225 319.497 212.585 319.557C212.951 319.611 213.263 319.677 213.521 319.755V320.61C213.341 320.574 213.083 320.541 212.747 320.511C212.417 320.481 212.078 320.466 211.73 320.466C211.334 320.466 211.028 320.529 210.812 320.655C210.602 320.775 210.449 321.003 210.353 321.339C210.257 321.675 210.209 322.176 210.209 322.842C210.209 323.508 210.254 324.009 210.344 324.345C210.434 324.681 210.584 324.912 210.794 325.038C211.004 325.164 211.313 325.227 211.721 325.227C212.405 325.227 213.005 325.194 213.521 325.128V325.983C212.975 326.145 212.294 326.226 211.478 326.226Z" fill="#00367A"/>
<path d="M214.52 319.53H215.627V322.365H216.617L218.138 319.53H219.326L217.499 322.86L219.371 326.172H218.183L216.608 323.373H215.627V326.172H214.52V319.53Z" fill="#00367A"/>
<g filter="url(#filter4_d)">
<path d="M330.05 125.397C330.05 142.794 315.723 156.897 298.05 156.897C280.376 156.897 266.05 142.794 266.05 125.397C266.05 108 280.376 93.897 298.05 93.897C315.723 93.897 330.05 108 330.05 125.397Z" fill="#1959AA"/>
</g>
<path d="M291.344 119.631H293.648L298.076 132.897H296.186L295.016 129.423H289.94L288.788 132.897H286.916L291.344 119.631ZM294.566 127.785L292.478 121.197L290.372 127.785H294.566Z" fill="white"/>
<path d="M299.908 119.631H305.272C306.868 119.631 308.008 120.189 308.692 121.305C309.376 122.421 309.718 124.077 309.718 126.273C309.718 128.421 309.34 130.065 308.584 131.205C307.84 132.333 306.736 132.897 305.272 132.897H299.908V119.631ZM305.11 131.277C306.97 131.277 307.9 129.609 307.9 126.273C307.9 125.013 307.798 124.017 307.594 123.285C307.402 122.553 307.102 122.031 306.694 121.719C306.298 121.407 305.77 121.251 305.11 121.251H301.726V131.277H305.11Z" fill="white"/>
<path fill-rule="evenodd" clip-rule="evenodd" d="M361.851 132.897C361.851 132.345 361.403 131.897 360.851 131.897H312.05C311.497 131.897 311.05 132.345 311.05 132.897V181.62C311.05 182.172 311.497 182.62 312.05 182.62H353.085C353.332 182.62 353.571 182.528 353.755 182.362L361.521 175.346C361.731 175.157 361.851 174.887 361.851 174.604V132.897Z" fill="white"/>
<path fill-rule="evenodd" clip-rule="evenodd" d="M360.851 132.397H312.05C311.773 132.397 311.55 132.621 311.55 132.897V181.62C311.55 181.896 311.773 182.12 312.05 182.12H353.085C353.209 182.12 353.328 182.074 353.42 181.991L361.186 174.975C361.291 174.88 361.351 174.746 361.351 174.604V132.897C361.351 132.621 361.127 132.397 360.851 132.397ZM360.851 131.897C361.403 131.897 361.851 132.345 361.851 132.897V174.604C361.851 174.887 361.731 175.157 361.521 175.346L353.755 182.362C353.571 182.528 353.332 182.62 353.085 182.62H312.05C311.497 182.62 311.05 182.172 311.05 181.62V132.897C311.05 132.345 311.497 131.897 312.05 131.897H360.851Z" fill="#4C93E0"/>
<path fill-rule="evenodd" clip-rule="evenodd" d="M354.379 175.02C353.965 175.02 353.629 175.356 353.629 175.77V181.953H353.129V175.77C353.129 175.08 353.689 174.52 354.379 174.52H361.587V175.02H354.379Z" fill="#4C93E0"/>
<path d="M322.671 141.53H325.209C326.433 141.53 327.045 142.106 327.045 143.258C327.045 143.648 326.958 143.972 326.784 144.23C326.616 144.482 326.391 144.644 326.109 144.716C326.427 144.794 326.697 144.968 326.919 145.238C327.147 145.502 327.261 145.868 327.261 146.336C327.261 146.996 327.099 147.467 326.775 147.749C326.451 148.031 325.965 148.172 325.317 148.172H322.671V141.53ZM325.227 144.338C325.455 144.338 325.638 144.254 325.776 144.086C325.914 143.918 325.983 143.693 325.983 143.411C325.983 142.823 325.722 142.529 325.2 142.529H323.778V144.338H325.227ZM325.281 147.173C325.581 147.173 325.809 147.095 325.965 146.939C326.121 146.777 326.199 146.513 326.199 146.147C326.199 145.853 326.112 145.622 325.938 145.454C325.77 145.286 325.551 145.202 325.281 145.202H323.778V147.173H325.281Z" fill="#00367A"/>
<path d="M329.728 148.172C329.236 148.172 328.864 148.058 328.612 147.83C328.366 147.596 328.243 147.215 328.243 146.687V141.53H329.35V146.507C329.35 146.753 329.407 146.924 329.521 147.02C329.641 147.116 329.803 147.164 330.007 147.164H332.212V148.172H329.728Z" fill="#00367A"/>
<path d="M335.509 148.226C334.867 148.226 334.357 148.142 333.979 147.974C333.601 147.8 333.315 147.473 333.123 146.993C332.931 146.507 332.835 145.799 332.835 144.869C332.835 143.939 332.931 143.228 333.123 142.736C333.321 142.244 333.61 141.911 333.988 141.737C334.366 141.557 334.873 141.467 335.509 141.467C336.151 141.467 336.66 141.557 337.038 141.737C337.422 141.911 337.711 142.244 337.903 142.736C338.095 143.222 338.191 143.933 338.191 144.869C338.191 145.799 338.092 146.507 337.894 146.993C337.702 147.473 337.416 147.8 337.038 147.974C336.666 148.142 336.157 148.226 335.509 148.226ZM335.509 147.227C335.923 147.227 336.237 147.167 336.453 147.047C336.675 146.927 336.835 146.702 336.931 146.372C337.027 146.036 337.075 145.535 337.075 144.869C337.075 144.179 337.024 143.663 336.922 143.321C336.826 142.979 336.669 142.751 336.453 142.637C336.237 142.523 335.923 142.466 335.509 142.466C335.107 142.466 334.797 142.526 334.582 142.646C334.365 142.76 334.206 142.988 334.104 143.33C334.002 143.666 333.951 144.179 333.951 144.869C333.951 145.541 333.997 146.042 334.087 146.372C334.183 146.702 334.338 146.927 334.554 147.047C334.77 147.167 335.089 147.227 335.509 147.227Z" fill="#00367A"/>
<path d="M341.478 148.226C340.914 148.226 340.464 148.139 340.128 147.965C339.792 147.785 339.534 147.449 339.354 146.957C339.18 146.465 339.093 145.754 339.093 144.824C339.093 143.942 339.183 143.258 339.363 142.772C339.543 142.28 339.807 141.941 340.155 141.755C340.503 141.563 340.953 141.467 341.505 141.467C341.865 141.467 342.225 141.497 342.585 141.557C342.951 141.611 343.263 141.677 343.521 141.755V142.61C343.341 142.574 343.083 142.541 342.747 142.511C342.417 142.481 342.078 142.466 341.73 142.466C341.334 142.466 341.028 142.529 340.812 142.655C340.602 142.775 340.449 143.003 340.353 143.339C340.257 143.675 340.209 144.176 340.209 144.842C340.209 145.508 340.254 146.009 340.344 146.345C340.434 146.681 340.584 146.912 340.794 147.038C341.004 147.164 341.313 147.227 341.721 147.227C342.405 147.227 343.005 147.194 343.521 147.128V147.983C342.975 148.145 342.294 148.226 341.478 148.226Z" fill="#00367A"/>
<path d="M344.52 141.53H345.627V144.365H346.617L348.138 141.53H349.326L347.499 144.86L349.371 148.172H348.183L346.608 145.373H345.627V148.172H344.52V141.53Z" fill="#00367A"/>
<g filter="url(#filter5_d)">
<path d="M401.057 24.0287C401.057 37.2995 390.299 48.0575 377.029 48.0575C363.758 48.0575 353 37.2995 353 24.0287C353 10.758 363.758 0 377.029 0C390.299 0 401.057 10.758 401.057 24.0287Z" fill="#4C93E0"/>
</g>
<path d="M372.512 17.734H373.988L380.486 27.904V17.734H382.286V31H380.828L374.33 20.83V31H372.512V17.734Z" fill="white"/>
<path fill-rule="evenodd" clip-rule="evenodd" d="M420.121 30.8379C420.121 30.2856 419.674 29.8379 419.121 29.8379H385.121C384.569 29.8379 384.121 30.2856 384.121 30.8379V65.8969C384.121 66.4492 384.569 66.8969 385.121 66.8969H413.788C414.041 66.8969 414.285 66.8011 414.47 66.6287L419.803 61.6617C420.006 61.4725 420.121 61.2075 420.121 60.9299V30.8379Z" fill="white"/>
<path fill-rule="evenodd" clip-rule="evenodd" d="M419.121 30.3379H385.121C384.845 30.3379 384.621 30.5617 384.621 30.8379V65.8969C384.621 66.1731 384.845 66.3969 385.121 66.3969H413.788C413.915 66.3969 414.037 66.349 414.129 66.2628L419.462 61.2958C419.564 61.2012 419.621 61.0687 419.621 60.9299V30.8379C419.621 30.5617 419.398 30.3379 419.121 30.3379ZM419.121 29.8379C419.674 29.8379 420.121 30.2856 420.121 30.8379V60.9299C420.121 61.2075 420.006 61.4725 419.803 61.6617L414.47 66.6287C414.285 66.8011 414.041 66.8969 413.788 66.8969H385.121C384.569 66.8969 384.121 66.4492 384.121 65.8969V30.8379C384.121 30.2856 384.569 29.8379 385.121 29.8379H419.121Z" fill="#4C93E0"/>
<path fill-rule="evenodd" clip-rule="evenodd" d="M415.118 61.4116C414.704 61.4116 414.368 61.7474 414.368 62.1616V66.4096H413.868V62.1616C413.868 61.4713 414.428 60.9116 415.118 60.9116H419.935V61.4116H415.118Z" fill="#4C93E0"/>
<path d="M391.604 38.9468H393.578C394.53 38.9468 395.006 39.3948 395.006 40.2908C395.006 40.5942 394.939 40.8462 394.803 41.0468C394.673 41.2428 394.498 41.3688 394.278 41.4248C394.526 41.4855 394.736 41.6208 394.908 41.8308C395.086 42.0362 395.174 42.3208 395.174 42.6848C395.174 43.1982 395.048 43.5645 394.796 43.7838C394.544 44.0032 394.166 44.1128 393.662 44.1128H391.604V38.9468ZM393.592 41.1308C393.77 41.1308 393.912 41.0655 394.019 40.9348C394.127 40.8042 394.18 40.6292 394.18 40.4098C394.18 39.9525 393.977 39.7238 393.571 39.7238H392.465V41.1308H393.592ZM393.634 43.3358C393.868 43.3358 394.045 43.2752 394.166 43.1538C394.288 43.0278 394.348 42.8225 394.348 42.5378C394.348 42.3092 394.281 42.1295 394.145 41.9988C394.015 41.8682 393.844 41.8028 393.634 41.8028H392.465V43.3358H393.634Z" fill="#00367A"/>
<path d="M397.093 44.1128C396.711 44.1128 396.421 44.0242 396.225 43.8468C396.034 43.6648 395.938 43.3685 395.938 42.9578V38.9468H396.799V42.8178C396.799 43.0092 396.844 43.1422 396.932 43.2168C397.026 43.2915 397.152 43.3288 397.31 43.3288H399.025V44.1128H397.093Z" fill="#00367A"/>
<path d="M401.59 44.1548C401.09 44.1548 400.694 44.0895 400.4 43.9588C400.106 43.8235 399.884 43.5692 399.735 43.1958C399.585 42.8178 399.511 42.2672 399.511 41.5438C399.511 40.8205 399.585 40.2675 399.735 39.8848C399.889 39.5022 400.113 39.2432 400.407 39.1078C400.701 38.9678 401.095 38.8978 401.59 38.8978C402.089 38.8978 402.486 38.9678 402.78 39.1078C403.078 39.2432 403.302 39.5022 403.452 39.8848C403.601 40.2628 403.676 40.8158 403.676 41.5438C403.676 42.2672 403.599 42.8178 403.445 43.1958C403.295 43.5692 403.074 43.8235 402.78 43.9588C402.49 44.0895 402.094 44.1548 401.59 44.1548ZM401.59 43.3778C401.912 43.3778 402.157 43.3312 402.325 43.2378C402.497 43.1445 402.621 42.9695 402.696 42.7128C402.77 42.4515 402.808 42.0618 402.808 41.5438C402.808 41.0072 402.768 40.6058 402.689 40.3398C402.614 40.0738 402.493 39.8965 402.325 39.8078C402.157 39.7192 401.912 39.6748 401.59 39.6748C401.277 39.6748 401.037 39.7215 400.869 39.8148C400.701 39.9035 400.577 40.0808 400.498 40.3468C400.418 40.6082 400.379 41.0072 400.379 41.5438C400.379 42.0665 400.414 42.4562 400.484 42.7128C400.558 42.9695 400.68 43.1445 400.848 43.2378C401.016 43.3312 401.263 43.3778 401.59 43.3778Z" fill="#00367A"/>
<path d="M406.233 44.1548C405.794 44.1548 405.444 44.0872 405.183 43.9518C404.921 43.8118 404.721 43.5505 404.581 43.1678C404.445 42.7852 404.378 42.2322 404.378 41.5088C404.378 40.8228 404.448 40.2908 404.588 39.9128C404.728 39.5302 404.933 39.2665 405.204 39.1218C405.474 38.9725 405.824 38.8978 406.254 38.8978C406.534 38.8978 406.814 38.9212 407.094 38.9678C407.378 39.0098 407.621 39.0612 407.822 39.1218V39.7868C407.682 39.7588 407.481 39.7332 407.22 39.7098C406.963 39.6865 406.699 39.6748 406.429 39.6748C406.121 39.6748 405.883 39.7238 405.715 39.8218C405.551 39.9152 405.432 40.0925 405.358 40.3538C405.283 40.6152 405.246 41.0048 405.246 41.5228C405.246 42.0408 405.281 42.4305 405.351 42.6918C405.421 42.9532 405.537 43.1328 405.701 43.2308C405.864 43.3288 406.104 43.3778 406.422 43.3778C406.954 43.3778 407.42 43.3522 407.822 43.3008V43.9658C407.397 44.0918 406.867 44.1548 406.233 44.1548Z" fill="#00367A"/>
<path d="M408.599 38.9468H409.46V41.1518H410.23L411.413 38.9468H412.337L410.916 41.5368L412.372 44.1128H411.448L410.223 41.9358H409.46V44.1128H408.599V38.9468Z" fill="#00367A"/>
<path d="M393.812 48.629L394.797 49.7365L396.248 50.0353L395.781 51.4415L396.248 52.8478L394.797 53.1465L393.812 54.254L392.828 53.1465L391.377 52.8478L391.844 51.4415L391.377 50.0353L392.828 49.7365L393.812 48.629Z" fill="#00367A"/>
<path d="M401.04 48.629L402.024 49.7365L403.475 50.0353L403.009 51.4415L403.475 52.8478L402.024 53.1465L401.04 54.254L400.055 53.1465L398.604 52.8478L399.071 51.4415L398.604 50.0353L400.055 49.7365L401.04 48.629Z" fill="#00367A"/>
<path d="M408.267 48.629L409.252 49.7365L410.703 50.0353L410.236 51.4415L410.703 52.8478L409.252 53.1465L408.267 54.254L407.283 53.1465L405.832 52.8478L406.298 51.4415L405.832 50.0353L407.283 49.7365L408.267 48.629Z" fill="#00367A"/>
<g filter="url(#filter6_d)">
<path d="M462.057 265.287C462.057 278.558 451.299 289.316 438.029 289.316C424.758 289.316 414 278.558 414 265.287C414 252.016 424.758 241.258 438.029 241.258C451.299 241.258 462.057 252.016 462.057 265.287Z" fill="#4C93E0"/>
</g>
<path d="M432.512 258.992H433.988L440.486 269.162V258.992H442.286V272.258H440.828L434.33 262.088V272.258H432.512V258.992Z" fill="white"/>
<path fill-rule="evenodd" clip-rule="evenodd" d="M480.993 272.096C480.993 271.544 480.546 271.096 479.993 271.096H445.993C445.441 271.096 444.993 271.544 444.993 272.096V307.155C444.993 307.708 445.441 308.155 445.993 308.155H474.66C474.913 308.155 475.157 308.059 475.342 307.887L480.675 302.92C480.878 302.731 480.993 302.466 480.993 302.188V272.096Z" fill="white"/>
<path fill-rule="evenodd" clip-rule="evenodd" d="M479.993 271.596H445.993C445.717 271.596 445.493 271.82 445.493 272.096V307.155C445.493 307.431 445.717 307.655 445.993 307.655H474.66C474.787 307.655 474.909 307.607 475.001 307.521L480.334 302.554C480.436 302.46 480.493 302.327 480.493 302.188V272.096C480.493 271.82 480.269 271.596 479.993 271.596ZM479.993 271.096C480.546 271.096 480.993 271.544 480.993 272.096V302.188C480.993 302.466 480.878 302.731 480.675 302.92L475.342 307.887C475.157 308.059 474.913 308.155 474.66 308.155H445.993C445.441 308.155 444.993 307.708 444.993 307.155V272.096C444.993 271.544 445.441 271.096 445.993 271.096H479.993Z" fill="#4C93E0"/>
<path fill-rule="evenodd" clip-rule="evenodd" d="M475.99 302.67C475.576 302.67 475.24 303.006 475.24 303.42V307.668H474.74V303.42C474.74 302.73 475.3 302.17 475.99 302.17H480.806V302.67H475.99Z" fill="#4C93E0"/>
<path d="M452.476 280.205H454.45C455.402 280.205 455.878 280.653 455.878 281.549C455.878 281.852 455.811 282.104 455.675 282.305C455.545 282.501 455.37 282.627 455.15 282.683C455.398 282.744 455.608 282.879 455.78 283.089C455.958 283.294 456.046 283.579 456.046 283.943C456.046 284.456 455.92 284.823 455.668 285.042C455.416 285.261 455.038 285.371 454.534 285.371H452.476V280.205ZM454.464 282.389C454.642 282.389 454.784 282.324 454.891 282.193C454.999 282.062 455.052 281.887 455.052 281.668C455.052 281.211 454.849 280.982 454.443 280.982H453.337V282.389H454.464ZM454.506 284.594C454.74 284.594 454.917 284.533 455.038 284.412C455.16 284.286 455.22 284.081 455.22 283.796C455.22 283.567 455.153 283.388 455.017 283.257C454.887 283.126 454.716 283.061 454.506 283.061H453.337V284.594H454.506Z" fill="#00367A"/>
<path d="M457.965 285.371C457.583 285.371 457.293 285.282 457.097 285.105C456.906 284.923 456.81 284.627 456.81 284.216V280.205H457.671V284.076C457.671 284.267 457.716 284.4 457.804 284.475C457.898 284.55 458.024 284.587 458.182 284.587H459.897V285.371H457.965Z" fill="#00367A"/>
<path d="M462.461 285.413C461.962 285.413 461.565 285.348 461.271 285.217C460.977 285.082 460.756 284.827 460.606 284.454C460.457 284.076 460.382 283.525 460.382 282.802C460.382 282.079 460.457 281.526 460.606 281.143C460.76 280.76 460.984 280.501 461.278 280.366C461.572 280.226 461.967 280.156 462.461 280.156C462.961 280.156 463.357 280.226 463.651 280.366C463.95 280.501 464.174 280.76 464.323 281.143C464.473 281.521 464.547 282.074 464.547 282.802C464.547 283.525 464.47 284.076 464.316 284.454C464.167 284.827 463.945 285.082 463.651 285.217C463.362 285.348 462.965 285.413 462.461 285.413ZM462.461 284.636C462.783 284.636 463.028 284.589 463.196 284.496C463.369 284.403 463.493 284.228 463.567 283.971C463.642 283.71 463.679 283.32 463.679 282.802C463.679 282.265 463.64 281.864 463.56 281.598C463.486 281.332 463.364 281.155 463.196 281.066C463.028 280.977 462.783 280.933 462.461 280.933C462.149 280.933 461.908 280.98 461.74 281.073C461.572 281.162 461.449 281.339 461.369 281.605C461.29 281.866 461.25 282.265 461.25 282.802C461.25 283.325 461.285 283.714 461.355 283.971C461.43 284.228 461.551 284.403 461.719 284.496C461.887 284.589 462.135 284.636 462.461 284.636Z" fill="#00367A"/>
<path d="M467.105 285.413C466.666 285.413 466.316 285.345 466.055 285.21C465.793 285.07 465.593 284.809 465.453 284.426C465.317 284.043 465.25 283.49 465.25 282.767C465.25 282.081 465.32 281.549 465.46 281.171C465.6 280.788 465.805 280.525 466.076 280.38C466.346 280.231 466.696 280.156 467.126 280.156C467.406 280.156 467.686 280.179 467.966 280.226C468.25 280.268 468.493 280.319 468.694 280.38V281.045C468.554 281.017 468.353 280.991 468.092 280.968C467.835 280.945 467.571 280.933 467.301 280.933C466.993 280.933 466.755 280.982 466.587 281.08C466.423 281.173 466.304 281.351 466.23 281.612C466.155 281.873 466.118 282.263 466.118 282.781C466.118 283.299 466.153 283.689 466.223 283.95C466.293 284.211 466.409 284.391 466.573 284.489C466.736 284.587 466.976 284.636 467.294 284.636C467.826 284.636 468.292 284.61 468.694 284.559V285.224C468.269 285.35 467.739 285.413 467.105 285.413Z" fill="#00367A"/>
<path d="M469.47 280.205H470.331V282.41H471.101L472.284 280.205H473.208L471.787 282.795L473.243 285.371H472.319L471.094 283.194H470.331V285.371H469.47V280.205Z" fill="#00367A"/>
<path d="M454.684 289.887L455.669 290.995L457.12 291.293L456.653 292.7L457.12 294.106L455.669 294.405L454.684 295.512L453.7 294.405L452.249 294.106L452.715 292.7L452.249 291.293L453.7 290.995L454.684 289.887Z" fill="#00367A"/>
<path d="M461.912 289.887L462.896 290.995L464.347 291.293L463.88 292.7L464.347 294.106L462.896 294.405L461.912 295.512L460.927 294.405L459.476 294.106L459.943 292.7L459.476 291.293L460.927 290.995L461.912 289.887Z" fill="#00367A"/>
<path d="M469.139 289.887L470.123 290.995L471.575 291.293L471.108 292.7L471.575 294.106L470.123 294.405L469.139 295.512L468.155 294.405L466.703 294.106L467.17 292.7L466.703 291.293L468.155 290.995L469.139 289.887Z" fill="#00367A"/>
<g filter="url(#filter7_d)">
<path d="M484.057 184.67C484.057 197.94 473.299 208.698 460.029 208.698C446.758 208.698 436 197.94 436 184.67C436 171.399 446.758 160.641 460.029 160.641C473.299 160.641 484.057 171.399 484.057 184.67Z" fill="#4C93E0"/>
</g>
<path d="M454.512 178.375H455.988L462.486 188.545V178.375H464.286V191.641H462.828L456.33 181.471V191.641H454.512V178.375Z" fill="white"/>
<path fill-rule="evenodd" clip-rule="evenodd" d="M502.897 191.479C502.897 190.926 502.449 190.479 501.897 190.479H467.897C467.345 190.479 466.897 190.926 466.897 191.479V226.538C466.897 227.09 467.345 227.538 467.897 227.538H496.564C496.817 227.538 497.061 227.442 497.246 227.27L502.579 222.303C502.782 222.113 502.897 221.848 502.897 221.571V191.479Z" fill="white"/>
<path fill-rule="evenodd" clip-rule="evenodd" d="M501.897 190.979H467.897C467.621 190.979 467.397 191.203 467.397 191.479V226.538C467.397 226.814 467.621 227.038 467.897 227.038H496.564C496.691 227.038 496.812 226.99 496.905 226.904L502.238 221.937C502.339 221.842 502.397 221.71 502.397 221.571V191.479C502.397 191.203 502.173 190.979 501.897 190.979ZM501.897 190.479C502.449 190.479 502.897 190.926 502.897 191.479V221.571C502.897 221.848 502.782 222.113 502.579 222.303L497.246 227.27C497.061 227.442 496.817 227.538 496.564 227.538H467.897C467.345 227.538 466.897 227.09 466.897 226.538V191.479C466.897 190.926 467.345 190.479 467.897 190.479H501.897Z" fill="#4C93E0"/>
<path fill-rule="evenodd" clip-rule="evenodd" d="M497.894 222.052C497.48 222.052 497.144 222.388 497.144 222.802V227.05H496.644V222.802C496.644 222.112 497.203 221.552 497.894 221.552H502.71V222.052H497.894Z" fill="#4C93E0"/>
<path d="M474.38 199.588H476.354C477.306 199.588 477.782 200.036 477.782 200.932C477.782 201.235 477.714 201.487 477.579 201.688C477.448 201.884 477.273 202.01 477.054 202.066C477.301 202.126 477.511 202.262 477.684 202.472C477.861 202.677 477.95 202.962 477.95 203.326C477.95 203.839 477.824 204.205 477.572 204.425C477.32 204.644 476.942 204.754 476.438 204.754H474.38V199.588ZM476.368 201.772C476.545 201.772 476.688 201.706 476.795 201.576C476.902 201.445 476.956 201.27 476.956 201.051C476.956 200.593 476.753 200.365 476.347 200.365H475.241V201.772H476.368ZM476.41 203.977C476.643 203.977 476.821 203.916 476.942 203.795C477.063 203.669 477.124 203.463 477.124 203.179C477.124 202.95 477.056 202.77 476.921 202.64C476.79 202.509 476.62 202.444 476.41 202.444H475.241V203.977H476.41Z" fill="#00367A"/>
<path d="M479.869 204.754C479.486 204.754 479.197 204.665 479.001 204.488C478.81 204.306 478.714 204.009 478.714 203.599V199.588H479.575V203.459C479.575 203.65 479.619 203.783 479.708 203.858C479.801 203.932 479.927 203.97 480.086 203.97H481.801V204.754H479.869Z" fill="#00367A"/>
<path d="M484.365 204.796C483.866 204.796 483.469 204.73 483.175 204.6C482.881 204.464 482.659 204.21 482.51 203.837C482.361 203.459 482.286 202.908 482.286 202.185C482.286 201.461 482.361 200.908 482.51 200.526C482.664 200.143 482.888 199.884 483.182 199.749C483.476 199.609 483.87 199.539 484.365 199.539C484.864 199.539 485.261 199.609 485.555 199.749C485.854 199.884 486.078 200.143 486.227 200.526C486.376 200.904 486.451 201.457 486.451 202.185C486.451 202.908 486.374 203.459 486.22 203.837C486.071 204.21 485.849 204.464 485.555 204.6C485.266 204.73 484.869 204.796 484.365 204.796ZM484.365 204.019C484.687 204.019 484.932 203.972 485.1 203.879C485.273 203.785 485.396 203.61 485.471 203.354C485.546 203.092 485.583 202.703 485.583 202.185C485.583 201.648 485.543 201.247 485.464 200.981C485.389 200.715 485.268 200.537 485.1 200.449C484.932 200.36 484.687 200.316 484.365 200.316C484.052 200.316 483.812 200.362 483.644 200.456C483.476 200.544 483.352 200.722 483.273 200.988C483.194 201.249 483.154 201.648 483.154 202.185C483.154 202.707 483.189 203.097 483.259 203.354C483.334 203.61 483.455 203.785 483.623 203.879C483.791 203.972 484.038 204.019 484.365 204.019Z" fill="#00367A"/>
<path d="M489.008 204.796C488.57 204.796 488.22 204.728 487.958 204.593C487.697 204.453 487.496 204.191 487.356 203.809C487.221 203.426 487.153 202.873 487.153 202.15C487.153 201.464 487.223 200.932 487.363 200.554C487.503 200.171 487.709 199.907 487.979 199.763C488.25 199.613 488.6 199.539 489.029 199.539C489.309 199.539 489.589 199.562 489.869 199.609C490.154 199.651 490.397 199.702 490.597 199.763V200.428C490.457 200.4 490.257 200.374 489.995 200.351C489.739 200.327 489.475 200.316 489.204 200.316C488.896 200.316 488.658 200.365 488.49 200.463C488.327 200.556 488.208 200.733 488.133 200.995C488.059 201.256 488.021 201.646 488.021 202.164C488.021 202.682 488.056 203.071 488.126 203.333C488.196 203.594 488.313 203.774 488.476 203.872C488.64 203.97 488.88 204.019 489.197 204.019C489.729 204.019 490.196 203.993 490.597 203.942V204.607C490.173 204.733 489.643 204.796 489.008 204.796Z" fill="#00367A"/>
<path d="M491.374 199.588H492.235V201.793H493.005L494.188 199.588H495.112L493.691 202.178L495.147 204.754H494.223L492.998 202.577H492.235V204.754H491.374V199.588Z" fill="#00367A"/>
<path d="M477.67 208.698L478.654 209.806L480.105 210.104L479.638 211.511L480.105 212.917L478.654 213.216L477.67 214.323L476.685 213.216L475.234 212.917L475.701 211.511L475.234 210.104L476.685 209.806L477.67 208.698Z" fill="#00367A"/>
<path d="M484.897 208.698L485.881 209.806L487.333 210.104L486.866 211.511L487.333 212.917L485.881 213.216L484.897 214.323L483.913 213.216L482.461 212.917L482.928 211.511L482.461 210.104L483.913 209.806L484.897 208.698Z" fill="#00367A"/>
<path d="M492.124 208.698L493.109 209.806L494.56 210.104L494.093 211.511L494.56 212.917L493.109 213.216L492.124 214.323L491.14 213.216L489.689 212.917L490.156 211.511L489.689 210.104L491.14 209.806L492.124 208.698Z" fill="#00367A"/>
<g filter="url(#filter8_d)">
<path d="M376.057 313.654C376.057 326.925 365.299 337.683 352.029 337.683C338.758 337.683 328 326.925 328 313.654C328 300.384 338.758 289.626 352.029 289.626C365.299 289.626 376.057 300.384 376.057 313.654Z" fill="#4C93E0"/>
</g>
<path d="M346.512 307.36H347.988L354.486 317.53V307.36H356.286V320.626H354.828L348.33 310.456V320.626H346.512V307.36Z" fill="white"/>
<path fill-rule="evenodd" clip-rule="evenodd" d="M394.997 320.464C394.997 319.911 394.55 319.464 393.997 319.464H359.997C359.445 319.464 358.997 319.911 358.997 320.464V355.523C358.997 356.075 359.445 356.523 359.997 356.523H388.664C388.917 356.523 389.161 356.427 389.346 356.254L394.679 351.287C394.882 351.098 394.997 350.833 394.997 350.556V320.464Z" fill="white"/>
<path fill-rule="evenodd" clip-rule="evenodd" d="M393.997 319.964H359.997C359.721 319.964 359.497 320.187 359.497 320.464V355.523C359.497 355.799 359.721 356.023 359.997 356.023H388.664C388.791 356.023 388.913 355.975 389.005 355.889L394.338 350.922C394.44 350.827 394.497 350.694 394.497 350.556V320.464C394.497 320.187 394.273 319.964 393.997 319.964ZM393.997 319.464C394.55 319.464 394.997 319.911 394.997 320.464V350.556C394.997 350.833 394.882 351.098 394.679 351.287L389.346 356.254C389.161 356.427 388.917 356.523 388.664 356.523H359.997C359.445 356.523 358.997 356.075 358.997 355.523V320.464C358.997 319.911 359.445 319.464 359.997 319.464H393.997Z" fill="#4C93E0"/>
<path fill-rule="evenodd" clip-rule="evenodd" d="M389.994 351.037C389.58 351.037 389.244 351.373 389.244 351.787V356.035H388.744V351.787C388.744 351.097 389.304 350.537 389.994 350.537H394.81V351.037H389.994Z" fill="#4C93E0"/>
<path d="M366.48 328.572H368.454C369.406 328.572 369.882 329.02 369.882 329.916C369.882 330.22 369.815 330.472 369.679 330.672C369.549 330.868 369.374 330.994 369.154 331.05C369.402 331.111 369.612 331.246 369.784 331.456C369.962 331.662 370.05 331.946 370.05 332.31C370.05 332.824 369.924 333.19 369.672 333.409C369.42 333.629 369.042 333.738 368.538 333.738H366.48V328.572ZM368.468 330.756C368.646 330.756 368.788 330.691 368.895 330.56C369.003 330.43 369.056 330.255 369.056 330.035C369.056 329.578 368.853 329.349 368.447 329.349H367.341V330.756H368.468ZM368.51 332.961C368.744 332.961 368.921 332.901 369.042 332.779C369.164 332.653 369.224 332.448 369.224 332.163C369.224 331.935 369.157 331.755 369.021 331.624C368.891 331.494 368.72 331.428 368.51 331.428H367.341V332.961H368.51Z" fill="#00367A"/>
<path d="M371.969 333.738C371.587 333.738 371.297 333.65 371.101 333.472C370.91 333.29 370.814 332.994 370.814 332.583V328.572H371.675V332.443C371.675 332.635 371.72 332.768 371.808 332.842C371.902 332.917 372.028 332.954 372.186 332.954H373.901V333.738H371.969Z" fill="#00367A"/>
<path d="M376.465 333.78C375.966 333.78 375.569 333.715 375.275 333.584C374.981 333.449 374.76 333.195 374.61 332.821C374.461 332.443 374.386 331.893 374.386 331.169C374.386 330.446 374.461 329.893 374.61 329.51C374.764 329.128 374.988 328.869 375.282 328.733C375.576 328.593 375.971 328.523 376.465 328.523C376.965 328.523 377.361 328.593 377.655 328.733C377.954 328.869 378.178 329.128 378.327 329.51C378.477 329.888 378.551 330.441 378.551 331.169C378.551 331.893 378.474 332.443 378.32 332.821C378.171 333.195 377.949 333.449 377.655 333.584C377.366 333.715 376.969 333.78 376.465 333.78ZM376.465 333.003C376.787 333.003 377.032 332.957 377.2 332.863C377.373 332.77 377.497 332.595 377.571 332.338C377.646 332.077 377.683 331.687 377.683 331.169C377.683 330.633 377.644 330.231 377.564 329.965C377.49 329.699 377.368 329.522 377.2 329.433C377.032 329.345 376.787 329.3 376.465 329.3C376.153 329.3 375.912 329.347 375.744 329.44C375.576 329.529 375.453 329.706 375.373 329.972C375.294 330.234 375.254 330.633 375.254 331.169C375.254 331.692 375.289 332.082 375.359 332.338C375.434 332.595 375.555 332.77 375.723 332.863C375.891 332.957 376.139 333.003 376.465 333.003Z" fill="#00367A"/>
<path d="M381.109 333.78C380.67 333.78 380.32 333.713 380.059 333.577C379.797 333.437 379.597 333.176 379.457 332.793C379.321 332.411 379.254 331.858 379.254 331.134C379.254 330.448 379.324 329.916 379.464 329.538C379.604 329.156 379.809 328.892 380.08 328.747C380.35 328.598 380.7 328.523 381.13 328.523C381.41 328.523 381.69 328.547 381.97 328.593C382.254 328.635 382.497 328.687 382.698 328.747V329.412C382.558 329.384 382.357 329.359 382.096 329.335C381.839 329.312 381.575 329.3 381.305 329.3C380.997 329.3 380.759 329.349 380.591 329.447C380.427 329.541 380.308 329.718 380.234 329.979C380.159 330.241 380.122 330.63 380.122 331.148C380.122 331.666 380.157 332.056 380.227 332.317C380.297 332.579 380.413 332.758 380.577 332.856C380.74 332.954 380.98 333.003 381.298 333.003C381.83 333.003 382.296 332.978 382.698 332.926V333.591C382.273 333.717 381.743 333.78 381.109 333.78Z" fill="#00367A"/>
<path d="M383.474 328.572H384.335V330.777H385.105L386.288 328.572H387.212L385.791 331.162L387.247 333.738H386.323L385.098 331.561H384.335V333.738H383.474V328.572Z" fill="#00367A"/>
<path d="M369.77 337.683L370.754 338.791L372.206 339.089L371.739 340.496L372.206 341.902L370.754 342.201L369.77 343.308L368.786 342.201L367.334 341.902L367.801 340.496L367.334 339.089L368.786 338.791L369.77 337.683Z" fill="#00367A"/>
<path d="M376.997 337.683L377.982 338.791L379.433 339.089L378.966 340.496L379.433 341.902L377.982 342.201L376.997 343.308L376.013 342.201L374.562 341.902L375.029 340.496L374.562 339.089L376.013 338.791L376.997 337.683Z" fill="#00367A"/>
<path d="M384.225 337.683L385.209 338.791L386.661 339.089L386.194 340.496L386.661 341.902L385.209 342.201L384.225 343.308L383.24 342.201L381.789 341.902L382.256 340.496L381.789 339.089L383.24 338.791L384.225 337.683Z" fill="#00367A"/>
<path d="M254.698 240.536L256.334 242.376L258.745 242.872L257.969 245.208L258.745 247.544L256.334 248.04L254.698 249.88L253.063 248.04L250.652 247.544L251.428 245.208L250.652 242.872L253.063 242.376L254.698 240.536Z" fill="#00367A"/>
<path d="M324.639 153.407L326.274 155.247L328.685 155.744L327.91 158.08L328.685 160.416L326.274 160.912L324.639 162.752L323.004 160.912L320.593 160.416L321.368 158.08L320.593 155.744L323.004 155.247L324.639 153.407Z" fill="#00367A"/>
<path d="M80.7993 233.46L82.4346 235.3L84.8456 235.796L84.0699 238.132L84.8456 240.468L82.4346 240.964L80.7993 242.804L79.164 240.964L76.7529 240.468L77.5287 238.132L76.7529 235.796L79.164 235.3L80.7993 233.46Z" fill="#00367A"/>
<path d="M92.8062 233.46L94.4415 235.3L96.8525 235.796L96.0768 238.132L96.8525 240.468L94.4415 240.964L92.8062 242.804L91.1709 240.964L88.7598 240.468L89.5356 238.132L88.7598 235.796L91.1709 235.3L92.8062 233.46Z" fill="#00367A"/>
<path d="M104.813 233.46L106.448 235.3L108.859 235.796L108.083 238.132L108.859 240.468L106.448 240.964L104.813 242.804L103.177 240.964L100.766 240.468L101.542 238.132L100.766 235.796L103.177 235.3L104.813 233.46Z" fill="#00367A"/>
<g filter="url(#filter9_d)">
<path d="M467.405 96.6113C467.405 109.882 456.647 120.64 443.377 120.64C430.106 120.64 419.348 109.882 419.348 96.6113C419.348 83.3406 430.106 72.5825 443.377 72.5825C456.647 72.5825 467.405 83.3406 467.405 96.6113Z" fill="#4C93E0"/>
</g>
<path d="M438.86 90.3165H440.336L446.834 100.487V90.3165H448.634V103.583H447.176L440.678 93.4125V103.583H438.86V90.3165Z" fill="white"/>
<path fill-rule="evenodd" clip-rule="evenodd" d="M486.487 103.421C486.487 102.868 486.039 102.421 485.487 102.421H451.487C450.935 102.421 450.487 102.868 450.487 103.421V138.48C450.487 139.032 450.935 139.48 451.487 139.48H480.154C480.407 139.48 480.651 139.384 480.836 139.211L486.169 134.244C486.372 134.055 486.487 133.79 486.487 133.513V103.421Z" fill="white"/>
<path fill-rule="evenodd" clip-rule="evenodd" d="M485.487 102.921H451.487C451.211 102.921 450.987 103.145 450.987 103.421V138.48C450.987 138.756 451.211 138.98 451.487 138.98H480.154C480.281 138.98 480.402 138.932 480.495 138.846L485.828 133.879C485.929 133.784 485.987 133.651 485.987 133.513V103.421C485.987 103.145 485.763 102.921 485.487 102.921ZM485.487 102.421C486.039 102.421 486.487 102.868 486.487 103.421V133.513C486.487 133.79 486.372 134.055 486.169 134.244L480.836 139.211C480.651 139.384 480.407 139.48 480.154 139.48H451.487C450.935 139.48 450.487 139.032 450.487 138.48V103.421C450.487 102.868 450.935 102.421 451.487 102.421H485.487Z" fill="#4C93E0"/>
<path fill-rule="evenodd" clip-rule="evenodd" d="M481.484 133.994C481.07 133.994 480.734 134.33 480.734 134.744V138.992H480.234V134.744C480.234 134.054 480.793 133.494 481.484 133.494H486.3V133.994H481.484Z" fill="#4C93E0"/>
<path d="M457.97 111.53H459.944C460.896 111.53 461.372 111.978 461.372 112.874C461.372 113.177 461.304 113.429 461.169 113.63C461.038 113.826 460.863 113.952 460.644 114.008C460.891 114.068 461.101 114.204 461.274 114.414C461.451 114.619 461.54 114.904 461.54 115.268C461.54 115.781 461.414 116.147 461.162 116.367C460.91 116.586 460.532 116.696 460.028 116.696H457.97V111.53ZM459.958 113.714C460.135 113.714 460.278 113.648 460.385 113.518C460.492 113.387 460.546 113.212 460.546 112.993C460.546 112.535 460.343 112.307 459.937 112.307H458.831V113.714H459.958ZM460 115.919C460.233 115.919 460.411 115.858 460.532 115.737C460.653 115.611 460.714 115.405 460.714 115.121C460.714 114.892 460.646 114.712 460.511 114.582C460.38 114.451 460.21 114.386 460 114.386H458.831V115.919H460Z" fill="#00367A"/>
<path d="M463.459 116.696C463.076 116.696 462.787 116.607 462.591 116.43C462.4 116.248 462.304 115.951 462.304 115.541V111.53H463.165V115.401C463.165 115.592 463.209 115.725 463.298 115.8C463.391 115.874 463.517 115.912 463.676 115.912H465.391V116.696H463.459Z" fill="#00367A"/>
<path d="M467.955 116.738C467.456 116.738 467.059 116.672 466.765 116.542C466.471 116.406 466.249 116.152 466.1 115.779C465.951 115.401 465.876 114.85 465.876 114.127C465.876 113.403 465.951 112.85 466.1 112.468C466.254 112.085 466.478 111.826 466.772 111.691C467.066 111.551 467.46 111.481 467.955 111.481C468.454 111.481 468.851 111.551 469.145 111.691C469.444 111.826 469.668 112.085 469.817 112.468C469.966 112.846 470.041 113.399 470.041 114.127C470.041 114.85 469.964 115.401 469.81 115.779C469.661 116.152 469.439 116.406 469.145 116.542C468.856 116.672 468.459 116.738 467.955 116.738ZM467.955 115.961C468.277 115.961 468.522 115.914 468.69 115.821C468.863 115.727 468.986 115.552 469.061 115.296C469.136 115.034 469.173 114.645 469.173 114.127C469.173 113.59 469.133 113.189 469.054 112.923C468.979 112.657 468.858 112.479 468.69 112.391C468.522 112.302 468.277 112.258 467.955 112.258C467.642 112.258 467.402 112.304 467.234 112.398C467.066 112.486 466.942 112.664 466.863 112.93C466.784 113.191 466.744 113.59 466.744 114.127C466.744 114.649 466.779 115.039 466.849 115.296C466.924 115.552 467.045 115.727 467.213 115.821C467.381 115.914 467.628 115.961 467.955 115.961Z" fill="#00367A"/>
<path d="M472.598 116.738C472.16 116.738 471.81 116.67 471.548 116.535C471.287 116.395 471.086 116.133 470.946 115.751C470.811 115.368 470.743 114.815 470.743 114.092C470.743 113.406 470.813 112.874 470.953 112.496C471.093 112.113 471.299 111.849 471.569 111.705C471.84 111.555 472.19 111.481 472.619 111.481C472.899 111.481 473.179 111.504 473.459 111.551C473.744 111.593 473.987 111.644 474.187 111.705V112.37C474.047 112.342 473.847 112.316 473.585 112.293C473.329 112.269 473.065 112.258 472.794 112.258C472.486 112.258 472.248 112.307 472.08 112.405C471.917 112.498 471.798 112.675 471.723 112.937C471.649 113.198 471.611 113.588 471.611 114.106C471.611 114.624 471.646 115.013 471.716 115.275C471.786 115.536 471.903 115.716 472.066 115.814C472.23 115.912 472.47 115.961 472.787 115.961C473.319 115.961 473.786 115.935 474.187 115.884V116.549C473.763 116.675 473.233 116.738 472.598 116.738Z" fill="#00367A"/>
<path d="M474.964 111.53H475.825V113.735H476.595L477.778 111.53H478.702L477.281 114.12L478.737 116.696H477.813L476.588 114.519H475.825V116.696H474.964V111.53Z" fill="#00367A"/>
<path d="M461.26 120.95L462.244 122.058L463.695 122.356L463.228 123.763L463.695 125.169L462.244 125.468L461.26 126.575L460.275 125.468L458.824 125.169L459.291 123.763L458.824 122.356L460.275 122.058L461.26 120.95Z" fill="#00367A"/>
<path d="M468.487 120.95L469.471 122.058L470.923 122.356L470.456 123.763L470.923 125.169L469.471 125.468L468.487 126.575L467.503 125.468L466.051 125.169L466.518 123.763L466.051 122.356L467.503 122.058L468.487 120.95Z" fill="#00367A"/>
<path d="M475.714 120.95L476.699 122.058L478.15 122.356L477.683 123.763L478.15 125.169L476.699 125.468L475.714 126.575L474.73 125.468L473.279 125.169L473.746 123.763L473.279 122.356L474.73 122.058L475.714 120.95Z" fill="#00367A"/>
<path d="M36.5 337L39.125 339.953L42.9952 340.75L41.75 344.5L42.9952 348.25L39.125 349.047L36.5 352L33.875 349.047L30.0048 348.25L31.25 344.5L30.0048 340.75L33.875 339.953L36.5 337Z" fill="#00367A"/>
<path d="M46.071 344.605H52.335V345.514H46.071V344.605Z" fill="#6F6F84"/>
<path d="M57.7341 347.719C57.1701 347.719 56.7201 347.632 56.3841 347.458C56.0481 347.278 55.7901 346.942 55.6101 346.45C55.4361 345.958 55.3491 345.247 55.3491 344.317C55.3491 343.435 55.4391 342.751 55.6191 342.265C55.7991 341.773 56.0631 341.434 56.4111 341.248C56.7591 341.056 57.2091 340.96 57.7611 340.96C58.1211 340.96 58.4811 340.99 58.8411 341.05C59.2071 341.104 59.5191 341.17 59.7771 341.248V342.103C59.5971 342.067 59.3391 342.034 59.0031 342.004C58.6731 341.974 58.3341 341.959 57.9861 341.959C57.5901 341.959 57.2841 342.022 57.0681 342.148C56.8581 342.268 56.7051 342.496 56.6091 342.832C56.5131 343.168 56.4651 343.669 56.4651 344.335C56.4651 345.001 56.5101 345.502 56.6001 345.838C56.6901 346.174 56.8401 346.405 57.0501 346.531C57.2601 346.657 57.5691 346.72 57.9771 346.72C58.6611 346.72 59.2611 346.687 59.7771 346.621V347.476C59.2311 347.638 58.5501 347.719 57.7341 347.719Z" fill="#6F6F84"/>
<path d="M63.1901 347.719C62.5481 347.719 62.0381 347.635 61.6601 347.467C61.2821 347.293 60.9971 346.966 60.8051 346.486C60.6131 346 60.5171 345.292 60.5171 344.362C60.5171 343.432 60.6131 342.721 60.8051 342.229C61.0031 341.737 61.2911 341.404 61.6691 341.23C62.0471 341.05 62.5541 340.96 63.1901 340.96C63.8321 340.96 64.3421 341.05 64.7201 341.23C65.1041 341.404 65.3921 341.737 65.5841 342.229C65.7761 342.715 65.8721 343.426 65.8721 344.362C65.8721 345.292 65.7731 346 65.5751 346.486C65.3831 346.966 65.0981 347.293 64.7201 347.467C64.3481 347.635 63.8381 347.719 63.1901 347.719ZM63.1901 346.72C63.6041 346.72 63.9191 346.66 64.1351 346.54C64.3571 346.42 64.5161 346.195 64.6121 345.865C64.7081 345.529 64.7561 345.028 64.7561 344.362C64.7561 343.672 64.7051 343.156 64.6031 342.814C64.5071 342.472 64.3511 342.244 64.1351 342.13C63.9191 342.016 63.6041 341.959 63.1901 341.959C62.7881 341.959 62.4791 342.019 62.2631 342.139C62.0471 342.253 61.8881 342.481 61.7861 342.823C61.6841 343.159 61.6331 343.672 61.6331 344.362C61.6331 345.034 61.6781 345.535 61.7681 345.865C61.8641 346.195 62.0201 346.42 62.2361 346.54C62.4521 346.66 62.7701 346.72 63.1901 346.72Z" fill="#6F6F84"/>
<path d="M72.4311 347.665L71.8731 342.913L70.5591 347.665H69.5151L68.1921 342.94L67.6611 347.665H66.5901L67.3551 341.023H68.4351L70.0461 346.342L71.6481 341.023H72.7281L73.5111 347.665H72.4311Z" fill="#6F6F84"/>
<path d="M80.227 347.665L79.669 342.913L78.355 347.665H77.311L75.988 342.94L75.457 347.665H74.386L75.151 341.023H76.231L77.842 346.342L79.444 341.023H80.524L81.307 347.665H80.227Z" fill="#6F6F84"/>
<path d="M82.3619 341.023H83.4689V347.665H82.3619V341.023Z" fill="#6F6F84"/>
<path d="M86.1396 342.022H84.2316V341.023H89.1546V342.022H87.2556V347.665H86.1396V342.022Z" fill="#6F6F84"/>
<mask id="path-95-inside-1" fill="white">
<path fill-rule="evenodd" clip-rule="evenodd" d="M108.5 328.5H10.5V359.5H108.5V328.5ZM10 328V360H109V328H10Z"/>
</mask>
<path fill-rule="evenodd" clip-rule="evenodd" d="M108.5 328.5H10.5V359.5H108.5V328.5ZM10 328V360H109V328H10Z" fill="#6F6F84"/>
<path d="M10.5 328.5V328H10V328.5H10.5ZM108.5 328.5H109V328H108.5V328.5ZM10.5 359.5H10V360H10.5V359.5ZM108.5 359.5V360H109V359.5H108.5ZM10 328V327.5H9.5V328H10ZM10 360H9.5V360.5H10V360ZM109 360V360.5H109.5V360H109ZM109 328H109.5V327.5H109V328ZM10.5 329H108.5V328H10.5V329ZM11 359.5V328.5H10V359.5H11ZM108.5 359H10.5V360H108.5V359ZM108 328.5V359.5H109V328.5H108ZM10 328.5H109V327.5H10V328.5ZM10.5 360V328H9.5V360H10.5ZM109 359.5H10V360.5H109V359.5ZM108.5 328V360H109.5V328H108.5Z" fill="#6F6F84" mask="url(#path-95-inside-1)"/>
<mask id="path-97-inside-2" fill="white">
<path fill-rule="evenodd" clip-rule="evenodd" d="M108.5 328.5V359.5H10.5V328.5H108.5ZM10 328H109V360H10V328Z"/>
</mask>
<path fill-rule="evenodd" clip-rule="evenodd" d="M108.5 328.5V359.5H10.5V328.5H108.5ZM10 328H109V360H10V328Z" fill="#6F6F84"/>
<path d="M108.5 328.5H109V328H108.5V328.5ZM108.5 359.5V360H109V359.5H108.5ZM10.5 359.5H10V360H10.5V359.5ZM10.5 328.5V328H10V328.5H10.5ZM10 328V327.5H9.5V328H10ZM109 328H109.5V327.5H109V328ZM109 360V360.5H109.5V360H109ZM10 360H9.5V360.5H10V360ZM108.5 328H10.5V329H108.5V328ZM109 359.5V328.5H108V359.5H109ZM10.5 360H108.5V359H10.5V360ZM10 328.5V359.5H11V328.5H10ZM9.5 328V360H10.5V328H9.5ZM109 327.5H10V328.5H109V327.5ZM109.5 360V328H108.5V360H109.5ZM10 360.5H109V359.5H10V360.5Z" fill="#6F6F84" mask="url(#path-97-inside-2)"/>
<defs>
<filter id="filter0_d" x="0" y="151.897" width="111.455" height="116.455" filterUnits="userSpaceOnUse" color-interpolation-filters="sRGB">
<feFlood flood-opacity="0" result="BackgroundImageFix"/>
<feColorMatrix in="SourceAlpha" type="matrix" values="0 0 0 0 0 0 0 0 0 0 0 0 0 0 0 0 0 0 127 0"/>
<feOffset dy="15"/>
<feGaussianBlur stdDeviation="5"/>
<feColorMatrix type="matrix" values="0 0 0 0 0.298039 0 0 0 0 0.576471 0 0 0 0 0.878431 0 0 0 0.15 0"/>
<feBlend mode="normal" in2="BackgroundImageFix" result="effect1_dropShadow"/>
<feBlend mode="normal" in="SourceGraphic" in2="effect1_dropShadow" result="shape"/>
</filter>
<filter id="filter1_d" x="116" y="56.897" width="84" height="88" filterUnits="userSpaceOnUse" color-interpolation-filters="sRGB">
<feFlood flood-opacity="0" result="BackgroundImageFix"/>
<feColorMatrix in="SourceAlpha" type="matrix" values="0 0 0 0 0 0 0 0 0 0 0 0 0 0 0 0 0 0 127 0"/>
<feOffset dy="15"/>
<feGaussianBlur stdDeviation="5"/>
<feColorMatrix type="matrix" values="0 0 0 0 0.298039 0 0 0 0 0.576471 0 0 0 0 0.878431 0 0 0 0.15 0"/>
<feBlend mode="normal" in2="BackgroundImageFix" result="effect1_dropShadow"/>
<feBlend mode="normal" in="SourceGraphic" in2="effect1_dropShadow" result="shape"/>
</filter>
<filter id="filter2_d" x="188.05" y="180.897" width="84" height="88" filterUnits="userSpaceOnUse" color-interpolation-filters="sRGB">
<feFlood flood-opacity="0" result="BackgroundImageFix"/>
<feColorMatrix in="SourceAlpha" type="matrix" values="0 0 0 0 0 0 0 0 0 0 0 0 0 0 0 0 0 0 127 0"/>
<feOffset dy="15"/>
<feGaussianBlur stdDeviation="5"/>
<feColorMatrix type="matrix" values="0 0 0 0 0.298039 0 0 0 0 0.576471 0 0 0 0 0.878431 0 0 0 0.15 0"/>
<feBlend mode="normal" in2="BackgroundImageFix" result="effect1_dropShadow"/>
<feBlend mode="normal" in="SourceGraphic" in2="effect1_dropShadow" result="shape"/>
</filter>
<filter id="filter3_d" x="126.05" y="271.897" width="84" height="88" filterUnits="userSpaceOnUse" color-interpolation-filters="sRGB">
<feFlood flood-opacity="0" result="BackgroundImageFix"/>
<feColorMatrix in="SourceAlpha" type="matrix" values="0 0 0 0 0 0 0 0 0 0 0 0 0 0 0 0 0 0 127 0"/>
<feOffset dy="15"/>
<feGaussianBlur stdDeviation="5"/>
<feColorMatrix type="matrix" values="0 0 0 0 0.298039 0 0 0 0 0.576471 0 0 0 0 0.878431 0 0 0 0.15 0"/>
<feBlend mode="normal" in2="BackgroundImageFix" result="effect1_dropShadow"/>
<feBlend mode="normal" in="SourceGraphic" in2="effect1_dropShadow" result="shape"/>
</filter>
<filter id="filter4_d" x="256.05" y="93.897" width="84" height="88" filterUnits="userSpaceOnUse" color-interpolation-filters="sRGB">
<feFlood flood-opacity="0" result="BackgroundImageFix"/>
<feColorMatrix in="SourceAlpha" type="matrix" values="0 0 0 0 0 0 0 0 0 0 0 0 0 0 0 0 0 0 127 0"/>
<feOffset dy="15"/>
<feGaussianBlur stdDeviation="5"/>
<feColorMatrix type="matrix" values="0 0 0 0 0.298039 0 0 0 0 0.576471 0 0 0 0 0.878431 0 0 0 0.15 0"/>
<feBlend mode="normal" in2="BackgroundImageFix" result="effect1_dropShadow"/>
<feBlend mode="normal" in="SourceGraphic" in2="effect1_dropShadow" result="shape"/>
</filter>
<filter id="filter5_d" x="343" y="0" width="68.0575" height="73.0575" filterUnits="userSpaceOnUse" color-interpolation-filters="sRGB">
<feFlood flood-opacity="0" result="BackgroundImageFix"/>
<feColorMatrix in="SourceAlpha" type="matrix" values="0 0 0 0 0 0 0 0 0 0 0 0 0 0 0 0 0 0 127 0"/>
<feOffset dy="15"/>
<feGaussianBlur stdDeviation="5"/>
<feColorMatrix type="matrix" values="0 0 0 0 0.298039 0 0 0 0 0.576471 0 0 0 0 0.878431 0 0 0 0.15 0"/>
<feBlend mode="normal" in2="BackgroundImageFix" result="effect1_dropShadow"/>
<feBlend mode="normal" in="SourceGraphic" in2="effect1_dropShadow" result="shape"/>
</filter>
<filter id="filter6_d" x="404" y="241.258" width="68.0575" height="73.0575" filterUnits="userSpaceOnUse" color-interpolation-filters="sRGB">
<feFlood flood-opacity="0" result="BackgroundImageFix"/>
<feColorMatrix in="SourceAlpha" type="matrix" values="0 0 0 0 0 0 0 0 0 0 0 0 0 0 0 0 0 0 127 0"/>
<feOffset dy="15"/>
<feGaussianBlur stdDeviation="5"/>
<feColorMatrix type="matrix" values="0 0 0 0 0.298039 0 0 0 0 0.576471 0 0 0 0 0.878431 0 0 0 0.15 0"/>
<feBlend mode="normal" in2="BackgroundImageFix" result="effect1_dropShadow"/>
<feBlend mode="normal" in="SourceGraphic" in2="effect1_dropShadow" result="shape"/>
</filter>
<filter id="filter7_d" x="426" y="160.641" width="68.0575" height="73.0575" filterUnits="userSpaceOnUse" color-interpolation-filters="sRGB">
<feFlood flood-opacity="0" result="BackgroundImageFix"/>
<feColorMatrix in="SourceAlpha" type="matrix" values="0 0 0 0 0 0 0 0 0 0 0 0 0 0 0 0 0 0 127 0"/>
<feOffset dy="15"/>
<feGaussianBlur stdDeviation="5"/>
<feColorMatrix type="matrix" values="0 0 0 0 0.298039 0 0 0 0 0.576471 0 0 0 0 0.878431 0 0 0 0.15 0"/>
<feBlend mode="normal" in2="BackgroundImageFix" result="effect1_dropShadow"/>
<feBlend mode="normal" in="SourceGraphic" in2="effect1_dropShadow" result="shape"/>
</filter>
<filter id="filter8_d" x="318" y="289.626" width="68.0575" height="73.0575" filterUnits="userSpaceOnUse" color-interpolation-filters="sRGB">
<feFlood flood-opacity="0" result="BackgroundImageFix"/>
<feColorMatrix in="SourceAlpha" type="matrix" values="0 0 0 0 0 0 0 0 0 0 0 0 0 0 0 0 0 0 127 0"/>
<feOffset dy="15"/>
<feGaussianBlur stdDeviation="5"/>
<feColorMatrix type="matrix" values="0 0 0 0 0.298039 0 0 0 0 0.576471 0 0 0 0 0.878431 0 0 0 0.15 0"/>
<feBlend mode="normal" in2="BackgroundImageFix" result="effect1_dropShadow"/>
<feBlend mode="normal" in="SourceGraphic" in2="effect1_dropShadow" result="shape"/>
</filter>
<filter id="filter9_d" x="409.348" y="72.5825" width="68.0575" height="73.0575" filterUnits="userSpaceOnUse" color-interpolation-filters="sRGB">
<feFlood flood-opacity="0" result="BackgroundImageFix"/>
<feColorMatrix in="SourceAlpha" type="matrix" values="0 0 0 0 0 0 0 0 0 0 0 0 0 0 0 0 0 0 127 0"/>
<feOffset dy="15"/>
<feGaussianBlur stdDeviation="5"/>
<feColorMatrix type="matrix" values="0 0 0 0 0.298039 0 0 0 0 0.576471 0 0 0 0 0.878431 0 0 0 0.15 0"/>
<feBlend mode="normal" in2="BackgroundImageFix" result="effect1_dropShadow"/>
<feBlend mode="normal" in="SourceGraphic" in2="effect1_dropShadow" result="shape"/>
</filter>
</defs>
</svg>
