<svg width="543" height="122" viewBox="0 0 543 122" fill="none" xmlns="http://www.w3.org/2000/svg">
<path d="M118.805 3.14259L118.481 5.41059C118.457 5.60259 118.472 5.73159 118.526 5.79759C118.586 5.86359 118.715 5.89659 118.913 5.89659H119.534L119.579 6.70659C119.273 6.80859 118.901 6.85959 118.463 6.85959C118.061 6.85959 117.764 6.74559 117.572 6.51759C117.386 6.28959 117.323 5.96859 117.383 5.55459L117.725 3.14259H116.924L117.023 2.39559L117.842 2.35059L118.022 1.08159H119.102L118.922 2.35059H120.2L120.101 3.14259H118.805Z" fill="#333351"/>
<path d="M121.608 0.433594H122.103C122.211 0.433594 122.289 0.463594 122.337 0.523594C122.391 0.583594 122.412 0.664594 122.4 0.766594L122.337 1.26159C122.301 1.45959 122.187 1.55859 121.995 1.55859H121.5C121.272 1.55859 121.173 1.44459 121.203 1.21659L121.275 0.730594C121.293 0.532594 121.404 0.433594 121.608 0.433594ZM121.536 6.76059H120.447L121.068 2.35059H122.148L121.536 6.76059Z" fill="#333351"/>
<path d="M124.225 2.35059L124.207 3.22359C124.855 2.55759 125.47 2.22459 126.052 2.22459C126.382 2.22459 126.637 2.30559 126.817 2.46759C126.997 2.62959 127.093 2.85459 127.105 3.14259C127.429 2.81859 127.729 2.58459 128.005 2.44059C128.281 2.29659 128.566 2.22459 128.86 2.22459C129.25 2.22459 129.535 2.33559 129.715 2.55759C129.901 2.77959 129.964 3.08259 129.904 3.46659L129.445 6.76059H128.365L128.779 3.75459C128.815 3.52659 128.8 3.37059 128.734 3.28659C128.674 3.19659 128.563 3.15159 128.401 3.15159C128.215 3.15159 128.026 3.21159 127.834 3.33159C127.648 3.44559 127.375 3.67059 127.015 4.00659L126.628 6.76059H125.584L125.998 3.75459C126.028 3.53859 126.016 3.38559 125.962 3.29559C125.908 3.19959 125.794 3.15159 125.62 3.15159C125.428 3.15159 125.236 3.20859 125.044 3.32259C124.858 3.43659 124.588 3.65259 124.234 3.97059L123.847 6.76059H122.767L123.388 2.35059H124.225Z" fill="#333351"/>
<path d="M134.485 5.86959L134.557 6.58059C134.095 6.77259 133.471 6.86859 132.685 6.86859C131.899 6.86859 131.353 6.67059 131.047 6.27459C130.741 5.87259 130.642 5.26059 130.75 4.43859C130.864 3.59259 131.101 3.01359 131.461 2.70159C131.821 2.38359 132.415 2.22459 133.243 2.22459C133.975 2.22459 134.467 2.35059 134.719 2.60259C134.977 2.84859 135.073 3.21159 135.007 3.69159C134.947 4.12359 134.779 4.43559 134.503 4.62759C134.227 4.81959 133.804 4.93359 133.234 4.96959L131.839 5.08659C131.845 5.43459 131.929 5.67159 132.091 5.79759C132.253 5.91759 132.499 5.97759 132.829 5.97759C133.327 5.97759 133.879 5.94159 134.485 5.86959ZM131.902 4.34859L133.162 4.24059C133.414 4.22259 133.597 4.16859 133.711 4.07859C133.831 3.98259 133.906 3.82059 133.936 3.59259C133.954 3.36459 133.909 3.22359 133.801 3.16959C133.693 3.11559 133.462 3.08859 133.108 3.08859C132.712 3.09459 132.433 3.18159 132.271 3.34959C132.109 3.51159 131.986 3.84459 131.902 4.34859Z" fill="#333351"/>
<path d="M139.773 5.15859L138.648 4.65459C138.306 4.49859 138.066 4.31559 137.928 4.10559C137.79 3.89559 137.739 3.63459 137.775 3.32259C137.823 2.91459 137.997 2.62959 138.297 2.46759C138.603 2.29959 139.068 2.21859 139.692 2.22459C140.394 2.23659 141.045 2.29059 141.645 2.38659L141.528 3.13359C140.958 3.11559 140.37 3.10659 139.764 3.10659C139.398 3.10659 139.155 3.12159 139.035 3.15159C138.915 3.18159 138.846 3.26259 138.828 3.39459C138.81 3.51459 138.837 3.60759 138.909 3.67359C138.981 3.73359 139.122 3.80859 139.332 3.89859L140.457 4.40259C140.829 4.56459 141.084 4.74159 141.222 4.93359C141.36 5.11959 141.408 5.37759 141.366 5.70759C141.336 5.91159 141.282 6.08259 141.204 6.22059C141.126 6.35859 141.03 6.46959 140.916 6.55359C140.808 6.63759 140.661 6.70359 140.475 6.75159C140.295 6.79359 140.112 6.82059 139.926 6.83259C139.74 6.85059 139.509 6.85959 139.233 6.85959C139.005 6.85959 138.804 6.85359 138.63 6.84159C138.456 6.83559 138.324 6.82659 138.234 6.81459C138.15 6.80859 138.021 6.79359 137.847 6.76959C137.673 6.74559 137.532 6.72759 137.424 6.71559L137.541 5.95059C137.859 5.97459 138.315 5.98659 138.909 5.98659C139.455 5.98659 139.815 5.96559 139.989 5.92359C140.169 5.87559 140.274 5.77959 140.304 5.63559C140.298 5.59959 140.298 5.57259 140.304 5.55459C140.316 5.53059 140.313 5.50659 140.295 5.48259C140.277 5.45859 140.265 5.44059 140.259 5.42859C140.259 5.41659 140.244 5.40159 140.214 5.38359C140.19 5.36559 140.172 5.35059 140.16 5.33859C140.148 5.32659 140.124 5.31459 140.088 5.30259C140.052 5.28459 140.022 5.26959 139.998 5.25759C139.974 5.24559 139.938 5.23059 139.89 5.21259C139.842 5.18859 139.803 5.17059 139.773 5.15859Z" fill="#333351"/>
<path d="M144.135 0.460593L143.433 5.41059C143.409 5.59659 143.427 5.72559 143.487 5.79759C143.553 5.86359 143.682 5.89659 143.874 5.89659H144.27L144.315 6.71559C144.123 6.81159 143.814 6.85959 143.388 6.85959C143.01 6.85959 142.725 6.75159 142.533 6.53559C142.341 6.31959 142.269 6.01659 142.317 5.62659L143.046 0.460593H144.135Z" fill="#333351"/>
<path d="M147.507 2.22459C148.287 2.22459 148.827 2.41059 149.127 2.78259C149.433 3.14859 149.526 3.75459 149.406 4.60059C149.292 5.42859 149.049 6.01659 148.677 6.36459C148.311 6.70659 147.744 6.87759 146.976 6.87759C146.202 6.87759 145.659 6.69459 145.347 6.32859C145.035 5.96259 144.936 5.35959 145.05 4.51959C145.17 3.68559 145.413 3.09459 145.779 2.74659C146.145 2.39859 146.721 2.22459 147.507 2.22459ZM147.498 3.09759C147.084 3.09759 146.784 3.19959 146.598 3.40359C146.412 3.60759 146.277 4.00659 146.193 4.60059C146.109 5.15259 146.121 5.52459 146.229 5.71659C146.337 5.90859 146.589 6.00459 146.985 6.00459C147.399 6.00459 147.699 5.90259 147.885 5.69859C148.071 5.48859 148.203 5.09559 148.281 4.51959C148.359 3.95559 148.344 3.57759 148.236 3.38559C148.134 3.19359 147.888 3.09759 147.498 3.09759Z" fill="#333351"/>
<path d="M152.028 3.14259L151.704 5.41059C151.68 5.60259 151.695 5.73159 151.749 5.79759C151.809 5.86359 151.938 5.89659 152.136 5.89659H152.757L152.802 6.70659C152.496 6.80859 152.124 6.85959 151.686 6.85959C151.284 6.85959 150.987 6.74559 150.795 6.51759C150.609 6.28959 150.546 5.96859 150.606 5.55459L150.948 3.14259H150.147L150.246 2.39559L151.065 2.35059L151.245 1.08159H152.325L152.145 2.35059H153.423L153.324 3.14259H152.028Z" fill="#333351"/>
<path d="M85.4282 60.4604L85.2032 62.1794C85.1432 62.6054 85.0652 62.9354 84.9692 63.1694C85.2392 62.9054 85.5362 62.6834 85.8602 62.5034C86.1902 62.3234 86.5022 62.2334 86.7962 62.2334C87.3242 62.2334 87.6842 62.4074 87.8762 62.7554C88.0682 63.0974 88.1042 63.7154 87.9842 64.6094C87.9182 65.0774 87.8252 65.4644 87.7052 65.7704C87.5852 66.0764 87.4262 66.3104 87.2282 66.4724C87.0362 66.6284 86.8292 66.7334 86.6072 66.7874C86.3912 66.8474 86.1242 66.8774 85.8062 66.8774C85.4642 66.8774 85.0652 66.8444 84.6092 66.7784C84.1592 66.7124 83.7872 66.6314 83.4932 66.5354L84.3482 60.4604H85.4282ZM84.9422 63.9884L84.6542 66.0044C85.1462 66.0164 85.4192 66.0224 85.4732 66.0224C85.7492 66.0224 85.9562 66.0074 86.0942 65.9774C86.2382 65.9474 86.3672 65.8784 86.4812 65.7704C86.5952 65.6564 86.6762 65.5094 86.7242 65.3294C86.7782 65.1434 86.8292 64.8794 86.8772 64.5374C86.9552 63.9314 86.9672 63.5504 86.9132 63.3944C86.8592 63.2384 86.7152 63.1604 86.4812 63.1604C86.3012 63.1604 86.0732 63.2354 85.7972 63.3854C85.5212 63.5294 85.2362 63.7304 84.9422 63.9884Z" fill="#4C93E0"/>
<path d="M90.6935 60.4604L89.9915 65.4104C89.9675 65.5965 89.9855 65.7254 90.0455 65.7974C90.1115 65.8634 90.2405 65.8964 90.4325 65.8964H90.8285L90.8735 66.7154C90.6815 66.8114 90.3725 66.8594 89.9465 66.8594C89.5685 66.8594 89.2835 66.7514 89.0915 66.5354C88.8995 66.3194 88.8275 66.0164 88.8755 65.6264L89.6045 60.4604H90.6935Z" fill="#4C93E0"/>
<path d="M94.0646 62.2244C94.8446 62.2244 95.3846 62.4104 95.6846 62.7824C95.9906 63.1484 96.0836 63.7544 95.9636 64.6004C95.8496 65.4284 95.6066 66.0164 95.2346 66.3644C94.8686 66.7064 94.3016 66.8774 93.5336 66.8774C92.7596 66.8774 92.2166 66.6944 91.9046 66.3284C91.5926 65.9624 91.4936 65.3594 91.6076 64.5194C91.7276 63.6854 91.9706 63.0944 92.3366 62.7464C92.7026 62.3984 93.2786 62.2244 94.0646 62.2244ZM94.0556 63.0974C93.6416 63.0974 93.3416 63.1994 93.1556 63.4034C92.9696 63.6074 92.8346 64.0064 92.7506 64.6004C92.6666 65.1524 92.6786 65.5244 92.7866 65.7164C92.8946 65.9084 93.1466 66.0044 93.5426 66.0044C93.9566 66.0044 94.2566 65.9024 94.4426 65.6984C94.6286 65.4884 94.7606 65.0954 94.8386 64.5194C94.9166 63.9554 94.9016 63.5774 94.7936 63.3854C94.6916 63.1934 94.4456 63.0974 94.0556 63.0974Z" fill="#4C93E0"/>
<path d="M100.214 65.8784L100.286 66.6074C99.8298 66.7814 99.2868 66.8684 98.6568 66.8684C97.8648 66.8684 97.3218 66.6854 97.0278 66.3194C96.7338 65.9534 96.6468 65.3504 96.7668 64.5104C96.8868 63.6704 97.1268 63.0794 97.4868 62.7374C97.8468 62.3954 98.4108 62.2244 99.1788 62.2244C99.8148 62.2244 100.331 62.3114 100.727 62.4854L100.574 63.1514C99.9618 63.1394 99.5508 63.1334 99.3408 63.1334C98.8608 63.1334 98.5188 63.2294 98.3148 63.4214C98.1168 63.6074 97.9818 63.9914 97.9098 64.5734C97.8378 65.1614 97.8648 65.5424 97.9908 65.7164C98.1168 65.8844 98.4048 65.9684 98.8548 65.9684C99.3588 65.9684 99.8118 65.9384 100.214 65.8784Z" fill="#4C93E0"/>
<path d="M104.463 62.3504H105.579C105.351 63.1484 104.877 63.8084 104.157 64.3304C104.265 64.4744 104.367 64.6545 104.463 64.8705L105.291 66.7604H104.13L103.338 64.8254C103.128 64.9394 102.822 65.0864 102.42 65.2664L102.195 66.7604H101.106L101.988 60.4604H103.086L102.708 63.2774C102.66 63.6374 102.558 64.0064 102.402 64.3844C103.596 63.7544 104.283 63.0764 104.463 62.3504Z" fill="#4C93E0"/>
<path d="M73.5608 71.3504L73.5338 72.2324C73.8098 71.9564 74.1158 71.7224 74.4518 71.5304C74.7938 71.3384 75.1148 71.2424 75.4148 71.2424C75.7628 71.2424 76.0298 71.3114 76.2158 71.4494C76.4078 71.5814 76.5428 71.8244 76.6208 72.1784C76.6988 72.5264 76.6898 73.0064 76.5938 73.6184C76.5278 74.1044 76.4318 74.5034 76.3058 74.8154C76.1858 75.1274 76.0268 75.3584 75.8288 75.5084C75.6368 75.6584 75.4388 75.7574 75.2348 75.8054C75.0368 75.8534 74.7878 75.8774 74.4878 75.8774C74.0858 75.8774 73.6328 75.8384 73.1288 75.7604C73.1288 76.0424 73.1078 76.3215 73.0658 76.5975L72.9218 77.5154H71.8238L72.6968 71.3504H73.5608ZM73.2818 75.0314L74.0828 75.0405C74.6108 75.0405 74.9528 74.9595 75.1088 74.7975C75.2708 74.6295 75.3968 74.2214 75.4868 73.5734C75.5648 72.9554 75.5768 72.5654 75.5228 72.4034C75.4688 72.2414 75.3248 72.1604 75.0908 72.1604C74.9168 72.1604 74.6888 72.2354 74.4068 72.3854C74.1308 72.5354 73.8488 72.7424 73.5608 73.0064L73.2818 75.0314Z" fill="#4C93E0"/>
<path d="M80.9497 71.2244L80.6977 72.2504H80.4097C80.2657 72.2504 80.1067 72.2864 79.9327 72.3584C79.7587 72.4244 79.5997 72.4994 79.4557 72.5834C79.3117 72.6614 79.0927 72.7964 78.7987 72.9884L78.4207 75.7604H77.3317L77.9527 71.3504H78.7897L78.7627 72.2864C79.4707 71.5784 80.1157 71.2244 80.6977 71.2244H80.9497Z" fill="#4C93E0"/>
<path d="M83.5529 71.2244C84.3329 71.2244 84.8729 71.4104 85.1729 71.7824C85.4789 72.1484 85.5719 72.7544 85.4519 73.6004C85.3379 74.4284 85.0949 75.0164 84.7229 75.3644C84.3569 75.7064 83.7899 75.8774 83.0219 75.8774C82.2479 75.8774 81.7049 75.6945 81.3929 75.3285C81.0809 74.9625 80.9819 74.3594 81.0959 73.5194C81.2159 72.6854 81.4589 72.0944 81.8249 71.7464C82.1909 71.3984 82.7669 71.2244 83.5529 71.2244ZM83.5439 72.0974C83.1299 72.0974 82.8299 72.1994 82.6439 72.4034C82.4579 72.6074 82.3229 73.0064 82.2389 73.6004C82.1549 74.1524 82.1669 74.5244 82.2749 74.7164C82.3829 74.9084 82.6349 75.0044 83.0309 75.0044C83.4449 75.0044 83.7449 74.9024 83.9309 74.6984C84.1169 74.4884 84.2489 74.0954 84.3269 73.5194C84.4049 72.9554 84.3899 72.5774 84.2819 72.3854C84.1799 72.1934 83.9339 72.0974 83.5439 72.0974Z" fill="#4C93E0"/>
<path d="M91.0611 69.4604L90.1791 75.7604H89.3151L89.3421 74.9144C88.7301 75.5504 88.0911 75.8684 87.4251 75.8684C86.9571 75.8684 86.6181 75.6885 86.4081 75.3285C86.2041 74.9625 86.1621 74.3474 86.2821 73.4834C86.3541 72.9974 86.4501 72.6014 86.5701 72.2954C86.6961 71.9834 86.8521 71.7524 87.0381 71.6024C87.2241 71.4524 87.4131 71.3534 87.6051 71.3054C87.7971 71.2514 88.0341 71.2244 88.3161 71.2244C88.7721 71.2244 89.2491 71.2634 89.7471 71.3414C89.7591 71.0534 89.7801 70.7714 89.8101 70.4954L89.9631 69.4604H91.0611ZM89.5941 72.0794L88.7661 72.0704C88.4121 72.0704 88.1541 72.1034 87.9921 72.1694C87.8301 72.2294 87.7041 72.3584 87.6141 72.5564C87.5241 72.7544 87.4491 73.0814 87.3891 73.5374C87.3111 74.1134 87.2961 74.4914 87.3441 74.6714C87.3981 74.8514 87.5451 74.9385 87.7851 74.9325C88.0311 74.9325 88.2651 74.8694 88.4871 74.7434C88.7151 74.6114 88.9911 74.3954 89.3151 74.0954L89.5941 72.0794Z" fill="#4C93E0"/>
<path d="M95.9756 71.3504L95.3636 75.7604H94.5176L94.5536 74.8875C93.8576 75.5475 93.2036 75.8774 92.5916 75.8774C92.1836 75.8774 91.8866 75.7664 91.7006 75.5444C91.5146 75.3224 91.4516 75.0194 91.5116 74.6354L91.9706 71.3504H93.0596L92.6366 74.3474C92.6006 74.5694 92.6096 74.7254 92.6636 74.8154C92.7236 74.9054 92.8406 74.9504 93.0146 74.9504C93.2366 74.9504 93.4526 74.8874 93.6626 74.7614C93.8726 74.6354 94.1576 74.4164 94.5176 74.1044L94.8956 71.3504H95.9756Z" fill="#4C93E0"/>
<path d="M100.126 74.8784L100.198 75.6074C99.7419 75.7814 99.1989 75.8684 98.5689 75.8684C97.7769 75.8684 97.2339 75.6854 96.9399 75.3194C96.6459 74.9534 96.5589 74.3504 96.6789 73.5104C96.7989 72.6704 97.0389 72.0794 97.3989 71.7374C97.7589 71.3954 98.3229 71.2244 99.0909 71.2244C99.7269 71.2244 100.243 71.3114 100.639 71.4854L100.486 72.1514C99.8739 72.1394 99.4629 72.1334 99.2529 72.1334C98.7729 72.1334 98.4309 72.2294 98.2269 72.4214C98.0289 72.6074 97.8939 72.9914 97.8219 73.5734C97.7499 74.1614 97.7769 74.5424 97.9029 74.7164C98.0289 74.8844 98.3169 74.9684 98.7669 74.9684C99.2709 74.9684 99.7239 74.9384 100.126 74.8784Z" fill="#4C93E0"/>
<path d="M102.989 72.1424L102.665 74.4104C102.641 74.6024 102.656 74.7315 102.71 74.7975C102.77 74.8635 102.899 74.8964 103.097 74.8964H103.718L103.763 75.7064C103.457 75.8084 103.085 75.8595 102.647 75.8595C102.245 75.8595 101.948 75.7454 101.756 75.5174C101.57 75.2894 101.507 74.9685 101.567 74.5545L101.909 72.1424H101.108L101.207 71.3954L102.026 71.3504L102.206 70.0814H103.286L103.106 71.3504H104.384L104.285 72.1424H102.989Z" fill="#4C93E0"/>
<path d="M105.792 69.4334H106.287C106.395 69.4334 106.473 69.4634 106.521 69.5234C106.575 69.5834 106.596 69.6644 106.584 69.7664L106.521 70.2614C106.485 70.4594 106.371 70.5584 106.179 70.5584H105.684C105.456 70.5584 105.357 70.4444 105.387 70.2164L105.459 69.7304C105.477 69.5324 105.588 69.4334 105.792 69.4334ZM105.72 75.7604H104.631L105.252 71.3504H106.332L105.72 75.7604Z" fill="#4C93E0"/>
<path d="M109.516 71.2244C110.296 71.2244 110.836 71.4104 111.136 71.7824C111.442 72.1484 111.535 72.7544 111.415 73.6004C111.301 74.4284 111.058 75.0164 110.686 75.3644C110.32 75.7064 109.753 75.8774 108.985 75.8774C108.211 75.8774 107.668 75.6945 107.356 75.3285C107.044 74.9625 106.945 74.3594 107.059 73.5194C107.179 72.6854 107.422 72.0944 107.788 71.7464C108.154 71.3984 108.73 71.2244 109.516 71.2244ZM109.507 72.0974C109.093 72.0974 108.793 72.1994 108.607 72.4034C108.421 72.6074 108.286 73.0064 108.202 73.6004C108.118 74.1524 108.13 74.5244 108.238 74.7164C108.346 74.9084 108.598 75.0044 108.994 75.0044C109.408 75.0044 109.708 74.9024 109.894 74.6984C110.08 74.4884 110.212 74.0954 110.29 73.5194C110.368 72.9554 110.353 72.5774 110.245 72.3854C110.143 72.1934 109.897 72.0974 109.507 72.0974Z" fill="#4C93E0"/>
<path d="M113.595 71.3504L113.568 72.2594C114.312 71.5694 114.996 71.2244 115.62 71.2244C115.992 71.2244 116.274 71.3324 116.466 71.5484C116.664 71.7644 116.736 72.0704 116.682 72.4664L116.214 75.7604H115.125L115.539 72.7724C115.569 72.5264 115.56 72.3614 115.512 72.2774C115.47 72.1874 115.371 72.1454 115.215 72.1514C114.987 72.1514 114.753 72.2174 114.513 72.3494C114.273 72.4814 113.961 72.6974 113.577 72.9974L113.199 75.7604H112.11L112.731 71.3504H113.595Z" fill="#4C93E0"/>
<path fill-rule="evenodd" clip-rule="evenodd" d="M71.5 13.3008C71.5 12.1962 72.3954 11.3008 73.5 11.3008H196.589C197.693 11.3008 198.589 12.1962 198.589 13.3008V14.7604C198.589 15.3127 198.141 15.7604 197.589 15.7604C197.036 15.7604 196.589 15.3127 196.589 14.7604V13.3008H73.5V14.7604C73.5 15.3127 73.0523 15.7604 72.5 15.7604C71.9477 15.7604 71.5 15.3127 71.5 14.7604V13.3008Z" fill="#333351" stroke="#333351" stroke-width="2" stroke-linecap="round"/>
<path fill-rule="evenodd" clip-rule="evenodd" d="M119.5 52.7607C119.5 53.8653 118.605 54.7607 117.5 54.7607L71.5 54.7607C70.3954 54.7607 69.5 53.8653 69.5 52.7607L69.5 51.7607C69.5 51.2085 69.9477 50.7607 70.5 50.7607C71.0523 50.7607 71.5 51.2085 71.5 51.7607L71.5 52.7607L117.5 52.7607L117.5 51.7607C117.5 51.2085 117.948 50.7607 118.5 50.7607C119.052 50.7607 119.5 51.2085 119.5 51.7607L119.5 52.7607Z" fill="#4C93E0"/>
<path d="M130.542 69.8786L130.614 70.6076C130.158 70.7816 129.615 70.8686 128.985 70.8686C128.193 70.8686 127.65 70.6856 127.356 70.3196C127.062 69.9536 126.975 69.3506 127.095 68.5106C127.215 67.6706 127.455 67.0796 127.815 66.7376C128.175 66.3956 128.739 66.2246 129.507 66.2246C130.143 66.2246 130.659 66.3116 131.055 66.4856L130.902 67.1516C130.29 67.1396 129.879 67.1336 129.669 67.1336C129.189 67.1336 128.847 67.2296 128.643 67.4216C128.445 67.6076 128.31 67.9916 128.238 68.5736C128.166 69.1616 128.193 69.5426 128.319 69.7166C128.445 69.8846 128.733 69.9686 129.183 69.9686C129.687 69.9686 130.14 69.9386 130.542 69.8786Z" fill="#00367A"/>
<path d="M133.405 64.4606L133.189 66.1076C133.129 66.5276 133.054 66.8876 132.964 67.1876C133.684 66.5456 134.341 66.2246 134.935 66.2246C135.319 66.2246 135.607 66.3326 135.799 66.5486C135.997 66.7646 136.066 67.0706 136.006 67.4666L135.538 70.7606H134.449L134.863 67.7546C134.893 67.5146 134.887 67.3556 134.845 67.2776C134.803 67.1936 134.704 67.1516 134.548 67.1516C134.32 67.1516 134.083 67.2206 133.837 67.3586C133.597 67.4906 133.285 67.7066 132.901 68.0066L132.523 70.7606H131.434L132.316 64.4606H133.405Z" fill="#00367A"/>
<path d="M140.748 70.7606H139.884L139.911 69.9956C139.413 70.5716 138.798 70.8626 138.066 70.8686C137.526 70.8746 137.157 70.6976 136.959 70.3376C136.767 69.9776 136.731 69.3596 136.851 68.4836C136.923 67.9856 137.022 67.5836 137.148 67.2776C137.28 66.9656 137.451 66.7346 137.661 66.5846C137.871 66.4346 138.081 66.3386 138.291 66.2966C138.507 66.2486 138.786 66.2246 139.128 66.2246C139.89 66.2246 140.631 66.3116 141.351 66.4856L140.748 70.7606ZM140.163 67.1066L139.362 67.0976C139.086 67.0976 138.876 67.1126 138.732 67.1426C138.588 67.1666 138.459 67.2326 138.345 67.3406C138.237 67.4426 138.156 67.5836 138.102 67.7636C138.054 67.9436 138.006 68.2016 137.958 68.5376C137.874 69.1556 137.856 69.5456 137.904 69.7076C137.958 69.8696 138.108 69.9506 138.354 69.9506C138.606 69.9506 138.849 69.8816 139.083 69.7436C139.317 69.5996 139.584 69.3776 139.884 69.0776L140.163 67.1066Z" fill="#00367A"/>
<path d="M143.143 64.4336H143.638C143.746 64.4336 143.824 64.4636 143.872 64.5236C143.926 64.5836 143.947 64.6646 143.935 64.7666L143.872 65.2616C143.836 65.4596 143.722 65.5586 143.53 65.5586H143.035C142.807 65.5586 142.708 65.4446 142.738 65.2166L142.81 64.7306C142.828 64.5326 142.939 64.4336 143.143 64.4336ZM143.071 70.7606H141.982L142.603 66.3506H143.683L143.071 70.7606Z" fill="#00367A"/>
<path d="M145.786 66.3506L145.759 67.2596C146.503 66.5696 147.187 66.2246 147.811 66.2246C148.183 66.2246 148.465 66.3326 148.657 66.5486C148.855 66.7646 148.927 67.0706 148.873 67.4666L148.405 70.7606H147.316L147.73 67.7726C147.76 67.5266 147.751 67.3616 147.703 67.2776C147.661 67.1876 147.562 67.1456 147.406 67.1516C147.178 67.1516 146.944 67.2176 146.704 67.3496C146.464 67.4816 146.152 67.6976 145.768 67.9976L145.39 70.7606H144.301L144.922 66.3506H145.786Z" fill="#00367A"/>
<path d="M153.802 69.1586L152.677 68.6546C152.335 68.4986 152.095 68.3156 151.957 68.1056C151.819 67.8956 151.768 67.6346 151.804 67.3226C151.852 66.9146 152.026 66.6296 152.326 66.4676C152.632 66.2996 153.097 66.2186 153.721 66.2246C154.423 66.2366 155.074 66.2906 155.674 66.3866L155.557 67.1336C154.987 67.1156 154.399 67.1066 153.793 67.1066C153.427 67.1066 153.184 67.1216 153.064 67.1516C152.944 67.1816 152.875 67.2626 152.857 67.3946C152.839 67.5146 152.866 67.6076 152.938 67.6736C153.01 67.7336 153.151 67.8086 153.361 67.8986L154.486 68.4026C154.858 68.5646 155.113 68.7416 155.251 68.9336C155.389 69.1196 155.437 69.3776 155.395 69.7076C155.365 69.9116 155.311 70.0826 155.233 70.2206C155.155 70.3586 155.059 70.4696 154.945 70.5536C154.837 70.6376 154.69 70.7036 154.504 70.7516C154.324 70.7936 154.141 70.8206 153.955 70.8326C153.769 70.8506 153.538 70.8596 153.262 70.8596C153.034 70.8596 152.833 70.8536 152.659 70.8416C152.485 70.8356 152.353 70.8266 152.263 70.8146C152.179 70.8086 152.05 70.7936 151.876 70.7696C151.702 70.7456 151.561 70.7276 151.453 70.7156L151.57 69.9506C151.888 69.9746 152.344 69.9866 152.938 69.9866C153.484 69.9866 153.844 69.9656 154.018 69.9236C154.198 69.8756 154.303 69.7796 154.333 69.6356C154.327 69.5996 154.327 69.5726 154.333 69.5546C154.345 69.5306 154.342 69.5066 154.324 69.4826C154.306 69.4586 154.294 69.4406 154.288 69.4286C154.288 69.4166 154.273 69.4016 154.243 69.3836C154.219 69.3656 154.201 69.3506 154.189 69.3386C154.177 69.3266 154.153 69.3146 154.117 69.3026C154.081 69.2846 154.051 69.2696 154.027 69.2576C154.003 69.2456 153.967 69.2306 153.919 69.2126C153.871 69.1886 153.832 69.1706 153.802 69.1586Z" fill="#00367A"/>
<path d="M159.739 66.3506H160.882C160.594 67.7846 160.177 69.0206 159.631 70.0586C159.163 70.9406 158.686 71.5616 158.2 71.9216C157.714 72.2876 157.129 72.5126 156.445 72.5966L156.274 71.8586C156.664 71.7686 157 71.6456 157.282 71.4896C157.564 71.3396 157.834 71.0966 158.092 70.7606H157.633C157.495 70.7606 157.375 70.7216 157.273 70.6436C157.171 70.5596 157.108 70.4516 157.084 70.3196L156.283 66.3506H157.435L158.002 69.8066C158.02 69.9026 158.077 69.9506 158.173 69.9506H158.587L158.704 69.7076C159.19 68.6576 159.535 67.5386 159.739 66.3506Z" fill="#00367A"/>
<path d="M162.697 66.3506L162.67 67.2596C163.414 66.5696 164.098 66.2246 164.722 66.2246C165.094 66.2246 165.376 66.3326 165.568 66.5486C165.766 66.7646 165.838 67.0706 165.784 67.4666L165.316 70.7606H164.227L164.641 67.7726C164.671 67.5266 164.662 67.3616 164.614 67.2776C164.572 67.1876 164.473 67.1456 164.317 67.1516C164.089 67.1516 163.855 67.2176 163.615 67.3496C163.375 67.4816 163.063 67.6976 162.679 67.9976L162.301 70.7606H161.212L161.833 66.3506H162.697Z" fill="#00367A"/>
<path d="M170.049 69.8786L170.121 70.6076C169.665 70.7816 169.122 70.8686 168.492 70.8686C167.7 70.8686 167.157 70.6856 166.863 70.3196C166.569 69.9536 166.482 69.3506 166.602 68.5106C166.722 67.6706 166.962 67.0796 167.322 66.7376C167.682 66.3956 168.246 66.2246 169.014 66.2246C169.65 66.2246 170.166 66.3116 170.562 66.4856L170.409 67.1516C169.797 67.1396 169.386 67.1336 169.176 67.1336C168.696 67.1336 168.354 67.2296 168.15 67.4216C167.952 67.6076 167.817 67.9916 167.745 68.5736C167.673 69.1616 167.7 69.5426 167.826 69.7166C167.952 69.8846 168.24 69.9686 168.69 69.9686C169.194 69.9686 169.647 69.9386 170.049 69.8786Z" fill="#00367A"/>
<path d="M174.731 67.1426L174.407 69.4106C174.383 69.6026 174.398 69.7316 174.452 69.7976C174.512 69.8636 174.641 69.8966 174.839 69.8966H175.46L175.505 70.7066C175.199 70.8086 174.827 70.8596 174.389 70.8596C173.987 70.8596 173.69 70.7456 173.498 70.5176C173.312 70.2896 173.249 69.9686 173.309 69.5546L173.651 67.1426H172.85L172.949 66.3956L173.768 66.3506L173.948 65.0816H175.028L174.848 66.3506H176.126L176.027 67.1426H174.731Z" fill="#00367A"/>
<path d="M177.535 64.4336H178.03C178.138 64.4336 178.216 64.4636 178.264 64.5236C178.318 64.5836 178.339 64.6646 178.327 64.7666L178.264 65.2616C178.228 65.4596 178.114 65.5586 177.922 65.5586H177.427C177.199 65.5586 177.1 65.4446 177.13 65.2166L177.202 64.7306C177.22 64.5326 177.331 64.4336 177.535 64.4336ZM177.463 70.7606H176.374L176.995 66.3506H178.075L177.463 70.7606Z" fill="#00367A"/>
<path d="M180.151 66.3506L180.133 67.2236C180.781 66.5576 181.396 66.2246 181.978 66.2246C182.308 66.2246 182.563 66.3056 182.743 66.4676C182.923 66.6296 183.019 66.8546 183.031 67.1426C183.355 66.8186 183.655 66.5846 183.931 66.4406C184.207 66.2966 184.492 66.2246 184.786 66.2246C185.176 66.2246 185.461 66.3356 185.641 66.5576C185.827 66.7796 185.89 67.0826 185.83 67.4666L185.371 70.7606H184.291L184.705 67.7546C184.741 67.5266 184.726 67.3706 184.66 67.2866C184.6 67.1966 184.489 67.1516 184.327 67.1516C184.141 67.1516 183.952 67.2116 183.76 67.3316C183.574 67.4456 183.301 67.6706 182.941 68.0066L182.554 70.7606H181.51L181.924 67.7546C181.954 67.5386 181.942 67.3856 181.888 67.2956C181.834 67.1996 181.72 67.1516 181.546 67.1516C181.354 67.1516 181.162 67.2086 180.97 67.3226C180.784 67.4366 180.514 67.6526 180.16 67.9706L179.773 70.7606H178.693L179.314 66.3506H180.151Z" fill="#00367A"/>
<path d="M190.411 69.8696L190.483 70.5806C190.021 70.7726 189.397 70.8686 188.611 70.8686C187.825 70.8686 187.279 70.6706 186.973 70.2746C186.667 69.8726 186.568 69.2606 186.676 68.4386C186.79 67.5926 187.027 67.0136 187.387 66.7016C187.747 66.3836 188.341 66.2246 189.169 66.2246C189.901 66.2246 190.393 66.3506 190.645 66.6026C190.903 66.8486 190.999 67.2116 190.933 67.6916C190.873 68.1236 190.705 68.4356 190.429 68.6276C190.153 68.8196 189.73 68.9336 189.16 68.9696L187.765 69.0866C187.771 69.4346 187.855 69.6716 188.017 69.7976C188.179 69.9176 188.425 69.9776 188.755 69.9776C189.253 69.9776 189.805 69.9416 190.411 69.8696ZM187.828 68.3486L189.088 68.2406C189.34 68.2226 189.523 68.1686 189.637 68.0786C189.757 67.9826 189.832 67.8206 189.862 67.5926C189.88 67.3646 189.835 67.2236 189.727 67.1696C189.619 67.1156 189.388 67.0886 189.034 67.0886C188.638 67.0946 188.359 67.1816 188.197 67.3496C188.035 67.5116 187.912 67.8446 187.828 68.3486Z" fill="#00367A"/>
<path fill-rule="evenodd" clip-rule="evenodd" d="M195.5 52.7607C195.5 53.8653 194.605 54.7607 193.5 54.7607L123.5 54.7607C122.395 54.7607 121.5 53.8653 121.5 52.7607L121.5 51.7607C121.5 51.2085 121.948 50.7607 122.5 50.7607C123.052 50.7607 123.5 51.2085 123.5 51.7607L123.5 52.7607L193.5 52.7607L193.5 51.7607C193.5 51.2085 193.948 50.7607 194.5 50.7607C195.052 50.7607 195.5 51.2085 195.5 51.7607L195.5 52.7607Z" fill="#00367A"/>
<path d="M338.428 60.4604L338.203 62.1794C338.143 62.6054 338.065 62.9354 337.969 63.1694C338.239 62.9054 338.536 62.6834 338.86 62.5034C339.19 62.3234 339.502 62.2334 339.796 62.2334C340.324 62.2334 340.684 62.4074 340.876 62.7554C341.068 63.0974 341.104 63.7154 340.984 64.6094C340.918 65.0774 340.825 65.4644 340.705 65.7704C340.585 66.0764 340.426 66.3104 340.228 66.4724C340.036 66.6284 339.829 66.7334 339.607 66.7874C339.391 66.8474 339.124 66.8774 338.806 66.8774C338.464 66.8774 338.065 66.8444 337.609 66.7784C337.159 66.7124 336.787 66.6314 336.493 66.5354L337.348 60.4604H338.428ZM337.942 63.9884L337.654 66.0044C338.146 66.0164 338.419 66.0224 338.473 66.0224C338.749 66.0224 338.956 66.0074 339.094 65.9774C339.238 65.9474 339.367 65.8784 339.481 65.7704C339.595 65.6564 339.676 65.5094 339.724 65.3294C339.778 65.1434 339.829 64.8794 339.877 64.5374C339.955 63.9314 339.967 63.5504 339.913 63.3944C339.859 63.2384 339.715 63.1604 339.481 63.1604C339.301 63.1604 339.073 63.2354 338.797 63.3854C338.521 63.5294 338.236 63.7304 337.942 63.9884Z" fill="#4C93E0"/>
<path d="M343.693 60.4604L342.991 65.4104C342.967 65.5965 342.985 65.7254 343.045 65.7974C343.111 65.8634 343.24 65.8964 343.432 65.8964H343.828L343.873 66.7154C343.681 66.8114 343.372 66.8594 342.946 66.8594C342.568 66.8594 342.283 66.7514 342.091 66.5354C341.899 66.3194 341.827 66.0164 341.875 65.6264L342.604 60.4604H343.693Z" fill="#4C93E0"/>
<path d="M347.065 62.2244C347.845 62.2244 348.385 62.4104 348.685 62.7824C348.991 63.1484 349.084 63.7544 348.964 64.6004C348.85 65.4284 348.607 66.0164 348.235 66.3644C347.869 66.7064 347.302 66.8774 346.534 66.8774C345.76 66.8774 345.217 66.6944 344.905 66.3284C344.593 65.9624 344.494 65.3594 344.608 64.5194C344.728 63.6854 344.971 63.0944 345.337 62.7464C345.703 62.3984 346.279 62.2244 347.065 62.2244ZM347.056 63.0974C346.642 63.0974 346.342 63.1994 346.156 63.4034C345.97 63.6074 345.835 64.0064 345.751 64.6004C345.667 65.1524 345.679 65.5244 345.787 65.7164C345.895 65.9084 346.147 66.0044 346.543 66.0044C346.957 66.0044 347.257 65.9024 347.443 65.6984C347.629 65.4884 347.761 65.0954 347.839 64.5194C347.917 63.9554 347.902 63.5774 347.794 63.3854C347.692 63.1934 347.446 63.0974 347.056 63.0974Z" fill="#4C93E0"/>
<path d="M353.214 65.8784L353.286 66.6074C352.83 66.7814 352.287 66.8684 351.657 66.8684C350.865 66.8684 350.322 66.6854 350.028 66.3194C349.734 65.9534 349.647 65.3504 349.767 64.5104C349.887 63.6704 350.127 63.0794 350.487 62.7374C350.847 62.3954 351.411 62.2244 352.179 62.2244C352.815 62.2244 353.331 62.3114 353.727 62.4854L353.574 63.1514C352.962 63.1394 352.551 63.1334 352.341 63.1334C351.861 63.1334 351.519 63.2294 351.315 63.4214C351.117 63.6074 350.982 63.9914 350.91 64.5734C350.838 65.1614 350.865 65.5424 350.991 65.7164C351.117 65.8844 351.405 65.9684 351.855 65.9684C352.359 65.9684 352.812 65.9384 353.214 65.8784Z" fill="#4C93E0"/>
<path d="M357.463 62.3504H358.579C358.351 63.1484 357.877 63.8084 357.157 64.3304C357.265 64.4744 357.367 64.6545 357.463 64.8705L358.291 66.7604H357.13L356.338 64.8254C356.128 64.9394 355.822 65.0864 355.42 65.2664L355.195 66.7604H354.106L354.988 60.4604H356.086L355.708 63.2774C355.66 63.6374 355.558 64.0064 355.402 64.3844C356.596 63.7544 357.283 63.0764 357.463 62.3504Z" fill="#4C93E0"/>
<path d="M326.561 71.3504L326.534 72.2324C326.81 71.9564 327.116 71.7224 327.452 71.5304C327.794 71.3384 328.115 71.2424 328.415 71.2424C328.763 71.2424 329.03 71.3114 329.216 71.4494C329.408 71.5814 329.543 71.8244 329.621 72.1784C329.699 72.5264 329.69 73.0064 329.594 73.6184C329.528 74.1044 329.432 74.5034 329.306 74.8154C329.186 75.1274 329.027 75.3584 328.829 75.5084C328.637 75.6584 328.439 75.7574 328.235 75.8054C328.037 75.8534 327.788 75.8774 327.488 75.8774C327.086 75.8774 326.633 75.8384 326.129 75.7604C326.129 76.0424 326.108 76.3215 326.066 76.5975L325.922 77.5154H324.824L325.697 71.3504H326.561ZM326.282 75.0314L327.083 75.0405C327.611 75.0405 327.953 74.9595 328.109 74.7975C328.271 74.6295 328.397 74.2214 328.487 73.5734C328.565 72.9554 328.577 72.5654 328.523 72.4034C328.469 72.2414 328.325 72.1604 328.091 72.1604C327.917 72.1604 327.689 72.2354 327.407 72.3854C327.131 72.5354 326.849 72.7424 326.561 73.0064L326.282 75.0314Z" fill="#4C93E0"/>
<path d="M333.95 71.2244L333.698 72.2504H333.41C333.266 72.2504 333.107 72.2864 332.933 72.3584C332.759 72.4244 332.6 72.4994 332.456 72.5834C332.312 72.6614 332.093 72.7964 331.799 72.9884L331.421 75.7604H330.332L330.953 71.3504H331.79L331.763 72.2864C332.471 71.5784 333.116 71.2244 333.698 71.2244H333.95Z" fill="#4C93E0"/>
<path d="M336.553 71.2244C337.333 71.2244 337.873 71.4104 338.173 71.7824C338.479 72.1484 338.572 72.7544 338.452 73.6004C338.338 74.4284 338.095 75.0164 337.723 75.3644C337.357 75.7064 336.79 75.8774 336.022 75.8774C335.248 75.8774 334.705 75.6945 334.393 75.3285C334.081 74.9625 333.982 74.3594 334.096 73.5194C334.216 72.6854 334.459 72.0944 334.825 71.7464C335.191 71.3984 335.767 71.2244 336.553 71.2244ZM336.544 72.0974C336.13 72.0974 335.83 72.1994 335.644 72.4034C335.458 72.6074 335.323 73.0064 335.239 73.6004C335.155 74.1524 335.167 74.5244 335.275 74.7164C335.383 74.9084 335.635 75.0044 336.031 75.0044C336.445 75.0044 336.745 74.9024 336.931 74.6984C337.117 74.4884 337.249 74.0954 337.327 73.5194C337.405 72.9554 337.39 72.5774 337.282 72.3854C337.18 72.1934 336.934 72.0974 336.544 72.0974Z" fill="#4C93E0"/>
<path d="M344.061 69.4604L343.179 75.7604H342.315L342.342 74.9144C341.73 75.5504 341.091 75.8684 340.425 75.8684C339.957 75.8684 339.618 75.6885 339.408 75.3285C339.204 74.9625 339.162 74.3474 339.282 73.4834C339.354 72.9974 339.45 72.6014 339.57 72.2954C339.696 71.9834 339.852 71.7524 340.038 71.6024C340.224 71.4524 340.413 71.3534 340.605 71.3054C340.797 71.2514 341.034 71.2244 341.316 71.2244C341.772 71.2244 342.249 71.2634 342.747 71.3414C342.759 71.0534 342.78 70.7714 342.81 70.4954L342.963 69.4604H344.061ZM342.594 72.0794L341.766 72.0704C341.412 72.0704 341.154 72.1034 340.992 72.1694C340.83 72.2294 340.704 72.3584 340.614 72.5564C340.524 72.7544 340.449 73.0814 340.389 73.5374C340.311 74.1134 340.296 74.4914 340.344 74.6714C340.398 74.8514 340.545 74.9385 340.785 74.9325C341.031 74.9325 341.265 74.8694 341.487 74.7434C341.715 74.6114 341.991 74.3954 342.315 74.0954L342.594 72.0794Z" fill="#4C93E0"/>
<path d="M348.976 71.3504L348.364 75.7604H347.518L347.554 74.8875C346.858 75.5475 346.204 75.8774 345.592 75.8774C345.184 75.8774 344.887 75.7664 344.701 75.5444C344.515 75.3224 344.452 75.0194 344.512 74.6354L344.971 71.3504H346.06L345.637 74.3474C345.601 74.5694 345.61 74.7254 345.664 74.8154C345.724 74.9054 345.841 74.9504 346.015 74.9504C346.237 74.9504 346.453 74.8874 346.663 74.7614C346.873 74.6354 347.158 74.4164 347.518 74.1044L347.896 71.3504H348.976Z" fill="#4C93E0"/>
<path d="M353.126 74.8784L353.198 75.6074C352.742 75.7814 352.199 75.8684 351.569 75.8684C350.777 75.8684 350.234 75.6854 349.94 75.3194C349.646 74.9534 349.559 74.3504 349.679 73.5104C349.799 72.6704 350.039 72.0794 350.399 71.7374C350.759 71.3954 351.323 71.2244 352.091 71.2244C352.727 71.2244 353.243 71.3114 353.639 71.4854L353.486 72.1514C352.874 72.1394 352.463 72.1334 352.253 72.1334C351.773 72.1334 351.431 72.2294 351.227 72.4214C351.029 72.6074 350.894 72.9914 350.822 73.5734C350.75 74.1614 350.777 74.5424 350.903 74.7164C351.029 74.8844 351.317 74.9684 351.767 74.9684C352.271 74.9684 352.724 74.9384 353.126 74.8784Z" fill="#4C93E0"/>
<path d="M355.989 72.1424L355.665 74.4104C355.641 74.6024 355.656 74.7315 355.71 74.7975C355.77 74.8635 355.899 74.8964 356.097 74.8964H356.718L356.763 75.7064C356.457 75.8084 356.085 75.8595 355.647 75.8595C355.245 75.8595 354.948 75.7454 354.756 75.5174C354.57 75.2894 354.507 74.9685 354.567 74.5545L354.909 72.1424H354.108L354.207 71.3954L355.026 71.3504L355.206 70.0814H356.286L356.106 71.3504H357.384L357.285 72.1424H355.989Z" fill="#4C93E0"/>
<path d="M358.792 69.4334H359.287C359.395 69.4334 359.473 69.4634 359.521 69.5234C359.575 69.5834 359.596 69.6644 359.584 69.7664L359.521 70.2614C359.485 70.4594 359.371 70.5584 359.179 70.5584H358.684C358.456 70.5584 358.357 70.4444 358.387 70.2164L358.459 69.7304C358.477 69.5324 358.588 69.4334 358.792 69.4334ZM358.72 75.7604H357.631L358.252 71.3504H359.332L358.72 75.7604Z" fill="#4C93E0"/>
<path d="M362.516 71.2244C363.296 71.2244 363.836 71.4104 364.136 71.7824C364.442 72.1484 364.535 72.7544 364.415 73.6004C364.301 74.4284 364.058 75.0164 363.686 75.3644C363.32 75.7064 362.753 75.8774 361.985 75.8774C361.211 75.8774 360.668 75.6945 360.356 75.3285C360.044 74.9625 359.945 74.3594 360.059 73.5194C360.179 72.6854 360.422 72.0944 360.788 71.7464C361.154 71.3984 361.73 71.2244 362.516 71.2244ZM362.507 72.0974C362.093 72.0974 361.793 72.1994 361.607 72.4034C361.421 72.6074 361.286 73.0064 361.202 73.6004C361.118 74.1524 361.13 74.5244 361.238 74.7164C361.346 74.9084 361.598 75.0044 361.994 75.0044C362.408 75.0044 362.708 74.9024 362.894 74.6984C363.08 74.4884 363.212 74.0954 363.29 73.5194C363.368 72.9554 363.353 72.5774 363.245 72.3854C363.143 72.1934 362.897 72.0974 362.507 72.0974Z" fill="#4C93E0"/>
<path d="M366.595 71.3504L366.568 72.2594C367.312 71.5694 367.996 71.2244 368.62 71.2244C368.992 71.2244 369.274 71.3324 369.466 71.5484C369.664 71.7644 369.736 72.0704 369.682 72.4664L369.214 75.7604H368.125L368.539 72.7724C368.569 72.5264 368.56 72.3614 368.512 72.2774C368.47 72.1874 368.371 72.1454 368.215 72.1514C367.987 72.1514 367.753 72.2174 367.513 72.3494C367.273 72.4814 366.961 72.6974 366.577 72.9974L366.199 75.7604H365.11L365.731 71.3504H366.595Z" fill="#4C93E0"/>
<path fill-rule="evenodd" clip-rule="evenodd" d="M372.5 52.7607C372.5 53.8653 371.605 54.7607 370.5 54.7607L324.5 54.7607C323.395 54.7607 322.5 53.8653 322.5 52.7607L322.5 51.7607C322.5 51.2085 322.948 50.7607 323.5 50.7607C324.052 50.7607 324.5 51.2085 324.5 51.7607L324.5 52.7607L370.5 52.7607L370.5 51.7607C370.5 51.2085 370.948 50.7607 371.5 50.7607C372.052 50.7607 372.5 51.2085 372.5 51.7607L372.5 52.7607Z" fill="#4C93E0"/>
<path d="M383.542 69.8786L383.614 70.6076C383.158 70.7816 382.615 70.8686 381.985 70.8686C381.193 70.8686 380.65 70.6856 380.356 70.3196C380.062 69.9536 379.975 69.3506 380.095 68.5106C380.215 67.6706 380.455 67.0796 380.815 66.7376C381.175 66.3956 381.739 66.2246 382.507 66.2246C383.143 66.2246 383.659 66.3116 384.055 66.4856L383.902 67.1516C383.29 67.1396 382.879 67.1336 382.669 67.1336C382.189 67.1336 381.847 67.2296 381.643 67.4216C381.445 67.6076 381.31 67.9916 381.238 68.5736C381.166 69.1616 381.193 69.5426 381.319 69.7166C381.445 69.8846 381.733 69.9686 382.183 69.9686C382.687 69.9686 383.14 69.9386 383.542 69.8786Z" fill="#00367A"/>
<path d="M386.405 64.4606L386.189 66.1076C386.129 66.5276 386.054 66.8876 385.964 67.1876C386.684 66.5456 387.341 66.2246 387.935 66.2246C388.319 66.2246 388.607 66.3326 388.799 66.5486C388.997 66.7646 389.066 67.0706 389.006 67.4666L388.538 70.7606H387.449L387.863 67.7546C387.893 67.5146 387.887 67.3556 387.845 67.2776C387.803 67.1936 387.704 67.1516 387.548 67.1516C387.32 67.1516 387.083 67.2206 386.837 67.3586C386.597 67.4906 386.285 67.7066 385.901 68.0066L385.523 70.7606H384.434L385.316 64.4606H386.405Z" fill="#00367A"/>
<path d="M393.748 70.7606H392.884L392.911 69.9956C392.413 70.5716 391.798 70.8626 391.066 70.8686C390.526 70.8746 390.157 70.6976 389.959 70.3376C389.767 69.9776 389.731 69.3596 389.851 68.4836C389.923 67.9856 390.022 67.5836 390.148 67.2776C390.28 66.9656 390.451 66.7346 390.661 66.5846C390.871 66.4346 391.081 66.3386 391.291 66.2966C391.507 66.2486 391.786 66.2246 392.128 66.2246C392.89 66.2246 393.631 66.3116 394.351 66.4856L393.748 70.7606ZM393.163 67.1066L392.362 67.0976C392.086 67.0976 391.876 67.1126 391.732 67.1426C391.588 67.1666 391.459 67.2326 391.345 67.3406C391.237 67.4426 391.156 67.5836 391.102 67.7636C391.054 67.9436 391.006 68.2016 390.958 68.5376C390.874 69.1556 390.856 69.5456 390.904 69.7076C390.958 69.8696 391.108 69.9506 391.354 69.9506C391.606 69.9506 391.849 69.8816 392.083 69.7436C392.317 69.5996 392.584 69.3776 392.884 69.0776L393.163 67.1066Z" fill="#00367A"/>
<path d="M396.143 64.4336H396.638C396.746 64.4336 396.824 64.4636 396.872 64.5236C396.926 64.5836 396.947 64.6646 396.935 64.7666L396.872 65.2616C396.836 65.4596 396.722 65.5586 396.53 65.5586H396.035C395.807 65.5586 395.708 65.4446 395.738 65.2166L395.81 64.7306C395.828 64.5326 395.939 64.4336 396.143 64.4336ZM396.071 70.7606H394.982L395.603 66.3506H396.683L396.071 70.7606Z" fill="#00367A"/>
<path d="M398.786 66.3506L398.759 67.2596C399.503 66.5696 400.187 66.2246 400.811 66.2246C401.183 66.2246 401.465 66.3326 401.657 66.5486C401.855 66.7646 401.927 67.0706 401.873 67.4666L401.405 70.7606H400.316L400.73 67.7726C400.76 67.5266 400.751 67.3616 400.703 67.2776C400.661 67.1876 400.562 67.1456 400.406 67.1516C400.178 67.1516 399.944 67.2176 399.704 67.3496C399.464 67.4816 399.152 67.6976 398.768 67.9976L398.39 70.7606H397.301L397.922 66.3506H398.786Z" fill="#00367A"/>
<path d="M406.802 69.1586L405.677 68.6546C405.335 68.4986 405.095 68.3156 404.957 68.1056C404.819 67.8956 404.768 67.6346 404.804 67.3226C404.852 66.9146 405.026 66.6296 405.326 66.4676C405.632 66.2996 406.097 66.2186 406.721 66.2246C407.423 66.2366 408.074 66.2906 408.674 66.3866L408.557 67.1336C407.987 67.1156 407.399 67.1066 406.793 67.1066C406.427 67.1066 406.184 67.1216 406.064 67.1516C405.944 67.1816 405.875 67.2626 405.857 67.3946C405.839 67.5146 405.866 67.6076 405.938 67.6736C406.01 67.7336 406.151 67.8086 406.361 67.8986L407.486 68.4026C407.858 68.5646 408.113 68.7416 408.251 68.9336C408.389 69.1196 408.437 69.3776 408.395 69.7076C408.365 69.9116 408.311 70.0826 408.233 70.2206C408.155 70.3586 408.059 70.4696 407.945 70.5536C407.837 70.6376 407.69 70.7036 407.504 70.7516C407.324 70.7936 407.141 70.8206 406.955 70.8326C406.769 70.8506 406.538 70.8596 406.262 70.8596C406.034 70.8596 405.833 70.8536 405.659 70.8416C405.485 70.8356 405.353 70.8266 405.263 70.8146C405.179 70.8086 405.05 70.7936 404.876 70.7696C404.702 70.7456 404.561 70.7276 404.453 70.7156L404.57 69.9506C404.888 69.9746 405.344 69.9866 405.938 69.9866C406.484 69.9866 406.844 69.9656 407.018 69.9236C407.198 69.8756 407.303 69.7796 407.333 69.6356C407.327 69.5996 407.327 69.5726 407.333 69.5546C407.345 69.5306 407.342 69.5066 407.324 69.4826C407.306 69.4586 407.294 69.4406 407.288 69.4286C407.288 69.4166 407.273 69.4016 407.243 69.3836C407.219 69.3656 407.201 69.3506 407.189 69.3386C407.177 69.3266 407.153 69.3146 407.117 69.3026C407.081 69.2846 407.051 69.2696 407.027 69.2576C407.003 69.2456 406.967 69.2306 406.919 69.2126C406.871 69.1886 406.832 69.1706 406.802 69.1586Z" fill="#00367A"/>
<path d="M412.739 66.3506H413.882C413.594 67.7846 413.177 69.0206 412.631 70.0586C412.163 70.9406 411.686 71.5616 411.2 71.9216C410.714 72.2876 410.129 72.5126 409.445 72.5966L409.274 71.8586C409.664 71.7686 410 71.6456 410.282 71.4896C410.564 71.3396 410.834 71.0966 411.092 70.7606H410.633C410.495 70.7606 410.375 70.7216 410.273 70.6436C410.171 70.5596 410.108 70.4516 410.084 70.3196L409.283 66.3506H410.435L411.002 69.8066C411.02 69.9026 411.077 69.9506 411.173 69.9506H411.587L411.704 69.7076C412.19 68.6576 412.535 67.5386 412.739 66.3506Z" fill="#00367A"/>
<path d="M415.697 66.3506L415.67 67.2596C416.414 66.5696 417.098 66.2246 417.722 66.2246C418.094 66.2246 418.376 66.3326 418.568 66.5486C418.766 66.7646 418.838 67.0706 418.784 67.4666L418.316 70.7606H417.227L417.641 67.7726C417.671 67.5266 417.662 67.3616 417.614 67.2776C417.572 67.1876 417.473 67.1456 417.317 67.1516C417.089 67.1516 416.855 67.2176 416.615 67.3496C416.375 67.4816 416.063 67.6976 415.679 67.9976L415.301 70.7606H414.212L414.833 66.3506H415.697Z" fill="#00367A"/>
<path d="M423.049 69.8786L423.121 70.6076C422.665 70.7816 422.122 70.8686 421.492 70.8686C420.7 70.8686 420.157 70.6856 419.863 70.3196C419.569 69.9536 419.482 69.3506 419.602 68.5106C419.722 67.6706 419.962 67.0796 420.322 66.7376C420.682 66.3956 421.246 66.2246 422.014 66.2246C422.65 66.2246 423.166 66.3116 423.562 66.4856L423.409 67.1516C422.797 67.1396 422.386 67.1336 422.176 67.1336C421.696 67.1336 421.354 67.2296 421.15 67.4216C420.952 67.6076 420.817 67.9916 420.745 68.5736C420.673 69.1616 420.7 69.5426 420.826 69.7166C420.952 69.8846 421.24 69.9686 421.69 69.9686C422.194 69.9686 422.647 69.9386 423.049 69.8786Z" fill="#00367A"/>
<path d="M427.731 67.1426L427.407 69.4106C427.383 69.6026 427.398 69.7316 427.452 69.7976C427.512 69.8636 427.641 69.8966 427.839 69.8966H428.46L428.505 70.7066C428.199 70.8086 427.827 70.8596 427.389 70.8596C426.987 70.8596 426.69 70.7456 426.498 70.5176C426.312 70.2896 426.249 69.9686 426.309 69.5546L426.651 67.1426H425.85L425.949 66.3956L426.768 66.3506L426.948 65.0816H428.028L427.848 66.3506H429.126L429.027 67.1426H427.731Z" fill="#00367A"/>
<path d="M430.535 64.4336H431.03C431.138 64.4336 431.216 64.4636 431.264 64.5236C431.318 64.5836 431.339 64.6646 431.327 64.7666L431.264 65.2616C431.228 65.4596 431.114 65.5586 430.922 65.5586H430.427C430.199 65.5586 430.1 65.4446 430.13 65.2166L430.202 64.7306C430.22 64.5326 430.331 64.4336 430.535 64.4336ZM430.463 70.7606H429.374L429.995 66.3506H431.075L430.463 70.7606Z" fill="#00367A"/>
<path d="M433.151 66.3506L433.133 67.2236C433.781 66.5576 434.396 66.2246 434.978 66.2246C435.308 66.2246 435.563 66.3056 435.743 66.4676C435.923 66.6296 436.019 66.8546 436.031 67.1426C436.355 66.8186 436.655 66.5846 436.931 66.4406C437.207 66.2966 437.492 66.2246 437.786 66.2246C438.176 66.2246 438.461 66.3356 438.641 66.5576C438.827 66.7796 438.89 67.0826 438.83 67.4666L438.371 70.7606H437.291L437.705 67.7546C437.741 67.5266 437.726 67.3706 437.66 67.2866C437.6 67.1966 437.489 67.1516 437.327 67.1516C437.141 67.1516 436.952 67.2116 436.76 67.3316C436.574 67.4456 436.301 67.6706 435.941 68.0066L435.554 70.7606H434.51L434.924 67.7546C434.954 67.5386 434.942 67.3856 434.888 67.2956C434.834 67.1996 434.72 67.1516 434.546 67.1516C434.354 67.1516 434.162 67.2086 433.97 67.3226C433.784 67.4366 433.514 67.6526 433.16 67.9706L432.773 70.7606H431.693L432.314 66.3506H433.151Z" fill="#00367A"/>
<path d="M443.411 69.8696L443.483 70.5806C443.021 70.7726 442.397 70.8686 441.611 70.8686C440.825 70.8686 440.279 70.6706 439.973 70.2746C439.667 69.8726 439.568 69.2606 439.676 68.4386C439.79 67.5926 440.027 67.0136 440.387 66.7016C440.747 66.3836 441.341 66.2246 442.169 66.2246C442.901 66.2246 443.393 66.3506 443.645 66.6026C443.903 66.8486 443.999 67.2116 443.933 67.6916C443.873 68.1236 443.705 68.4356 443.429 68.6276C443.153 68.8196 442.73 68.9336 442.16 68.9696L440.765 69.0866C440.771 69.4346 440.855 69.6716 441.017 69.7976C441.179 69.9176 441.425 69.9776 441.755 69.9776C442.253 69.9776 442.805 69.9416 443.411 69.8696ZM440.828 68.3486L442.088 68.2406C442.34 68.2226 442.523 68.1686 442.637 68.0786C442.757 67.9826 442.832 67.8206 442.862 67.5926C442.88 67.3646 442.835 67.2236 442.727 67.1696C442.619 67.1156 442.388 67.0886 442.034 67.0886C441.638 67.0946 441.359 67.1816 441.197 67.3496C441.035 67.5116 440.912 67.8446 440.828 68.3486Z" fill="#00367A"/>
<path fill-rule="evenodd" clip-rule="evenodd" d="M448.5 52.7607C448.5 53.8653 447.605 54.7607 446.5 54.7607L376.5 54.7607C375.395 54.7607 374.5 53.8653 374.5 52.7607L374.5 51.7607C374.5 51.2085 374.948 50.7607 375.5 50.7607C376.052 50.7607 376.5 51.2085 376.5 51.7607L376.5 52.7607L446.5 52.7607L446.5 51.7607C446.5 51.2085 446.948 50.7607 447.5 50.7607C448.052 50.7607 448.5 51.2085 448.5 51.7607L448.5 52.7607Z" fill="#00367A"/>
<path d="M369.805 3.14259L369.481 5.41059C369.457 5.60259 369.472 5.73159 369.526 5.79759C369.586 5.86359 369.715 5.89659 369.913 5.89659H370.534L370.579 6.70659C370.273 6.80859 369.901 6.85959 369.463 6.85959C369.061 6.85959 368.764 6.74559 368.572 6.51759C368.386 6.28959 368.323 5.96859 368.383 5.55459L368.725 3.14259H367.924L368.023 2.39559L368.842 2.35059L369.022 1.08159H370.102L369.922 2.35059H371.2L371.101 3.14259H369.805Z" fill="#333351"/>
<path d="M372.608 0.433594H373.103C373.211 0.433594 373.289 0.463594 373.337 0.523594C373.391 0.583594 373.412 0.664594 373.4 0.766594L373.337 1.26159C373.301 1.45959 373.187 1.55859 372.995 1.55859H372.5C372.272 1.55859 372.173 1.44459 372.203 1.21659L372.275 0.730594C372.293 0.532594 372.404 0.433594 372.608 0.433594ZM372.536 6.76059H371.447L372.068 2.35059H373.148L372.536 6.76059Z" fill="#333351"/>
<path d="M375.225 2.35059L375.207 3.22359C375.855 2.55759 376.47 2.22459 377.052 2.22459C377.382 2.22459 377.637 2.30559 377.817 2.46759C377.997 2.62959 378.093 2.85459 378.105 3.14259C378.429 2.81859 378.729 2.58459 379.005 2.44059C379.281 2.29659 379.566 2.22459 379.86 2.22459C380.25 2.22459 380.535 2.33559 380.715 2.55759C380.901 2.77959 380.964 3.08259 380.904 3.46659L380.445 6.76059H379.365L379.779 3.75459C379.815 3.52659 379.8 3.37059 379.734 3.28659C379.674 3.19659 379.563 3.15159 379.401 3.15159C379.215 3.15159 379.026 3.21159 378.834 3.33159C378.648 3.44559 378.375 3.67059 378.015 4.00659L377.628 6.76059H376.584L376.998 3.75459C377.028 3.53859 377.016 3.38559 376.962 3.29559C376.908 3.19959 376.794 3.15159 376.62 3.15159C376.428 3.15159 376.236 3.20859 376.044 3.32259C375.858 3.43659 375.588 3.65259 375.234 3.97059L374.847 6.76059H373.767L374.388 2.35059H375.225Z" fill="#333351"/>
<path d="M385.485 5.86959L385.557 6.58059C385.095 6.77259 384.471 6.86859 383.685 6.86859C382.899 6.86859 382.353 6.67059 382.047 6.27459C381.741 5.87259 381.642 5.26059 381.75 4.43859C381.864 3.59259 382.101 3.01359 382.461 2.70159C382.821 2.38359 383.415 2.22459 384.243 2.22459C384.975 2.22459 385.467 2.35059 385.719 2.60259C385.977 2.84859 386.073 3.21159 386.007 3.69159C385.947 4.12359 385.779 4.43559 385.503 4.62759C385.227 4.81959 384.804 4.93359 384.234 4.96959L382.839 5.08659C382.845 5.43459 382.929 5.67159 383.091 5.79759C383.253 5.91759 383.499 5.97759 383.829 5.97759C384.327 5.97759 384.879 5.94159 385.485 5.86959ZM382.902 4.34859L384.162 4.24059C384.414 4.22259 384.597 4.16859 384.711 4.07859C384.831 3.98259 384.906 3.82059 384.936 3.59259C384.954 3.36459 384.909 3.22359 384.801 3.16959C384.693 3.11559 384.462 3.08859 384.108 3.08859C383.712 3.09459 383.433 3.18159 383.271 3.34959C383.109 3.51159 382.986 3.84459 382.902 4.34859Z" fill="#333351"/>
<path d="M390.773 5.15859L389.648 4.65459C389.306 4.49859 389.066 4.31559 388.928 4.10559C388.79 3.89559 388.739 3.63459 388.775 3.32259C388.823 2.91459 388.997 2.62959 389.297 2.46759C389.603 2.29959 390.068 2.21859 390.692 2.22459C391.394 2.23659 392.045 2.29059 392.645 2.38659L392.528 3.13359C391.958 3.11559 391.37 3.10659 390.764 3.10659C390.398 3.10659 390.155 3.12159 390.035 3.15159C389.915 3.18159 389.846 3.26259 389.828 3.39459C389.81 3.51459 389.837 3.60759 389.909 3.67359C389.981 3.73359 390.122 3.80859 390.332 3.89859L391.457 4.40259C391.829 4.56459 392.084 4.74159 392.222 4.93359C392.36 5.11959 392.408 5.37759 392.366 5.70759C392.336 5.91159 392.282 6.08259 392.204 6.22059C392.126 6.35859 392.03 6.46959 391.916 6.55359C391.808 6.63759 391.661 6.70359 391.475 6.75159C391.295 6.79359 391.112 6.82059 390.926 6.83259C390.74 6.85059 390.509 6.85959 390.233 6.85959C390.005 6.85959 389.804 6.85359 389.63 6.84159C389.456 6.83559 389.324 6.82659 389.234 6.81459C389.15 6.80859 389.021 6.79359 388.847 6.76959C388.673 6.74559 388.532 6.72759 388.424 6.71559L388.541 5.95059C388.859 5.97459 389.315 5.98659 389.909 5.98659C390.455 5.98659 390.815 5.96559 390.989 5.92359C391.169 5.87559 391.274 5.77959 391.304 5.63559C391.298 5.59959 391.298 5.57259 391.304 5.55459C391.316 5.53059 391.313 5.50659 391.295 5.48259C391.277 5.45859 391.265 5.44059 391.259 5.42859C391.259 5.41659 391.244 5.40159 391.214 5.38359C391.19 5.36559 391.172 5.35059 391.16 5.33859C391.148 5.32659 391.124 5.31459 391.088 5.30259C391.052 5.28459 391.022 5.26959 390.998 5.25759C390.974 5.24559 390.938 5.23059 390.89 5.21259C390.842 5.18859 390.803 5.17059 390.773 5.15859Z" fill="#333351"/>
<path d="M395.135 0.460593L394.433 5.41059C394.409 5.59659 394.427 5.72559 394.487 5.79759C394.553 5.86359 394.682 5.89659 394.874 5.89659H395.27L395.315 6.71559C395.123 6.81159 394.814 6.85959 394.388 6.85959C394.01 6.85959 393.725 6.75159 393.533 6.53559C393.341 6.31959 393.269 6.01659 393.317 5.62659L394.046 0.460593H395.135Z" fill="#333351"/>
<path d="M398.507 2.22459C399.287 2.22459 399.827 2.41059 400.127 2.78259C400.433 3.14859 400.526 3.75459 400.406 4.60059C400.292 5.42859 400.049 6.01659 399.677 6.36459C399.311 6.70659 398.744 6.87759 397.976 6.87759C397.202 6.87759 396.659 6.69459 396.347 6.32859C396.035 5.96259 395.936 5.35959 396.05 4.51959C396.17 3.68559 396.413 3.09459 396.779 2.74659C397.145 2.39859 397.721 2.22459 398.507 2.22459ZM398.498 3.09759C398.084 3.09759 397.784 3.19959 397.598 3.40359C397.412 3.60759 397.277 4.00659 397.193 4.60059C397.109 5.15259 397.121 5.52459 397.229 5.71659C397.337 5.90859 397.589 6.00459 397.985 6.00459C398.399 6.00459 398.699 5.90259 398.885 5.69859C399.071 5.48859 399.203 5.09559 399.281 4.51959C399.359 3.95559 399.344 3.57759 399.236 3.38559C399.134 3.19359 398.888 3.09759 398.498 3.09759Z" fill="#333351"/>
<path d="M403.028 3.14259L402.704 5.41059C402.68 5.60259 402.695 5.73159 402.749 5.79759C402.809 5.86359 402.938 5.89659 403.136 5.89659H403.757L403.802 6.70659C403.496 6.80859 403.124 6.85959 402.686 6.85959C402.284 6.85959 401.987 6.74559 401.795 6.51759C401.609 6.28959 401.546 5.96859 401.606 5.55459L401.948 3.14259H401.147L401.246 2.39559L402.065 2.35059L402.245 1.08159H403.325L403.145 2.35059H404.423L404.324 3.14259H403.028Z" fill="#333351"/>
<path fill-rule="evenodd" clip-rule="evenodd" d="M322.5 13.3008C322.5 12.1962 323.395 11.3008 324.5 11.3008H447.589C448.693 11.3008 449.589 12.1962 449.589 13.3008V14.7604C449.589 15.3127 449.141 15.7604 448.589 15.7604C448.036 15.7604 447.589 15.3127 447.589 14.7604V13.3008H324.5V14.7604C324.5 15.3127 324.052 15.7604 323.5 15.7604C322.948 15.7604 322.5 15.3127 322.5 14.7604V13.3008Z" fill="#333351" stroke="#333351" stroke-width="2" stroke-linecap="round"/>
<path fill-rule="evenodd" clip-rule="evenodd" d="M70.5 85.2607C71.0523 85.2607 71.5 85.7085 71.5 86.2607V94.557H497.5V86.2607C497.5 85.7085 497.948 85.2607 498.5 85.2607C499.052 85.2607 499.5 85.7085 499.5 86.2607V94.557C499.5 95.6616 498.605 96.557 497.5 96.557H71.5C70.3954 96.557 69.5 95.6616 69.5 94.557V86.2607C69.5 85.7085 69.9477 85.2607 70.5 85.2607Z" fill="#333351" stroke="#333351" stroke-width="2" stroke-linecap="round"/>
<path d="M175.573 121.617C175.013 121.617 174.529 121.493 174.121 121.245C173.721 120.997 173.521 120.497 173.521 119.745V114.633C173.521 113.953 173.705 113.461 174.073 113.157C174.441 112.853 174.885 112.701 175.405 112.701C176.157 112.701 176.805 112.713 177.349 112.737C177.893 112.761 178.517 112.793 179.221 112.833V114.069H175.873C175.593 114.069 175.377 114.141 175.225 114.285C175.073 114.421 174.997 114.629 174.997 114.909V116.481L178.681 116.565V117.729L174.997 117.813V119.337C174.997 119.929 175.285 120.225 175.861 120.225H179.221V121.461C178.213 121.549 176.997 121.601 175.573 121.617Z" fill="#333351"/>
<path d="M180.646 112.701H184.306C185.018 112.701 185.606 112.905 186.07 113.313C186.534 113.713 186.766 114.497 186.766 115.665C186.766 117.697 185.954 118.713 184.33 118.713C184.082 118.713 183.718 118.693 183.238 118.653C182.758 118.613 182.386 118.573 182.122 118.533V121.557H180.646V112.701ZM184.114 117.369C184.482 117.369 184.766 117.237 184.966 116.973C185.174 116.709 185.278 116.277 185.278 115.677C185.278 114.581 184.906 114.033 184.162 114.033H182.122V117.369H184.114Z" fill="#333351"/>
<path d="M191.365 121.629C190.509 121.629 189.829 121.517 189.325 121.293C188.821 121.061 188.441 120.625 188.185 119.985C187.929 119.337 187.801 118.393 187.801 117.153C187.801 115.913 187.929 114.965 188.185 114.309C188.449 113.653 188.833 113.209 189.337 112.977C189.841 112.737 190.517 112.617 191.365 112.617C192.221 112.617 192.901 112.737 193.405 112.977C193.917 113.209 194.301 113.653 194.557 114.309C194.813 114.957 194.941 115.905 194.941 117.153C194.941 118.393 194.809 119.337 194.545 119.985C194.289 120.625 193.909 121.061 193.405 121.293C192.909 121.517 192.229 121.629 191.365 121.629ZM191.365 120.297C191.917 120.297 192.337 120.217 192.625 120.057C192.921 119.897 193.133 119.597 193.261 119.157C193.389 118.709 193.453 118.041 193.453 117.153C193.453 116.233 193.385 115.545 193.249 115.089C193.121 114.633 192.913 114.329 192.625 114.177C192.337 114.025 191.917 113.949 191.365 113.949C190.829 113.949 190.417 114.029 190.129 114.189C189.841 114.341 189.629 114.645 189.493 115.101C189.357 115.549 189.289 116.233 189.289 117.153C189.289 118.049 189.349 118.717 189.469 119.157C189.597 119.597 189.805 119.897 190.093 120.057C190.381 120.217 190.805 120.297 191.365 120.297Z" fill="#333351"/>
<path d="M199.325 121.629C198.573 121.629 197.973 121.513 197.525 121.281C197.077 121.041 196.733 120.593 196.493 119.937C196.261 119.281 196.145 118.333 196.145 117.093C196.145 115.917 196.265 115.005 196.505 114.357C196.745 113.701 197.097 113.249 197.561 113.001C198.025 112.745 198.625 112.617 199.361 112.617C199.841 112.617 200.321 112.657 200.801 112.737C201.289 112.809 201.705 112.897 202.049 113.001V114.141C201.809 114.093 201.465 114.049 201.017 114.009C200.577 113.969 200.125 113.949 199.661 113.949C199.133 113.949 198.725 114.033 198.437 114.201C198.157 114.361 197.953 114.665 197.825 115.113C197.697 115.561 197.633 116.229 197.633 117.117C197.633 118.005 197.693 118.673 197.813 119.121C197.933 119.569 198.133 119.877 198.413 120.045C198.693 120.213 199.105 120.297 199.649 120.297C200.561 120.297 201.361 120.253 202.049 120.165V121.305C201.321 121.521 200.413 121.629 199.325 121.629Z" fill="#333351"/>
<path d="M203.381 112.701H204.857V116.529H208.589V112.701H210.077V121.557H208.589V117.861H204.857V121.557H203.381V112.701Z" fill="#333351"/>
<path d="M215.009 118.125H220.385V119.325H215.009V118.125ZM215.009 115.245H220.385V116.445H215.009V115.245Z" fill="#333351"/>
<path d="M225.09 120.357L228.162 117.345C228.57 116.953 228.862 116.597 229.038 116.277C229.222 115.957 229.314 115.605 229.314 115.221C229.314 114.837 229.198 114.545 228.966 114.345C228.742 114.137 228.35 114.033 227.79 114.033H225.33V112.869C225.85 112.797 226.318 112.741 226.734 112.701C227.158 112.653 227.61 112.629 228.09 112.629C229.074 112.629 229.77 112.829 230.178 113.229C230.594 113.629 230.802 114.217 230.802 114.993C230.802 115.577 230.682 116.101 230.442 116.565C230.21 117.021 229.834 117.505 229.314 118.017L227.07 120.213H231.09V121.557H225.09V120.357Z" fill="#333351"/>
<path d="M233.656 114.045L231.988 114.345V113.397L233.812 112.617H235.144V121.557H233.656V114.045Z" fill="#333351"/>
<path d="M247.515 121.557L246.771 115.221L245.019 121.557H243.627L241.863 115.257L241.155 121.557H239.727L240.747 112.701H242.187L244.335 119.793L246.471 112.701H247.911L248.955 121.557H247.515Z" fill="#333351"/>
<path d="M251.504 121.629C251.016 121.629 250.62 121.485 250.316 121.197C250.02 120.901 249.872 120.505 249.872 120.009V119.469C249.872 118.957 250.044 118.549 250.388 118.245C250.74 117.941 251.26 117.789 251.948 117.789H253.784V117.225C253.784 116.985 253.744 116.793 253.664 116.649C253.584 116.505 253.436 116.397 253.22 116.325C253.004 116.245 252.692 116.205 252.284 116.205H250.34V115.341C251.068 115.141 251.908 115.041 252.86 115.041C253.676 115.041 254.28 115.201 254.672 115.521C255.072 115.841 255.272 116.377 255.272 117.129V121.557H254.108L253.856 120.861C253.776 120.933 253.612 121.033 253.364 121.161C253.116 121.281 252.824 121.389 252.488 121.485C252.16 121.581 251.832 121.629 251.504 121.629ZM252.224 120.585C252.448 120.585 252.744 120.529 253.112 120.417C253.488 120.297 253.712 120.217 253.784 120.177V118.497L252.392 118.569C251.696 118.625 251.348 118.933 251.348 119.493V119.757C251.348 120.045 251.428 120.253 251.588 120.381C251.756 120.509 251.968 120.577 252.224 120.585Z" fill="#333351"/>
<path d="M256.938 114.105C256.874 114.105 256.818 114.085 256.77 114.045C256.73 114.005 256.71 113.953 256.71 113.889V112.797C256.71 112.725 256.73 112.669 256.77 112.629C256.81 112.581 256.866 112.557 256.938 112.557H258.066C258.138 112.557 258.19 112.581 258.222 112.629C258.262 112.669 258.282 112.725 258.282 112.797V113.889C258.282 114.033 258.21 114.105 258.066 114.105H256.938ZM256.746 115.125H258.234V121.557H256.746V115.125Z" fill="#333351"/>
<path d="M259.758 115.125H260.97L261.246 115.797C261.542 115.573 261.878 115.389 262.254 115.245C262.638 115.093 263.018 115.017 263.394 115.017C264.098 115.017 264.606 115.225 264.918 115.641C265.23 116.049 265.386 116.593 265.386 117.273V121.557H263.898V117.453C263.898 117.109 263.802 116.841 263.61 116.649C263.418 116.457 263.158 116.361 262.83 116.361C262.534 116.361 262.262 116.405 262.014 116.493C261.766 116.581 261.51 116.713 261.246 116.889V121.557H259.758V115.125Z" fill="#333351"/>
<path d="M270.084 112.701H273.468C275.1 112.701 275.916 113.469 275.916 115.005C275.916 115.525 275.8 115.957 275.568 116.301C275.344 116.637 275.044 116.853 274.668 116.949C275.092 117.053 275.452 117.285 275.748 117.645C276.052 117.997 276.204 118.485 276.204 119.109C276.204 119.989 275.988 120.617 275.556 120.993C275.124 121.369 274.476 121.557 273.612 121.557H270.084V112.701ZM273.492 116.445C273.796 116.445 274.04 116.333 274.224 116.109C274.408 115.885 274.5 115.585 274.5 115.209C274.5 114.425 274.152 114.033 273.456 114.033H271.56V116.445H273.492ZM273.564 120.225C273.964 120.225 274.268 120.121 274.476 119.913C274.684 119.697 274.788 119.345 274.788 118.857C274.788 118.465 274.672 118.157 274.44 117.933C274.216 117.709 273.924 117.597 273.564 117.597H271.56V120.225H273.564Z" fill="#333351"/>
<path d="M279.35 121.581C278.702 121.581 278.222 121.417 277.91 121.089C277.598 120.753 277.442 120.217 277.442 119.481V112.401H278.93V119.277C278.93 119.685 278.99 119.973 279.11 120.141C279.23 120.301 279.422 120.397 279.686 120.429L280.226 120.501V121.581H279.35Z" fill="#333351"/>
<path d="M283.798 121.617C283.102 121.617 282.546 121.517 282.13 121.317C281.714 121.117 281.406 120.781 281.206 120.309C281.014 119.837 280.918 119.177 280.918 118.329C280.918 117.449 281.014 116.773 281.206 116.301C281.406 115.829 281.71 115.501 282.118 115.317C282.534 115.133 283.094 115.041 283.798 115.041C284.51 115.041 285.07 115.137 285.478 115.329C285.894 115.513 286.202 115.845 286.402 116.325C286.602 116.797 286.702 117.465 286.702 118.329C286.702 119.193 286.606 119.861 286.414 120.333C286.222 120.805 285.918 121.137 285.502 121.329C285.086 121.521 284.518 121.617 283.798 121.617ZM283.798 120.429C284.158 120.429 284.434 120.381 284.626 120.285C284.826 120.189 284.974 119.993 285.07 119.697C285.166 119.393 285.214 118.933 285.214 118.317C285.214 117.709 285.166 117.257 285.07 116.961C284.974 116.657 284.826 116.461 284.626 116.373C284.434 116.277 284.158 116.229 283.798 116.229C283.446 116.229 283.17 116.277 282.97 116.373C282.778 116.461 282.634 116.657 282.538 116.961C282.442 117.257 282.394 117.709 282.394 118.317C282.394 118.933 282.442 119.393 282.538 119.697C282.634 119.993 282.778 120.189 282.97 120.285C283.17 120.381 283.446 120.429 283.798 120.429Z" fill="#333351"/>
<path d="M290.484 121.629C289.636 121.629 288.98 121.389 288.516 120.909C288.06 120.421 287.832 119.573 287.832 118.365C287.832 117.509 287.936 116.841 288.144 116.361C288.352 115.873 288.648 115.533 289.032 115.341C289.424 115.141 289.92 115.041 290.52 115.041C291.288 115.041 292.02 115.125 292.716 115.293V116.145H290.964C290.564 116.145 290.244 116.209 290.004 116.337C289.772 116.457 289.596 116.677 289.476 116.997C289.364 117.317 289.308 117.773 289.308 118.365C289.308 118.949 289.364 119.397 289.476 119.709C289.596 120.013 289.772 120.221 290.004 120.333C290.244 120.445 290.568 120.501 290.976 120.501H292.812V121.341C292.5 121.421 292.132 121.489 291.708 121.545C291.292 121.601 290.884 121.629 290.484 121.629Z" fill="#333351"/>
<path d="M293.906 112.401H295.394V117.477H296.21L297.818 115.125H299.342L297.302 118.149L299.51 121.557H297.986L296.186 118.809H295.394V121.557H293.906V112.401Z" fill="#333351"/>
<path d="M309.072 117.885H306.984V119.973H305.784V117.885H303.696V116.685H305.784V114.597H306.984V116.685H309.072V117.885Z" fill="#333351"/>
<path d="M315.277 114.045L313.609 114.345V113.397L315.433 112.617H316.765V121.557H315.277V114.045Z" fill="#333351"/>
<path d="M324.108 121.617C323.396 121.617 322.836 121.445 322.428 121.101C322.028 120.757 321.748 120.261 321.588 119.613C321.436 118.957 321.36 118.125 321.36 117.117C321.36 116.085 321.448 115.249 321.624 114.609C321.808 113.961 322.128 113.469 322.584 113.133C323.048 112.789 323.7 112.617 324.54 112.617C325.516 112.617 326.496 112.737 327.48 112.977V114.117C327.184 114.077 326.784 114.041 326.28 114.009C325.784 113.969 325.288 113.949 324.792 113.949C324.256 113.949 323.848 114.049 323.568 114.249C323.296 114.449 323.108 114.773 323.004 115.221C322.9 115.669 322.848 116.305 322.848 117.129C322.848 117.969 322.9 118.613 323.004 119.061C323.108 119.501 323.28 119.809 323.52 119.985C323.768 120.161 324.124 120.249 324.588 120.249C324.916 120.249 325.244 120.217 325.572 120.153C325.9 120.089 326.192 120.013 326.448 119.925V117.885H324.66V116.733C324.9 116.701 325.208 116.673 325.584 116.649C325.96 116.625 326.328 116.613 326.688 116.613C327.168 116.613 327.564 116.625 327.876 116.649V121.557H326.76L326.556 120.945C326.244 121.121 325.872 121.277 325.44 121.413C325.008 121.549 324.564 121.617 324.108 121.617Z" fill="#333351"/>
<path d="M332.077 121.617C331.365 121.617 330.805 121.521 330.397 121.329C329.997 121.129 329.705 120.797 329.521 120.333C329.345 119.861 329.257 119.197 329.257 118.341C329.257 117.469 329.341 116.797 329.509 116.325C329.685 115.853 329.969 115.521 330.361 115.329C330.761 115.137 331.321 115.041 332.041 115.041C332.673 115.041 333.173 115.105 333.541 115.233C333.909 115.361 334.177 115.585 334.345 115.905C334.513 116.217 334.597 116.657 334.597 117.225C334.597 117.817 334.425 118.241 334.081 118.497C333.745 118.753 333.253 118.881 332.605 118.881H330.721C330.737 119.297 330.793 119.621 330.889 119.853C330.985 120.077 331.153 120.241 331.393 120.345C331.641 120.449 331.997 120.501 332.461 120.501H334.405V121.377C333.973 121.457 333.585 121.517 333.241 121.557C332.905 121.597 332.517 121.617 332.077 121.617ZM332.461 117.981C332.749 117.981 332.957 117.925 333.085 117.813C333.213 117.701 333.277 117.505 333.277 117.225C333.277 116.809 333.185 116.521 333.001 116.361C332.817 116.201 332.497 116.121 332.041 116.121C331.697 116.121 331.429 116.177 331.237 116.289C331.053 116.393 330.917 116.577 330.829 116.841C330.749 117.105 330.709 117.485 330.709 117.981H332.461Z" fill="#333351"/>
<path d="M335.918 115.125H337.13L337.406 115.797C337.702 115.573 338.038 115.389 338.414 115.245C338.798 115.093 339.178 115.017 339.554 115.017C340.258 115.017 340.766 115.225 341.078 115.641C341.39 116.049 341.546 116.593 341.546 117.273V121.557H340.058V117.453C340.058 117.109 339.962 116.841 339.77 116.649C339.578 116.457 339.318 116.361 338.99 116.361C338.694 116.361 338.422 116.405 338.174 116.493C337.926 116.581 337.67 116.713 337.406 116.889V121.557H335.918V115.125Z" fill="#333351"/>
<path d="M345.659 121.617C344.947 121.617 344.387 121.521 343.979 121.329C343.579 121.129 343.287 120.797 343.103 120.333C342.927 119.861 342.839 119.197 342.839 118.341C342.839 117.469 342.923 116.797 343.091 116.325C343.267 115.853 343.551 115.521 343.943 115.329C344.343 115.137 344.903 115.041 345.623 115.041C346.255 115.041 346.755 115.105 347.123 115.233C347.491 115.361 347.759 115.585 347.927 115.905C348.095 116.217 348.179 116.657 348.179 117.225C348.179 117.817 348.007 118.241 347.663 118.497C347.327 118.753 346.835 118.881 346.187 118.881H344.303C344.319 119.297 344.375 119.621 344.471 119.853C344.567 120.077 344.735 120.241 344.975 120.345C345.223 120.449 345.579 120.501 346.043 120.501H347.987V121.377C347.555 121.457 347.167 121.517 346.823 121.557C346.487 121.597 346.099 121.617 345.659 121.617ZM346.043 117.981C346.331 117.981 346.539 117.925 346.667 117.813C346.795 117.701 346.859 117.505 346.859 117.225C346.859 116.809 346.767 116.521 346.583 116.361C346.399 116.201 346.079 116.121 345.623 116.121C345.279 116.121 345.011 116.177 344.819 116.289C344.635 116.393 344.499 116.577 344.411 116.841C344.331 117.105 344.291 117.485 344.291 117.981H346.043Z" fill="#333351"/>
<path d="M351.804 121.629C351.38 121.629 350.916 121.605 350.412 121.557C349.908 121.517 349.544 121.457 349.32 121.377V120.501H352.092C352.42 120.501 352.656 120.457 352.8 120.369C352.952 120.281 353.028 120.101 353.028 119.829V119.601C353.028 119.385 352.956 119.225 352.812 119.121C352.676 119.009 352.452 118.953 352.14 118.953H351.168C349.872 118.953 349.224 118.389 349.224 117.261V116.901C349.224 116.277 349.412 115.817 349.788 115.521C350.164 115.217 350.8 115.065 351.696 115.065C352.056 115.065 352.468 115.093 352.932 115.149C353.404 115.197 353.768 115.253 354.024 115.317V116.193H351.408C351.096 116.193 350.864 116.249 350.712 116.361C350.568 116.465 350.496 116.645 350.496 116.901V117.129C350.496 117.377 350.572 117.545 350.724 117.633C350.876 117.713 351.116 117.753 351.444 117.753H352.44C353.056 117.753 353.52 117.897 353.832 118.185C354.144 118.473 354.3 118.881 354.3 119.409V119.937C354.3 120.561 354.092 121.001 353.676 121.257C353.26 121.505 352.636 121.629 351.804 121.629Z" fill="#333351"/>
<path d="M355.727 114.105C355.663 114.105 355.607 114.085 355.559 114.045C355.519 114.005 355.499 113.953 355.499 113.889V112.797C355.499 112.725 355.519 112.669 355.559 112.629C355.599 112.581 355.655 112.557 355.727 112.557H356.855C356.927 112.557 356.979 112.581 357.011 112.629C357.051 112.669 357.071 112.725 357.071 112.797V113.889C357.071 114.033 356.999 114.105 356.855 114.105H355.727ZM355.535 115.125H357.023V121.557H355.535V115.125Z" fill="#333351"/>
<path d="M360.851 121.629C360.427 121.629 359.963 121.605 359.459 121.557C358.955 121.517 358.591 121.457 358.367 121.377V120.501H361.139C361.467 120.501 361.703 120.457 361.847 120.369C361.999 120.281 362.075 120.101 362.075 119.829V119.601C362.075 119.385 362.003 119.225 361.859 119.121C361.723 119.009 361.499 118.953 361.187 118.953H360.215C358.919 118.953 358.271 118.389 358.271 117.261V116.901C358.271 116.277 358.459 115.817 358.835 115.521C359.211 115.217 359.847 115.065 360.743 115.065C361.103 115.065 361.515 115.093 361.979 115.149C362.451 115.197 362.815 115.253 363.071 115.317V116.193H360.455C360.143 116.193 359.911 116.249 359.759 116.361C359.615 116.465 359.543 116.645 359.543 116.901V117.129C359.543 117.377 359.619 117.545 359.771 117.633C359.923 117.713 360.163 117.753 360.491 117.753H361.487C362.103 117.753 362.567 117.897 362.879 118.185C363.191 118.473 363.347 118.881 363.347 119.409V119.937C363.347 120.561 363.139 121.001 362.723 121.257C362.307 121.505 361.683 121.629 360.851 121.629Z" fill="#333351"/>
<path d="M367.795 112.701H371.179C372.811 112.701 373.627 113.469 373.627 115.005C373.627 115.525 373.511 115.957 373.279 116.301C373.055 116.637 372.755 116.853 372.379 116.949C372.803 117.053 373.163 117.285 373.459 117.645C373.763 117.997 373.915 118.485 373.915 119.109C373.915 119.989 373.699 120.617 373.267 120.993C372.835 121.369 372.187 121.557 371.323 121.557H367.795V112.701ZM371.203 116.445C371.507 116.445 371.751 116.333 371.935 116.109C372.119 115.885 372.211 115.585 372.211 115.209C372.211 114.425 371.863 114.033 371.167 114.033H369.271V116.445H371.203ZM371.275 120.225C371.675 120.225 371.979 120.121 372.187 119.913C372.395 119.697 372.499 119.345 372.499 118.857C372.499 118.465 372.383 118.157 372.151 117.933C371.927 117.709 371.635 117.597 371.275 117.597H369.271V120.225H371.275Z" fill="#333351"/>
<path d="M377.06 121.581C376.412 121.581 375.932 121.417 375.62 121.089C375.308 120.753 375.152 120.217 375.152 119.481V112.401H376.64V119.277C376.64 119.685 376.7 119.973 376.82 120.141C376.94 120.301 377.132 120.397 377.396 120.429L377.936 120.501V121.581H377.06Z" fill="#333351"/>
<path d="M381.508 121.617C380.812 121.617 380.256 121.517 379.84 121.317C379.424 121.117 379.116 120.781 378.916 120.309C378.724 119.837 378.628 119.177 378.628 118.329C378.628 117.449 378.724 116.773 378.916 116.301C379.116 115.829 379.42 115.501 379.828 115.317C380.244 115.133 380.804 115.041 381.508 115.041C382.22 115.041 382.78 115.137 383.188 115.329C383.604 115.513 383.912 115.845 384.112 116.325C384.312 116.797 384.412 117.465 384.412 118.329C384.412 119.193 384.316 119.861 384.124 120.333C383.932 120.805 383.628 121.137 383.212 121.329C382.796 121.521 382.228 121.617 381.508 121.617ZM381.508 120.429C381.868 120.429 382.144 120.381 382.336 120.285C382.536 120.189 382.684 119.993 382.78 119.697C382.876 119.393 382.924 118.933 382.924 118.317C382.924 117.709 382.876 117.257 382.78 116.961C382.684 116.657 382.536 116.461 382.336 116.373C382.144 116.277 381.868 116.229 381.508 116.229C381.156 116.229 380.88 116.277 380.68 116.373C380.488 116.461 380.344 116.657 380.248 116.961C380.152 117.257 380.104 117.709 380.104 118.317C380.104 118.933 380.152 119.393 380.248 119.697C380.344 119.993 380.488 120.189 380.68 120.285C380.88 120.381 381.156 120.429 381.508 120.429Z" fill="#333351"/>
<path d="M388.195 121.629C387.347 121.629 386.691 121.389 386.227 120.909C385.771 120.421 385.543 119.573 385.543 118.365C385.543 117.509 385.647 116.841 385.855 116.361C386.063 115.873 386.359 115.533 386.743 115.341C387.135 115.141 387.631 115.041 388.231 115.041C388.999 115.041 389.731 115.125 390.427 115.293V116.145H388.675C388.275 116.145 387.955 116.209 387.715 116.337C387.483 116.457 387.307 116.677 387.187 116.997C387.075 117.317 387.019 117.773 387.019 118.365C387.019 118.949 387.075 119.397 387.187 119.709C387.307 120.013 387.483 120.221 387.715 120.333C387.955 120.445 388.279 120.501 388.687 120.501H390.523V121.341C390.211 121.421 389.843 121.489 389.419 121.545C389.003 121.601 388.595 121.629 388.195 121.629Z" fill="#333351"/>
<path d="M391.617 112.401H393.105V117.477H393.921L395.529 115.125H397.053L395.013 118.149L397.221 121.557H395.697L393.897 118.809H393.105V121.557H391.617V112.401Z" fill="#333351"/>
<path d="M510.755 58.1352L510.359 60.9072C510.329 61.1419 510.348 61.2996 510.414 61.3802C510.487 61.4609 510.645 61.5012 510.887 61.5012H511.646L511.701 62.4912C511.327 62.6159 510.872 62.6782 510.337 62.6782C509.845 62.6782 509.482 62.5389 509.248 62.2602C509.02 61.9816 508.943 61.5892 509.017 61.0832L509.435 58.1352H508.456L508.577 57.2222L509.578 57.1672L509.798 55.6162H511.118L510.898 57.1672H512.46L512.339 58.1352H510.755Z" fill="#333351"/>
<path d="M514.181 54.8242H514.786C514.918 54.8242 515.013 54.8609 515.072 54.9342C515.138 55.0076 515.163 55.1066 515.149 55.2312L515.072 55.8362C515.028 56.0782 514.888 56.1992 514.654 56.1992H514.049C513.77 56.1992 513.649 56.0599 513.686 55.7812L513.774 55.1872C513.796 54.9452 513.931 54.8242 514.181 54.8242ZM514.093 62.5572H512.762L513.521 57.1672H514.841L514.093 62.5572Z" fill="#333351"/>
<path d="M517.379 57.1672L517.357 58.2342C518.149 57.4202 518.9 57.0132 519.612 57.0132C520.015 57.0132 520.327 57.1122 520.547 57.3102C520.767 57.5082 520.884 57.7832 520.899 58.1352C521.295 57.7392 521.661 57.4532 521.999 57.2772C522.336 57.1012 522.684 57.0132 523.044 57.0132C523.52 57.0132 523.869 57.1489 524.089 57.4202C524.316 57.6916 524.393 58.0619 524.32 58.5312L523.759 62.5572H522.439L522.945 58.8832C522.989 58.6046 522.97 58.4139 522.89 58.3112C522.816 58.2012 522.681 58.1462 522.483 58.1462C522.255 58.1462 522.024 58.2196 521.79 58.3662C521.562 58.5056 521.229 58.7806 520.789 59.1912L520.316 62.5572H519.04L519.546 58.8832C519.582 58.6192 519.568 58.4322 519.502 58.3222C519.436 58.2049 519.296 58.1462 519.084 58.1462C518.849 58.1462 518.614 58.2159 518.38 58.3552C518.152 58.4946 517.822 58.7586 517.39 59.1472L516.917 62.5572H515.597L516.356 57.1672H517.379Z" fill="#333351"/>
<path d="M529.919 61.4682L530.007 62.3372C529.442 62.5719 528.68 62.6892 527.719 62.6892C526.758 62.6892 526.091 62.4472 525.717 61.9632C525.343 61.4719 525.222 60.7239 525.354 59.7192C525.493 58.6852 525.783 57.9776 526.223 57.5962C526.663 57.2076 527.389 57.0132 528.401 57.0132C529.296 57.0132 529.897 57.1672 530.205 57.4752C530.52 57.7759 530.638 58.2196 530.557 58.8062C530.484 59.3342 530.278 59.7156 529.941 59.9502C529.604 60.1849 529.087 60.3242 528.39 60.3682L526.685 60.5112C526.692 60.9366 526.795 61.2262 526.993 61.3802C527.191 61.5269 527.492 61.6002 527.895 61.6002C528.504 61.6002 529.178 61.5562 529.919 61.4682ZM526.762 59.6092L528.302 59.4772C528.61 59.4552 528.834 59.3892 528.973 59.2792C529.12 59.1619 529.211 58.9639 529.248 58.6852C529.27 58.4066 529.215 58.2342 529.083 58.1682C528.951 58.1022 528.669 58.0692 528.236 58.0692C527.752 58.0766 527.411 58.1829 527.213 58.3882C527.015 58.5862 526.865 58.9932 526.762 59.6092Z" fill="#333351"/>
<g filter="url(#filter0_d)">
<path fill-rule="evenodd" clip-rule="evenodd" d="M517.519 21.3817L530.247 34.1097C531.028 34.8907 531.028 36.157 530.247 36.9381L517.519 49.666C516.738 50.447 515.471 50.447 514.69 49.666C513.909 48.885 513.909 47.6186 514.69 46.8376L524.004 37.5239L14 37.5239C12.8954 37.5239 12 36.6284 12 35.5239C12 34.4193 12.8954 33.5239 14 33.5239L524.004 33.5239L514.69 24.2102C513.909 23.4291 513.909 22.1628 514.69 21.3817C515.471 20.6007 516.738 20.6007 517.519 21.3817Z" fill="#4C93E0"/>
<path fill-rule="evenodd" clip-rule="evenodd" d="M517.519 21.3817L530.247 34.1097C531.028 34.8907 531.028 36.157 530.247 36.9381L517.519 49.666C516.738 50.447 515.471 50.447 514.69 49.666C513.909 48.885 513.909 47.6186 514.69 46.8376L524.004 37.5239L14 37.5239C12.8954 37.5239 12 36.6284 12 35.5239C12 34.4193 12.8954 33.5239 14 33.5239L524.004 33.5239L514.69 24.2102C513.909 23.4291 513.909 22.1628 514.69 21.3817C515.471 20.6007 516.738 20.6007 517.519 21.3817Z" stroke="#4C93E0" stroke-width="4" stroke-linecap="round" stroke-linejoin="round"/>
</g>
<g filter="url(#filter1_d)">
<rect x="26.0085" y="17.5239" width="36" height="36" rx="8" fill="white"/>
<rect x="27.0085" y="18.5239" width="34" height="34" rx="7" stroke="#4C93E0" stroke-width="2"/>
</g>
<path d="M42.6604 41.8639C41.6044 41.8639 40.7764 41.5939 40.1764 41.0539C39.5764 40.5139 39.1564 39.7579 38.9164 38.7859C38.6884 37.8019 38.5744 36.5779 38.5744 35.1139C38.5744 33.5779 38.7064 32.3239 38.9704 31.3519C39.2464 30.3799 39.7384 29.6359 40.4464 29.1199C41.1664 28.5919 42.1804 28.3279 43.4884 28.3279C44.3404 28.3279 45.1084 28.3819 45.7924 28.4899C46.4764 28.5859 47.2084 28.7299 47.9884 28.9219V30.9739C47.5204 30.9139 46.9204 30.8599 46.1884 30.8119C45.4684 30.7519 44.7304 30.7219 43.9744 30.7219C43.2064 30.7219 42.6304 30.8599 42.2464 31.1359C41.8624 31.3999 41.5984 31.8439 41.4544 32.4679C41.3104 33.0799 41.2384 33.9679 41.2384 35.1319C41.2384 36.2959 41.3104 37.1839 41.4544 37.7959C41.5984 38.3959 41.8324 38.8159 42.1564 39.0559C42.4804 39.2959 42.9424 39.4159 43.5424 39.4159C43.9984 39.4159 44.4484 39.3799 44.8924 39.3079C45.3364 39.2359 45.7204 39.1459 46.0444 39.0379V36.4459H43.6504V34.3399C44.0104 34.2919 44.4784 34.2499 45.0544 34.2139C45.6424 34.1779 46.2004 34.1599 46.7284 34.1599C47.4724 34.1599 48.0964 34.1779 48.6004 34.2139V41.7739H46.6024L46.2424 40.8739C45.7984 41.1379 45.2584 41.3719 44.6224 41.5759C43.9984 41.7679 43.3444 41.8639 42.6604 41.8639Z" fill="#4C93E0"/>
<g filter="url(#filter2_d)">
<rect x="468.361" y="17.5239" width="36" height="36" rx="8" fill="white"/>
<rect x="469.361" y="18.5239" width="34" height="34" rx="7" stroke="#4C93E0" stroke-width="2"/>
</g>
<path d="M485.013 41.8639C483.957 41.8639 483.129 41.5939 482.529 41.0539C481.929 40.5139 481.509 39.7579 481.269 38.7859C481.041 37.8019 480.927 36.5779 480.927 35.1139C480.927 33.5779 481.059 32.3239 481.323 31.3519C481.599 30.3799 482.091 29.6359 482.799 29.1199C483.519 28.5919 484.533 28.3279 485.841 28.3279C486.693 28.3279 487.461 28.3819 488.145 28.4899C488.829 28.5859 489.561 28.7299 490.341 28.9219V30.9739C489.873 30.9139 489.273 30.8599 488.541 30.8119C487.821 30.7519 487.083 30.7219 486.327 30.7219C485.559 30.7219 484.983 30.8599 484.599 31.1359C484.215 31.3999 483.951 31.8439 483.807 32.4679C483.663 33.0799 483.591 33.9679 483.591 35.1319C483.591 36.2959 483.663 37.1839 483.807 37.7959C483.951 38.3959 484.185 38.8159 484.509 39.0559C484.833 39.2959 485.295 39.4159 485.895 39.4159C486.351 39.4159 486.801 39.3799 487.245 39.3079C487.689 39.2359 488.073 39.1459 488.397 39.0379V36.4459H486.003V34.3399C486.363 34.2919 486.831 34.2499 487.407 34.2139C487.995 34.1779 488.553 34.1599 489.081 34.1599C489.825 34.1599 490.449 34.1779 490.953 34.2139V41.7739H488.955L488.595 40.8739C488.151 41.1379 487.611 41.3719 486.975 41.5759C486.351 41.7679 485.697 41.8639 485.013 41.8639Z" fill="#4C93E0"/>
<path d="M249 12.5571C249 14.7663 247.209 16.5571 245 16.5571C242.791 16.5571 241 14.7663 241 12.5571C241 10.348 242.791 8.55713 245 8.55713C247.209 8.55713 249 10.348 249 12.5571Z" fill="#B4B4C0"/>
<path d="M265 12.8013C265 15.0104 263.209 16.8013 261 16.8013C258.791 16.8013 257 15.0104 257 12.8013C257 10.5921 258.791 8.80127 261 8.80127C263.209 8.80127 265 10.5921 265 12.8013Z" fill="#B4B4C0"/>
<path d="M281 12.8013C281 15.0104 279.209 16.8013 277 16.8013C274.791 16.8013 273 15.0104 273 12.8013C273 10.5921 274.791 8.80127 277 8.80127C279.209 8.80127 281 10.5921 281 12.8013Z" fill="#B4B4C0"/>
<g filter="url(#filter3_d)">
<path fill-rule="evenodd" clip-rule="evenodd" d="M73 26.7607C74.1046 26.7607 75 27.6562 75 28.7607V41.7607C75 42.8653 74.1046 43.7607 73 43.7607C71.8954 43.7607 71 42.8653 71 41.7607V28.7607C71 27.6562 71.8954 26.7607 73 26.7607Z" fill="#4C93E0"/>
<path fill-rule="evenodd" clip-rule="evenodd" d="M73 26.7607C74.1046 26.7607 75 27.6562 75 28.7607V41.7607C75 42.8653 74.1046 43.7607 73 43.7607C71.8954 43.7607 71 42.8653 71 41.7607V28.7607C71 27.6562 71.8954 26.7607 73 26.7607Z" stroke="#4C93E0" stroke-width="4" stroke-linecap="round" stroke-linejoin="round"/>
</g>
<g filter="url(#filter4_d)">
<path fill-rule="evenodd" clip-rule="evenodd" d="M195.5 26.7607C196.605 26.7607 197.5 27.6562 197.5 28.7607V41.7607C197.5 42.8653 196.605 43.7607 195.5 43.7607C194.395 43.7607 193.5 42.8653 193.5 41.7607V28.7607C193.5 27.6562 194.395 26.7607 195.5 26.7607Z" fill="#4C93E0"/>
<path fill-rule="evenodd" clip-rule="evenodd" d="M195.5 26.7607C196.605 26.7607 197.5 27.6562 197.5 28.7607V41.7607C197.5 42.8653 196.605 43.7607 195.5 43.7607C194.395 43.7607 193.5 42.8653 193.5 41.7607V28.7607C193.5 27.6562 194.395 26.7607 195.5 26.7607Z" stroke="#4C93E0" stroke-width="4" stroke-linecap="round" stroke-linejoin="round"/>
</g>
<g filter="url(#filter5_d)">
<path fill-rule="evenodd" clip-rule="evenodd" d="M323.5 26.7607C324.605 26.7607 325.5 27.6562 325.5 28.7607V41.7607C325.5 42.8653 324.605 43.7607 323.5 43.7607C322.395 43.7607 321.5 42.8653 321.5 41.7607V28.7607C321.5 27.6562 322.395 26.7607 323.5 26.7607Z" fill="#4C93E0"/>
<path fill-rule="evenodd" clip-rule="evenodd" d="M323.5 26.7607C324.605 26.7607 325.5 27.6562 325.5 28.7607V41.7607C325.5 42.8653 324.605 43.7607 323.5 43.7607C322.395 43.7607 321.5 42.8653 321.5 41.7607V28.7607C321.5 27.6562 322.395 26.7607 323.5 26.7607Z" stroke="#4C93E0" stroke-width="4" stroke-linecap="round" stroke-linejoin="round"/>
</g>
<g filter="url(#filter6_d)">
<path fill-rule="evenodd" clip-rule="evenodd" d="M448.5 26.7607C449.605 26.7607 450.5 27.6562 450.5 28.7607V41.7607C450.5 42.8653 449.605 43.7607 448.5 43.7607C447.395 43.7607 446.5 42.8653 446.5 41.7607V28.7607C446.5 27.6562 447.395 26.7607 448.5 26.7607Z" fill="#4C93E0"/>
<path fill-rule="evenodd" clip-rule="evenodd" d="M448.5 26.7607C449.605 26.7607 450.5 27.6562 450.5 28.7607V41.7607C450.5 42.8653 449.605 43.7607 448.5 43.7607C447.395 43.7607 446.5 42.8653 446.5 41.7607V28.7607C446.5 27.6562 447.395 26.7607 448.5 26.7607Z" stroke="#4C93E0" stroke-width="4" stroke-linecap="round" stroke-linejoin="round"/>
</g>
<defs>
<filter id="filter0_d" x="0" y="18.7959" width="542.833" height="58.4559" filterUnits="userSpaceOnUse" color-interpolation-filters="sRGB">
<feFlood flood-opacity="0" result="BackgroundImageFix"/>
<feColorMatrix in="SourceAlpha" type="matrix" values="0 0 0 0 0 0 0 0 0 0 0 0 0 0 0 0 0 0 127 0"/>
<feOffset dy="15"/>
<feGaussianBlur stdDeviation="5"/>
<feColorMatrix type="matrix" values="0 0 0 0 0.298039 0 0 0 0 0.576471 0 0 0 0 0.878431 0 0 0 0.15 0"/>
<feBlend mode="normal" in2="BackgroundImageFix" result="effect1_dropShadow"/>
<feBlend mode="normal" in="SourceGraphic" in2="effect1_dropShadow" result="shape"/>
</filter>
<filter id="filter1_d" x="16.0085" y="17.5239" width="56" height="61" filterUnits="userSpaceOnUse" color-interpolation-filters="sRGB">
<feFlood flood-opacity="0" result="BackgroundImageFix"/>
<feColorMatrix in="SourceAlpha" type="matrix" values="0 0 0 0 0 0 0 0 0 0 0 0 0 0 0 0 0 0 127 0"/>
<feOffset dy="15"/>
<feGaussianBlur stdDeviation="5"/>
<feColorMatrix type="matrix" values="0 0 0 0 0.298039 0 0 0 0 0.576471 0 0 0 0 0.878431 0 0 0 0.15 0"/>
<feBlend mode="normal" in2="BackgroundImageFix" result="effect1_dropShadow"/>
<feBlend mode="normal" in="SourceGraphic" in2="effect1_dropShadow" result="shape"/>
</filter>
<filter id="filter2_d" x="458.361" y="17.5239" width="56" height="61" filterUnits="userSpaceOnUse" color-interpolation-filters="sRGB">
<feFlood flood-opacity="0" result="BackgroundImageFix"/>
<feColorMatrix in="SourceAlpha" type="matrix" values="0 0 0 0 0 0 0 0 0 0 0 0 0 0 0 0 0 0 127 0"/>
<feOffset dy="15"/>
<feGaussianBlur stdDeviation="5"/>
<feColorMatrix type="matrix" values="0 0 0 0 0.298039 0 0 0 0 0.576471 0 0 0 0 0.878431 0 0 0 0.15 0"/>
<feBlend mode="normal" in2="BackgroundImageFix" result="effect1_dropShadow"/>
<feBlend mode="normal" in="SourceGraphic" in2="effect1_dropShadow" result="shape"/>
</filter>
<filter id="filter3_d" x="59" y="24.7607" width="28" height="46" filterUnits="userSpaceOnUse" color-interpolation-filters="sRGB">
<feFlood flood-opacity="0" result="BackgroundImageFix"/>
<feColorMatrix in="SourceAlpha" type="matrix" values="0 0 0 0 0 0 0 0 0 0 0 0 0 0 0 0 0 0 127 0"/>
<feOffset dy="15"/>
<feGaussianBlur stdDeviation="5"/>
<feColorMatrix type="matrix" values="0 0 0 0 0.298039 0 0 0 0 0.576471 0 0 0 0 0.878431 0 0 0 0.15 0"/>
<feBlend mode="normal" in2="BackgroundImageFix" result="effect1_dropShadow"/>
<feBlend mode="normal" in="SourceGraphic" in2="effect1_dropShadow" result="shape"/>
</filter>
<filter id="filter4_d" x="181.5" y="24.7607" width="28" height="46" filterUnits="userSpaceOnUse" color-interpolation-filters="sRGB">
<feFlood flood-opacity="0" result="BackgroundImageFix"/>
<feColorMatrix in="SourceAlpha" type="matrix" values="0 0 0 0 0 0 0 0 0 0 0 0 0 0 0 0 0 0 127 0"/>
<feOffset dy="15"/>
<feGaussianBlur stdDeviation="5"/>
<feColorMatrix type="matrix" values="0 0 0 0 0.298039 0 0 0 0 0.576471 0 0 0 0 0.878431 0 0 0 0.15 0"/>
<feBlend mode="normal" in2="BackgroundImageFix" result="effect1_dropShadow"/>
<feBlend mode="normal" in="SourceGraphic" in2="effect1_dropShadow" result="shape"/>
</filter>
<filter id="filter5_d" x="309.5" y="24.7607" width="28" height="46" filterUnits="userSpaceOnUse" color-interpolation-filters="sRGB">
<feFlood flood-opacity="0" result="BackgroundImageFix"/>
<feColorMatrix in="SourceAlpha" type="matrix" values="0 0 0 0 0 0 0 0 0 0 0 0 0 0 0 0 0 0 127 0"/>
<feOffset dy="15"/>
<feGaussianBlur stdDeviation="5"/>
<feColorMatrix type="matrix" values="0 0 0 0 0.298039 0 0 0 0 0.576471 0 0 0 0 0.878431 0 0 0 0.15 0"/>
<feBlend mode="normal" in2="BackgroundImageFix" result="effect1_dropShadow"/>
<feBlend mode="normal" in="SourceGraphic" in2="effect1_dropShadow" result="shape"/>
</filter>
<filter id="filter6_d" x="434.5" y="24.7607" width="28" height="46" filterUnits="userSpaceOnUse" color-interpolation-filters="sRGB">
<feFlood flood-opacity="0" result="BackgroundImageFix"/>
<feColorMatrix in="SourceAlpha" type="matrix" values="0 0 0 0 0 0 0 0 0 0 0 0 0 0 0 0 0 0 127 0"/>
<feOffset dy="15"/>
<feGaussianBlur stdDeviation="5"/>
<feColorMatrix type="matrix" values="0 0 0 0 0.298039 0 0 0 0 0.576471 0 0 0 0 0.878431 0 0 0 0.15 0"/>
<feBlend mode="normal" in2="BackgroundImageFix" result="effect1_dropShadow"/>
<feBlend mode="normal" in="SourceGraphic" in2="effect1_dropShadow" result="shape"/>
</filter>
</defs>
</svg>
