<svg width="552" height="531" viewBox="0 0 552 531" fill="none" xmlns="http://www.w3.org/2000/svg">
<g filter="url(#filter0_d)">
<path d="M115.315 184.672C115.315 192.957 108.6 199.672 100.315 199.672C92.0311 199.672 85.3154 192.957 85.3154 184.672C85.3154 176.388 92.0311 169.672 100.315 169.672C108.6 169.672 115.315 176.388 115.315 184.672Z" fill="white"/>
<path d="M114.315 184.672C114.315 192.404 108.047 198.672 100.315 198.672C92.5834 198.672 86.3154 192.404 86.3154 184.672C86.3154 176.94 92.5834 170.672 100.315 170.672C108.047 170.672 114.315 176.94 114.315 184.672Z" stroke="#4C93E0" stroke-width="2"/>
</g>
<g filter="url(#filter1_d)">
<mask id="path-3-inside-1" fill="white">
<path fill-rule="evenodd" clip-rule="evenodd" d="M100.315 197.672C107.495 197.672 113.315 191.852 113.315 184.672C113.315 177.493 107.495 171.672 100.315 171.672C93.1357 171.672 87.3154 177.493 87.3154 184.672C87.3154 191.852 93.1357 197.672 100.315 197.672ZM100.315 199.672C108.6 199.672 115.315 192.957 115.315 184.672C115.315 176.388 108.6 169.672 100.315 169.672C92.0311 169.672 85.3154 176.388 85.3154 184.672C85.3154 192.957 92.0311 199.672 100.315 199.672Z"/>
</mask>
<path fill-rule="evenodd" clip-rule="evenodd" d="M100.315 197.672C107.495 197.672 113.315 191.852 113.315 184.672C113.315 177.493 107.495 171.672 100.315 171.672C93.1357 171.672 87.3154 177.493 87.3154 184.672C87.3154 191.852 93.1357 197.672 100.315 197.672ZM100.315 199.672C108.6 199.672 115.315 192.957 115.315 184.672C115.315 176.388 108.6 169.672 100.315 169.672C92.0311 169.672 85.3154 176.388 85.3154 184.672C85.3154 192.957 92.0311 199.672 100.315 199.672Z" fill="white"/>
<path d="M111.315 184.672C111.315 190.748 106.391 195.672 100.315 195.672V199.672C108.6 199.672 115.315 192.957 115.315 184.672H111.315ZM100.315 173.672C106.391 173.672 111.315 178.597 111.315 184.672H115.315C115.315 176.388 108.6 169.672 100.315 169.672V173.672ZM89.3154 184.672C89.3154 178.597 94.2403 173.672 100.315 173.672V169.672C92.0311 169.672 85.3154 176.388 85.3154 184.672H89.3154ZM100.315 195.672C94.2403 195.672 89.3154 190.748 89.3154 184.672H85.3154C85.3154 192.957 92.0311 199.672 100.315 199.672V195.672ZM113.315 184.672C113.315 191.852 107.495 197.672 100.315 197.672V201.672C109.704 201.672 117.315 194.061 117.315 184.672H113.315ZM100.315 171.672C107.495 171.672 113.315 177.493 113.315 184.672H117.315C117.315 175.284 109.704 167.672 100.315 167.672V171.672ZM87.3154 184.672C87.3154 177.493 93.1357 171.672 100.315 171.672V167.672C90.9266 167.672 83.3154 175.284 83.3154 184.672H87.3154ZM100.315 197.672C93.1357 197.672 87.3154 191.852 87.3154 184.672H83.3154C83.3154 194.061 90.9266 201.672 100.315 201.672V197.672Z" fill="#4C93E0" mask="url(#path-3-inside-1)"/>
</g>
<g filter="url(#filter2_d)">
<path d="M71 255.577C71 263.861 64.2843 270.577 56 270.577C47.7157 270.577 41 263.861 41 255.577C41 247.293 47.7157 240.577 56 240.577C64.2843 240.577 71 247.293 71 255.577Z" fill="white"/>
<path d="M70 255.577C70 263.309 63.732 269.577 56 269.577C48.268 269.577 42 263.309 42 255.577C42 247.845 48.268 241.577 56 241.577C63.732 241.577 70 247.845 70 255.577Z" stroke="#4C93E0" stroke-width="2"/>
</g>
<g filter="url(#filter3_d)">
<mask id="path-7-inside-2" fill="white">
<path fill-rule="evenodd" clip-rule="evenodd" d="M56 268.577C63.1797 268.577 69 262.757 69 255.577C69 248.397 63.1797 242.577 56 242.577C48.8203 242.577 43 248.397 43 255.577C43 262.757 48.8203 268.577 56 268.577ZM56 270.577C64.2843 270.577 71 263.861 71 255.577C71 247.293 64.2843 240.577 56 240.577C47.7157 240.577 41 247.293 41 255.577C41 263.861 47.7157 270.577 56 270.577Z"/>
</mask>
<path fill-rule="evenodd" clip-rule="evenodd" d="M56 268.577C63.1797 268.577 69 262.757 69 255.577C69 248.397 63.1797 242.577 56 242.577C48.8203 242.577 43 248.397 43 255.577C43 262.757 48.8203 268.577 56 268.577ZM56 270.577C64.2843 270.577 71 263.861 71 255.577C71 247.293 64.2843 240.577 56 240.577C47.7157 240.577 41 247.293 41 255.577C41 263.861 47.7157 270.577 56 270.577Z" fill="white"/>
<path d="M67 255.577C67 261.652 62.0751 266.577 56 266.577V270.577C64.2843 270.577 71 263.861 71 255.577H67ZM56 244.577C62.0751 244.577 67 249.502 67 255.577H71C71 247.293 64.2843 240.577 56 240.577V244.577ZM45 255.577C45 249.502 49.9249 244.577 56 244.577V240.577C47.7157 240.577 41 247.293 41 255.577H45ZM56 266.577C49.9249 266.577 45 261.652 45 255.577H41C41 263.861 47.7157 270.577 56 270.577V266.577ZM69 255.577C69 262.757 63.1797 268.577 56 268.577V272.577C65.3888 272.577 73 264.966 73 255.577H69ZM56 242.577C63.1797 242.577 69 248.397 69 255.577H73C73 246.188 65.3888 238.577 56 238.577V242.577ZM43 255.577C43 248.397 48.8203 242.577 56 242.577V238.577C46.6112 238.577 39 246.188 39 255.577H43ZM56 268.577C48.8203 268.577 43 262.757 43 255.577H39C39 264.966 46.6112 272.577 56 272.577V268.577Z" fill="#4C93E0" mask="url(#path-7-inside-2)"/>
</g>
<g filter="url(#filter4_d)">
<path d="M115.315 304.477C115.315 312.761 108.6 319.477 100.315 319.477C92.0311 319.477 85.3154 312.761 85.3154 304.477C85.3154 296.193 92.0311 289.477 100.315 289.477C108.6 289.477 115.315 296.193 115.315 304.477Z" fill="white"/>
<path d="M114.315 304.477C114.315 312.209 108.047 318.477 100.315 318.477C92.5834 318.477 86.3154 312.209 86.3154 304.477C86.3154 296.745 92.5834 290.477 100.315 290.477C108.047 290.477 114.315 296.745 114.315 304.477Z" stroke="#4C93E0" stroke-width="2"/>
</g>
<g filter="url(#filter5_d)">
<mask id="path-11-inside-3" fill="white">
<path fill-rule="evenodd" clip-rule="evenodd" d="M100.315 317.477C107.495 317.477 113.315 311.656 113.315 304.477C113.315 297.297 107.495 291.477 100.315 291.477C93.1357 291.477 87.3154 297.297 87.3154 304.477C87.3154 311.656 93.1357 317.477 100.315 317.477ZM100.315 319.477C108.6 319.477 115.315 312.761 115.315 304.477C115.315 296.193 108.6 289.477 100.315 289.477C92.0311 289.477 85.3154 296.193 85.3154 304.477C85.3154 312.761 92.0311 319.477 100.315 319.477Z"/>
</mask>
<path fill-rule="evenodd" clip-rule="evenodd" d="M100.315 317.477C107.495 317.477 113.315 311.656 113.315 304.477C113.315 297.297 107.495 291.477 100.315 291.477C93.1357 291.477 87.3154 297.297 87.3154 304.477C87.3154 311.656 93.1357 317.477 100.315 317.477ZM100.315 319.477C108.6 319.477 115.315 312.761 115.315 304.477C115.315 296.193 108.6 289.477 100.315 289.477C92.0311 289.477 85.3154 296.193 85.3154 304.477C85.3154 312.761 92.0311 319.477 100.315 319.477Z" fill="white"/>
<path d="M111.315 304.477C111.315 310.552 106.391 315.477 100.315 315.477V319.477C108.6 319.477 115.315 312.761 115.315 304.477H111.315ZM100.315 293.477C106.391 293.477 111.315 298.402 111.315 304.477H115.315C115.315 296.193 108.6 289.477 100.315 289.477V293.477ZM89.3154 304.477C89.3154 298.402 94.2403 293.477 100.315 293.477V289.477C92.0311 289.477 85.3154 296.193 85.3154 304.477H89.3154ZM100.315 315.477C94.2403 315.477 89.3154 310.552 89.3154 304.477H85.3154C85.3154 312.761 92.0311 319.477 100.315 319.477V315.477ZM113.315 304.477C113.315 311.656 107.495 317.477 100.315 317.477V321.477C109.704 321.477 117.315 313.866 117.315 304.477H113.315ZM100.315 291.477C107.495 291.477 113.315 297.297 113.315 304.477H117.315C117.315 295.088 109.704 287.477 100.315 287.477V291.477ZM87.3154 304.477C87.3154 297.297 93.1357 291.477 100.315 291.477V287.477C90.9266 287.477 83.3154 295.088 83.3154 304.477H87.3154ZM100.315 317.477C93.1357 317.477 87.3154 311.656 87.3154 304.477H83.3154C83.3154 313.866 90.9266 321.477 100.315 321.477V317.477Z" fill="#4C93E0" mask="url(#path-11-inside-3)"/>
</g>
<g filter="url(#filter6_d)">
<path d="M162.076 235.1C162.076 243.385 155.36 250.1 147.076 250.1C138.792 250.1 132.076 243.385 132.076 235.1C132.076 226.816 138.792 220.1 147.076 220.1C155.36 220.1 162.076 226.816 162.076 235.1Z" fill="white"/>
<path d="M161.076 235.1C161.076 242.832 154.808 249.1 147.076 249.1C139.344 249.1 133.076 242.832 133.076 235.1C133.076 227.368 139.344 221.1 147.076 221.1C154.808 221.1 161.076 227.368 161.076 235.1Z" stroke="#4C93E0" stroke-width="2"/>
</g>
<g filter="url(#filter7_d)">
<mask id="path-15-inside-4" fill="white">
<path fill-rule="evenodd" clip-rule="evenodd" d="M147.076 248.1C154.256 248.1 160.076 242.28 160.076 235.1C160.076 227.921 154.256 222.1 147.076 222.1C139.896 222.1 134.076 227.921 134.076 235.1C134.076 242.28 139.896 248.1 147.076 248.1ZM147.076 250.1C155.36 250.1 162.076 243.385 162.076 235.1C162.076 226.816 155.36 220.1 147.076 220.1C138.792 220.1 132.076 226.816 132.076 235.1C132.076 243.385 138.792 250.1 147.076 250.1Z"/>
</mask>
<path fill-rule="evenodd" clip-rule="evenodd" d="M147.076 248.1C154.256 248.1 160.076 242.28 160.076 235.1C160.076 227.921 154.256 222.1 147.076 222.1C139.896 222.1 134.076 227.921 134.076 235.1C134.076 242.28 139.896 248.1 147.076 248.1ZM147.076 250.1C155.36 250.1 162.076 243.385 162.076 235.1C162.076 226.816 155.36 220.1 147.076 220.1C138.792 220.1 132.076 226.816 132.076 235.1C132.076 243.385 138.792 250.1 147.076 250.1Z" fill="white"/>
<path d="M158.076 235.1C158.076 241.175 153.151 246.1 147.076 246.1V250.1C155.36 250.1 162.076 243.385 162.076 235.1H158.076ZM147.076 224.1C153.151 224.1 158.076 229.025 158.076 235.1H162.076C162.076 226.816 155.36 220.1 147.076 220.1V224.1ZM136.076 235.1C136.076 229.025 141.001 224.1 147.076 224.1V220.1C138.792 220.1 132.076 226.816 132.076 235.1H136.076ZM147.076 246.1C141.001 246.1 136.076 241.175 136.076 235.1H132.076C132.076 243.385 138.792 250.1 147.076 250.1V246.1ZM160.076 235.1C160.076 242.28 154.256 248.1 147.076 248.1V252.1C156.465 252.1 164.076 244.489 164.076 235.1H160.076ZM147.076 222.1C154.256 222.1 160.076 227.921 160.076 235.1H164.076C164.076 225.711 156.465 218.1 147.076 218.1V222.1ZM134.076 235.1C134.076 227.921 139.896 222.1 147.076 222.1V218.1C137.687 218.1 130.076 225.711 130.076 235.1H134.076ZM147.076 248.1C139.896 248.1 134.076 242.28 134.076 235.1H130.076C130.076 244.489 137.687 252.1 147.076 252.1V248.1Z" fill="#4C93E0" mask="url(#path-15-inside-4)"/>
</g>
<g filter="url(#filter8_d)">
<path d="M154.13 357.655C154.13 365.94 147.414 372.655 139.13 372.655C130.845 372.655 124.13 365.94 124.13 357.655C124.13 349.371 130.845 342.655 139.13 342.655C147.414 342.655 154.13 349.371 154.13 357.655Z" fill="white"/>
<path d="M153.13 357.655C153.13 365.387 146.862 371.655 139.13 371.655C131.398 371.655 125.13 365.387 125.13 357.655C125.13 349.923 131.398 343.655 139.13 343.655C146.862 343.655 153.13 349.923 153.13 357.655Z" stroke="#4C93E0" stroke-width="2"/>
</g>
<g filter="url(#filter9_d)">
<mask id="path-19-inside-5" fill="white">
<path fill-rule="evenodd" clip-rule="evenodd" d="M139.13 370.655C146.309 370.655 152.13 364.835 152.13 357.655C152.13 350.476 146.309 344.655 139.13 344.655C131.95 344.655 126.13 350.476 126.13 357.655C126.13 364.835 131.95 370.655 139.13 370.655ZM139.13 372.655C147.414 372.655 154.13 365.94 154.13 357.655C154.13 349.371 147.414 342.655 139.13 342.655C130.845 342.655 124.13 349.371 124.13 357.655C124.13 365.94 130.845 372.655 139.13 372.655Z"/>
</mask>
<path fill-rule="evenodd" clip-rule="evenodd" d="M139.13 370.655C146.309 370.655 152.13 364.835 152.13 357.655C152.13 350.476 146.309 344.655 139.13 344.655C131.95 344.655 126.13 350.476 126.13 357.655C126.13 364.835 131.95 370.655 139.13 370.655ZM139.13 372.655C147.414 372.655 154.13 365.94 154.13 357.655C154.13 349.371 147.414 342.655 139.13 342.655C130.845 342.655 124.13 349.371 124.13 357.655C124.13 365.94 130.845 372.655 139.13 372.655Z" fill="white"/>
<path d="M150.13 357.655C150.13 363.73 145.205 368.655 139.13 368.655V372.655C147.414 372.655 154.13 365.94 154.13 357.655H150.13ZM139.13 346.655C145.205 346.655 150.13 351.58 150.13 357.655H154.13C154.13 349.371 147.414 342.655 139.13 342.655V346.655ZM128.13 357.655C128.13 351.58 133.054 346.655 139.13 346.655V342.655C130.845 342.655 124.13 349.371 124.13 357.655H128.13ZM139.13 368.655C133.054 368.655 128.13 363.73 128.13 357.655H124.13C124.13 365.94 130.845 372.655 139.13 372.655V368.655ZM152.13 357.655C152.13 364.835 146.309 370.655 139.13 370.655V374.655C148.518 374.655 156.13 367.044 156.13 357.655H152.13ZM139.13 344.655C146.309 344.655 152.13 350.476 152.13 357.655H156.13C156.13 348.266 148.518 340.655 139.13 340.655V344.655ZM126.13 357.655C126.13 350.476 131.95 344.655 139.13 344.655V340.655C129.741 340.655 122.13 348.266 122.13 357.655H126.13ZM139.13 370.655C131.95 370.655 126.13 364.835 126.13 357.655H122.13C122.13 367.044 129.741 374.655 139.13 374.655V370.655Z" fill="#4C93E0" mask="url(#path-19-inside-5)"/>
</g>
<g filter="url(#filter10_d)">
<path d="M412.076 342.985C412.076 351.27 405.36 357.985 397.076 357.985C388.792 357.985 382.076 351.27 382.076 342.985C382.076 334.701 388.792 327.985 397.076 327.985C405.36 327.985 412.076 334.701 412.076 342.985Z" fill="white"/>
<path d="M411.076 342.985C411.076 350.717 404.808 356.985 397.076 356.985C389.344 356.985 383.076 350.717 383.076 342.985C383.076 335.253 389.344 328.985 397.076 328.985C404.808 328.985 411.076 335.253 411.076 342.985Z" stroke="#4C93E0" stroke-width="2"/>
</g>
<g filter="url(#filter11_d)">
<mask id="path-23-inside-6" fill="white">
<path fill-rule="evenodd" clip-rule="evenodd" d="M397.076 355.985C404.256 355.985 410.076 350.165 410.076 342.985C410.076 335.806 404.256 329.985 397.076 329.985C389.896 329.985 384.076 335.806 384.076 342.985C384.076 350.165 389.896 355.985 397.076 355.985ZM397.076 357.985C405.36 357.985 412.076 351.27 412.076 342.985C412.076 334.701 405.36 327.985 397.076 327.985C388.792 327.985 382.076 334.701 382.076 342.985C382.076 351.27 388.792 357.985 397.076 357.985Z"/>
</mask>
<path fill-rule="evenodd" clip-rule="evenodd" d="M397.076 355.985C404.256 355.985 410.076 350.165 410.076 342.985C410.076 335.806 404.256 329.985 397.076 329.985C389.896 329.985 384.076 335.806 384.076 342.985C384.076 350.165 389.896 355.985 397.076 355.985ZM397.076 357.985C405.36 357.985 412.076 351.27 412.076 342.985C412.076 334.701 405.36 327.985 397.076 327.985C388.792 327.985 382.076 334.701 382.076 342.985C382.076 351.27 388.792 357.985 397.076 357.985Z" fill="white"/>
<path d="M408.076 342.985C408.076 349.06 403.151 353.985 397.076 353.985V357.985C405.36 357.985 412.076 351.27 412.076 342.985H408.076ZM397.076 331.985C403.151 331.985 408.076 336.91 408.076 342.985H412.076C412.076 334.701 405.36 327.985 397.076 327.985V331.985ZM386.076 342.985C386.076 336.91 391.001 331.985 397.076 331.985V327.985C388.792 327.985 382.076 334.701 382.076 342.985H386.076ZM397.076 353.985C391.001 353.985 386.076 349.06 386.076 342.985H382.076C382.076 351.27 388.792 357.985 397.076 357.985V353.985ZM410.076 342.985C410.076 350.165 404.256 355.985 397.076 355.985V359.985C406.465 359.985 414.076 352.374 414.076 342.985H410.076ZM397.076 329.985C404.256 329.985 410.076 335.806 410.076 342.985H414.076C414.076 333.596 406.465 325.985 397.076 325.985V329.985ZM384.076 342.985C384.076 335.806 389.896 329.985 397.076 329.985V325.985C387.687 325.985 380.076 333.596 380.076 342.985H384.076ZM397.076 355.985C389.896 355.985 384.076 350.165 384.076 342.985H380.076C380.076 352.374 387.687 359.985 397.076 359.985V355.985Z" fill="#4C93E0" mask="url(#path-23-inside-6)"/>
</g>
<g filter="url(#filter12_d)">
<path d="M524.303 355.548C524.303 364.018 517.437 370.885 508.966 370.885C500.495 370.885 493.628 364.018 493.628 355.548C493.628 347.077 500.495 340.21 508.966 340.21C517.437 340.21 524.303 347.077 524.303 355.548Z" fill="white"/>
<path d="M523.303 355.548C523.303 363.466 516.884 369.885 508.966 369.885C501.047 369.885 494.628 363.466 494.628 355.548C494.628 347.629 501.047 341.21 508.966 341.21C516.884 341.21 523.303 347.629 523.303 355.548Z" stroke="#4C93E0" stroke-width="2"/>
</g>
<g filter="url(#filter13_d)">
<mask id="path-27-inside-7" fill="white">
<path fill-rule="evenodd" clip-rule="evenodd" d="M508.966 368.885C516.332 368.885 522.303 362.914 522.303 355.548C522.303 348.182 516.332 342.21 508.966 342.21C501.6 342.21 495.628 348.182 495.628 355.548C495.628 362.914 501.6 368.885 508.966 368.885ZM508.966 370.885C517.437 370.885 524.303 364.018 524.303 355.548C524.303 347.077 517.437 340.21 508.966 340.21C500.495 340.21 493.628 347.077 493.628 355.548C493.628 364.018 500.495 370.885 508.966 370.885Z"/>
</mask>
<path fill-rule="evenodd" clip-rule="evenodd" d="M508.966 368.885C516.332 368.885 522.303 362.914 522.303 355.548C522.303 348.182 516.332 342.21 508.966 342.21C501.6 342.21 495.628 348.182 495.628 355.548C495.628 362.914 501.6 368.885 508.966 368.885ZM508.966 370.885C517.437 370.885 524.303 364.018 524.303 355.548C524.303 347.077 517.437 340.21 508.966 340.21C500.495 340.21 493.628 347.077 493.628 355.548C493.628 364.018 500.495 370.885 508.966 370.885Z" fill="white"/>
<path d="M520.303 355.548C520.303 361.809 515.227 366.885 508.966 366.885V370.885C517.437 370.885 524.303 364.018 524.303 355.548H520.303ZM508.966 344.21C515.227 344.21 520.303 349.286 520.303 355.548H524.303C524.303 347.077 517.437 340.21 508.966 340.21V344.21ZM497.628 355.548C497.628 349.286 502.704 344.21 508.966 344.21V340.21C500.495 340.21 493.628 347.077 493.628 355.548H497.628ZM508.966 366.885C502.704 366.885 497.628 361.809 497.628 355.548H493.628C493.628 364.018 500.495 370.885 508.966 370.885V366.885ZM522.303 355.548C522.303 362.914 516.332 368.885 508.966 368.885V372.885C518.541 372.885 526.303 365.123 526.303 355.548H522.303ZM508.966 342.21C516.332 342.21 522.303 348.182 522.303 355.548H526.303C526.303 345.973 518.541 338.21 508.966 338.21V342.21ZM495.628 355.548C495.628 348.182 501.6 342.21 508.966 342.21V338.21C499.391 338.21 491.628 345.973 491.628 355.548H495.628ZM508.966 368.885C501.6 368.885 495.628 362.914 495.628 355.548H491.628C491.628 365.123 499.391 372.885 508.966 372.885V368.885Z" fill="#4C93E0" mask="url(#path-27-inside-7)"/>
</g>
<g filter="url(#filter14_d)">
<path d="M454.252 293.78C454.252 302.064 447.536 308.78 439.252 308.78C430.968 308.78 424.252 302.064 424.252 293.78C424.252 285.496 430.968 278.78 439.252 278.78C447.536 278.78 454.252 285.496 454.252 293.78Z" fill="white"/>
<path d="M453.252 293.78C453.252 301.512 446.984 307.78 439.252 307.78C431.52 307.78 425.252 301.512 425.252 293.78C425.252 286.048 431.52 279.78 439.252 279.78C446.984 279.78 453.252 286.048 453.252 293.78Z" stroke="#4C93E0" stroke-width="2"/>
</g>
<g filter="url(#filter15_d)">
<mask id="path-31-inside-8" fill="white">
<path fill-rule="evenodd" clip-rule="evenodd" d="M439.252 306.78C446.432 306.78 452.252 300.96 452.252 293.78C452.252 286.6 446.432 280.78 439.252 280.78C432.072 280.78 426.252 286.6 426.252 293.78C426.252 300.96 432.072 306.78 439.252 306.78ZM439.252 308.78C447.536 308.78 454.252 302.064 454.252 293.78C454.252 285.496 447.536 278.78 439.252 278.78C430.968 278.78 424.252 285.496 424.252 293.78C424.252 302.064 430.968 308.78 439.252 308.78Z"/>
</mask>
<path fill-rule="evenodd" clip-rule="evenodd" d="M439.252 306.78C446.432 306.78 452.252 300.96 452.252 293.78C452.252 286.6 446.432 280.78 439.252 280.78C432.072 280.78 426.252 286.6 426.252 293.78C426.252 300.96 432.072 306.78 439.252 306.78ZM439.252 308.78C447.536 308.78 454.252 302.064 454.252 293.78C454.252 285.496 447.536 278.78 439.252 278.78C430.968 278.78 424.252 285.496 424.252 293.78C424.252 302.064 430.968 308.78 439.252 308.78Z" fill="white"/>
<path d="M450.252 293.78C450.252 299.855 445.327 304.78 439.252 304.78V308.78C447.536 308.78 454.252 302.064 454.252 293.78H450.252ZM439.252 282.78C445.327 282.78 450.252 287.705 450.252 293.78H454.252C454.252 285.496 447.536 278.78 439.252 278.78V282.78ZM428.252 293.78C428.252 287.705 433.177 282.78 439.252 282.78V278.78C430.968 278.78 424.252 285.496 424.252 293.78H428.252ZM439.252 304.78C433.177 304.78 428.252 299.855 428.252 293.78H424.252C424.252 302.064 430.968 308.78 439.252 308.78V304.78ZM452.252 293.78C452.252 300.96 446.432 306.78 439.252 306.78V310.78C448.641 310.78 456.252 303.169 456.252 293.78H452.252ZM439.252 280.78C446.432 280.78 452.252 286.6 452.252 293.78H456.252C456.252 284.391 448.641 276.78 439.252 276.78V280.78ZM426.252 293.78C426.252 286.6 432.072 280.78 439.252 280.78V276.78C429.863 276.78 422.252 284.391 422.252 293.78H426.252ZM439.252 306.78C432.072 306.78 426.252 300.96 426.252 293.78H422.252C422.252 303.169 429.863 310.78 439.252 310.78V306.78Z" fill="#4C93E0" mask="url(#path-31-inside-8)"/>
</g>
<g filter="url(#filter16_d)">
<path d="M533.103 245.797C533.103 254.081 526.387 260.797 518.103 260.797C509.818 260.797 503.103 254.081 503.103 245.797C503.103 237.513 509.818 230.797 518.103 230.797C526.387 230.797 533.103 237.513 533.103 245.797Z" fill="white"/>
<path d="M532.103 245.797C532.103 253.529 525.835 259.797 518.103 259.797C510.371 259.797 504.103 253.529 504.103 245.797C504.103 238.065 510.371 231.797 518.103 231.797C525.835 231.797 532.103 238.065 532.103 245.797Z" stroke="#4C93E0" stroke-width="2"/>
</g>
<g filter="url(#filter17_d)">
<mask id="path-35-inside-9" fill="white">
<path fill-rule="evenodd" clip-rule="evenodd" d="M518.103 258.797C525.282 258.797 531.103 252.977 531.103 245.797C531.103 238.617 525.282 232.797 518.103 232.797C510.923 232.797 505.103 238.617 505.103 245.797C505.103 252.977 510.923 258.797 518.103 258.797ZM518.103 260.797C526.387 260.797 533.103 254.081 533.103 245.797C533.103 237.513 526.387 230.797 518.103 230.797C509.818 230.797 503.103 237.513 503.103 245.797C503.103 254.081 509.818 260.797 518.103 260.797Z"/>
</mask>
<path fill-rule="evenodd" clip-rule="evenodd" d="M518.103 258.797C525.282 258.797 531.103 252.977 531.103 245.797C531.103 238.617 525.282 232.797 518.103 232.797C510.923 232.797 505.103 238.617 505.103 245.797C505.103 252.977 510.923 258.797 518.103 258.797ZM518.103 260.797C526.387 260.797 533.103 254.081 533.103 245.797C533.103 237.513 526.387 230.797 518.103 230.797C509.818 230.797 503.103 237.513 503.103 245.797C503.103 254.081 509.818 260.797 518.103 260.797Z" fill="white"/>
<path d="M529.103 245.797C529.103 251.872 524.178 256.797 518.103 256.797V260.797C526.387 260.797 533.103 254.081 533.103 245.797H529.103ZM518.103 234.797C524.178 234.797 529.103 239.722 529.103 245.797H533.103C533.103 237.513 526.387 230.797 518.103 230.797V234.797ZM507.103 245.797C507.103 239.722 512.028 234.797 518.103 234.797V230.797C509.818 230.797 503.103 237.513 503.103 245.797H507.103ZM518.103 256.797C512.028 256.797 507.103 251.872 507.103 245.797H503.103C503.103 254.081 509.818 260.797 518.103 260.797V256.797ZM531.103 245.797C531.103 252.977 525.282 258.797 518.103 258.797V262.797C527.492 262.797 535.103 255.186 535.103 245.797H531.103ZM518.103 232.797C525.282 232.797 531.103 238.617 531.103 245.797H535.103C535.103 236.408 527.492 228.797 518.103 228.797V232.797ZM505.103 245.797C505.103 238.617 510.923 232.797 518.103 232.797V228.797C508.714 228.797 501.103 236.408 501.103 245.797H505.103ZM518.103 258.797C510.923 258.797 505.103 252.977 505.103 245.797H501.103C501.103 255.186 508.714 262.797 518.103 262.797V258.797Z" fill="#4C93E0" mask="url(#path-35-inside-9)"/>
</g>
<g filter="url(#filter18_d)">
<path d="M541.66 201.787C541.66 210.072 534.944 216.787 526.66 216.787C518.376 216.787 511.66 210.072 511.66 201.787C511.66 193.503 518.376 186.787 526.66 186.787C534.944 186.787 541.66 193.503 541.66 201.787Z" fill="white"/>
<path d="M540.66 201.787C540.66 209.519 534.392 215.787 526.66 215.787C518.928 215.787 512.66 209.519 512.66 201.787C512.66 194.055 518.928 187.787 526.66 187.787C534.392 187.787 540.66 194.055 540.66 201.787Z" stroke="#4C93E0" stroke-width="2"/>
</g>
<g filter="url(#filter19_d)">
<mask id="path-39-inside-10" fill="white">
<path fill-rule="evenodd" clip-rule="evenodd" d="M526.66 214.787C533.84 214.787 539.66 208.967 539.66 201.787C539.66 194.608 533.84 188.787 526.66 188.787C519.48 188.787 513.66 194.608 513.66 201.787C513.66 208.967 519.48 214.787 526.66 214.787ZM526.66 216.787C534.944 216.787 541.66 210.072 541.66 201.787C541.66 193.503 534.944 186.787 526.66 186.787C518.376 186.787 511.66 193.503 511.66 201.787C511.66 210.072 518.376 216.787 526.66 216.787Z"/>
</mask>
<path fill-rule="evenodd" clip-rule="evenodd" d="M526.66 214.787C533.84 214.787 539.66 208.967 539.66 201.787C539.66 194.608 533.84 188.787 526.66 188.787C519.48 188.787 513.66 194.608 513.66 201.787C513.66 208.967 519.48 214.787 526.66 214.787ZM526.66 216.787C534.944 216.787 541.66 210.072 541.66 201.787C541.66 193.503 534.944 186.787 526.66 186.787C518.376 186.787 511.66 193.503 511.66 201.787C511.66 210.072 518.376 216.787 526.66 216.787Z" fill="white"/>
<path d="M537.66 201.787C537.66 207.862 532.735 212.787 526.66 212.787V216.787C534.944 216.787 541.66 210.072 541.66 201.787H537.66ZM526.66 190.787C532.735 190.787 537.66 195.712 537.66 201.787H541.66C541.66 193.503 534.944 186.787 526.66 186.787V190.787ZM515.66 201.787C515.66 195.712 520.585 190.787 526.66 190.787V186.787C518.376 186.787 511.66 193.503 511.66 201.787H515.66ZM526.66 212.787C520.585 212.787 515.66 207.862 515.66 201.787H511.66C511.66 210.072 518.376 216.787 526.66 216.787V212.787ZM539.66 201.787C539.66 208.967 533.84 214.787 526.66 214.787V218.787C536.049 218.787 543.66 211.176 543.66 201.787H539.66ZM526.66 188.787C533.84 188.787 539.66 194.608 539.66 201.787H543.66C543.66 192.398 536.049 184.787 526.66 184.787V188.787ZM513.66 201.787C513.66 194.608 519.48 188.787 526.66 188.787V184.787C517.271 184.787 509.66 192.398 509.66 201.787H513.66ZM526.66 214.787C519.48 214.787 513.66 208.967 513.66 201.787H509.66C509.66 211.176 517.271 218.787 526.66 218.787V214.787Z" fill="#4C93E0" mask="url(#path-39-inside-10)"/>
</g>
<g filter="url(#filter20_d)">
<path d="M493.983 159C493.983 167.284 487.267 174 478.983 174C470.699 174 463.983 167.284 463.983 159C463.983 150.716 470.699 144 478.983 144C487.267 144 493.983 150.716 493.983 159Z" fill="white"/>
<path d="M492.983 159C492.983 166.732 486.715 173 478.983 173C471.251 173 464.983 166.732 464.983 159C464.983 151.268 471.251 145 478.983 145C486.715 145 492.983 151.268 492.983 159Z" stroke="#4C93E0" stroke-width="2"/>
</g>
<g filter="url(#filter21_d)">
<mask id="path-43-inside-11" fill="white">
<path fill-rule="evenodd" clip-rule="evenodd" d="M478.983 172C486.163 172 491.983 166.18 491.983 159C491.983 151.82 486.163 146 478.983 146C471.803 146 465.983 151.82 465.983 159C465.983 166.18 471.803 172 478.983 172ZM478.983 174C487.267 174 493.983 167.284 493.983 159C493.983 150.716 487.267 144 478.983 144C470.699 144 463.983 150.716 463.983 159C463.983 167.284 470.699 174 478.983 174Z"/>
</mask>
<path fill-rule="evenodd" clip-rule="evenodd" d="M478.983 172C486.163 172 491.983 166.18 491.983 159C491.983 151.82 486.163 146 478.983 146C471.803 146 465.983 151.82 465.983 159C465.983 166.18 471.803 172 478.983 172ZM478.983 174C487.267 174 493.983 167.284 493.983 159C493.983 150.716 487.267 144 478.983 144C470.699 144 463.983 150.716 463.983 159C463.983 167.284 470.699 174 478.983 174Z" fill="white"/>
<path d="M489.983 159C489.983 165.075 485.058 170 478.983 170V174C487.267 174 493.983 167.284 493.983 159H489.983ZM478.983 148C485.058 148 489.983 152.925 489.983 159H493.983C493.983 150.716 487.267 144 478.983 144V148ZM467.983 159C467.983 152.925 472.908 148 478.983 148V144C470.699 144 463.983 150.716 463.983 159H467.983ZM478.983 170C472.908 170 467.983 165.075 467.983 159H463.983C463.983 167.284 470.699 174 478.983 174V170ZM491.983 159C491.983 166.18 486.163 172 478.983 172V176C488.372 176 495.983 168.389 495.983 159H491.983ZM478.983 146C486.163 146 491.983 151.82 491.983 159H495.983C495.983 149.611 488.372 142 478.983 142V146ZM465.983 159C465.983 151.82 471.803 146 478.983 146V142C469.594 142 461.983 149.611 461.983 159H465.983ZM478.983 172C471.803 172 465.983 166.18 465.983 159H461.983C461.983 168.389 469.594 176 478.983 176V172Z" fill="#4C93E0" mask="url(#path-43-inside-11)"/>
</g>
<g filter="url(#filter22_d)">
<path d="M446 220.43C446 228.715 439.284 235.43 431 235.43C422.716 235.43 416 228.715 416 220.43C416 212.146 422.716 205.43 431 205.43C439.284 205.43 446 212.146 446 220.43Z" fill="white"/>
<path d="M445 220.43C445 228.162 438.732 234.43 431 234.43C423.268 234.43 417 228.162 417 220.43C417 212.698 423.268 206.43 431 206.43C438.732 206.43 445 212.698 445 220.43Z" stroke="#4C93E0" stroke-width="2"/>
</g>
<g filter="url(#filter23_d)">
<mask id="path-47-inside-12" fill="white">
<path fill-rule="evenodd" clip-rule="evenodd" d="M431 233.43C438.18 233.43 444 227.61 444 220.43C444 213.251 438.18 207.43 431 207.43C423.82 207.43 418 213.251 418 220.43C418 227.61 423.82 233.43 431 233.43ZM431 235.43C439.284 235.43 446 228.715 446 220.43C446 212.146 439.284 205.43 431 205.43C422.716 205.43 416 212.146 416 220.43C416 228.715 422.716 235.43 431 235.43Z"/>
</mask>
<path fill-rule="evenodd" clip-rule="evenodd" d="M431 233.43C438.18 233.43 444 227.61 444 220.43C444 213.251 438.18 207.43 431 207.43C423.82 207.43 418 213.251 418 220.43C418 227.61 423.82 233.43 431 233.43ZM431 235.43C439.284 235.43 446 228.715 446 220.43C446 212.146 439.284 205.43 431 205.43C422.716 205.43 416 212.146 416 220.43C416 228.715 422.716 235.43 431 235.43Z" fill="white"/>
<path d="M442 220.43C442 226.505 437.075 231.43 431 231.43V235.43C439.284 235.43 446 228.715 446 220.43H442ZM431 209.43C437.075 209.43 442 214.355 442 220.43H446C446 212.146 439.284 205.43 431 205.43V209.43ZM420 220.43C420 214.355 424.925 209.43 431 209.43V205.43C422.716 205.43 416 212.146 416 220.43H420ZM431 231.43C424.925 231.43 420 226.505 420 220.43H416C416 228.715 422.716 235.43 431 235.43V231.43ZM444 220.43C444 227.61 438.18 233.43 431 233.43V237.43C440.389 237.43 448 229.819 448 220.43H444ZM431 207.43C438.18 207.43 444 213.251 444 220.43H448C448 211.041 440.389 203.43 431 203.43V207.43ZM418 220.43C418 213.251 423.82 207.43 431 207.43V203.43C421.611 203.43 414 211.041 414 220.43H418ZM431 233.43C423.82 233.43 418 227.61 418 220.43H414C414 229.819 421.611 237.43 431 237.43V233.43Z" fill="#4C93E0" mask="url(#path-47-inside-12)"/>
</g>
<g filter="url(#filter24_d)">
<path d="M229.007 182.533C229.007 190.817 222.292 197.533 214.007 197.533C205.723 197.533 199.007 190.817 199.007 182.533C199.007 174.249 205.723 167.533 214.007 167.533C222.292 167.533 229.007 174.249 229.007 182.533Z" fill="white"/>
<path d="M228.007 182.533C228.007 190.265 221.739 196.533 214.007 196.533C206.275 196.533 200.007 190.265 200.007 182.533C200.007 174.801 206.275 168.533 214.007 168.533C221.739 168.533 228.007 174.801 228.007 182.533Z" stroke="#4C93E0" stroke-width="2"/>
</g>
<g filter="url(#filter25_d)">
<mask id="path-51-inside-13" fill="white">
<path fill-rule="evenodd" clip-rule="evenodd" d="M214.007 195.533C221.187 195.533 227.007 189.713 227.007 182.533C227.007 175.353 221.187 169.533 214.007 169.533C206.828 169.533 201.007 175.353 201.007 182.533C201.007 189.713 206.828 195.533 214.007 195.533ZM214.007 197.533C222.292 197.533 229.007 190.817 229.007 182.533C229.007 174.249 222.292 167.533 214.007 167.533C205.723 167.533 199.007 174.249 199.007 182.533C199.007 190.817 205.723 197.533 214.007 197.533Z"/>
</mask>
<path fill-rule="evenodd" clip-rule="evenodd" d="M214.007 195.533C221.187 195.533 227.007 189.713 227.007 182.533C227.007 175.353 221.187 169.533 214.007 169.533C206.828 169.533 201.007 175.353 201.007 182.533C201.007 189.713 206.828 195.533 214.007 195.533ZM214.007 197.533C222.292 197.533 229.007 190.817 229.007 182.533C229.007 174.249 222.292 167.533 214.007 167.533C205.723 167.533 199.007 174.249 199.007 182.533C199.007 190.817 205.723 197.533 214.007 197.533Z" fill="white"/>
<path d="M225.007 182.533C225.007 188.608 220.082 193.533 214.007 193.533V197.533C222.292 197.533 229.007 190.817 229.007 182.533H225.007ZM214.007 171.533C220.082 171.533 225.007 176.458 225.007 182.533H229.007C229.007 174.249 222.292 167.533 214.007 167.533V171.533ZM203.007 182.533C203.007 176.458 207.932 171.533 214.007 171.533V167.533C205.723 167.533 199.007 174.249 199.007 182.533H203.007ZM214.007 193.533C207.932 193.533 203.007 188.608 203.007 182.533H199.007C199.007 190.817 205.723 197.533 214.007 197.533V193.533ZM227.007 182.533C227.007 189.713 221.187 195.533 214.007 195.533V199.533C223.396 199.533 231.007 191.922 231.007 182.533H227.007ZM214.007 169.533C221.187 169.533 227.007 175.353 227.007 182.533H231.007C231.007 173.144 223.396 165.533 214.007 165.533V169.533ZM201.007 182.533C201.007 175.353 206.828 169.533 214.007 169.533V165.533C204.618 165.533 197.007 173.144 197.007 182.533H201.007ZM214.007 195.533C206.828 195.533 201.007 189.713 201.007 182.533H197.007C197.007 191.922 204.618 199.533 214.007 199.533V195.533Z" fill="#4C93E0" mask="url(#path-51-inside-13)"/>
</g>
<g filter="url(#filter26_d)">
<path d="M269.35 319.147C269.35 327.431 262.634 334.147 254.35 334.147C246.065 334.147 239.35 327.431 239.35 319.147C239.35 310.862 246.065 304.147 254.35 304.147C262.634 304.147 269.35 310.862 269.35 319.147Z" fill="#4C93E0"/>
</g>
<g filter="url(#filter27_d)">
<path d="M332.614 357.655C332.614 365.94 325.898 372.655 317.614 372.655C309.329 372.655 302.614 365.94 302.614 357.655C302.614 349.371 309.329 342.655 317.614 342.655C325.898 342.655 332.614 349.371 332.614 357.655Z" fill="#4C93E0"/>
</g>
<g filter="url(#filter28_d)">
<path d="M219.533 364.99C219.533 373.274 212.817 379.99 204.533 379.99C196.249 379.99 189.533 373.274 189.533 364.99C189.533 356.706 196.249 349.99 204.533 349.99C212.817 349.99 219.533 356.706 219.533 364.99Z" fill="#4C93E0"/>
</g>
<g filter="url(#filter29_d)">
<circle cx="151.66" cy="293.78" r="15" fill="#4C93E0"/>
</g>
<g filter="url(#filter30_d)">
<path d="M341.782 279.11C341.782 287.394 335.067 294.11 326.782 294.11C318.498 294.11 311.782 287.394 311.782 279.11C311.782 270.826 318.498 264.11 326.782 264.11C335.067 264.11 341.782 270.826 341.782 279.11Z" fill="#4C93E0"/>
</g>
<g filter="url(#filter31_d)">
<path d="M380.291 235.1C380.291 243.385 373.575 250.1 365.291 250.1C357.007 250.1 350.291 243.385 350.291 235.1C350.291 226.816 357.007 220.1 365.291 220.1C373.575 220.1 380.291 226.816 380.291 235.1Z" fill="#4C93E0"/>
</g>
<g filter="url(#filter32_d)">
<path d="M388.848 173.67C388.848 181.954 382.133 188.67 373.848 188.67C365.564 188.67 358.848 181.954 358.848 173.67C358.848 165.386 365.564 158.67 373.848 158.67C382.133 158.67 388.848 165.386 388.848 173.67Z" fill="#4C93E0"/>
</g>
<g filter="url(#filter33_d)">
<path d="M287.687 182.533C287.687 190.817 280.971 197.533 272.687 197.533C264.403 197.533 257.687 190.817 257.687 182.533C257.687 174.249 264.403 167.533 272.687 167.533C280.971 167.533 287.687 174.249 287.687 182.533Z" fill="#4C93E0"/>
</g>
<path fill-rule="evenodd" clip-rule="evenodd" d="M264.219 195.188C264.475 195.083 264.767 195.204 264.873 195.459L266.595 199.617C266.7 199.872 266.579 200.164 266.324 200.27C266.069 200.375 265.776 200.254 265.671 199.999L264.411 196.957L240.881 253.757L239.957 253.375L263.487 196.574L260.445 197.834C260.189 197.94 259.897 197.819 259.791 197.564C259.686 197.309 259.807 197.016 260.062 196.91L264.219 195.188Z" fill="#1959AA"/>
<path fill-rule="evenodd" clip-rule="evenodd" d="M360.196 182.33C360.464 182.399 360.624 182.672 360.555 182.939L359.427 187.296C359.358 187.563 359.085 187.724 358.818 187.655C358.55 187.585 358.39 187.313 358.459 187.045L359.284 183.857L241.437 253.233L240.93 252.371L358.777 182.996L355.589 182.17C355.322 182.101 355.161 181.828 355.23 181.561C355.3 181.294 355.573 181.133 355.84 181.202L360.196 182.33Z" fill="#1959AA"/>
<path fill-rule="evenodd" clip-rule="evenodd" d="M348.591 234.055C348.817 234.213 348.872 234.525 348.714 234.751L346.134 238.438C345.976 238.665 345.664 238.72 345.438 238.561C345.212 238.403 345.157 238.091 345.315 237.865L347.203 235.167L242.034 253.753L241.86 252.768L347.029 234.182L344.331 232.295C344.104 232.136 344.049 231.824 344.207 231.598C344.366 231.372 344.678 231.317 344.904 231.475L348.591 234.055Z" fill="#1959AA"/>
<path fill-rule="evenodd" clip-rule="evenodd" d="M311.616 275.343C311.742 275.589 311.645 275.89 311.399 276.016L307.393 278.065C307.147 278.191 306.846 278.094 306.72 277.848C306.594 277.602 306.691 277.301 306.937 277.175L309.869 275.675L241.03 253.43L241.337 252.479L310.176 274.724L308.677 271.792C308.551 271.546 308.648 271.245 308.894 271.119C309.14 270.994 309.441 271.091 309.567 271.337L311.616 275.343Z" fill="#1959AA"/>
<path fill-rule="evenodd" clip-rule="evenodd" d="M307.844 345.641C307.799 345.913 307.541 346.097 307.269 346.052L302.83 345.311C302.558 345.266 302.374 345.008 302.419 344.736C302.464 344.463 302.722 344.279 302.994 344.325L306.242 344.867L240.929 253.398L241.743 252.817L307.056 344.286L307.598 341.038C307.644 340.765 307.901 340.581 308.174 340.627C308.446 340.672 308.63 340.93 308.584 341.202L307.844 345.641Z" fill="#1959AA"/>
<path fill-rule="evenodd" clip-rule="evenodd" d="M253.219 303.04C253.071 303.273 252.762 303.341 252.529 303.193L248.732 300.777C248.499 300.629 248.43 300.32 248.579 300.087C248.727 299.854 249.036 299.785 249.269 299.934L252.047 301.702L241.307 253.369L242.283 253.152L253.023 301.485L254.791 298.706C254.939 298.474 255.248 298.405 255.481 298.553C255.714 298.701 255.783 299.01 255.635 299.243L253.219 303.04Z" fill="#1959AA"/>
<path fill-rule="evenodd" clip-rule="evenodd" d="M208.243 348.075L240.251 253.711L241.198 254.032L209.19 348.396L212.143 346.939C212.391 346.817 212.691 346.919 212.813 347.167C212.935 347.414 212.833 347.714 212.586 347.836L208.55 349.827C208.302 349.95 208.003 349.848 207.88 349.6L205.889 345.565C205.767 345.317 205.869 345.017 206.116 344.895C206.364 344.773 206.664 344.875 206.786 345.122L208.243 348.075Z" fill="#1959AA"/>
<path fill-rule="evenodd" clip-rule="evenodd" d="M163.586 281.549L241.004 251.877L241.362 252.81L163.944 282.482L166.952 283.823C167.204 283.936 167.317 284.231 167.205 284.483C167.092 284.736 166.797 284.849 166.545 284.737L162.435 282.904C162.182 282.792 162.069 282.496 162.181 282.244L164.014 278.134C164.126 277.882 164.422 277.768 164.674 277.881C164.926 277.993 165.04 278.289 164.927 278.541L163.586 281.549Z" fill="#1959AA"/>
<g filter="url(#filter34_d)">
<g filter="url(#filter35_di)">
<path d="M255.513 253.438C255.513 261.17 249.245 267.438 241.513 267.438C233.781 267.438 227.513 261.17 227.513 253.438C227.513 245.706 233.781 239.438 241.513 239.438C249.245 239.438 255.513 245.706 255.513 253.438Z" fill="#0468E7" stroke="#0468E7" stroke-width="2"/>
<mask id="path-70-inside-14" fill="white">
<path fill-rule="evenodd" clip-rule="evenodd" d="M241.513 266.438C248.693 266.438 254.513 260.617 254.513 253.438C254.513 246.258 248.693 240.438 241.513 240.438C234.334 240.438 228.513 246.258 228.513 253.438C228.513 260.617 234.334 266.438 241.513 266.438ZM241.513 268.438C249.798 268.438 256.513 261.722 256.513 253.438C256.513 245.153 249.798 238.438 241.513 238.438C233.229 238.438 226.513 245.153 226.513 253.438C226.513 261.722 233.229 268.438 241.513 268.438Z"/>
</mask>
<path fill-rule="evenodd" clip-rule="evenodd" d="M241.513 266.438C248.693 266.438 254.513 260.617 254.513 253.438C254.513 246.258 248.693 240.438 241.513 240.438C234.334 240.438 228.513 246.258 228.513 253.438C228.513 260.617 234.334 266.438 241.513 266.438ZM241.513 268.438C249.798 268.438 256.513 261.722 256.513 253.438C256.513 245.153 249.798 238.438 241.513 238.438C233.229 238.438 226.513 245.153 226.513 253.438C226.513 261.722 233.229 268.438 241.513 268.438Z" fill="#0468E7"/>
<path d="M252.513 253.438C252.513 259.513 247.589 264.438 241.513 264.438V268.438C249.798 268.438 256.513 261.722 256.513 253.438H252.513ZM241.513 242.438C247.589 242.438 252.513 247.363 252.513 253.438H256.513C256.513 245.153 249.798 238.438 241.513 238.438V242.438ZM230.513 253.438C230.513 247.363 235.438 242.438 241.513 242.438V238.438C233.229 238.438 226.513 245.153 226.513 253.438H230.513ZM241.513 264.438C235.438 264.438 230.513 259.513 230.513 253.438H226.513C226.513 261.722 233.229 268.438 241.513 268.438V264.438ZM254.513 253.438C254.513 260.617 248.693 266.438 241.513 266.438V270.438C250.902 270.438 258.513 262.826 258.513 253.438H254.513ZM241.513 240.438C248.693 240.438 254.513 246.258 254.513 253.438H258.513C258.513 244.049 250.902 236.438 241.513 236.438V240.438ZM228.513 253.438C228.513 246.258 234.334 240.438 241.513 240.438V236.438C232.125 236.438 224.513 244.049 224.513 253.438H228.513ZM241.513 266.438C234.334 266.438 228.513 260.617 228.513 253.438H224.513C224.513 262.826 232.125 270.438 241.513 270.438V266.438Z" fill="#0468E7" mask="url(#path-70-inside-14)"/>
</g>
</g>
<defs>
<filter id="filter0_d" x="75.3154" y="169.672" width="50" height="55" filterUnits="userSpaceOnUse" color-interpolation-filters="sRGB">
<feFlood flood-opacity="0" result="BackgroundImageFix"/>
<feColorMatrix in="SourceAlpha" type="matrix" values="0 0 0 0 0 0 0 0 0 0 0 0 0 0 0 0 0 0 127 0"/>
<feOffset dy="15"/>
<feGaussianBlur stdDeviation="5"/>
<feColorMatrix type="matrix" values="0 0 0 0 0.298039 0 0 0 0 0.576471 0 0 0 0 0.878431 0 0 0 0.15 0"/>
<feBlend mode="normal" in2="BackgroundImageFix" result="effect1_dropShadow"/>
<feBlend mode="normal" in="SourceGraphic" in2="effect1_dropShadow" result="shape"/>
</filter>
<filter id="filter1_d" x="75.3154" y="169.672" width="50" height="55" filterUnits="userSpaceOnUse" color-interpolation-filters="sRGB">
<feFlood flood-opacity="0" result="BackgroundImageFix"/>
<feColorMatrix in="SourceAlpha" type="matrix" values="0 0 0 0 0 0 0 0 0 0 0 0 0 0 0 0 0 0 127 0"/>
<feOffset dy="15"/>
<feGaussianBlur stdDeviation="5"/>
<feColorMatrix type="matrix" values="0 0 0 0 0.298039 0 0 0 0 0.576471 0 0 0 0 0.878431 0 0 0 0.15 0"/>
<feBlend mode="normal" in2="BackgroundImageFix" result="effect1_dropShadow"/>
<feBlend mode="normal" in="SourceGraphic" in2="effect1_dropShadow" result="shape"/>
</filter>
<filter id="filter2_d" x="31" y="240.577" width="50" height="55" filterUnits="userSpaceOnUse" color-interpolation-filters="sRGB">
<feFlood flood-opacity="0" result="BackgroundImageFix"/>
<feColorMatrix in="SourceAlpha" type="matrix" values="0 0 0 0 0 0 0 0 0 0 0 0 0 0 0 0 0 0 127 0"/>
<feOffset dy="15"/>
<feGaussianBlur stdDeviation="5"/>
<feColorMatrix type="matrix" values="0 0 0 0 0.298039 0 0 0 0 0.576471 0 0 0 0 0.878431 0 0 0 0.15 0"/>
<feBlend mode="normal" in2="BackgroundImageFix" result="effect1_dropShadow"/>
<feBlend mode="normal" in="SourceGraphic" in2="effect1_dropShadow" result="shape"/>
</filter>
<filter id="filter3_d" x="31" y="240.577" width="50" height="55" filterUnits="userSpaceOnUse" color-interpolation-filters="sRGB">
<feFlood flood-opacity="0" result="BackgroundImageFix"/>
<feColorMatrix in="SourceAlpha" type="matrix" values="0 0 0 0 0 0 0 0 0 0 0 0 0 0 0 0 0 0 127 0"/>
<feOffset dy="15"/>
<feGaussianBlur stdDeviation="5"/>
<feColorMatrix type="matrix" values="0 0 0 0 0.298039 0 0 0 0 0.576471 0 0 0 0 0.878431 0 0 0 0.15 0"/>
<feBlend mode="normal" in2="BackgroundImageFix" result="effect1_dropShadow"/>
<feBlend mode="normal" in="SourceGraphic" in2="effect1_dropShadow" result="shape"/>
</filter>
<filter id="filter4_d" x="75.3154" y="289.477" width="50" height="55" filterUnits="userSpaceOnUse" color-interpolation-filters="sRGB">
<feFlood flood-opacity="0" result="BackgroundImageFix"/>
<feColorMatrix in="SourceAlpha" type="matrix" values="0 0 0 0 0 0 0 0 0 0 0 0 0 0 0 0 0 0 127 0"/>
<feOffset dy="15"/>
<feGaussianBlur stdDeviation="5"/>
<feColorMatrix type="matrix" values="0 0 0 0 0.298039 0 0 0 0 0.576471 0 0 0 0 0.878431 0 0 0 0.15 0"/>
<feBlend mode="normal" in2="BackgroundImageFix" result="effect1_dropShadow"/>
<feBlend mode="normal" in="SourceGraphic" in2="effect1_dropShadow" result="shape"/>
</filter>
<filter id="filter5_d" x="75.3154" y="289.477" width="50" height="55" filterUnits="userSpaceOnUse" color-interpolation-filters="sRGB">
<feFlood flood-opacity="0" result="BackgroundImageFix"/>
<feColorMatrix in="SourceAlpha" type="matrix" values="0 0 0 0 0 0 0 0 0 0 0 0 0 0 0 0 0 0 127 0"/>
<feOffset dy="15"/>
<feGaussianBlur stdDeviation="5"/>
<feColorMatrix type="matrix" values="0 0 0 0 0.298039 0 0 0 0 0.576471 0 0 0 0 0.878431 0 0 0 0.15 0"/>
<feBlend mode="normal" in2="BackgroundImageFix" result="effect1_dropShadow"/>
<feBlend mode="normal" in="SourceGraphic" in2="effect1_dropShadow" result="shape"/>
</filter>
<filter id="filter6_d" x="122.076" y="220.1" width="50" height="55" filterUnits="userSpaceOnUse" color-interpolation-filters="sRGB">
<feFlood flood-opacity="0" result="BackgroundImageFix"/>
<feColorMatrix in="SourceAlpha" type="matrix" values="0 0 0 0 0 0 0 0 0 0 0 0 0 0 0 0 0 0 127 0"/>
<feOffset dy="15"/>
<feGaussianBlur stdDeviation="5"/>
<feColorMatrix type="matrix" values="0 0 0 0 0.298039 0 0 0 0 0.576471 0 0 0 0 0.878431 0 0 0 0.15 0"/>
<feBlend mode="normal" in2="BackgroundImageFix" result="effect1_dropShadow"/>
<feBlend mode="normal" in="SourceGraphic" in2="effect1_dropShadow" result="shape"/>
</filter>
<filter id="filter7_d" x="122.076" y="220.1" width="50" height="55" filterUnits="userSpaceOnUse" color-interpolation-filters="sRGB">
<feFlood flood-opacity="0" result="BackgroundImageFix"/>
<feColorMatrix in="SourceAlpha" type="matrix" values="0 0 0 0 0 0 0 0 0 0 0 0 0 0 0 0 0 0 127 0"/>
<feOffset dy="15"/>
<feGaussianBlur stdDeviation="5"/>
<feColorMatrix type="matrix" values="0 0 0 0 0.298039 0 0 0 0 0.576471 0 0 0 0 0.878431 0 0 0 0.15 0"/>
<feBlend mode="normal" in2="BackgroundImageFix" result="effect1_dropShadow"/>
<feBlend mode="normal" in="SourceGraphic" in2="effect1_dropShadow" result="shape"/>
</filter>
<filter id="filter8_d" x="114.13" y="342.655" width="50" height="55" filterUnits="userSpaceOnUse" color-interpolation-filters="sRGB">
<feFlood flood-opacity="0" result="BackgroundImageFix"/>
<feColorMatrix in="SourceAlpha" type="matrix" values="0 0 0 0 0 0 0 0 0 0 0 0 0 0 0 0 0 0 127 0"/>
<feOffset dy="15"/>
<feGaussianBlur stdDeviation="5"/>
<feColorMatrix type="matrix" values="0 0 0 0 0.298039 0 0 0 0 0.576471 0 0 0 0 0.878431 0 0 0 0.15 0"/>
<feBlend mode="normal" in2="BackgroundImageFix" result="effect1_dropShadow"/>
<feBlend mode="normal" in="SourceGraphic" in2="effect1_dropShadow" result="shape"/>
</filter>
<filter id="filter9_d" x="114.13" y="342.655" width="50" height="55" filterUnits="userSpaceOnUse" color-interpolation-filters="sRGB">
<feFlood flood-opacity="0" result="BackgroundImageFix"/>
<feColorMatrix in="SourceAlpha" type="matrix" values="0 0 0 0 0 0 0 0 0 0 0 0 0 0 0 0 0 0 127 0"/>
<feOffset dy="15"/>
<feGaussianBlur stdDeviation="5"/>
<feColorMatrix type="matrix" values="0 0 0 0 0.298039 0 0 0 0 0.576471 0 0 0 0 0.878431 0 0 0 0.15 0"/>
<feBlend mode="normal" in2="BackgroundImageFix" result="effect1_dropShadow"/>
<feBlend mode="normal" in="SourceGraphic" in2="effect1_dropShadow" result="shape"/>
</filter>
<filter id="filter10_d" x="372.076" y="327.985" width="50" height="55" filterUnits="userSpaceOnUse" color-interpolation-filters="sRGB">
<feFlood flood-opacity="0" result="BackgroundImageFix"/>
<feColorMatrix in="SourceAlpha" type="matrix" values="0 0 0 0 0 0 0 0 0 0 0 0 0 0 0 0 0 0 127 0"/>
<feOffset dy="15"/>
<feGaussianBlur stdDeviation="5"/>
<feColorMatrix type="matrix" values="0 0 0 0 0.298039 0 0 0 0 0.576471 0 0 0 0 0.878431 0 0 0 0.15 0"/>
<feBlend mode="normal" in2="BackgroundImageFix" result="effect1_dropShadow"/>
<feBlend mode="normal" in="SourceGraphic" in2="effect1_dropShadow" result="shape"/>
</filter>
<filter id="filter11_d" x="372.076" y="327.985" width="50" height="55" filterUnits="userSpaceOnUse" color-interpolation-filters="sRGB">
<feFlood flood-opacity="0" result="BackgroundImageFix"/>
<feColorMatrix in="SourceAlpha" type="matrix" values="0 0 0 0 0 0 0 0 0 0 0 0 0 0 0 0 0 0 127 0"/>
<feOffset dy="15"/>
<feGaussianBlur stdDeviation="5"/>
<feColorMatrix type="matrix" values="0 0 0 0 0.298039 0 0 0 0 0.576471 0 0 0 0 0.878431 0 0 0 0.15 0"/>
<feBlend mode="normal" in2="BackgroundImageFix" result="effect1_dropShadow"/>
<feBlend mode="normal" in="SourceGraphic" in2="effect1_dropShadow" result="shape"/>
</filter>
<filter id="filter12_d" x="483.628" y="340.21" width="50.675" height="55.675" filterUnits="userSpaceOnUse" color-interpolation-filters="sRGB">
<feFlood flood-opacity="0" result="BackgroundImageFix"/>
<feColorMatrix in="SourceAlpha" type="matrix" values="0 0 0 0 0 0 0 0 0 0 0 0 0 0 0 0 0 0 127 0"/>
<feOffset dy="15"/>
<feGaussianBlur stdDeviation="5"/>
<feColorMatrix type="matrix" values="0 0 0 0 0.298039 0 0 0 0 0.576471 0 0 0 0 0.878431 0 0 0 0.15 0"/>
<feBlend mode="normal" in2="BackgroundImageFix" result="effect1_dropShadow"/>
<feBlend mode="normal" in="SourceGraphic" in2="effect1_dropShadow" result="shape"/>
</filter>
<filter id="filter13_d" x="483.628" y="340.21" width="50.675" height="55.675" filterUnits="userSpaceOnUse" color-interpolation-filters="sRGB">
<feFlood flood-opacity="0" result="BackgroundImageFix"/>
<feColorMatrix in="SourceAlpha" type="matrix" values="0 0 0 0 0 0 0 0 0 0 0 0 0 0 0 0 0 0 127 0"/>
<feOffset dy="15"/>
<feGaussianBlur stdDeviation="5"/>
<feColorMatrix type="matrix" values="0 0 0 0 0.298039 0 0 0 0 0.576471 0 0 0 0 0.878431 0 0 0 0.15 0"/>
<feBlend mode="normal" in2="BackgroundImageFix" result="effect1_dropShadow"/>
<feBlend mode="normal" in="SourceGraphic" in2="effect1_dropShadow" result="shape"/>
</filter>
<filter id="filter14_d" x="414.252" y="278.78" width="50" height="55" filterUnits="userSpaceOnUse" color-interpolation-filters="sRGB">
<feFlood flood-opacity="0" result="BackgroundImageFix"/>
<feColorMatrix in="SourceAlpha" type="matrix" values="0 0 0 0 0 0 0 0 0 0 0 0 0 0 0 0 0 0 127 0"/>
<feOffset dy="15"/>
<feGaussianBlur stdDeviation="5"/>
<feColorMatrix type="matrix" values="0 0 0 0 0.298039 0 0 0 0 0.576471 0 0 0 0 0.878431 0 0 0 0.15 0"/>
<feBlend mode="normal" in2="BackgroundImageFix" result="effect1_dropShadow"/>
<feBlend mode="normal" in="SourceGraphic" in2="effect1_dropShadow" result="shape"/>
</filter>
<filter id="filter15_d" x="414.252" y="278.78" width="50" height="55" filterUnits="userSpaceOnUse" color-interpolation-filters="sRGB">
<feFlood flood-opacity="0" result="BackgroundImageFix"/>
<feColorMatrix in="SourceAlpha" type="matrix" values="0 0 0 0 0 0 0 0 0 0 0 0 0 0 0 0 0 0 127 0"/>
<feOffset dy="15"/>
<feGaussianBlur stdDeviation="5"/>
<feColorMatrix type="matrix" values="0 0 0 0 0.298039 0 0 0 0 0.576471 0 0 0 0 0.878431 0 0 0 0.15 0"/>
<feBlend mode="normal" in2="BackgroundImageFix" result="effect1_dropShadow"/>
<feBlend mode="normal" in="SourceGraphic" in2="effect1_dropShadow" result="shape"/>
</filter>
<filter id="filter16_d" x="493.103" y="230.797" width="50" height="55" filterUnits="userSpaceOnUse" color-interpolation-filters="sRGB">
<feFlood flood-opacity="0" result="BackgroundImageFix"/>
<feColorMatrix in="SourceAlpha" type="matrix" values="0 0 0 0 0 0 0 0 0 0 0 0 0 0 0 0 0 0 127 0"/>
<feOffset dy="15"/>
<feGaussianBlur stdDeviation="5"/>
<feColorMatrix type="matrix" values="0 0 0 0 0.298039 0 0 0 0 0.576471 0 0 0 0 0.878431 0 0 0 0.15 0"/>
<feBlend mode="normal" in2="BackgroundImageFix" result="effect1_dropShadow"/>
<feBlend mode="normal" in="SourceGraphic" in2="effect1_dropShadow" result="shape"/>
</filter>
<filter id="filter17_d" x="493.103" y="230.797" width="50" height="55" filterUnits="userSpaceOnUse" color-interpolation-filters="sRGB">
<feFlood flood-opacity="0" result="BackgroundImageFix"/>
<feColorMatrix in="SourceAlpha" type="matrix" values="0 0 0 0 0 0 0 0 0 0 0 0 0 0 0 0 0 0 127 0"/>
<feOffset dy="15"/>
<feGaussianBlur stdDeviation="5"/>
<feColorMatrix type="matrix" values="0 0 0 0 0.298039 0 0 0 0 0.576471 0 0 0 0 0.878431 0 0 0 0.15 0"/>
<feBlend mode="normal" in2="BackgroundImageFix" result="effect1_dropShadow"/>
<feBlend mode="normal" in="SourceGraphic" in2="effect1_dropShadow" result="shape"/>
</filter>
<filter id="filter18_d" x="501.66" y="186.787" width="50" height="55" filterUnits="userSpaceOnUse" color-interpolation-filters="sRGB">
<feFlood flood-opacity="0" result="BackgroundImageFix"/>
<feColorMatrix in="SourceAlpha" type="matrix" values="0 0 0 0 0 0 0 0 0 0 0 0 0 0 0 0 0 0 127 0"/>
<feOffset dy="15"/>
<feGaussianBlur stdDeviation="5"/>
<feColorMatrix type="matrix" values="0 0 0 0 0.298039 0 0 0 0 0.576471 0 0 0 0 0.878431 0 0 0 0.15 0"/>
<feBlend mode="normal" in2="BackgroundImageFix" result="effect1_dropShadow"/>
<feBlend mode="normal" in="SourceGraphic" in2="effect1_dropShadow" result="shape"/>
</filter>
<filter id="filter19_d" x="501.66" y="186.787" width="50" height="55" filterUnits="userSpaceOnUse" color-interpolation-filters="sRGB">
<feFlood flood-opacity="0" result="BackgroundImageFix"/>
<feColorMatrix in="SourceAlpha" type="matrix" values="0 0 0 0 0 0 0 0 0 0 0 0 0 0 0 0 0 0 127 0"/>
<feOffset dy="15"/>
<feGaussianBlur stdDeviation="5"/>
<feColorMatrix type="matrix" values="0 0 0 0 0.298039 0 0 0 0 0.576471 0 0 0 0 0.878431 0 0 0 0.15 0"/>
<feBlend mode="normal" in2="BackgroundImageFix" result="effect1_dropShadow"/>
<feBlend mode="normal" in="SourceGraphic" in2="effect1_dropShadow" result="shape"/>
</filter>
<filter id="filter20_d" x="453.983" y="144" width="50" height="55" filterUnits="userSpaceOnUse" color-interpolation-filters="sRGB">
<feFlood flood-opacity="0" result="BackgroundImageFix"/>
<feColorMatrix in="SourceAlpha" type="matrix" values="0 0 0 0 0 0 0 0 0 0 0 0 0 0 0 0 0 0 127 0"/>
<feOffset dy="15"/>
<feGaussianBlur stdDeviation="5"/>
<feColorMatrix type="matrix" values="0 0 0 0 0.298039 0 0 0 0 0.576471 0 0 0 0 0.878431 0 0 0 0.15 0"/>
<feBlend mode="normal" in2="BackgroundImageFix" result="effect1_dropShadow"/>
<feBlend mode="normal" in="SourceGraphic" in2="effect1_dropShadow" result="shape"/>
</filter>
<filter id="filter21_d" x="453.983" y="144" width="50" height="55" filterUnits="userSpaceOnUse" color-interpolation-filters="sRGB">
<feFlood flood-opacity="0" result="BackgroundImageFix"/>
<feColorMatrix in="SourceAlpha" type="matrix" values="0 0 0 0 0 0 0 0 0 0 0 0 0 0 0 0 0 0 127 0"/>
<feOffset dy="15"/>
<feGaussianBlur stdDeviation="5"/>
<feColorMatrix type="matrix" values="0 0 0 0 0.298039 0 0 0 0 0.576471 0 0 0 0 0.878431 0 0 0 0.15 0"/>
<feBlend mode="normal" in2="BackgroundImageFix" result="effect1_dropShadow"/>
<feBlend mode="normal" in="SourceGraphic" in2="effect1_dropShadow" result="shape"/>
</filter>
<filter id="filter22_d" x="406" y="205.43" width="50" height="55" filterUnits="userSpaceOnUse" color-interpolation-filters="sRGB">
<feFlood flood-opacity="0" result="BackgroundImageFix"/>
<feColorMatrix in="SourceAlpha" type="matrix" values="0 0 0 0 0 0 0 0 0 0 0 0 0 0 0 0 0 0 127 0"/>
<feOffset dy="15"/>
<feGaussianBlur stdDeviation="5"/>
<feColorMatrix type="matrix" values="0 0 0 0 0.298039 0 0 0 0 0.576471 0 0 0 0 0.878431 0 0 0 0.15 0"/>
<feBlend mode="normal" in2="BackgroundImageFix" result="effect1_dropShadow"/>
<feBlend mode="normal" in="SourceGraphic" in2="effect1_dropShadow" result="shape"/>
</filter>
<filter id="filter23_d" x="406" y="205.43" width="50" height="55" filterUnits="userSpaceOnUse" color-interpolation-filters="sRGB">
<feFlood flood-opacity="0" result="BackgroundImageFix"/>
<feColorMatrix in="SourceAlpha" type="matrix" values="0 0 0 0 0 0 0 0 0 0 0 0 0 0 0 0 0 0 127 0"/>
<feOffset dy="15"/>
<feGaussianBlur stdDeviation="5"/>
<feColorMatrix type="matrix" values="0 0 0 0 0.298039 0 0 0 0 0.576471 0 0 0 0 0.878431 0 0 0 0.15 0"/>
<feBlend mode="normal" in2="BackgroundImageFix" result="effect1_dropShadow"/>
<feBlend mode="normal" in="SourceGraphic" in2="effect1_dropShadow" result="shape"/>
</filter>
<filter id="filter24_d" x="189.007" y="167.533" width="50" height="55" filterUnits="userSpaceOnUse" color-interpolation-filters="sRGB">
<feFlood flood-opacity="0" result="BackgroundImageFix"/>
<feColorMatrix in="SourceAlpha" type="matrix" values="0 0 0 0 0 0 0 0 0 0 0 0 0 0 0 0 0 0 127 0"/>
<feOffset dy="15"/>
<feGaussianBlur stdDeviation="5"/>
<feColorMatrix type="matrix" values="0 0 0 0 0.298039 0 0 0 0 0.576471 0 0 0 0 0.878431 0 0 0 0.15 0"/>
<feBlend mode="normal" in2="BackgroundImageFix" result="effect1_dropShadow"/>
<feBlend mode="normal" in="SourceGraphic" in2="effect1_dropShadow" result="shape"/>
</filter>
<filter id="filter25_d" x="189.007" y="167.533" width="50" height="55" filterUnits="userSpaceOnUse" color-interpolation-filters="sRGB">
<feFlood flood-opacity="0" result="BackgroundImageFix"/>
<feColorMatrix in="SourceAlpha" type="matrix" values="0 0 0 0 0 0 0 0 0 0 0 0 0 0 0 0 0 0 127 0"/>
<feOffset dy="15"/>
<feGaussianBlur stdDeviation="5"/>
<feColorMatrix type="matrix" values="0 0 0 0 0.298039 0 0 0 0 0.576471 0 0 0 0 0.878431 0 0 0 0.15 0"/>
<feBlend mode="normal" in2="BackgroundImageFix" result="effect1_dropShadow"/>
<feBlend mode="normal" in="SourceGraphic" in2="effect1_dropShadow" result="shape"/>
</filter>
<filter id="filter26_d" x="229.35" y="304.147" width="50" height="55" filterUnits="userSpaceOnUse" color-interpolation-filters="sRGB">
<feFlood flood-opacity="0" result="BackgroundImageFix"/>
<feColorMatrix in="SourceAlpha" type="matrix" values="0 0 0 0 0 0 0 0 0 0 0 0 0 0 0 0 0 0 127 0"/>
<feOffset dy="15"/>
<feGaussianBlur stdDeviation="5"/>
<feColorMatrix type="matrix" values="0 0 0 0 0.298039 0 0 0 0 0.576471 0 0 0 0 0.878431 0 0 0 0.15 0"/>
<feBlend mode="normal" in2="BackgroundImageFix" result="effect1_dropShadow"/>
<feBlend mode="normal" in="SourceGraphic" in2="effect1_dropShadow" result="shape"/>
</filter>
<filter id="filter27_d" x="292.614" y="342.655" width="50" height="55" filterUnits="userSpaceOnUse" color-interpolation-filters="sRGB">
<feFlood flood-opacity="0" result="BackgroundImageFix"/>
<feColorMatrix in="SourceAlpha" type="matrix" values="0 0 0 0 0 0 0 0 0 0 0 0 0 0 0 0 0 0 127 0"/>
<feOffset dy="15"/>
<feGaussianBlur stdDeviation="5"/>
<feColorMatrix type="matrix" values="0 0 0 0 0.298039 0 0 0 0 0.576471 0 0 0 0 0.878431 0 0 0 0.15 0"/>
<feBlend mode="normal" in2="BackgroundImageFix" result="effect1_dropShadow"/>
<feBlend mode="normal" in="SourceGraphic" in2="effect1_dropShadow" result="shape"/>
</filter>
<filter id="filter28_d" x="179.533" y="349.99" width="50" height="55" filterUnits="userSpaceOnUse" color-interpolation-filters="sRGB">
<feFlood flood-opacity="0" result="BackgroundImageFix"/>
<feColorMatrix in="SourceAlpha" type="matrix" values="0 0 0 0 0 0 0 0 0 0 0 0 0 0 0 0 0 0 127 0"/>
<feOffset dy="15"/>
<feGaussianBlur stdDeviation="5"/>
<feColorMatrix type="matrix" values="0 0 0 0 0.298039 0 0 0 0 0.576471 0 0 0 0 0.878431 0 0 0 0.15 0"/>
<feBlend mode="normal" in2="BackgroundImageFix" result="effect1_dropShadow"/>
<feBlend mode="normal" in="SourceGraphic" in2="effect1_dropShadow" result="shape"/>
</filter>
<filter id="filter29_d" x="126.66" y="278.78" width="50" height="55" filterUnits="userSpaceOnUse" color-interpolation-filters="sRGB">
<feFlood flood-opacity="0" result="BackgroundImageFix"/>
<feColorMatrix in="SourceAlpha" type="matrix" values="0 0 0 0 0 0 0 0 0 0 0 0 0 0 0 0 0 0 127 0"/>
<feOffset dy="15"/>
<feGaussianBlur stdDeviation="5"/>
<feColorMatrix type="matrix" values="0 0 0 0 0.298039 0 0 0 0 0.576471 0 0 0 0 0.878431 0 0 0 0.15 0"/>
<feBlend mode="normal" in2="BackgroundImageFix" result="effect1_dropShadow"/>
<feBlend mode="normal" in="SourceGraphic" in2="effect1_dropShadow" result="shape"/>
</filter>
<filter id="filter30_d" x="301.782" y="264.11" width="50" height="55" filterUnits="userSpaceOnUse" color-interpolation-filters="sRGB">
<feFlood flood-opacity="0" result="BackgroundImageFix"/>
<feColorMatrix in="SourceAlpha" type="matrix" values="0 0 0 0 0 0 0 0 0 0 0 0 0 0 0 0 0 0 127 0"/>
<feOffset dy="15"/>
<feGaussianBlur stdDeviation="5"/>
<feColorMatrix type="matrix" values="0 0 0 0 0.298039 0 0 0 0 0.576471 0 0 0 0 0.878431 0 0 0 0.15 0"/>
<feBlend mode="normal" in2="BackgroundImageFix" result="effect1_dropShadow"/>
<feBlend mode="normal" in="SourceGraphic" in2="effect1_dropShadow" result="shape"/>
</filter>
<filter id="filter31_d" x="340.291" y="220.1" width="50" height="55" filterUnits="userSpaceOnUse" color-interpolation-filters="sRGB">
<feFlood flood-opacity="0" result="BackgroundImageFix"/>
<feColorMatrix in="SourceAlpha" type="matrix" values="0 0 0 0 0 0 0 0 0 0 0 0 0 0 0 0 0 0 127 0"/>
<feOffset dy="15"/>
<feGaussianBlur stdDeviation="5"/>
<feColorMatrix type="matrix" values="0 0 0 0 0.298039 0 0 0 0 0.576471 0 0 0 0 0.878431 0 0 0 0.15 0"/>
<feBlend mode="normal" in2="BackgroundImageFix" result="effect1_dropShadow"/>
<feBlend mode="normal" in="SourceGraphic" in2="effect1_dropShadow" result="shape"/>
</filter>
<filter id="filter32_d" x="348.848" y="158.67" width="50" height="55" filterUnits="userSpaceOnUse" color-interpolation-filters="sRGB">
<feFlood flood-opacity="0" result="BackgroundImageFix"/>
<feColorMatrix in="SourceAlpha" type="matrix" values="0 0 0 0 0 0 0 0 0 0 0 0 0 0 0 0 0 0 127 0"/>
<feOffset dy="15"/>
<feGaussianBlur stdDeviation="5"/>
<feColorMatrix type="matrix" values="0 0 0 0 0.298039 0 0 0 0 0.576471 0 0 0 0 0.878431 0 0 0 0.15 0"/>
<feBlend mode="normal" in2="BackgroundImageFix" result="effect1_dropShadow"/>
<feBlend mode="normal" in="SourceGraphic" in2="effect1_dropShadow" result="shape"/>
</filter>
<filter id="filter33_d" x="247.687" y="167.533" width="50" height="55" filterUnits="userSpaceOnUse" color-interpolation-filters="sRGB">
<feFlood flood-opacity="0" result="BackgroundImageFix"/>
<feColorMatrix in="SourceAlpha" type="matrix" values="0 0 0 0 0 0 0 0 0 0 0 0 0 0 0 0 0 0 127 0"/>
<feOffset dy="15"/>
<feGaussianBlur stdDeviation="5"/>
<feColorMatrix type="matrix" values="0 0 0 0 0.298039 0 0 0 0 0.576471 0 0 0 0 0.878431 0 0 0 0.15 0"/>
<feBlend mode="normal" in2="BackgroundImageFix" result="effect1_dropShadow"/>
<feBlend mode="normal" in="SourceGraphic" in2="effect1_dropShadow" result="shape"/>
</filter>
<filter id="filter34_d" x="216.513" y="238.438" width="50" height="55" filterUnits="userSpaceOnUse" color-interpolation-filters="sRGB">
<feFlood flood-opacity="0" result="BackgroundImageFix"/>
<feColorMatrix in="SourceAlpha" type="matrix" values="0 0 0 0 0 0 0 0 0 0 0 0 0 0 0 0 0 0 127 0"/>
<feOffset dy="15"/>
<feGaussianBlur stdDeviation="5"/>
<feColorMatrix type="matrix" values="0 0 0 0 0.298039 0 0 0 0 0.576471 0 0 0 0 0.878431 0 0 0 0.15 0"/>
<feBlend mode="normal" in2="BackgroundImageFix" result="effect1_dropShadow"/>
<feBlend mode="normal" in="SourceGraphic" in2="effect1_dropShadow" result="shape"/>
</filter>
<filter id="filter35_di" x="0.513443" y="0.437653" width="530" height="530" filterUnits="userSpaceOnUse" color-interpolation-filters="sRGB">
<feFlood flood-opacity="0" result="BackgroundImageFix"/>
<feColorMatrix in="SourceAlpha" type="matrix" values="0 0 0 0 0 0 0 0 0 0 0 0 0 0 0 0 0 0 127 0"/>
<feOffset dx="24" dy="12"/>
<feGaussianBlur stdDeviation="125"/>
<feColorMatrix type="matrix" values="0 0 0 0 0.00392157 0 0 0 0 0.627451 0 0 0 0 0.976471 0 0 0 0.36 0"/>
<feBlend mode="normal" in2="BackgroundImageFix" result="effect1_dropShadow"/>
<feBlend mode="normal" in="SourceGraphic" in2="effect1_dropShadow" result="shape"/>
<feColorMatrix in="SourceAlpha" type="matrix" values="0 0 0 0 0 0 0 0 0 0 0 0 0 0 0 0 0 0 127 0" result="hardAlpha"/>
<feOffset/>
<feGaussianBlur stdDeviation="18"/>
<feComposite in2="hardAlpha" operator="arithmetic" k2="-1" k3="1"/>
<feColorMatrix type="matrix" values="0 0 0 0 0.065445 0 0 0 0 0.304047 0 0 0 0 0.624454 0 0 0 1 0"/>
<feBlend mode="normal" in2="shape" result="effect2_innerShadow"/>
</filter>
</defs>
</svg>
