<svg width="521" height="283" viewBox="0 0 521 283" fill="none" xmlns="http://www.w3.org/2000/svg">
<g filter="url(#filter0_d)">
<path d="M84.2953 62.4189C84.2953 70.7032 77.5796 77.4189 69.2953 77.4189C61.011 77.4189 54.2953 70.7032 54.2953 62.4189C54.2953 54.1347 61.011 47.4189 69.2953 47.4189C77.5796 47.4189 84.2953 54.1347 84.2953 62.4189Z" fill="#4C93E0"/>
</g>
<g filter="url(#filter1_d)">
<path d="M40 132.889C40 141.173 33.2843 147.889 25 147.889C16.7157 147.889 10 141.173 10 132.889C10 124.604 16.7157 117.889 25 117.889C33.2843 117.889 40 124.604 40 132.889Z" fill="#4C93E0"/>
</g>
<g filter="url(#filter2_d)">
<path d="M84.2953 181.882C84.2953 190.166 77.5796 196.882 69.2953 196.882C61.011 196.882 54.2953 190.166 54.2953 181.882C54.2953 173.598 61.011 166.882 69.2953 166.882C77.5796 166.882 84.2953 173.598 84.2953 181.882Z" fill="#4C93E0"/>
</g>
<g filter="url(#filter3_d)">
<path d="M131.275 112.755C131.275 121.039 124.559 127.755 116.275 127.755C107.991 127.755 101.275 121.039 101.275 112.755C101.275 104.47 107.991 97.7545 116.275 97.7545C124.559 97.7545 131.275 104.47 131.275 112.755Z" fill="#4C93E0"/>
</g>
<g filter="url(#filter4_d)">
<path d="M123.221 234.902C123.221 243.186 116.506 249.902 108.221 249.902C99.9372 249.902 93.2214 243.186 93.2214 234.902C93.2214 226.618 99.9372 219.902 108.221 219.902C116.506 219.902 123.221 226.618 123.221 234.902Z" fill="#4C93E0"/>
</g>
<g filter="url(#filter5_d)">
<path d="M380.94 220.137C380.94 228.421 374.224 235.137 365.94 235.137C357.655 235.137 350.94 228.421 350.94 220.137C350.94 211.853 357.655 205.137 365.94 205.137C374.224 205.137 380.94 211.853 380.94 220.137Z" fill="#4C93E0"/>
</g>
<g filter="url(#filter6_d)">
<path d="M492.349 232.889C492.349 241.173 485.633 247.889 477.349 247.889C469.065 247.889 462.349 241.173 462.349 232.889C462.349 224.604 469.065 217.889 477.349 217.889C485.633 217.889 492.349 224.604 492.349 232.889Z" fill="#4C93E0"/>
</g>
<g filter="url(#filter7_d)">
<path d="M423.222 171.144C423.222 179.428 416.506 186.144 408.222 186.144C399.937 186.144 393.222 179.428 393.222 171.144C393.222 162.86 399.937 156.144 408.222 156.144C416.506 156.144 423.222 162.86 423.222 171.144Z" fill="#4C93E0"/>
</g>
<g filter="url(#filter8_d)">
<path d="M502.416 123.493C502.416 131.777 495.7 138.493 487.416 138.493C479.132 138.493 472.416 131.777 472.416 123.493C472.416 115.208 479.132 108.493 487.416 108.493C495.7 108.493 502.416 115.208 502.416 123.493Z" fill="#4C93E0"/>
</g>
<g filter="url(#filter9_d)">
<path d="M510.47 79.1975C510.47 87.4818 503.754 94.1975 495.47 94.1975C487.186 94.1975 480.47 87.4818 480.47 79.1975C480.47 70.9132 487.186 64.1975 495.47 64.1975C503.754 64.1975 510.47 70.9132 510.47 79.1975Z" fill="#4C93E0"/>
</g>
<g filter="url(#filter10_d)">
<path d="M462.819 36.2444C462.819 44.5287 456.103 51.2444 447.819 51.2444C439.535 51.2444 432.819 44.5287 432.819 36.2444C432.819 27.9602 439.535 21.2444 447.819 21.2444C456.103 21.2444 462.819 27.9602 462.819 36.2444Z" fill="#4C93E0"/>
</g>
<g filter="url(#filter11_d)">
<path d="M415.168 97.9894C415.168 106.274 408.452 112.989 400.168 112.989C391.884 112.989 385.168 106.274 385.168 97.9894C385.168 89.7051 391.884 82.9894 400.168 82.9894C408.452 82.9894 415.168 89.7051 415.168 97.9894Z" fill="#4C93E0"/>
</g>
<g filter="url(#filter12_d)">
<path d="M197.718 59.7344C197.718 68.0186 191.002 74.7344 182.718 74.7344C174.434 74.7344 167.718 68.0186 167.718 59.7344C167.718 51.4501 174.434 44.7344 182.718 44.7344C191.002 44.7344 197.718 51.4501 197.718 59.7344Z" fill="#4C93E0"/>
</g>
<path fill-rule="evenodd" clip-rule="evenodd" d="M233.219 72.6733C233.475 72.5676 233.767 72.6888 233.873 72.9439L235.595 77.1014C235.7 77.3565 235.579 77.649 235.324 77.7547C235.069 77.8604 234.776 77.7392 234.671 77.4841L233.411 74.4418L209.881 131.242L208.957 130.86L232.487 74.0591L229.445 75.3191C229.189 75.4248 228.897 75.3036 228.791 75.0485C228.686 74.7934 228.807 74.5009 229.062 74.3952L233.219 72.6733Z" fill="#1959AA"/>
<path fill-rule="evenodd" clip-rule="evenodd" d="M83.1809 68.2503C83.0937 67.9883 83.2354 67.7052 83.4974 67.618L87.7672 66.1971C88.0292 66.1099 88.3123 66.2516 88.3995 66.5136C88.4867 66.7756 88.3449 67.0587 88.0829 67.1459L84.9585 68.1857L209.643 130.604L209.196 131.498L84.5109 69.0799L85.5507 72.2043C85.6378 72.4664 85.4961 72.7494 85.2341 72.8366C84.9721 72.9238 84.689 72.7821 84.6018 72.5201L83.1809 68.2503Z" fill="#1959AA"/>
<path fill-rule="evenodd" clip-rule="evenodd" d="M329.196 59.815C329.464 59.8842 329.624 60.157 329.555 60.4243L328.427 64.7807C328.358 65.048 328.085 65.2086 327.818 65.1394C327.55 65.0702 327.39 64.7974 327.459 64.5301L328.284 61.3423L210.437 130.718L209.93 129.856L327.777 60.4805L324.589 59.6552C324.322 59.586 324.161 59.3132 324.231 59.0458C324.3 58.7785 324.573 58.6179 324.84 58.6871L329.196 59.815Z" fill="#1959AA"/>
<path fill-rule="evenodd" clip-rule="evenodd" d="M430.477 40.0192L343.622 51.6259L343.489 50.6347L430.345 39.028L427.728 37.0285C427.509 36.8609 427.467 36.5471 427.635 36.3277C427.802 36.1083 428.116 36.0663 428.336 36.234L431.911 38.9665C432.13 39.1342 432.172 39.448 432.005 39.6674L429.272 43.2428C429.105 43.4622 428.791 43.5041 428.571 43.3364C428.352 43.1688 428.31 42.855 428.478 42.6356L430.477 40.0192Z" fill="#1959AA"/>
<path fill-rule="evenodd" clip-rule="evenodd" d="M477.7 77.0691L343.462 51.6216L343.648 50.6391L477.886 76.0867L476.032 73.3653C475.877 73.1371 475.936 72.826 476.164 72.6706C476.392 72.5151 476.703 72.574 476.859 72.8023L479.392 76.5212C479.548 76.7494 479.489 77.0605 479.261 77.2159L475.542 79.7496C475.313 79.9051 475.002 79.8461 474.847 79.6179C474.691 79.3897 474.75 79.0786 474.979 78.9232L477.7 77.0691Z" fill="#1959AA"/>
<path fill-rule="evenodd" clip-rule="evenodd" d="M384.366 86.1869L343.233 51.5126L343.878 50.7481L385.01 85.4224L384.731 82.1414C384.707 81.8662 384.911 81.6242 385.187 81.6007C385.462 81.5773 385.704 81.7813 385.727 82.0565L386.109 86.5402C386.133 86.8154 385.929 87.0574 385.654 87.0809L381.17 87.4629C380.895 87.4863 380.653 87.2823 380.629 87.0071C380.606 86.732 380.81 86.4899 381.085 86.4665L384.366 86.1869Z" fill="#1959AA"/>
<path fill-rule="evenodd" clip-rule="evenodd" d="M381.192 102.173L333.772 113.532L333.539 112.56L380.959 101.2L378.152 99.4785C377.917 99.3341 377.843 99.0262 377.987 98.7909C378.132 98.5555 378.44 98.4817 378.675 98.6261L382.511 100.979C382.746 101.124 382.82 101.432 382.675 101.667L380.322 105.503C380.178 105.738 379.87 105.812 379.635 105.667C379.399 105.523 379.326 105.215 379.47 104.98L381.192 102.173Z" fill="#1959AA"/>
<path fill-rule="evenodd" clip-rule="evenodd" d="M391.855 163.199L333.331 113.427L333.979 112.665L392.503 162.437L392.238 159.155C392.216 158.879 392.421 158.638 392.696 158.616C392.971 158.594 393.213 158.799 393.235 159.074L393.597 163.559C393.62 163.835 393.414 164.076 393.139 164.098L388.654 164.461C388.379 164.483 388.137 164.278 388.115 164.003C388.093 163.727 388.298 163.486 388.573 163.464L391.855 163.199Z" fill="#1959AA"/>
<path fill-rule="evenodd" clip-rule="evenodd" d="M359.728 202.926L333.176 113.188L334.135 112.904L360.687 202.643L362.259 199.749C362.391 199.507 362.695 199.417 362.937 199.549C363.18 199.681 363.27 199.984 363.138 200.227L360.99 204.181C360.858 204.423 360.554 204.513 360.312 204.381L356.357 202.233C356.115 202.101 356.025 201.798 356.157 201.555C356.289 201.312 356.592 201.222 356.835 201.354L359.728 202.926Z" fill="#1959AA"/>
<path fill-rule="evenodd" clip-rule="evenodd" d="M388.775 170.334L294.615 156.301L294.762 155.312L388.923 169.345L386.963 166.699C386.798 166.477 386.845 166.164 387.067 166C387.289 165.835 387.602 165.882 387.766 166.104L390.445 169.72C390.609 169.942 390.562 170.255 390.34 170.42L386.724 173.098C386.502 173.262 386.189 173.216 386.025 172.994C385.86 172.772 385.907 172.459 386.129 172.294L388.775 170.334Z" fill="#1959AA"/>
<path fill-rule="evenodd" clip-rule="evenodd" d="M468.546 128.222L294.768 156.3L294.608 155.313L468.386 127.235L465.716 125.308C465.492 125.146 465.442 124.834 465.603 124.61C465.765 124.386 466.078 124.335 466.302 124.497L469.95 127.131C470.174 127.292 470.225 127.605 470.063 127.829L467.429 131.478C467.268 131.702 466.955 131.752 466.731 131.59C466.507 131.429 466.457 131.116 466.619 130.892L468.546 128.222Z" fill="#1959AA"/>
<path fill-rule="evenodd" clip-rule="evenodd" d="M470.188 114.308L343.334 51.5785L343.777 50.6821L470.631 113.411L469.576 110.292C469.487 110.03 469.628 109.746 469.889 109.658C470.151 109.57 470.435 109.71 470.523 109.971L471.965 114.234C472.053 114.496 471.913 114.78 471.651 114.868L467.389 116.31C467.127 116.398 466.843 116.258 466.755 115.996C466.666 115.735 466.807 115.451 467.068 115.363L470.188 114.308Z" fill="#1959AA"/>
<path fill-rule="evenodd" clip-rule="evenodd" d="M317.591 111.54C317.817 111.698 317.872 112.01 317.714 112.236L315.134 115.923C314.976 116.149 314.664 116.205 314.438 116.046C314.212 115.888 314.157 115.576 314.315 115.35L316.203 112.652L211.034 131.238L210.86 130.253L316.029 111.667L313.331 109.779C313.104 109.621 313.049 109.309 313.208 109.083C313.366 108.857 313.678 108.802 313.904 108.96L317.591 111.54Z" fill="#1959AA"/>
<path fill-rule="evenodd" clip-rule="evenodd" d="M280.616 152.828C280.742 153.074 280.645 153.375 280.399 153.501L276.393 155.55C276.147 155.676 275.846 155.579 275.72 155.333C275.594 155.087 275.691 154.786 275.937 154.66L278.869 153.16L210.03 130.915L210.337 129.964L279.176 152.209L277.677 149.277C277.551 149.031 277.648 148.73 277.894 148.604C278.14 148.479 278.441 148.576 278.567 148.822L280.616 152.828Z" fill="#1959AA"/>
<path fill-rule="evenodd" clip-rule="evenodd" d="M276.844 223.126C276.798 223.398 276.541 223.582 276.268 223.537L271.83 222.796C271.557 222.751 271.373 222.493 271.419 222.221C271.464 221.948 271.722 221.764 271.994 221.81L275.242 222.352L209.929 130.883L210.743 130.302L276.056 221.77L276.598 218.522C276.643 218.25 276.901 218.066 277.173 218.112C277.446 218.157 277.63 218.415 277.584 218.687L276.844 223.126Z" fill="#1959AA"/>
<path fill-rule="evenodd" clip-rule="evenodd" d="M222.219 180.525C222.071 180.758 221.762 180.826 221.529 180.678L217.732 178.262C217.499 178.114 217.431 177.805 217.579 177.572C217.727 177.339 218.036 177.27 218.269 177.418L221.047 179.186L210.307 130.854L211.283 130.637L222.023 178.969L223.791 176.191C223.94 175.958 224.249 175.89 224.482 176.038C224.715 176.186 224.783 176.495 224.635 176.728L222.219 180.525Z" fill="#1959AA"/>
<path fill-rule="evenodd" clip-rule="evenodd" d="M177.243 225.56L209.251 131.196L210.198 131.517L178.19 225.881L181.143 224.424C181.391 224.302 181.691 224.404 181.813 224.651C181.935 224.899 181.833 225.199 181.586 225.321L177.55 227.312C177.302 227.434 177.003 227.333 176.88 227.085L174.889 223.05C174.767 222.802 174.869 222.502 175.116 222.38C175.364 222.258 175.664 222.36 175.786 222.607L177.243 225.56Z" fill="#1959AA"/>
<path fill-rule="evenodd" clip-rule="evenodd" d="M85.3204 177.803L120.211 169.275L120.449 170.246L85.5579 178.774L88.3726 180.483C88.6086 180.627 88.6838 180.934 88.5405 181.17C88.3971 181.406 88.0896 181.481 87.8536 181.338L84.0071 179.003C83.771 178.859 83.6959 178.552 83.8392 178.316L86.1746 174.469C86.3179 174.233 86.6255 174.158 86.8615 174.301C87.0975 174.445 87.1727 174.752 87.0294 174.988L85.3204 177.803Z" fill="#1959AA"/>
<path fill-rule="evenodd" clip-rule="evenodd" d="M117.278 130.249L118.996 170.761L117.997 170.803L116.279 130.292L114.051 132.717C113.865 132.92 113.548 132.933 113.345 132.746C113.142 132.56 113.128 132.243 113.315 132.04L116.359 128.726C116.546 128.523 116.862 128.509 117.066 128.696L120.38 131.74C120.583 131.927 120.596 132.244 120.41 132.447C120.223 132.65 119.907 132.664 119.703 132.477L117.278 130.249Z" fill="#1959AA"/>
<path fill-rule="evenodd" clip-rule="evenodd" d="M293.864 173.554L288.631 236.532L287.635 236.449L292.867 173.471L290.354 175.599C290.143 175.777 289.828 175.751 289.65 175.541C289.471 175.33 289.497 175.014 289.708 174.836L293.143 171.928C293.353 171.75 293.669 171.776 293.847 171.987L296.755 175.421C296.933 175.632 296.907 175.948 296.696 176.126C296.486 176.304 296.17 176.278 295.992 176.067L293.864 173.554Z" fill="#1959AA"/>
<path fill-rule="evenodd" clip-rule="evenodd" d="M347.596 220.938L288.263 236.974L288.002 236.008L347.335 219.972L344.48 218.332C344.24 218.195 344.158 217.889 344.295 217.649C344.433 217.41 344.739 217.327 344.978 217.465L348.88 219.707C349.119 219.844 349.202 220.15 349.064 220.389L346.823 224.291C346.685 224.531 346.38 224.613 346.14 224.476C345.901 224.338 345.818 224.032 345.956 223.793L347.596 220.938Z" fill="#1959AA"/>
<path fill-rule="evenodd" clip-rule="evenodd" d="M235.323 208.037L288.366 236.049L287.899 236.933L234.856 208.921L235.827 212.067C235.909 212.331 235.761 212.611 235.497 212.693C235.233 212.774 234.953 212.626 234.872 212.362L233.544 208.063C233.463 207.799 233.611 207.519 233.874 207.437L238.174 206.11C238.438 206.028 238.718 206.176 238.799 206.44C238.881 206.704 238.733 206.984 238.469 207.065L235.323 208.037Z" fill="#1959AA"/>
<path fill-rule="evenodd" clip-rule="evenodd" d="M204.913 195.54L118.361 171.263L118.631 170.3L205.183 194.577L203.57 191.706C203.435 191.466 203.52 191.161 203.761 191.025C204.002 190.89 204.307 190.976 204.442 191.216L206.646 195.14C206.781 195.38 206.696 195.685 206.455 195.82L202.532 198.025C202.291 198.16 201.987 198.075 201.851 197.834C201.716 197.593 201.802 197.288 202.042 197.153L204.913 195.54Z" fill="#1959AA"/>
<path fill-rule="evenodd" clip-rule="evenodd" d="M174.858 75.4991L118.928 171.034L118.065 170.529L173.995 74.9939L170.81 75.8269C170.542 75.8967 170.269 75.7368 170.199 75.4696C170.129 75.2025 170.289 74.9293 170.557 74.8594L174.91 73.721C175.177 73.6512 175.451 73.8111 175.52 74.0783L176.659 78.4319C176.729 78.6991 176.569 78.9723 176.302 79.0421C176.034 79.112 175.761 78.952 175.691 78.6849L174.858 75.4991Z" fill="#1959AA"/>
<path fill-rule="evenodd" clip-rule="evenodd" d="M72.1239 77.95L119.857 170.093L118.969 170.553L71.236 78.41L70.2395 81.5485C70.1559 81.8117 69.8748 81.9573 69.6116 81.8737C69.3484 81.7902 69.2028 81.5091 69.2864 81.2459L70.6481 76.9568C70.7317 76.6936 71.0128 76.548 71.276 76.6316L75.565 77.9933C75.8282 78.0769 75.9738 78.358 75.8903 78.6212C75.8067 78.8844 75.5256 79.03 75.2624 78.9464L72.1239 77.95Z" fill="#1959AA"/>
<path fill-rule="evenodd" clip-rule="evenodd" d="M40.1019 138.581C39.9942 138.326 40.1131 138.033 40.3674 137.925L44.5112 136.171C44.7654 136.063 45.0589 136.182 45.1665 136.436C45.2742 136.69 45.1554 136.984 44.9011 137.091L41.8688 138.375L119.601 169.86L119.226 170.787L41.4934 139.302L42.7774 142.335C42.8851 142.589 42.7663 142.882 42.512 142.99C42.2577 143.098 41.9643 142.979 41.8566 142.724L40.1019 138.581Z" fill="#1959AA"/>
<path fill-rule="evenodd" clip-rule="evenodd" d="M110.681 219.635C110.454 219.792 110.142 219.734 109.986 219.507L107.433 215.801C107.277 215.573 107.334 215.262 107.562 215.105C107.789 214.949 108.1 215.006 108.257 215.234L110.125 217.946L118.922 170.233L119.905 170.414L111.108 218.127L113.82 216.259C114.047 216.103 114.359 216.16 114.515 216.387C114.672 216.615 114.615 216.926 114.387 217.083L110.681 219.635Z" fill="#1959AA"/>
<path fill-rule="evenodd" clip-rule="evenodd" d="M163.153 229.999C163.109 230.271 162.853 230.457 162.58 230.414L158.136 229.707C157.864 229.664 157.678 229.408 157.721 229.135C157.764 228.862 158.021 228.676 158.293 228.72L161.545 229.237L119.009 170.617L119.818 170.03L162.355 228.649L162.872 225.397C162.915 225.125 163.171 224.939 163.444 224.982C163.717 225.025 163.903 225.282 163.859 225.554L163.153 229.999Z" fill="#1959AA"/>
<path fill-rule="evenodd" clip-rule="evenodd" d="M84.492 190.82L172.384 241.712L171.883 242.578L83.9909 191.685L84.8391 194.867C84.9102 195.134 84.7516 195.408 84.4848 195.479C84.218 195.55 83.944 195.391 83.8729 195.124L82.7137 190.776C82.6425 190.509 82.8012 190.235 83.068 190.164L87.4161 189.005C87.683 188.934 87.9569 189.093 88.0281 189.359C88.0992 189.626 87.9406 189.9 87.6737 189.971L84.492 190.82Z" fill="#1959AA"/>
<path fill-rule="evenodd" clip-rule="evenodd" d="M123.457 237.571C123.283 237.357 123.315 237.042 123.529 236.867L127.015 234.022C127.229 233.848 127.544 233.88 127.719 234.094C127.893 234.307 127.861 234.622 127.647 234.797L125.096 236.879L172.184 241.648L172.083 242.643L124.995 237.874L127.077 240.425C127.252 240.639 127.22 240.954 127.006 241.129C126.792 241.303 126.477 241.271 126.303 241.057L123.457 237.571Z" fill="#1959AA"/>
<path fill-rule="evenodd" clip-rule="evenodd" d="M132.425 158.76L209.819 129.347L210.18 130.28L132.786 159.692L135.803 161.036C136.056 161.149 136.17 161.444 136.058 161.695C135.946 161.947 135.65 162.059 135.397 161.946L131.273 160.11C131.02 159.998 130.906 159.703 131.018 159.451L132.845 155.354C132.957 155.102 133.253 154.99 133.506 155.103C133.759 155.215 133.874 155.51 133.761 155.762L132.425 158.76Z" fill="#1959AA"/>
<g filter="url(#filter13_d)">
<path d="M310.47 156.379C310.47 164.663 303.754 171.379 295.47 171.379C287.185 171.379 280.47 164.663 280.47 156.379C280.47 148.094 287.185 141.379 295.47 141.379C303.754 141.379 310.47 148.094 310.47 156.379Z" fill="#1959AA"/>
</g>
<path fill-rule="evenodd" clip-rule="evenodd" d="M459.569 236.17L462.683 239.419C462.874 239.619 462.867 239.935 462.667 240.126L459.418 243.24C459.219 243.431 458.903 243.424 458.711 243.225C458.52 243.025 458.527 242.709 458.727 242.518L461.104 240.239L287.19 236.532L287.211 235.533L461.125 239.24L458.847 236.862C458.656 236.663 458.663 236.346 458.862 236.155C459.062 235.964 459.378 235.971 459.569 236.17Z" fill="#1959AA"/>
<path fill-rule="evenodd" clip-rule="evenodd" d="M192.432 243.064L189.069 240.074C188.862 239.89 188.844 239.574 189.027 239.368L192.018 236.005C192.201 235.799 192.517 235.78 192.724 235.964C192.93 236.147 192.948 236.463 192.765 236.669L190.577 239.13L283.198 233.7L283.257 234.698L190.635 240.128L193.096 242.317C193.302 242.5 193.321 242.816 193.137 243.023C192.954 243.229 192.638 243.247 192.432 243.064Z" fill="#1959AA"/>
<g filter="url(#filter14_d)">
<path d="M238.658 196.647C238.658 204.931 231.942 211.647 223.658 211.647C215.373 211.647 208.658 204.931 208.658 196.647C208.658 188.363 215.373 181.647 223.658 181.647C231.942 181.647 238.658 188.363 238.658 196.647Z" fill="#1959AA"/>
</g>
<g filter="url(#filter15_d)">
<path d="M301.745 234.902C301.745 243.186 295.029 249.902 286.745 249.902C278.461 249.902 271.745 243.186 271.745 234.902C271.745 226.618 278.461 219.902 286.745 219.902C295.029 219.902 301.745 226.618 301.745 234.902Z" fill="#1959AA"/>
</g>
<g filter="url(#filter16_d)">
<path d="M188.322 242.285C188.322 250.569 181.606 257.285 173.322 257.285C165.038 257.285 158.322 250.569 158.322 242.285C158.322 234 165.038 227.285 173.322 227.285C181.606 227.285 188.322 234 188.322 242.285Z" fill="#1959AA"/>
</g>
<g filter="url(#filter17_d)">
<path d="M135.973 171.144C135.973 179.428 129.257 186.144 120.973 186.144C112.689 186.144 105.973 179.428 105.973 171.144C105.973 162.86 112.689 156.144 120.973 156.144C129.257 156.144 135.973 162.86 135.973 171.144Z" fill="#1959AA"/>
</g>
<g filter="url(#filter18_d)">
<path d="M349.396 112.755C349.396 121.039 342.68 127.755 334.396 127.755C326.112 127.755 319.396 121.039 319.396 112.755C319.396 104.47 326.112 97.7545 334.396 97.7545C342.68 97.7545 349.396 104.47 349.396 112.755Z" fill="#1959AA"/>
</g>
<g filter="url(#filter19_d)">
<g filter="url(#filter20_d)">
<path d="M358.121 51.0096C358.121 59.2938 351.405 66.0096 343.121 66.0096C334.837 66.0096 328.121 59.2938 328.121 51.0096C328.121 42.7253 334.837 36.0096 343.121 36.0096C351.405 36.0096 358.121 42.7253 358.121 51.0096Z" fill="#1959AA"/>
</g>
</g>
<g filter="url(#filter21_d)">
<path d="M256.779 59.7344C256.779 68.0186 250.063 74.7344 241.779 74.7344C233.494 74.7344 226.779 68.0186 226.779 59.7344C226.779 51.4501 233.494 44.7344 241.779 44.7344C250.063 44.7344 256.779 51.4501 256.779 59.7344Z" fill="#4C93E0"/>
</g>
<g filter="url(#filter22_d)">
<path d="M225.235 130.875C225.235 139.16 218.519 145.875 210.235 145.875C201.951 145.875 195.235 139.16 195.235 130.875C195.235 122.591 201.951 115.875 210.235 115.875C218.519 115.875 225.235 122.591 225.235 130.875Z" fill="#1959AA"/>
</g>
<defs>
<filter id="filter0_d" x="44.2953" y="47.4189" width="50" height="55" filterUnits="userSpaceOnUse" color-interpolation-filters="sRGB">
<feFlood flood-opacity="0" result="BackgroundImageFix"/>
<feColorMatrix in="SourceAlpha" type="matrix" values="0 0 0 0 0 0 0 0 0 0 0 0 0 0 0 0 0 0 127 0"/>
<feOffset dy="15"/>
<feGaussianBlur stdDeviation="5"/>
<feColorMatrix type="matrix" values="0 0 0 0 0.298039 0 0 0 0 0.576471 0 0 0 0 0.878431 0 0 0 0.15 0"/>
<feBlend mode="normal" in2="BackgroundImageFix" result="effect1_dropShadow"/>
<feBlend mode="normal" in="SourceGraphic" in2="effect1_dropShadow" result="shape"/>
</filter>
<filter id="filter1_d" x="0" y="117.889" width="50" height="55" filterUnits="userSpaceOnUse" color-interpolation-filters="sRGB">
<feFlood flood-opacity="0" result="BackgroundImageFix"/>
<feColorMatrix in="SourceAlpha" type="matrix" values="0 0 0 0 0 0 0 0 0 0 0 0 0 0 0 0 0 0 127 0"/>
<feOffset dy="15"/>
<feGaussianBlur stdDeviation="5"/>
<feColorMatrix type="matrix" values="0 0 0 0 0.298039 0 0 0 0 0.576471 0 0 0 0 0.878431 0 0 0 0.15 0"/>
<feBlend mode="normal" in2="BackgroundImageFix" result="effect1_dropShadow"/>
<feBlend mode="normal" in="SourceGraphic" in2="effect1_dropShadow" result="shape"/>
</filter>
<filter id="filter2_d" x="44.2953" y="166.882" width="50" height="55" filterUnits="userSpaceOnUse" color-interpolation-filters="sRGB">
<feFlood flood-opacity="0" result="BackgroundImageFix"/>
<feColorMatrix in="SourceAlpha" type="matrix" values="0 0 0 0 0 0 0 0 0 0 0 0 0 0 0 0 0 0 127 0"/>
<feOffset dy="15"/>
<feGaussianBlur stdDeviation="5"/>
<feColorMatrix type="matrix" values="0 0 0 0 0.298039 0 0 0 0 0.576471 0 0 0 0 0.878431 0 0 0 0.15 0"/>
<feBlend mode="normal" in2="BackgroundImageFix" result="effect1_dropShadow"/>
<feBlend mode="normal" in="SourceGraphic" in2="effect1_dropShadow" result="shape"/>
</filter>
<filter id="filter3_d" x="91.2752" y="97.7545" width="50" height="55" filterUnits="userSpaceOnUse" color-interpolation-filters="sRGB">
<feFlood flood-opacity="0" result="BackgroundImageFix"/>
<feColorMatrix in="SourceAlpha" type="matrix" values="0 0 0 0 0 0 0 0 0 0 0 0 0 0 0 0 0 0 127 0"/>
<feOffset dy="15"/>
<feGaussianBlur stdDeviation="5"/>
<feColorMatrix type="matrix" values="0 0 0 0 0.298039 0 0 0 0 0.576471 0 0 0 0 0.878431 0 0 0 0.15 0"/>
<feBlend mode="normal" in2="BackgroundImageFix" result="effect1_dropShadow"/>
<feBlend mode="normal" in="SourceGraphic" in2="effect1_dropShadow" result="shape"/>
</filter>
<filter id="filter4_d" x="83.2214" y="219.902" width="50" height="55" filterUnits="userSpaceOnUse" color-interpolation-filters="sRGB">
<feFlood flood-opacity="0" result="BackgroundImageFix"/>
<feColorMatrix in="SourceAlpha" type="matrix" values="0 0 0 0 0 0 0 0 0 0 0 0 0 0 0 0 0 0 127 0"/>
<feOffset dy="15"/>
<feGaussianBlur stdDeviation="5"/>
<feColorMatrix type="matrix" values="0 0 0 0 0.298039 0 0 0 0 0.576471 0 0 0 0 0.878431 0 0 0 0.15 0"/>
<feBlend mode="normal" in2="BackgroundImageFix" result="effect1_dropShadow"/>
<feBlend mode="normal" in="SourceGraphic" in2="effect1_dropShadow" result="shape"/>
</filter>
<filter id="filter5_d" x="340.94" y="205.137" width="50" height="55" filterUnits="userSpaceOnUse" color-interpolation-filters="sRGB">
<feFlood flood-opacity="0" result="BackgroundImageFix"/>
<feColorMatrix in="SourceAlpha" type="matrix" values="0 0 0 0 0 0 0 0 0 0 0 0 0 0 0 0 0 0 127 0"/>
<feOffset dy="15"/>
<feGaussianBlur stdDeviation="5"/>
<feColorMatrix type="matrix" values="0 0 0 0 0.298039 0 0 0 0 0.576471 0 0 0 0 0.878431 0 0 0 0.15 0"/>
<feBlend mode="normal" in2="BackgroundImageFix" result="effect1_dropShadow"/>
<feBlend mode="normal" in="SourceGraphic" in2="effect1_dropShadow" result="shape"/>
</filter>
<filter id="filter6_d" x="452.349" y="217.889" width="50" height="55" filterUnits="userSpaceOnUse" color-interpolation-filters="sRGB">
<feFlood flood-opacity="0" result="BackgroundImageFix"/>
<feColorMatrix in="SourceAlpha" type="matrix" values="0 0 0 0 0 0 0 0 0 0 0 0 0 0 0 0 0 0 127 0"/>
<feOffset dy="15"/>
<feGaussianBlur stdDeviation="5"/>
<feColorMatrix type="matrix" values="0 0 0 0 0.298039 0 0 0 0 0.576471 0 0 0 0 0.878431 0 0 0 0.15 0"/>
<feBlend mode="normal" in2="BackgroundImageFix" result="effect1_dropShadow"/>
<feBlend mode="normal" in="SourceGraphic" in2="effect1_dropShadow" result="shape"/>
</filter>
<filter id="filter7_d" x="383.222" y="156.144" width="50" height="55" filterUnits="userSpaceOnUse" color-interpolation-filters="sRGB">
<feFlood flood-opacity="0" result="BackgroundImageFix"/>
<feColorMatrix in="SourceAlpha" type="matrix" values="0 0 0 0 0 0 0 0 0 0 0 0 0 0 0 0 0 0 127 0"/>
<feOffset dy="15"/>
<feGaussianBlur stdDeviation="5"/>
<feColorMatrix type="matrix" values="0 0 0 0 0.298039 0 0 0 0 0.576471 0 0 0 0 0.878431 0 0 0 0.15 0"/>
<feBlend mode="normal" in2="BackgroundImageFix" result="effect1_dropShadow"/>
<feBlend mode="normal" in="SourceGraphic" in2="effect1_dropShadow" result="shape"/>
</filter>
<filter id="filter8_d" x="462.416" y="108.493" width="50" height="55" filterUnits="userSpaceOnUse" color-interpolation-filters="sRGB">
<feFlood flood-opacity="0" result="BackgroundImageFix"/>
<feColorMatrix in="SourceAlpha" type="matrix" values="0 0 0 0 0 0 0 0 0 0 0 0 0 0 0 0 0 0 127 0"/>
<feOffset dy="15"/>
<feGaussianBlur stdDeviation="5"/>
<feColorMatrix type="matrix" values="0 0 0 0 0.298039 0 0 0 0 0.576471 0 0 0 0 0.878431 0 0 0 0.15 0"/>
<feBlend mode="normal" in2="BackgroundImageFix" result="effect1_dropShadow"/>
<feBlend mode="normal" in="SourceGraphic" in2="effect1_dropShadow" result="shape"/>
</filter>
<filter id="filter9_d" x="470.47" y="64.1975" width="50" height="55" filterUnits="userSpaceOnUse" color-interpolation-filters="sRGB">
<feFlood flood-opacity="0" result="BackgroundImageFix"/>
<feColorMatrix in="SourceAlpha" type="matrix" values="0 0 0 0 0 0 0 0 0 0 0 0 0 0 0 0 0 0 127 0"/>
<feOffset dy="15"/>
<feGaussianBlur stdDeviation="5"/>
<feColorMatrix type="matrix" values="0 0 0 0 0.298039 0 0 0 0 0.576471 0 0 0 0 0.878431 0 0 0 0.15 0"/>
<feBlend mode="normal" in2="BackgroundImageFix" result="effect1_dropShadow"/>
<feBlend mode="normal" in="SourceGraphic" in2="effect1_dropShadow" result="shape"/>
</filter>
<filter id="filter10_d" x="422.819" y="21.2444" width="50" height="55" filterUnits="userSpaceOnUse" color-interpolation-filters="sRGB">
<feFlood flood-opacity="0" result="BackgroundImageFix"/>
<feColorMatrix in="SourceAlpha" type="matrix" values="0 0 0 0 0 0 0 0 0 0 0 0 0 0 0 0 0 0 127 0"/>
<feOffset dy="15"/>
<feGaussianBlur stdDeviation="5"/>
<feColorMatrix type="matrix" values="0 0 0 0 0.298039 0 0 0 0 0.576471 0 0 0 0 0.878431 0 0 0 0.15 0"/>
<feBlend mode="normal" in2="BackgroundImageFix" result="effect1_dropShadow"/>
<feBlend mode="normal" in="SourceGraphic" in2="effect1_dropShadow" result="shape"/>
</filter>
<filter id="filter11_d" x="375.168" y="82.9894" width="50" height="55" filterUnits="userSpaceOnUse" color-interpolation-filters="sRGB">
<feFlood flood-opacity="0" result="BackgroundImageFix"/>
<feColorMatrix in="SourceAlpha" type="matrix" values="0 0 0 0 0 0 0 0 0 0 0 0 0 0 0 0 0 0 127 0"/>
<feOffset dy="15"/>
<feGaussianBlur stdDeviation="5"/>
<feColorMatrix type="matrix" values="0 0 0 0 0.298039 0 0 0 0 0.576471 0 0 0 0 0.878431 0 0 0 0.15 0"/>
<feBlend mode="normal" in2="BackgroundImageFix" result="effect1_dropShadow"/>
<feBlend mode="normal" in="SourceGraphic" in2="effect1_dropShadow" result="shape"/>
</filter>
<filter id="filter12_d" x="157.718" y="44.7344" width="50" height="55" filterUnits="userSpaceOnUse" color-interpolation-filters="sRGB">
<feFlood flood-opacity="0" result="BackgroundImageFix"/>
<feColorMatrix in="SourceAlpha" type="matrix" values="0 0 0 0 0 0 0 0 0 0 0 0 0 0 0 0 0 0 127 0"/>
<feOffset dy="15"/>
<feGaussianBlur stdDeviation="5"/>
<feColorMatrix type="matrix" values="0 0 0 0 0.298039 0 0 0 0 0.576471 0 0 0 0 0.878431 0 0 0 0.15 0"/>
<feBlend mode="normal" in2="BackgroundImageFix" result="effect1_dropShadow"/>
<feBlend mode="normal" in="SourceGraphic" in2="effect1_dropShadow" result="shape"/>
</filter>
<filter id="filter13_d" x="270.47" y="141.379" width="50" height="55" filterUnits="userSpaceOnUse" color-interpolation-filters="sRGB">
<feFlood flood-opacity="0" result="BackgroundImageFix"/>
<feColorMatrix in="SourceAlpha" type="matrix" values="0 0 0 0 0 0 0 0 0 0 0 0 0 0 0 0 0 0 127 0"/>
<feOffset dy="15"/>
<feGaussianBlur stdDeviation="5"/>
<feColorMatrix type="matrix" values="0 0 0 0 0.298039 0 0 0 0 0.576471 0 0 0 0 0.878431 0 0 0 0.15 0"/>
<feBlend mode="normal" in2="BackgroundImageFix" result="effect1_dropShadow"/>
<feBlend mode="normal" in="SourceGraphic" in2="effect1_dropShadow" result="shape"/>
</filter>
<filter id="filter14_d" x="198.658" y="181.647" width="50" height="55" filterUnits="userSpaceOnUse" color-interpolation-filters="sRGB">
<feFlood flood-opacity="0" result="BackgroundImageFix"/>
<feColorMatrix in="SourceAlpha" type="matrix" values="0 0 0 0 0 0 0 0 0 0 0 0 0 0 0 0 0 0 127 0"/>
<feOffset dy="15"/>
<feGaussianBlur stdDeviation="5"/>
<feColorMatrix type="matrix" values="0 0 0 0 0.298039 0 0 0 0 0.576471 0 0 0 0 0.878431 0 0 0 0.15 0"/>
<feBlend mode="normal" in2="BackgroundImageFix" result="effect1_dropShadow"/>
<feBlend mode="normal" in="SourceGraphic" in2="effect1_dropShadow" result="shape"/>
</filter>
<filter id="filter15_d" x="261.745" y="219.902" width="50" height="55" filterUnits="userSpaceOnUse" color-interpolation-filters="sRGB">
<feFlood flood-opacity="0" result="BackgroundImageFix"/>
<feColorMatrix in="SourceAlpha" type="matrix" values="0 0 0 0 0 0 0 0 0 0 0 0 0 0 0 0 0 0 127 0"/>
<feOffset dy="15"/>
<feGaussianBlur stdDeviation="5"/>
<feColorMatrix type="matrix" values="0 0 0 0 0.298039 0 0 0 0 0.576471 0 0 0 0 0.878431 0 0 0 0.15 0"/>
<feBlend mode="normal" in2="BackgroundImageFix" result="effect1_dropShadow"/>
<feBlend mode="normal" in="SourceGraphic" in2="effect1_dropShadow" result="shape"/>
</filter>
<filter id="filter16_d" x="148.322" y="227.285" width="50" height="55" filterUnits="userSpaceOnUse" color-interpolation-filters="sRGB">
<feFlood flood-opacity="0" result="BackgroundImageFix"/>
<feColorMatrix in="SourceAlpha" type="matrix" values="0 0 0 0 0 0 0 0 0 0 0 0 0 0 0 0 0 0 127 0"/>
<feOffset dy="15"/>
<feGaussianBlur stdDeviation="5"/>
<feColorMatrix type="matrix" values="0 0 0 0 0.298039 0 0 0 0 0.576471 0 0 0 0 0.878431 0 0 0 0.15 0"/>
<feBlend mode="normal" in2="BackgroundImageFix" result="effect1_dropShadow"/>
<feBlend mode="normal" in="SourceGraphic" in2="effect1_dropShadow" result="shape"/>
</filter>
<filter id="filter17_d" x="95.9731" y="156.144" width="50" height="55" filterUnits="userSpaceOnUse" color-interpolation-filters="sRGB">
<feFlood flood-opacity="0" result="BackgroundImageFix"/>
<feColorMatrix in="SourceAlpha" type="matrix" values="0 0 0 0 0 0 0 0 0 0 0 0 0 0 0 0 0 0 127 0"/>
<feOffset dy="15"/>
<feGaussianBlur stdDeviation="5"/>
<feColorMatrix type="matrix" values="0 0 0 0 0.298039 0 0 0 0 0.576471 0 0 0 0 0.878431 0 0 0 0.15 0"/>
<feBlend mode="normal" in2="BackgroundImageFix" result="effect1_dropShadow"/>
<feBlend mode="normal" in="SourceGraphic" in2="effect1_dropShadow" result="shape"/>
</filter>
<filter id="filter18_d" x="309.396" y="97.7545" width="50" height="55" filterUnits="userSpaceOnUse" color-interpolation-filters="sRGB">
<feFlood flood-opacity="0" result="BackgroundImageFix"/>
<feColorMatrix in="SourceAlpha" type="matrix" values="0 0 0 0 0 0 0 0 0 0 0 0 0 0 0 0 0 0 127 0"/>
<feOffset dy="15"/>
<feGaussianBlur stdDeviation="5"/>
<feColorMatrix type="matrix" values="0 0 0 0 0.298039 0 0 0 0 0.576471 0 0 0 0 0.878431 0 0 0 0.15 0"/>
<feBlend mode="normal" in2="BackgroundImageFix" result="effect1_dropShadow"/>
<feBlend mode="normal" in="SourceGraphic" in2="effect1_dropShadow" result="shape"/>
</filter>
<filter id="filter19_d" x="318.121" y="36.0096" width="50" height="55" filterUnits="userSpaceOnUse" color-interpolation-filters="sRGB">
<feFlood flood-opacity="0" result="BackgroundImageFix"/>
<feColorMatrix in="SourceAlpha" type="matrix" values="0 0 0 0 0 0 0 0 0 0 0 0 0 0 0 0 0 0 127 0"/>
<feOffset dy="15"/>
<feGaussianBlur stdDeviation="5"/>
<feColorMatrix type="matrix" values="0 0 0 0 0.298039 0 0 0 0 0.576471 0 0 0 0 0.878431 0 0 0 0.15 0"/>
<feBlend mode="normal" in2="BackgroundImageFix" result="effect1_dropShadow"/>
<feBlend mode="normal" in="SourceGraphic" in2="effect1_dropShadow" result="shape"/>
</filter>
<filter id="filter20_d" x="318.121" y="36.0096" width="50" height="55" filterUnits="userSpaceOnUse" color-interpolation-filters="sRGB">
<feFlood flood-opacity="0" result="BackgroundImageFix"/>
<feColorMatrix in="SourceAlpha" type="matrix" values="0 0 0 0 0 0 0 0 0 0 0 0 0 0 0 0 0 0 127 0"/>
<feOffset dy="15"/>
<feGaussianBlur stdDeviation="5"/>
<feColorMatrix type="matrix" values="0 0 0 0 0.298039 0 0 0 0 0.576471 0 0 0 0 0.878431 0 0 0 0.15 0"/>
<feBlend mode="normal" in2="BackgroundImageFix" result="effect1_dropShadow"/>
<feBlend mode="normal" in="SourceGraphic" in2="effect1_dropShadow" result="shape"/>
</filter>
<filter id="filter21_d" x="216.779" y="44.7344" width="50" height="55" filterUnits="userSpaceOnUse" color-interpolation-filters="sRGB">
<feFlood flood-opacity="0" result="BackgroundImageFix"/>
<feColorMatrix in="SourceAlpha" type="matrix" values="0 0 0 0 0 0 0 0 0 0 0 0 0 0 0 0 0 0 127 0"/>
<feOffset dy="15"/>
<feGaussianBlur stdDeviation="5"/>
<feColorMatrix type="matrix" values="0 0 0 0 0.298039 0 0 0 0 0.576471 0 0 0 0 0.878431 0 0 0 0.15 0"/>
<feBlend mode="normal" in2="BackgroundImageFix" result="effect1_dropShadow"/>
<feBlend mode="normal" in="SourceGraphic" in2="effect1_dropShadow" result="shape"/>
</filter>
<filter id="filter22_d" x="185.235" y="115.875" width="50" height="55" filterUnits="userSpaceOnUse" color-interpolation-filters="sRGB">
<feFlood flood-opacity="0" result="BackgroundImageFix"/>
<feColorMatrix in="SourceAlpha" type="matrix" values="0 0 0 0 0 0 0 0 0 0 0 0 0 0 0 0 0 0 127 0"/>
<feOffset dy="15"/>
<feGaussianBlur stdDeviation="5"/>
<feColorMatrix type="matrix" values="0 0 0 0 0.298039 0 0 0 0 0.576471 0 0 0 0 0.878431 0 0 0 0.15 0"/>
<feBlend mode="normal" in2="BackgroundImageFix" result="effect1_dropShadow"/>
<feBlend mode="normal" in="SourceGraphic" in2="effect1_dropShadow" result="shape"/>
</filter>
</defs>
</svg>
