<svg width="470" height="374" viewBox="0 0 470 374" fill="none" xmlns="http://www.w3.org/2000/svg">
<g filter="url(#filter0_d)">
<path fill-rule="evenodd" clip-rule="evenodd" d="M169.838 88.175L174.282 88.8826C174.555 88.9261 174.74 89.1823 174.697 89.455L173.989 93.8991C173.946 94.1718 173.69 94.3576 173.417 94.3142C173.144 94.2708 172.958 94.0145 173.002 93.7418L173.52 90.4899L79.924 158.372L79.3369 157.563L172.933 89.6804L169.681 89.1626C169.408 89.1191 169.222 88.8629 169.265 88.5902C169.309 88.3174 169.565 88.1316 169.838 88.175Z" fill="#00367A"/>
<path fill-rule="evenodd" clip-rule="evenodd" d="M320.853 48.8864L325.07 50.4552C325.329 50.5515 325.461 50.8393 325.365 51.0981L323.796 55.3158C323.7 55.5746 323.412 55.7064 323.153 55.6102C322.894 55.5139 322.762 55.226 322.859 54.9672L324.007 51.8809L91.2705 158.422L90.8542 157.513L323.59 50.9716L320.504 49.8237C320.245 49.7274 320.113 49.4396 320.21 49.1807C320.306 48.9219 320.594 48.7901 320.853 48.8864Z" fill="#00367A"/>
<path fill-rule="evenodd" clip-rule="evenodd" d="M235.122 133.289L238.908 135.723C239.14 135.872 239.207 136.181 239.058 136.414L236.625 140.199C236.475 140.431 236.166 140.498 235.934 140.349C235.701 140.2 235.634 139.89 235.783 139.658L237.564 136.888L95.3256 167.81L95.1132 166.832L237.352 135.911L234.582 134.13C234.349 133.981 234.282 133.672 234.432 133.439C234.581 133.207 234.89 133.14 235.122 133.289Z" fill="#00367A"/>
<path fill-rule="evenodd" clip-rule="evenodd" d="M219.759 191.452L222.413 195.086C222.576 195.309 222.527 195.622 222.304 195.785L218.67 198.439C218.447 198.602 218.135 198.553 217.972 198.33C217.809 198.107 217.858 197.795 218.081 197.632L220.74 195.689L95.1424 176.129L95.2963 175.141L220.893 194.701L218.951 192.042C218.788 191.819 218.837 191.506 219.06 191.344C219.283 191.181 219.596 191.229 219.759 191.452Z" fill="#00367A"/>
<path fill-rule="evenodd" clip-rule="evenodd" d="M373.338 285.662L375.234 289.743C375.35 289.994 375.242 290.291 374.991 290.407L370.91 292.303C370.66 292.42 370.362 292.311 370.246 292.06C370.13 291.81 370.238 291.513 370.489 291.396L373.475 290.009L84.6551 184.419L84.9985 183.48L373.819 289.07L372.431 286.083C372.315 285.833 372.424 285.536 372.674 285.419C372.925 285.303 373.222 285.412 373.338 285.662Z" fill="#00367A"/>
<path fill-rule="evenodd" clip-rule="evenodd" d="M169.938 248.014L170.542 252.473C170.579 252.747 170.387 252.999 170.113 253.036L165.654 253.64C165.38 253.677 165.129 253.485 165.091 253.212C165.054 252.938 165.246 252.686 165.52 252.649L168.783 252.207L78.2883 183.308L78.8941 182.512L169.389 251.411L168.947 248.148C168.91 247.875 169.101 247.623 169.375 247.586C169.649 247.549 169.9 247.74 169.938 248.014Z" fill="#00367A"/>
<path d="M101.455 169.4C101.455 194.654 80.9821 215.127 55.7275 215.127C30.4729 215.127 10 194.654 10 169.4C10 144.145 30.4729 123.672 55.7275 123.672C80.9821 123.672 101.455 144.145 101.455 169.4Z" fill="#00367A"/>
<path d="M50.4829 176.076C49.8709 176.076 49.1569 176.04 48.3409 175.968C47.5369 175.908 46.9009 175.824 46.4329 175.716V174.312C47.4289 174.408 48.7549 174.456 50.4109 174.456C51.2629 174.456 51.9229 174.33 52.3909 174.078C52.8589 173.814 53.0929 173.34 53.0929 172.656V171.882C53.0929 170.766 52.4989 170.208 51.3109 170.208H49.9609C48.7729 170.208 47.8729 169.95 47.2609 169.434C46.6489 168.906 46.3429 168.048 46.3429 166.86V166.122C46.3429 164.898 46.6729 164.004 47.3329 163.44C48.0049 162.876 49.0009 162.594 50.3209 162.594C50.8969 162.594 51.5569 162.636 52.3009 162.72C53.0449 162.804 53.6809 162.894 54.2089 162.99V164.394L53.8309 164.376C52.2949 164.268 51.1909 164.214 50.5189 164.214C49.7029 164.214 49.0909 164.358 48.6829 164.646C48.2749 164.934 48.0709 165.456 48.0709 166.212V166.752C48.0709 167.376 48.2329 167.82 48.5569 168.084C48.8929 168.348 49.3909 168.48 50.0509 168.48H51.5089C52.5889 168.48 53.4109 168.774 53.9749 169.362C54.5389 169.938 54.8209 170.706 54.8209 171.666V172.602C54.8209 173.91 54.4429 174.816 53.6869 175.32C52.9309 175.824 51.8629 176.076 50.4829 176.076Z" fill="white"/>
<path d="M59.9334 175.968C59.0214 175.968 58.3254 175.752 57.8454 175.32C57.3654 174.888 57.1254 174.168 57.1254 173.16V162.702H58.9434V172.89C58.9434 173.43 59.0694 173.802 59.3214 174.006C59.5734 174.21 59.9214 174.312 60.3654 174.312H64.9554V175.968H59.9334Z" fill="white"/>
<path fill-rule="evenodd" clip-rule="evenodd" d="M121.801 181C121.801 180.448 121.354 180 120.801 180H72C71.4477 180 71 180.448 71 181V229.723C71 230.275 71.4477 230.723 72 230.723H113.035C113.283 230.723 113.522 230.631 113.706 230.465L121.472 223.449C121.682 223.26 121.801 222.99 121.801 222.707V181Z" fill="white"/>
<path fill-rule="evenodd" clip-rule="evenodd" d="M120.801 180.5H72C71.7239 180.5 71.5 180.724 71.5 181V229.723C71.5 229.999 71.7239 230.223 72 230.223H113.035C113.159 230.223 113.278 230.177 113.37 230.094L121.137 223.078C121.242 222.983 121.301 222.849 121.301 222.707V181C121.301 180.724 121.078 180.5 120.801 180.5ZM120.801 180C121.354 180 121.801 180.448 121.801 181V222.707C121.801 222.99 121.682 223.26 121.472 223.449L113.706 230.465C113.522 230.631 113.283 230.723 113.035 230.723H72C71.4477 230.723 71 230.275 71 229.723V181C71 180.448 71.4477 180 72 180H120.801Z" fill="#4C93E0"/>
<path fill-rule="evenodd" clip-rule="evenodd" d="M114.33 223.123C113.916 223.123 113.58 223.459 113.58 223.873V230.056H113.08V223.873C113.08 223.183 113.639 222.623 114.33 222.623H121.538V223.123H114.33Z" fill="#4C93E0"/>
<path d="M82.621 189.633H85.159C86.383 189.633 86.995 190.209 86.995 191.361C86.995 191.751 86.908 192.075 86.734 192.333C86.566 192.585 86.341 192.747 86.059 192.819C86.377 192.897 86.647 193.071 86.869 193.341C87.097 193.605 87.211 193.971 87.211 194.439C87.211 195.099 87.049 195.57 86.725 195.852C86.401 196.134 85.915 196.275 85.267 196.275H82.621V189.633ZM85.177 192.441C85.405 192.441 85.588 192.357 85.726 192.189C85.864 192.021 85.933 191.796 85.933 191.514C85.933 190.926 85.672 190.632 85.15 190.632H83.728V192.441H85.177ZM85.231 195.276C85.531 195.276 85.759 195.198 85.915 195.042C86.071 194.88 86.149 194.616 86.149 194.25C86.149 193.956 86.062 193.725 85.888 193.557C85.72 193.389 85.501 193.305 85.231 193.305H83.728V195.276H85.231Z" fill="#00367A"/>
<path d="M89.6783 196.275C89.1863 196.275 88.8143 196.161 88.5623 195.933C88.3163 195.699 88.1933 195.318 88.1933 194.79V189.633H89.3003V194.61C89.3003 194.856 89.3573 195.027 89.4713 195.123C89.5913 195.219 89.7533 195.267 89.9573 195.267H92.1623V196.275H89.6783Z" fill="#00367A"/>
<path d="M95.4589 196.329C94.8169 196.329 94.3069 196.245 93.9289 196.077C93.5509 195.903 93.2659 195.576 93.0739 195.096C92.8819 194.61 92.7859 193.902 92.7859 192.972C92.7859 192.042 92.8819 191.331 93.0739 190.839C93.2719 190.347 93.5599 190.014 93.9379 189.84C94.3159 189.66 94.8229 189.57 95.4589 189.57C96.1009 189.57 96.6109 189.66 96.9889 189.84C97.3729 190.014 97.6609 190.347 97.8529 190.839C98.0449 191.325 98.1409 192.036 98.1409 192.972C98.1409 193.902 98.0419 194.61 97.8439 195.096C97.6519 195.576 97.3669 195.903 96.9889 196.077C96.6169 196.245 96.1069 196.329 95.4589 196.329ZM95.4589 195.33C95.8729 195.33 96.1879 195.27 96.4039 195.15C96.6259 195.03 96.7849 194.805 96.8809 194.475C96.9769 194.139 97.0249 193.638 97.0249 192.972C97.0249 192.282 96.9739 191.766 96.8719 191.424C96.7759 191.082 96.6199 190.854 96.4039 190.74C96.1879 190.626 95.8729 190.569 95.4589 190.569C95.0569 190.569 94.7479 190.629 94.5319 190.749C94.3159 190.863 94.1569 191.091 94.0549 191.433C93.9529 191.769 93.9019 192.282 93.9019 192.972C93.9019 193.644 93.9469 194.145 94.0369 194.475C94.1329 194.805 94.2889 195.03 94.5049 195.15C94.7209 195.27 95.0389 195.33 95.4589 195.33Z" fill="#00367A"/>
<path d="M101.429 196.329C100.865 196.329 100.415 196.242 100.079 196.068C99.7428 195.888 99.4848 195.552 99.3048 195.06C99.1308 194.568 99.0438 193.857 99.0438 192.927C99.0438 192.045 99.1338 191.361 99.3138 190.875C99.4938 190.383 99.7578 190.044 100.106 189.858C100.454 189.666 100.904 189.57 101.456 189.57C101.816 189.57 102.176 189.6 102.536 189.66C102.902 189.714 103.214 189.78 103.472 189.858V190.713C103.292 190.677 103.034 190.644 102.698 190.614C102.368 190.584 102.029 190.569 101.681 190.569C101.285 190.569 100.979 190.632 100.763 190.758C100.553 190.878 100.4 191.106 100.304 191.442C100.208 191.778 100.16 192.279 100.16 192.945C100.16 193.611 100.205 194.112 100.295 194.448C100.385 194.784 100.535 195.015 100.745 195.141C100.955 195.267 101.264 195.33 101.672 195.33C102.356 195.33 102.956 195.297 103.472 195.231V196.086C102.926 196.248 102.245 196.329 101.429 196.329Z" fill="#00367A"/>
<path d="M104.471 189.633H105.578V192.468H106.568L108.089 189.633H109.277L107.45 192.963L109.322 196.275H108.134L106.559 193.476H105.578V196.275H104.471V189.633Z" fill="#00367A"/>
</g>
<g filter="url(#filter1_d)">
<path d="M235.52 65.4735C235.52 82.6925 221.561 96.6513 204.342 96.6513C187.123 96.6513 173.164 82.6925 173.164 65.4735C173.164 48.2544 187.123 34.2957 204.342 34.2957C221.561 34.2957 235.52 48.2544 235.52 65.4735Z" fill="#1959AA"/>
<path d="M196.821 58.7756H199.125L203.553 72.0416H201.663L200.493 68.5676H195.417L194.265 72.0416H192.393L196.821 58.7756ZM200.043 66.9296L197.955 60.3416L195.849 66.9296H200.043Z" fill="white"/>
<path d="M205.384 58.7756H210.748C212.344 58.7756 213.484 59.3336 214.168 60.4496C214.852 61.5656 215.194 63.2216 215.194 65.4176C215.194 67.5656 214.816 69.2096 214.06 70.3496C213.316 71.4776 212.212 72.0416 210.748 72.0416H205.384V58.7756ZM210.586 70.4216C212.446 70.4216 213.376 68.7536 213.376 65.4176C213.376 64.1576 213.274 63.1616 213.07 62.4296C212.878 61.6976 212.578 61.1756 212.17 60.8636C211.774 60.5516 211.246 60.3956 210.586 60.3956H207.202V70.4216H210.586Z" fill="white"/>
</g>
<g filter="url(#filter2_d)">
<path d="M310.346 135.104C310.346 152.323 296.388 166.282 279.169 166.282C261.95 166.282 247.991 152.323 247.991 135.104C247.991 117.885 261.95 103.926 279.169 103.926C296.388 103.926 310.346 117.885 310.346 135.104Z" fill="#1959AA"/>
<path d="M271.647 128.406H273.951L278.379 141.672H276.489L275.319 138.198H270.243L269.091 141.672H267.219L271.647 128.406ZM274.869 136.56L272.781 129.972L270.675 136.56H274.869Z" fill="white"/>
<path d="M280.211 128.406H285.575C287.171 128.406 288.311 128.964 288.995 130.08C289.679 131.196 290.021 132.852 290.021 135.048C290.021 137.196 289.643 138.84 288.887 139.98C288.143 141.108 287.039 141.672 285.575 141.672H280.211V128.406ZM285.413 140.052C287.273 140.052 288.203 138.384 288.203 135.048C288.203 133.788 288.101 132.792 287.897 132.06C287.705 131.328 287.405 130.806 286.997 130.494C286.601 130.182 286.073 130.026 285.413 130.026H282.029V140.052H285.413Z" fill="white"/>
</g>
<g filter="url(#filter3_d)">
<path d="M291.64 208.891C291.64 226.11 277.681 240.069 260.462 240.069C243.243 240.069 229.284 226.11 229.284 208.891C229.284 191.672 243.243 177.714 260.462 177.714C277.681 177.714 291.64 191.672 291.64 208.891Z" fill="#1959AA"/>
<path d="M252.941 202.194H255.245L259.673 215.46H257.783L256.613 211.986H251.537L250.385 215.46H248.513L252.941 202.194ZM256.163 210.348L254.075 203.76L251.969 210.348H256.163Z" fill="white"/>
<path d="M261.504 202.194H266.868C268.464 202.194 269.604 202.752 270.288 203.868C270.972 204.984 271.314 206.64 271.314 208.836C271.314 210.984 270.936 212.628 270.18 213.768C269.436 214.896 268.332 215.46 266.868 215.46H261.504V202.194ZM266.706 213.84C268.566 213.84 269.496 212.172 269.496 208.836C269.496 207.576 269.394 206.58 269.19 205.848C268.998 205.116 268.698 204.594 268.29 204.282C267.894 203.97 267.366 203.814 266.706 203.814H263.322V213.84H266.706Z" fill="white"/>
</g>
<g filter="url(#filter4_d)">
<path d="M244.873 281.64C244.873 298.859 230.914 312.818 213.695 312.818C196.476 312.818 182.517 298.859 182.517 281.64C182.517 264.421 196.476 250.462 213.695 250.462C230.914 250.462 244.873 264.421 244.873 281.64Z" fill="#1959AA"/>
<path d="M206.174 274.942H208.478L212.906 288.208H211.016L209.846 284.734H204.77L203.618 288.208H201.746L206.174 274.942ZM209.396 283.096L207.308 276.508L205.202 283.096H209.396Z" fill="white"/>
<path d="M214.737 274.942H220.101C221.697 274.942 222.837 275.5 223.521 276.616C224.205 277.732 224.547 279.388 224.547 281.584C224.547 283.732 224.169 285.376 223.413 286.516C222.669 287.644 221.565 288.208 220.101 288.208H214.737V274.942ZM219.939 286.588C221.799 286.588 222.729 284.92 222.729 281.584C222.729 280.324 222.627 279.328 222.423 278.596C222.231 277.864 221.931 277.342 221.523 277.03C221.127 276.718 220.599 276.562 219.939 276.562H216.555V286.588H219.939Z" fill="white"/>
</g>
<g filter="url(#filter5_d)">
<path d="M365.427 21.3048C365.427 33.0712 355.656 42.6097 343.603 42.6097C331.549 42.6097 321.778 33.0712 321.778 21.3048C321.778 9.53851 331.549 0 343.603 0C355.656 0 365.427 9.53851 365.427 21.3048Z" fill="#4C93E0"/>
</g>
<path d="M338.879 15.1266H340.355L346.853 25.2966V15.1266H348.653V28.3926H347.195L340.697 18.2226V28.3926H338.879V15.1266Z" fill="white"/>
<g filter="url(#filter6_d)">
<path d="M449.607 38.9723C449.607 50.7386 439.836 60.2771 427.783 60.2771C415.73 60.2771 405.958 50.7386 405.958 38.9723C405.958 27.2059 415.73 17.6674 427.783 17.6674C439.836 17.6674 449.607 27.2059 449.607 38.9723Z" fill="#4C93E0"/>
</g>
<path d="M423.059 32.794H424.535L431.033 42.964V32.794H432.833V46.06H431.375L424.877 35.89V46.06H423.059V32.794Z" fill="white"/>
<g filter="url(#filter7_d)">
<path d="M406.998 97.1709C406.998 108.937 397.227 118.476 385.173 118.476C373.12 118.476 363.349 108.937 363.349 97.1709C363.349 85.4045 373.12 75.866 385.173 75.866C397.227 75.866 406.998 85.4045 406.998 97.1709Z" fill="#4C93E0"/>
</g>
<path d="M380.45 90.9926H381.926L388.424 101.163V90.9926H390.224V104.259H388.766L382.268 94.0886V104.259H380.45V90.9926Z" fill="white"/>
<g filter="url(#filter8_d)">
<path d="M456.882 156.409C456.882 168.175 447.111 177.714 435.058 177.714C423.004 177.714 413.233 168.175 413.233 156.409C413.233 144.642 423.004 135.104 435.058 135.104C447.111 135.104 456.882 144.642 456.882 156.409Z" fill="#4C93E0"/>
</g>
<path d="M430.334 150.23H431.81L438.308 160.4V150.23H440.108V163.496H438.65L432.152 153.326V163.496H430.334V150.23Z" fill="white"/>
<g filter="url(#filter9_d)">
<path d="M385.173 182.39C385.173 194.157 375.402 203.695 363.349 203.695C351.296 203.695 341.524 194.157 341.524 182.39C341.524 170.624 351.296 161.085 363.349 161.085C375.402 161.085 385.173 170.624 385.173 182.39Z" fill="#4C93E0"/>
</g>
<path d="M358.625 176.212H360.101L366.599 186.382V176.212H368.399V189.478H366.941L360.443 179.308V189.478H358.625V176.212Z" fill="white"/>
<g filter="url(#filter10_d)">
<path d="M418.43 244.746C418.43 256.512 408.658 266.051 396.605 266.051C384.552 266.051 374.781 256.512 374.781 244.746C374.781 232.98 384.552 223.441 396.605 223.441C408.658 223.441 418.43 232.98 418.43 244.746Z" fill="#4C93E0"/>
</g>
<path d="M391.881 238.568H393.357L399.855 248.738V238.568H401.655V251.834H400.197L393.699 241.664V251.834H391.881V238.568Z" fill="white"/>
<g filter="url(#filter11_d)">
<path d="M460 308.141C460 319.907 450.229 329.446 438.176 329.446C426.122 329.446 416.351 319.907 416.351 308.141C416.351 296.374 426.122 286.836 438.176 286.836C450.229 286.836 460 296.374 460 308.141Z" fill="#4C93E0"/>
</g>
<path d="M433.452 301.963H434.928L441.426 312.133V301.963H443.226V315.229H441.768L435.27 305.059V315.229H433.452V301.963Z" fill="white"/>
<g filter="url(#filter12_d)">
<path d="M387.252 326.848C387.252 338.614 377.48 348.152 365.427 348.152C353.374 348.152 343.603 338.614 343.603 326.848C343.603 315.081 353.374 305.543 365.427 305.543C377.48 305.543 387.252 315.081 387.252 326.848Z" fill="#4C93E0"/>
</g>
<path d="M360.704 320.669H362.18L368.678 330.839V320.669H370.478V333.935H369.02L362.522 323.765V333.935H360.704V320.669Z" fill="white"/>
<defs>
<filter id="filter0_d" x="0" y="48.8549" width="386.515" height="269.729" filterUnits="userSpaceOnUse" color-interpolation-filters="sRGB">
<feFlood flood-opacity="0" result="BackgroundImageFix"/>
<feColorMatrix in="SourceAlpha" type="matrix" values="0 0 0 0 0 0 0 0 0 0 0 0 0 0 0 0 0 0 127 0"/>
<feOffset dy="15"/>
<feGaussianBlur stdDeviation="5"/>
<feColorMatrix type="matrix" values="0 0 0 0 0.298039 0 0 0 0 0.576471 0 0 0 0 0.878431 0 0 0 0.15 0"/>
<feBlend mode="normal" in2="BackgroundImageFix" result="effect1_dropShadow"/>
<feBlend mode="normal" in="SourceGraphic" in2="effect1_dropShadow" result="shape"/>
</filter>
<filter id="filter1_d" x="163.164" y="34.2957" width="82.3557" height="87.3557" filterUnits="userSpaceOnUse" color-interpolation-filters="sRGB">
<feFlood flood-opacity="0" result="BackgroundImageFix"/>
<feColorMatrix in="SourceAlpha" type="matrix" values="0 0 0 0 0 0 0 0 0 0 0 0 0 0 0 0 0 0 127 0"/>
<feOffset dy="15"/>
<feGaussianBlur stdDeviation="5"/>
<feColorMatrix type="matrix" values="0 0 0 0 0.298039 0 0 0 0 0.576471 0 0 0 0 0.878431 0 0 0 0.15 0"/>
<feBlend mode="normal" in2="BackgroundImageFix" result="effect1_dropShadow"/>
<feBlend mode="normal" in="SourceGraphic" in2="effect1_dropShadow" result="shape"/>
</filter>
<filter id="filter2_d" x="237.991" y="103.926" width="82.3557" height="87.3557" filterUnits="userSpaceOnUse" color-interpolation-filters="sRGB">
<feFlood flood-opacity="0" result="BackgroundImageFix"/>
<feColorMatrix in="SourceAlpha" type="matrix" values="0 0 0 0 0 0 0 0 0 0 0 0 0 0 0 0 0 0 127 0"/>
<feOffset dy="15"/>
<feGaussianBlur stdDeviation="5"/>
<feColorMatrix type="matrix" values="0 0 0 0 0.298039 0 0 0 0 0.576471 0 0 0 0 0.878431 0 0 0 0.15 0"/>
<feBlend mode="normal" in2="BackgroundImageFix" result="effect1_dropShadow"/>
<feBlend mode="normal" in="SourceGraphic" in2="effect1_dropShadow" result="shape"/>
</filter>
<filter id="filter3_d" x="219.284" y="177.714" width="82.3557" height="87.3557" filterUnits="userSpaceOnUse" color-interpolation-filters="sRGB">
<feFlood flood-opacity="0" result="BackgroundImageFix"/>
<feColorMatrix in="SourceAlpha" type="matrix" values="0 0 0 0 0 0 0 0 0 0 0 0 0 0 0 0 0 0 127 0"/>
<feOffset dy="15"/>
<feGaussianBlur stdDeviation="5"/>
<feColorMatrix type="matrix" values="0 0 0 0 0.298039 0 0 0 0 0.576471 0 0 0 0 0.878431 0 0 0 0.15 0"/>
<feBlend mode="normal" in2="BackgroundImageFix" result="effect1_dropShadow"/>
<feBlend mode="normal" in="SourceGraphic" in2="effect1_dropShadow" result="shape"/>
</filter>
<filter id="filter4_d" x="172.517" y="250.462" width="82.3557" height="87.3557" filterUnits="userSpaceOnUse" color-interpolation-filters="sRGB">
<feFlood flood-opacity="0" result="BackgroundImageFix"/>
<feColorMatrix in="SourceAlpha" type="matrix" values="0 0 0 0 0 0 0 0 0 0 0 0 0 0 0 0 0 0 127 0"/>
<feOffset dy="15"/>
<feGaussianBlur stdDeviation="5"/>
<feColorMatrix type="matrix" values="0 0 0 0 0.298039 0 0 0 0 0.576471 0 0 0 0 0.878431 0 0 0 0.15 0"/>
<feBlend mode="normal" in2="BackgroundImageFix" result="effect1_dropShadow"/>
<feBlend mode="normal" in="SourceGraphic" in2="effect1_dropShadow" result="shape"/>
</filter>
<filter id="filter5_d" x="311.778" y="0" width="63.649" height="67.6097" filterUnits="userSpaceOnUse" color-interpolation-filters="sRGB">
<feFlood flood-opacity="0" result="BackgroundImageFix"/>
<feColorMatrix in="SourceAlpha" type="matrix" values="0 0 0 0 0 0 0 0 0 0 0 0 0 0 0 0 0 0 127 0"/>
<feOffset dy="15"/>
<feGaussianBlur stdDeviation="5"/>
<feColorMatrix type="matrix" values="0 0 0 0 0.298039 0 0 0 0 0.576471 0 0 0 0 0.878431 0 0 0 0.15 0"/>
<feBlend mode="normal" in2="BackgroundImageFix" result="effect1_dropShadow"/>
<feBlend mode="normal" in="SourceGraphic" in2="effect1_dropShadow" result="shape"/>
</filter>
<filter id="filter6_d" x="395.958" y="17.6674" width="63.649" height="67.6097" filterUnits="userSpaceOnUse" color-interpolation-filters="sRGB">
<feFlood flood-opacity="0" result="BackgroundImageFix"/>
<feColorMatrix in="SourceAlpha" type="matrix" values="0 0 0 0 0 0 0 0 0 0 0 0 0 0 0 0 0 0 127 0"/>
<feOffset dy="15"/>
<feGaussianBlur stdDeviation="5"/>
<feColorMatrix type="matrix" values="0 0 0 0 0.298039 0 0 0 0 0.576471 0 0 0 0 0.878431 0 0 0 0.15 0"/>
<feBlend mode="normal" in2="BackgroundImageFix" result="effect1_dropShadow"/>
<feBlend mode="normal" in="SourceGraphic" in2="effect1_dropShadow" result="shape"/>
</filter>
<filter id="filter7_d" x="353.349" y="75.866" width="63.649" height="67.6097" filterUnits="userSpaceOnUse" color-interpolation-filters="sRGB">
<feFlood flood-opacity="0" result="BackgroundImageFix"/>
<feColorMatrix in="SourceAlpha" type="matrix" values="0 0 0 0 0 0 0 0 0 0 0 0 0 0 0 0 0 0 127 0"/>
<feOffset dy="15"/>
<feGaussianBlur stdDeviation="5"/>
<feColorMatrix type="matrix" values="0 0 0 0 0.298039 0 0 0 0 0.576471 0 0 0 0 0.878431 0 0 0 0.15 0"/>
<feBlend mode="normal" in2="BackgroundImageFix" result="effect1_dropShadow"/>
<feBlend mode="normal" in="SourceGraphic" in2="effect1_dropShadow" result="shape"/>
</filter>
<filter id="filter8_d" x="403.233" y="135.104" width="63.649" height="67.6097" filterUnits="userSpaceOnUse" color-interpolation-filters="sRGB">
<feFlood flood-opacity="0" result="BackgroundImageFix"/>
<feColorMatrix in="SourceAlpha" type="matrix" values="0 0 0 0 0 0 0 0 0 0 0 0 0 0 0 0 0 0 127 0"/>
<feOffset dy="15"/>
<feGaussianBlur stdDeviation="5"/>
<feColorMatrix type="matrix" values="0 0 0 0 0.298039 0 0 0 0 0.576471 0 0 0 0 0.878431 0 0 0 0.15 0"/>
<feBlend mode="normal" in2="BackgroundImageFix" result="effect1_dropShadow"/>
<feBlend mode="normal" in="SourceGraphic" in2="effect1_dropShadow" result="shape"/>
</filter>
<filter id="filter9_d" x="331.524" y="161.085" width="63.649" height="67.6097" filterUnits="userSpaceOnUse" color-interpolation-filters="sRGB">
<feFlood flood-opacity="0" result="BackgroundImageFix"/>
<feColorMatrix in="SourceAlpha" type="matrix" values="0 0 0 0 0 0 0 0 0 0 0 0 0 0 0 0 0 0 127 0"/>
<feOffset dy="15"/>
<feGaussianBlur stdDeviation="5"/>
<feColorMatrix type="matrix" values="0 0 0 0 0.298039 0 0 0 0 0.576471 0 0 0 0 0.878431 0 0 0 0.15 0"/>
<feBlend mode="normal" in2="BackgroundImageFix" result="effect1_dropShadow"/>
<feBlend mode="normal" in="SourceGraphic" in2="effect1_dropShadow" result="shape"/>
</filter>
<filter id="filter10_d" x="364.781" y="223.441" width="63.649" height="67.6097" filterUnits="userSpaceOnUse" color-interpolation-filters="sRGB">
<feFlood flood-opacity="0" result="BackgroundImageFix"/>
<feColorMatrix in="SourceAlpha" type="matrix" values="0 0 0 0 0 0 0 0 0 0 0 0 0 0 0 0 0 0 127 0"/>
<feOffset dy="15"/>
<feGaussianBlur stdDeviation="5"/>
<feColorMatrix type="matrix" values="0 0 0 0 0.298039 0 0 0 0 0.576471 0 0 0 0 0.878431 0 0 0 0.15 0"/>
<feBlend mode="normal" in2="BackgroundImageFix" result="effect1_dropShadow"/>
<feBlend mode="normal" in="SourceGraphic" in2="effect1_dropShadow" result="shape"/>
</filter>
<filter id="filter11_d" x="406.351" y="286.836" width="63.649" height="67.6097" filterUnits="userSpaceOnUse" color-interpolation-filters="sRGB">
<feFlood flood-opacity="0" result="BackgroundImageFix"/>
<feColorMatrix in="SourceAlpha" type="matrix" values="0 0 0 0 0 0 0 0 0 0 0 0 0 0 0 0 0 0 127 0"/>
<feOffset dy="15"/>
<feGaussianBlur stdDeviation="5"/>
<feColorMatrix type="matrix" values="0 0 0 0 0.298039 0 0 0 0 0.576471 0 0 0 0 0.878431 0 0 0 0.15 0"/>
<feBlend mode="normal" in2="BackgroundImageFix" result="effect1_dropShadow"/>
<feBlend mode="normal" in="SourceGraphic" in2="effect1_dropShadow" result="shape"/>
</filter>
<filter id="filter12_d" x="333.603" y="305.543" width="63.649" height="67.6097" filterUnits="userSpaceOnUse" color-interpolation-filters="sRGB">
<feFlood flood-opacity="0" result="BackgroundImageFix"/>
<feColorMatrix in="SourceAlpha" type="matrix" values="0 0 0 0 0 0 0 0 0 0 0 0 0 0 0 0 0 0 127 0"/>
<feOffset dy="15"/>
<feGaussianBlur stdDeviation="5"/>
<feColorMatrix type="matrix" values="0 0 0 0 0.298039 0 0 0 0 0.576471 0 0 0 0 0.878431 0 0 0 0.15 0"/>
<feBlend mode="normal" in2="BackgroundImageFix" result="effect1_dropShadow"/>
<feBlend mode="normal" in="SourceGraphic" in2="effect1_dropShadow" result="shape"/>
</filter>
</defs>
</svg>
