<svg width="493" height="325" viewBox="0 0 493 325" fill="none" xmlns="http://www.w3.org/2000/svg">
<path fill-rule="evenodd" clip-rule="evenodd" d="M98.0058 112.484L93.5387 111.941C93.2646 111.908 93.0694 111.658 93.1028 111.384L93.6462 106.917C93.6796 106.643 93.9289 106.448 94.203 106.481C94.4771 106.515 94.6723 106.764 94.6389 107.038L94.2412 110.307L152.842 64.418L153.459 65.2053L94.8578 111.094L98.1266 111.492C98.4007 111.525 98.5959 111.774 98.5625 112.048C98.5292 112.323 98.2799 112.518 98.0058 112.484Z" fill="#4C93E0"/>
<path fill-rule="evenodd" clip-rule="evenodd" d="M216.891 127.717L215.777 132.076C215.708 132.344 215.436 132.506 215.168 132.437L210.808 131.323C210.541 131.255 210.379 130.982 210.448 130.715C210.516 130.447 210.789 130.286 211.056 130.354L214.246 131.169L171.107 58.4164L171.967 57.9064L215.107 130.659L215.922 127.469C215.99 127.201 216.263 127.04 216.53 127.108C216.798 127.177 216.959 127.449 216.891 127.717Z" fill="#4C93E0"/>
<path fill-rule="evenodd" clip-rule="evenodd" d="M391.715 186.907L392.826 191.268C392.894 191.536 392.733 191.808 392.465 191.876L388.104 192.987C387.837 193.055 387.564 192.893 387.496 192.626C387.428 192.358 387.59 192.086 387.857 192.018L391.048 191.205L167.794 58.5912L168.305 57.7315L391.559 190.345L390.746 187.154C390.678 186.887 390.84 186.614 391.107 186.546C391.375 186.478 391.647 186.64 391.715 186.907Z" fill="#4C93E0"/>
<path fill-rule="evenodd" clip-rule="evenodd" d="M263.185 68.6431L265.853 72.2669C266.017 72.4892 265.969 72.8022 265.747 72.966L262.123 75.634C261.901 75.7977 261.588 75.7502 261.424 75.5278C261.26 75.3054 261.308 74.9925 261.53 74.8287L264.182 72.8764L170.561 58.6557L170.711 57.667L264.332 71.8877L262.38 69.236C262.216 69.0137 262.263 68.7007 262.486 68.5369C262.708 68.3732 263.021 68.4208 263.185 68.6431Z" fill="#4C93E0"/>
<path fill-rule="evenodd" clip-rule="evenodd" d="M351.149 26.7743L354.779 29.4346C355.002 29.5979 355.05 29.9108 354.887 30.1335L352.226 33.7629C352.063 33.9856 351.75 34.0338 351.527 33.8705C351.305 33.7073 351.256 33.3944 351.42 33.1717L353.366 30.5159L170.712 58.6556L170.56 57.6672L353.214 29.5275L350.558 27.5808C350.336 27.4175 350.287 27.1046 350.451 26.8819C350.614 26.6592 350.927 26.611 351.149 26.7743Z" fill="#4C93E0"/>
<g filter="url(#filter0_d)">
<path d="M101.455 152.929C101.455 178.184 80.9821 198.657 55.7275 198.657C30.4729 198.657 10 178.184 10 152.929C10 127.675 30.4729 107.202 55.7275 107.202C80.9821 107.202 101.455 127.675 101.455 152.929Z" fill="#00367A"/>
</g>
<path d="M50.148 159.638C49.536 159.638 48.822 159.602 48.006 159.53C47.202 159.47 46.566 159.386 46.098 159.278V157.874C47.094 157.97 48.42 158.018 50.076 158.018C50.928 158.018 51.588 157.892 52.056 157.64C52.524 157.376 52.758 156.902 52.758 156.218V155.444C52.758 154.328 52.164 153.77 50.976 153.77H49.626C48.438 153.77 47.538 153.512 46.926 152.996C46.314 152.468 46.008 151.61 46.008 150.422V149.684C46.008 148.46 46.338 147.566 46.998 147.002C47.67 146.438 48.666 146.156 49.986 146.156C50.562 146.156 51.222 146.198 51.966 146.282C52.71 146.366 53.346 146.456 53.874 146.552V147.956L53.496 147.938C51.96 147.83 50.856 147.776 50.184 147.776C49.368 147.776 48.756 147.92 48.348 148.208C47.94 148.496 47.736 149.018 47.736 149.774V150.314C47.736 150.938 47.898 151.382 48.222 151.646C48.558 151.91 49.056 152.042 49.716 152.042H51.174C52.254 152.042 53.076 152.336 53.64 152.924C54.204 153.5 54.486 154.268 54.486 155.228V156.164C54.486 157.472 54.108 158.378 53.352 158.882C52.596 159.386 51.528 159.638 50.148 159.638Z" fill="white"/>
<path d="M59.5986 159.53C58.6866 159.53 57.9906 159.314 57.5106 158.882C57.0306 158.45 56.7906 157.73 56.7906 156.722V146.264H58.6086V156.452C58.6086 156.992 58.7346 157.364 58.9866 157.568C59.2386 157.772 59.5866 157.874 60.0306 157.874H64.6206V159.53H59.5986Z" fill="white"/>
<path fill-rule="evenodd" clip-rule="evenodd" d="M118.851 168.479C118.851 167.927 118.403 167.479 117.851 167.479H69.0496C68.4973 167.479 68.0496 167.927 68.0496 168.479V217.202C68.0496 217.754 68.4973 218.202 69.0496 218.202H110.085C110.332 218.202 110.571 218.11 110.755 217.944L118.521 210.928C118.731 210.739 118.851 210.469 118.851 210.186V168.479Z" fill="white"/>
<path fill-rule="evenodd" clip-rule="evenodd" d="M117.851 167.979H69.0496C68.7734 167.979 68.5496 168.203 68.5496 168.479V217.202C68.5496 217.478 68.7734 217.702 69.0496 217.702H110.085C110.209 217.702 110.328 217.656 110.42 217.573L118.186 210.557C118.291 210.462 118.351 210.328 118.351 210.186V168.479C118.351 168.203 118.127 167.979 117.851 167.979ZM117.851 167.479C118.403 167.479 118.851 167.927 118.851 168.479V210.186C118.851 210.469 118.731 210.739 118.521 210.928L110.755 217.944C110.571 218.11 110.332 218.202 110.085 218.202H69.0496C68.4973 218.202 68.0496 217.754 68.0496 217.202V168.479C68.0496 167.927 68.4973 167.479 69.0496 167.479H117.851Z" fill="#4C93E0"/>
<path fill-rule="evenodd" clip-rule="evenodd" d="M111.379 210.602C110.965 210.602 110.629 210.938 110.629 211.352V217.535H110.129V211.352C110.129 210.662 110.689 210.102 111.379 210.102H118.587V210.602H111.379Z" fill="#4C93E0"/>
<path d="M79.6706 177.112H82.2086C83.4326 177.112 84.0446 177.688 84.0446 178.84C84.0446 179.23 83.9576 179.554 83.7836 179.812C83.6156 180.064 83.3906 180.226 83.1086 180.298C83.4266 180.376 83.6966 180.55 83.9186 180.82C84.1466 181.084 84.2606 181.45 84.2606 181.918C84.2606 182.578 84.0986 183.049 83.7746 183.331C83.4506 183.613 82.9646 183.754 82.3166 183.754H79.6706V177.112ZM82.2266 179.92C82.4546 179.92 82.6376 179.836 82.7756 179.668C82.9136 179.5 82.9826 179.275 82.9826 178.993C82.9826 178.405 82.7216 178.111 82.1996 178.111H80.7776V179.92H82.2266ZM82.2806 182.755C82.5806 182.755 82.8086 182.677 82.9646 182.521C83.1206 182.359 83.1986 182.095 83.1986 181.729C83.1986 181.435 83.1116 181.204 82.9376 181.036C82.7696 180.868 82.5506 180.784 82.2806 180.784H80.7776V182.755H82.2806Z" fill="#00367A"/>
<path d="M86.7278 183.754C86.2358 183.754 85.8638 183.64 85.6118 183.412C85.3658 183.178 85.2428 182.797 85.2428 182.269V177.112H86.3498V182.089C86.3498 182.335 86.4068 182.506 86.5208 182.602C86.6408 182.698 86.8028 182.746 87.0068 182.746H89.2118V183.754H86.7278Z" fill="#00367A"/>
<path d="M92.5085 183.808C91.8665 183.808 91.3565 183.724 90.9785 183.556C90.6005 183.382 90.3155 183.055 90.1235 182.575C89.9315 182.089 89.8355 181.381 89.8355 180.451C89.8355 179.521 89.9315 178.81 90.1235 178.318C90.3215 177.826 90.6095 177.493 90.9875 177.319C91.3655 177.139 91.8725 177.049 92.5085 177.049C93.1505 177.049 93.6605 177.139 94.0385 177.319C94.4225 177.493 94.7105 177.826 94.9025 178.318C95.0945 178.804 95.1905 179.515 95.1905 180.451C95.1905 181.381 95.0915 182.089 94.8935 182.575C94.7015 183.055 94.4165 183.382 94.0385 183.556C93.6665 183.724 93.1565 183.808 92.5085 183.808ZM92.5085 182.809C92.9225 182.809 93.2375 182.749 93.4535 182.629C93.6755 182.509 93.8345 182.284 93.9305 181.954C94.0265 181.618 94.0745 181.117 94.0745 180.451C94.0745 179.761 94.0235 179.245 93.9215 178.903C93.8255 178.561 93.6695 178.333 93.4535 178.219C93.2375 178.105 92.9225 178.048 92.5085 178.048C92.1065 178.048 91.7975 178.108 91.5815 178.228C91.3655 178.342 91.2065 178.57 91.1045 178.912C91.0025 179.248 90.9515 179.761 90.9515 180.451C90.9515 181.123 90.9965 181.624 91.0865 181.954C91.1825 182.284 91.3385 182.509 91.5545 182.629C91.7705 182.749 92.0885 182.809 92.5085 182.809Z" fill="#00367A"/>
<path d="M98.4783 183.808C97.9143 183.808 97.4643 183.721 97.1283 183.547C96.7923 183.367 96.5343 183.031 96.3543 182.539C96.1803 182.047 96.0933 181.336 96.0933 180.406C96.0933 179.524 96.1833 178.84 96.3633 178.354C96.5433 177.862 96.8073 177.523 97.1553 177.337C97.5033 177.145 97.9533 177.049 98.5053 177.049C98.8653 177.049 99.2253 177.079 99.5853 177.139C99.9513 177.193 100.263 177.259 100.521 177.337V178.192C100.341 178.156 100.083 178.123 99.7473 178.093C99.4173 178.063 99.0783 178.048 98.7303 178.048C98.3343 178.048 98.0283 178.111 97.8123 178.237C97.6023 178.357 97.4493 178.585 97.3533 178.921C97.2573 179.257 97.2093 179.758 97.2093 180.424C97.2093 181.09 97.2543 181.591 97.3443 181.927C97.4343 182.263 97.5843 182.494 97.7943 182.62C98.0043 182.746 98.3133 182.809 98.7213 182.809C99.4053 182.809 100.005 182.776 100.521 182.71V183.565C99.9753 183.727 99.2943 183.808 98.4783 183.808Z" fill="#00367A"/>
<path d="M101.52 177.112H102.627V179.947H103.617L105.138 177.112H106.326L104.499 180.442L106.371 183.754H105.183L103.608 180.955H102.627V183.754H101.52V177.112Z" fill="#00367A"/>
<path d="M81.9062 189.944L86.1488 194.186L81.9062 198.429L77.6635 194.186L81.9062 189.944Z" fill="#4C93E0"/>
<path d="M92.9062 189.944L97.1488 194.186L92.9062 198.429L88.6635 194.186L92.9062 189.944Z" fill="#4C93E0"/>
<path d="M103.906 189.944L108.149 194.186L103.906 198.429L99.6635 194.186L103.906 189.944Z" fill="#4C93E0"/>
<path d="M81.9062 200.944L86.1488 205.186L81.9062 209.429L77.6635 205.186L81.9062 200.944Z" fill="#4C93E0"/>
<path fill-rule="evenodd" clip-rule="evenodd" d="M173.849 222.282L170.802 225.593C170.615 225.797 170.298 225.81 170.095 225.623L166.784 222.576C166.58 222.389 166.567 222.072 166.754 221.869C166.941 221.666 167.258 221.653 167.461 221.84L169.884 224.07L162.926 56.7402L163.925 56.6986L170.883 224.028L173.113 221.605C173.3 221.402 173.616 221.389 173.819 221.575C174.022 221.762 174.036 222.079 173.849 222.282Z" fill="#4C93E0"/>
<g filter="url(#filter1_d)">
<path d="M190 43.7019C190 61.0989 175.673 75.2019 158 75.2019C140.327 75.2019 126 61.0989 126 43.7019C126 26.3049 140.327 12.2019 158 12.2019C175.673 12.2019 190 26.3049 190 43.7019Z" fill="#1959AA"/>
</g>
<path d="M150.95 36.9359H153.254L157.682 50.2019H155.792L154.622 46.7279H149.546L148.394 50.2019H146.522L150.95 36.9359ZM154.172 45.0899L152.084 38.5019L149.978 45.0899H154.172Z" fill="white"/>
<path d="M159.513 36.9359H164.877C166.473 36.9359 167.613 37.4939 168.297 38.6099C168.981 39.7259 169.323 41.3819 169.323 43.5779C169.323 45.7259 168.945 47.3699 168.189 48.5099C167.445 49.6379 166.341 50.2019 164.877 50.2019H159.513V36.9359ZM164.715 48.5819C166.575 48.5819 167.505 46.9139 167.505 43.5779C167.505 42.3179 167.403 41.3219 167.199 40.5899C167.007 39.8579 166.707 39.3359 166.299 39.0239C165.903 38.7119 165.375 38.5559 164.715 38.5559H161.331V48.5819H164.715Z" fill="white"/>
<path fill-rule="evenodd" clip-rule="evenodd" d="M221.851 51.2019C221.851 50.6496 221.403 50.2019 220.851 50.2019H172.05C171.497 50.2019 171.05 50.6496 171.05 51.2019V99.9248C171.05 100.477 171.497 100.925 172.05 100.925H213.085C213.332 100.925 213.571 100.833 213.755 100.667L221.521 93.6512C221.731 93.4616 221.851 93.192 221.851 92.9091V51.2019Z" fill="white"/>
<path fill-rule="evenodd" clip-rule="evenodd" d="M220.851 50.7019H172.05C171.773 50.7019 171.55 50.9258 171.55 51.2019V99.9248C171.55 100.201 171.773 100.425 172.05 100.425H213.085C213.209 100.425 213.328 100.379 213.42 100.296L221.186 93.2802C221.291 93.1854 221.351 93.0505 221.351 92.9091V51.2019C221.351 50.9258 221.127 50.7019 220.851 50.7019ZM220.851 50.2019C221.403 50.2019 221.851 50.6496 221.851 51.2019V92.9091C221.851 93.192 221.731 93.4616 221.521 93.6512L213.755 100.667C213.571 100.833 213.332 100.925 213.085 100.925H172.05C171.497 100.925 171.05 100.477 171.05 99.9248V51.2019C171.05 50.6496 171.497 50.2019 172.05 50.2019H220.851Z" fill="#4C93E0"/>
<path fill-rule="evenodd" clip-rule="evenodd" d="M214.379 93.3248C213.965 93.3248 213.629 93.6606 213.629 94.0748V100.258H213.129V94.0748C213.129 93.3845 213.689 92.8248 214.379 92.8248H221.587V93.3248H214.379Z" fill="#4C93E0"/>
<path d="M182.671 59.8349H185.209C186.433 59.8349 187.045 60.4109 187.045 61.5629C187.045 61.9529 186.958 62.2769 186.784 62.5349C186.616 62.7869 186.391 62.9489 186.109 63.0209C186.427 63.0989 186.697 63.2729 186.919 63.5429C187.147 63.8069 187.261 64.1729 187.261 64.6409C187.261 65.3009 187.099 65.7719 186.775 66.0539C186.451 66.3359 185.965 66.4769 185.317 66.4769H182.671V59.8349ZM185.227 62.6429C185.455 62.6429 185.638 62.5589 185.776 62.3909C185.914 62.2229 185.983 61.9979 185.983 61.7159C185.983 61.1279 185.722 60.8339 185.2 60.8339H183.778V62.6429H185.227ZM185.281 65.4779C185.581 65.4779 185.809 65.3999 185.965 65.2439C186.121 65.0819 186.199 64.8179 186.199 64.4519C186.199 64.1579 186.112 63.9269 185.938 63.7589C185.77 63.5909 185.551 63.5069 185.281 63.5069H183.778V65.4779H185.281Z" fill="#00367A"/>
<path d="M189.728 66.4769C189.236 66.4769 188.864 66.3629 188.612 66.1349C188.366 65.9009 188.243 65.5199 188.243 64.9919V59.8349H189.35V64.8119C189.35 65.0579 189.407 65.2289 189.521 65.3249C189.641 65.4209 189.803 65.4689 190.007 65.4689H192.212V66.4769H189.728Z" fill="#00367A"/>
<path d="M195.509 66.5309C194.867 66.5309 194.357 66.4469 193.979 66.2789C193.601 66.1049 193.315 65.7779 193.123 65.2979C192.931 64.8119 192.835 64.1039 192.835 63.1739C192.835 62.2439 192.931 61.5329 193.123 61.0409C193.321 60.5489 193.61 60.2159 193.988 60.0419C194.366 59.8619 194.873 59.7719 195.509 59.7719C196.151 59.7719 196.66 59.8619 197.038 60.0419C197.422 60.2159 197.711 60.5489 197.903 61.0409C198.095 61.5269 198.191 62.2379 198.191 63.1739C198.191 64.1039 198.092 64.8119 197.894 65.2979C197.702 65.7779 197.416 66.1049 197.038 66.2789C196.666 66.4469 196.157 66.5309 195.509 66.5309ZM195.509 65.5319C195.923 65.5319 196.237 65.4719 196.453 65.3519C196.675 65.2319 196.835 65.0069 196.931 64.6769C197.027 64.3409 197.075 63.8399 197.075 63.1739C197.075 62.4839 197.024 61.9679 196.922 61.6259C196.826 61.2839 196.669 61.0559 196.453 60.9419C196.237 60.8279 195.923 60.7709 195.509 60.7709C195.107 60.7709 194.797 60.8309 194.582 60.9509C194.365 61.0649 194.206 61.2929 194.104 61.6349C194.002 61.9709 193.951 62.4839 193.951 63.1739C193.951 63.8459 193.997 64.3469 194.087 64.6769C194.183 65.0069 194.338 65.2319 194.554 65.3519C194.77 65.4719 195.089 65.5319 195.509 65.5319Z" fill="#00367A"/>
<path d="M201.478 66.5309C200.914 66.5309 200.464 66.4439 200.128 66.2699C199.792 66.0899 199.534 65.7539 199.354 65.2619C199.18 64.7699 199.093 64.0589 199.093 63.1289C199.093 62.2469 199.183 61.5629 199.363 61.0769C199.543 60.5849 199.807 60.2459 200.155 60.0599C200.503 59.8679 200.953 59.7719 201.505 59.7719C201.865 59.7719 202.225 59.8019 202.585 59.8619C202.951 59.9159 203.263 59.9819 203.521 60.0599V60.9149C203.341 60.8789 203.083 60.8459 202.747 60.8159C202.417 60.7859 202.078 60.7709 201.73 60.7709C201.334 60.7709 201.028 60.8339 200.812 60.9599C200.602 61.0799 200.449 61.3079 200.353 61.6439C200.257 61.9799 200.209 62.4809 200.209 63.1469C200.209 63.8129 200.254 64.3139 200.344 64.6499C200.434 64.9859 200.584 65.2169 200.794 65.3429C201.004 65.4689 201.313 65.5319 201.721 65.5319C202.405 65.5319 203.005 65.4989 203.521 65.4329V66.2879C202.975 66.4499 202.294 66.5309 201.478 66.5309Z" fill="#00367A"/>
<path d="M204.52 59.8349H205.627V62.6699H206.617L208.138 59.8349H209.326L207.499 63.1649L209.371 66.4769H208.183L206.608 63.6779H205.627V66.4769H204.52V59.8349Z" fill="#00367A"/>
<path d="M186.292 73.2019L190.535 77.4445L186.292 81.6872L182.05 77.4445L186.292 73.2019Z" fill="#4C93E0"/>
<path d="M197.292 73.2019L201.535 77.4445L197.292 81.6872L193.05 77.4445L197.292 73.2019Z" fill="#4C93E0"/>
<g filter="url(#filter2_d)">
<path d="M262.05 167.702C262.05 185.099 247.723 199.202 230.05 199.202C212.376 199.202 198.05 185.099 198.05 167.702C198.05 150.305 212.376 136.202 230.05 136.202C247.723 136.202 262.05 150.305 262.05 167.702Z" fill="#1959AA"/>
</g>
<path d="M223.344 161.936H225.648L230.076 175.202H228.186L227.016 171.728H221.94L220.788 175.202H218.916L223.344 161.936ZM226.566 170.09L224.478 163.502L222.372 170.09H226.566Z" fill="white"/>
<path d="M231.908 161.936H237.272C238.868 161.936 240.008 162.494 240.692 163.61C241.376 164.726 241.718 166.382 241.718 168.578C241.718 170.726 241.34 172.37 240.584 173.51C239.84 174.638 238.736 175.202 237.272 175.202H231.908V161.936ZM237.11 173.582C238.97 173.582 239.9 171.914 239.9 168.578C239.9 167.318 239.798 166.322 239.594 165.59C239.402 164.858 239.102 164.336 238.694 164.024C238.298 163.712 237.77 163.556 237.11 163.556H233.726V173.582H237.11Z" fill="white"/>
<path fill-rule="evenodd" clip-rule="evenodd" d="M293.851 175.202C293.851 174.65 293.403 174.202 292.851 174.202H244.05C243.497 174.202 243.05 174.65 243.05 175.202V223.925C243.05 224.477 243.497 224.925 244.05 224.925H285.085C285.332 224.925 285.571 224.833 285.755 224.667L293.521 217.651C293.731 217.462 293.851 217.192 293.851 216.909V175.202Z" fill="white"/>
<path fill-rule="evenodd" clip-rule="evenodd" d="M292.851 174.702H244.05C243.773 174.702 243.55 174.926 243.55 175.202V223.925C243.55 224.201 243.773 224.425 244.05 224.425H285.085C285.209 224.425 285.328 224.379 285.42 224.296L293.186 217.28C293.291 217.185 293.351 217.051 293.351 216.909V175.202C293.351 174.926 293.127 174.702 292.851 174.702ZM292.851 174.202C293.403 174.202 293.851 174.65 293.851 175.202V216.909C293.851 217.192 293.731 217.462 293.521 217.651L285.755 224.667C285.571 224.833 285.332 224.925 285.085 224.925H244.05C243.497 224.925 243.05 224.477 243.05 223.925V175.202C243.05 174.65 243.497 174.202 244.05 174.202H292.851Z" fill="#4C93E0"/>
<path fill-rule="evenodd" clip-rule="evenodd" d="M286.379 217.325C285.965 217.325 285.629 217.661 285.629 218.075V224.258H285.129V218.075C285.129 217.384 285.689 216.825 286.379 216.825H293.587V217.325H286.379Z" fill="#4C93E0"/>
<path d="M254.671 183.835H257.209C258.433 183.835 259.045 184.411 259.045 185.563C259.045 185.953 258.958 186.277 258.784 186.535C258.616 186.787 258.391 186.949 258.109 187.021C258.427 187.099 258.697 187.273 258.919 187.543C259.147 187.807 259.261 188.173 259.261 188.641C259.261 189.301 259.099 189.772 258.775 190.054C258.451 190.336 257.965 190.477 257.317 190.477H254.671V183.835ZM257.227 186.643C257.455 186.643 257.638 186.559 257.776 186.391C257.914 186.223 257.983 185.998 257.983 185.716C257.983 185.128 257.722 184.834 257.2 184.834H255.778V186.643H257.227ZM257.281 189.478C257.581 189.478 257.809 189.4 257.965 189.244C258.121 189.082 258.199 188.818 258.199 188.452C258.199 188.158 258.112 187.927 257.938 187.759C257.77 187.591 257.551 187.507 257.281 187.507H255.778V189.478H257.281Z" fill="#00367A"/>
<path d="M261.728 190.477C261.236 190.477 260.864 190.363 260.612 190.135C260.366 189.901 260.243 189.52 260.243 188.992V183.835H261.35V188.812C261.35 189.058 261.407 189.229 261.521 189.325C261.641 189.421 261.803 189.469 262.007 189.469H264.212V190.477H261.728Z" fill="#00367A"/>
<path d="M267.509 190.531C266.867 190.531 266.357 190.447 265.979 190.279C265.601 190.105 265.315 189.778 265.123 189.298C264.931 188.812 264.835 188.104 264.835 187.174C264.835 186.244 264.931 185.533 265.123 185.041C265.321 184.549 265.61 184.216 265.988 184.042C266.366 183.862 266.873 183.772 267.509 183.772C268.151 183.772 268.66 183.862 269.038 184.042C269.422 184.216 269.711 184.549 269.903 185.041C270.095 185.527 270.191 186.238 270.191 187.174C270.191 188.104 270.092 188.812 269.894 189.298C269.702 189.778 269.416 190.105 269.038 190.279C268.666 190.447 268.157 190.531 267.509 190.531ZM267.509 189.532C267.923 189.532 268.237 189.472 268.453 189.352C268.675 189.232 268.835 189.007 268.931 188.677C269.027 188.341 269.075 187.84 269.075 187.174C269.075 186.484 269.024 185.968 268.922 185.626C268.826 185.284 268.669 185.056 268.453 184.942C268.237 184.828 267.923 184.771 267.509 184.771C267.107 184.771 266.797 184.831 266.582 184.951C266.365 185.065 266.206 185.293 266.104 185.635C266.002 185.971 265.951 186.484 265.951 187.174C265.951 187.846 265.997 188.347 266.087 188.677C266.183 189.007 266.338 189.232 266.554 189.352C266.77 189.472 267.089 189.532 267.509 189.532Z" fill="#00367A"/>
<path d="M273.478 190.531C272.914 190.531 272.464 190.444 272.128 190.27C271.792 190.09 271.534 189.754 271.354 189.262C271.18 188.77 271.093 188.059 271.093 187.129C271.093 186.247 271.183 185.563 271.363 185.077C271.543 184.585 271.807 184.246 272.155 184.06C272.503 183.868 272.953 183.772 273.505 183.772C273.865 183.772 274.225 183.802 274.585 183.862C274.951 183.916 275.263 183.982 275.521 184.06V184.915C275.341 184.879 275.083 184.846 274.747 184.816C274.417 184.786 274.078 184.771 273.73 184.771C273.334 184.771 273.028 184.834 272.812 184.96C272.602 185.08 272.449 185.308 272.353 185.644C272.257 185.98 272.209 186.481 272.209 187.147C272.209 187.813 272.254 188.314 272.344 188.65C272.434 188.986 272.584 189.217 272.794 189.343C273.004 189.469 273.313 189.532 273.721 189.532C274.405 189.532 275.005 189.499 275.521 189.433V190.288C274.975 190.45 274.294 190.531 273.478 190.531Z" fill="#00367A"/>
<path d="M276.52 183.835H277.627V186.67H278.617L280.138 183.835H281.326L279.499 187.165L281.371 190.477H280.183L278.608 187.678H277.627V190.477H276.52V183.835Z" fill="#00367A"/>
<path d="M258.292 197.202L262.535 201.445L258.292 205.687L254.05 201.445L258.292 197.202Z" fill="#4C93E0"/>
<path d="M269.292 197.202L273.535 201.445L269.292 205.687L265.05 201.445L269.292 197.202Z" fill="#4C93E0"/>
<path d="M280.292 197.202L284.535 201.445L280.292 205.687L276.05 201.445L280.292 197.202Z" fill="#4C93E0"/>
<g filter="url(#filter3_d)">
<path d="M200.049 258.702C200.049 276.099 185.722 290.202 168.049 290.202C150.376 290.202 136.049 276.099 136.049 258.702C136.049 241.305 150.376 227.202 168.049 227.202C185.722 227.202 200.049 241.305 200.049 258.702Z" fill="#1959AA"/>
</g>
<path d="M161.344 252.936H163.648L168.076 266.202H166.186L165.016 262.728H159.94L158.788 266.202H156.916L161.344 252.936ZM164.566 261.09L162.478 254.502L160.372 261.09H164.566Z" fill="white"/>
<path d="M169.907 252.936H175.271C176.867 252.936 178.007 253.494 178.691 254.61C179.375 255.726 179.717 257.382 179.717 259.578C179.717 261.726 179.339 263.37 178.583 264.51C177.839 265.638 176.735 266.202 175.271 266.202H169.907V252.936ZM175.109 264.582C176.969 264.582 177.899 262.914 177.899 259.578C177.899 258.318 177.797 257.322 177.593 256.59C177.401 255.858 177.101 255.336 176.693 255.024C176.297 254.712 175.769 254.556 175.109 254.556H171.725V264.582H175.109Z" fill="white"/>
<path fill-rule="evenodd" clip-rule="evenodd" d="M231.851 266.202C231.851 265.65 231.403 265.202 230.851 265.202H182.049C181.497 265.202 181.049 265.65 181.049 266.202V314.925C181.049 315.477 181.497 315.925 182.049 315.925H223.084C223.332 315.925 223.571 315.833 223.755 315.667L231.521 308.651C231.731 308.462 231.851 308.192 231.851 307.909V266.202Z" fill="white"/>
<path fill-rule="evenodd" clip-rule="evenodd" d="M230.851 265.702H182.049C181.773 265.702 181.549 265.926 181.549 266.202V314.925C181.549 315.201 181.773 315.425 182.049 315.425H223.084C223.208 315.425 223.328 315.379 223.42 315.296L231.186 308.28C231.291 308.185 231.351 308.051 231.351 307.909V266.202C231.351 265.926 231.127 265.702 230.851 265.702ZM230.851 265.202C231.403 265.202 231.851 265.65 231.851 266.202V307.909C231.851 308.192 231.731 308.462 231.521 308.651L223.755 315.667C223.571 315.833 223.332 315.925 223.084 315.925H182.049C181.497 315.925 181.049 315.477 181.049 314.925V266.202C181.049 265.65 181.497 265.202 182.049 265.202H230.851Z" fill="#4C93E0"/>
<path fill-rule="evenodd" clip-rule="evenodd" d="M224.379 308.325C223.965 308.325 223.629 308.661 223.629 309.075V315.258H223.129V309.075C223.129 308.384 223.689 307.825 224.379 307.825H231.587V308.325H224.379Z" fill="#4C93E0"/>
<path d="M192.67 274.835H195.208C196.432 274.835 197.044 275.411 197.044 276.563C197.044 276.953 196.957 277.277 196.783 277.535C196.615 277.787 196.39 277.949 196.108 278.021C196.426 278.099 196.696 278.273 196.918 278.543C197.146 278.807 197.26 279.173 197.26 279.641C197.26 280.301 197.098 280.772 196.774 281.054C196.45 281.336 195.964 281.477 195.316 281.477H192.67V274.835ZM195.226 277.643C195.454 277.643 195.637 277.559 195.775 277.391C195.913 277.223 195.982 276.998 195.982 276.716C195.982 276.128 195.721 275.834 195.199 275.834H193.777V277.643H195.226ZM195.28 280.478C195.58 280.478 195.808 280.4 195.964 280.244C196.12 280.082 196.198 279.818 196.198 279.452C196.198 279.158 196.111 278.927 195.937 278.759C195.769 278.591 195.55 278.507 195.28 278.507H193.777V280.478H195.28Z" fill="#00367A"/>
<path d="M199.727 281.477C199.235 281.477 198.863 281.363 198.611 281.135C198.365 280.901 198.242 280.52 198.242 279.992V274.835H199.349V279.812C199.349 280.058 199.406 280.229 199.52 280.325C199.64 280.421 199.802 280.469 200.006 280.469H202.211V281.477H199.727Z" fill="#00367A"/>
<path d="M205.508 281.531C204.866 281.531 204.356 281.447 203.978 281.279C203.6 281.105 203.315 280.778 203.123 280.298C202.931 279.812 202.835 279.104 202.835 278.174C202.835 277.244 202.931 276.533 203.123 276.041C203.321 275.549 203.609 275.216 203.987 275.042C204.365 274.862 204.872 274.772 205.508 274.772C206.15 274.772 206.66 274.862 207.038 275.042C207.422 275.216 207.71 275.549 207.902 276.041C208.094 276.527 208.19 277.238 208.19 278.174C208.19 279.104 208.091 279.812 207.893 280.298C207.701 280.778 207.416 281.105 207.038 281.279C206.666 281.447 206.156 281.531 205.508 281.531ZM205.508 280.532C205.922 280.532 206.237 280.472 206.453 280.352C206.675 280.232 206.834 280.007 206.93 279.677C207.026 279.341 207.074 278.84 207.074 278.174C207.074 277.484 207.023 276.968 206.921 276.626C206.825 276.284 206.669 276.056 206.453 275.942C206.237 275.828 205.922 275.771 205.508 275.771C205.106 275.771 204.797 275.831 204.581 275.951C204.365 276.065 204.206 276.293 204.104 276.635C204.002 276.971 203.951 277.484 203.951 278.174C203.951 278.846 203.996 279.347 204.086 279.677C204.182 280.007 204.338 280.232 204.554 280.352C204.77 280.472 205.088 280.532 205.508 280.532Z" fill="#00367A"/>
<path d="M211.478 281.531C210.914 281.531 210.464 281.444 210.128 281.27C209.792 281.09 209.534 280.754 209.354 280.262C209.18 279.77 209.093 279.059 209.093 278.129C209.093 277.247 209.183 276.563 209.363 276.077C209.543 275.585 209.807 275.246 210.155 275.06C210.503 274.868 210.953 274.772 211.505 274.772C211.865 274.772 212.225 274.802 212.585 274.862C212.951 274.916 213.263 274.982 213.521 275.06V275.915C213.341 275.879 213.083 275.846 212.747 275.816C212.417 275.786 212.078 275.771 211.73 275.771C211.334 275.771 211.028 275.834 210.812 275.96C210.602 276.08 210.449 276.308 210.353 276.644C210.257 276.98 210.209 277.481 210.209 278.147C210.209 278.813 210.254 279.314 210.344 279.65C210.434 279.986 210.584 280.217 210.794 280.343C211.004 280.469 211.313 280.532 211.721 280.532C212.405 280.532 213.005 280.499 213.521 280.433V281.288C212.975 281.45 212.294 281.531 211.478 281.531Z" fill="#00367A"/>
<path d="M214.52 274.835H215.627V277.67H216.617L218.138 274.835H219.326L217.499 278.165L219.371 281.477H218.183L216.608 278.678H215.627V281.477H214.52V274.835Z" fill="#00367A"/>
<path d="M196.292 288.202L200.534 292.445L196.292 296.687L192.049 292.445L196.292 288.202Z" fill="#4C93E0"/>
<path d="M207.292 288.202L211.534 292.445L207.292 296.687L203.049 292.445L207.292 288.202Z" fill="#4C93E0"/>
<path d="M218.292 288.202L222.534 292.445L218.292 296.687L214.049 292.445L218.292 288.202Z" fill="#4C93E0"/>
<path d="M196.292 299.202L200.534 303.445L196.292 307.687L192.049 303.445L196.292 299.202Z" fill="#4C93E0"/>
<g filter="url(#filter4_d)">
<path d="M330.05 80.7019C330.05 98.0989 315.723 112.202 298.05 112.202C280.376 112.202 266.05 98.0989 266.05 80.7019C266.05 63.3049 280.376 49.2019 298.05 49.2019C315.723 49.2019 330.05 63.3049 330.05 80.7019Z" fill="#1959AA"/>
</g>
<path d="M291.344 74.9359H293.648L298.076 88.2019H296.186L295.016 84.7279H289.94L288.788 88.2019H286.916L291.344 74.9359ZM294.566 83.0899L292.478 76.5019L290.372 83.0899H294.566Z" fill="white"/>
<path d="M299.908 74.9359H305.272C306.868 74.9359 308.008 75.4939 308.692 76.6099C309.376 77.7259 309.718 79.3819 309.718 81.5779C309.718 83.7259 309.34 85.3699 308.584 86.5099C307.84 87.6379 306.736 88.2019 305.272 88.2019H299.908V74.9359ZM305.11 86.5819C306.97 86.5819 307.9 84.9139 307.9 81.5779C307.9 80.3179 307.798 79.3219 307.594 78.5899C307.402 77.8579 307.102 77.3359 306.694 77.0239C306.298 76.7119 305.77 76.5559 305.11 76.5559H301.726V86.5819H305.11Z" fill="white"/>
<path fill-rule="evenodd" clip-rule="evenodd" d="M361.851 88.2019C361.851 87.6496 361.403 87.2019 360.851 87.2019H312.05C311.497 87.2019 311.05 87.6496 311.05 88.2019V136.925C311.05 137.477 311.497 137.925 312.05 137.925H353.085C353.332 137.925 353.571 137.833 353.755 137.667L361.521 130.651C361.731 130.462 361.851 130.192 361.851 129.909V88.2019Z" fill="white"/>
<path fill-rule="evenodd" clip-rule="evenodd" d="M360.851 87.7019H312.05C311.773 87.7019 311.55 87.9258 311.55 88.2019V136.925C311.55 137.201 311.773 137.425 312.05 137.425H353.085C353.209 137.425 353.328 137.379 353.42 137.296L361.186 130.28C361.291 130.185 361.351 130.051 361.351 129.909V88.2019C361.351 87.9258 361.127 87.7019 360.851 87.7019ZM360.851 87.2019C361.403 87.2019 361.851 87.6496 361.851 88.2019V129.909C361.851 130.192 361.731 130.462 361.521 130.651L353.755 137.667C353.571 137.833 353.332 137.925 353.085 137.925H312.05C311.497 137.925 311.05 137.477 311.05 136.925V88.2019C311.05 87.6496 311.497 87.2019 312.05 87.2019H360.851Z" fill="#4C93E0"/>
<path fill-rule="evenodd" clip-rule="evenodd" d="M354.379 130.325C353.965 130.325 353.629 130.661 353.629 131.075V137.258H353.129V131.075C353.129 130.384 353.689 129.825 354.379 129.825H361.587V130.325H354.379Z" fill="#4C93E0"/>
<path d="M322.671 96.8349H325.209C326.433 96.8349 327.045 97.4109 327.045 98.5629C327.045 98.9529 326.958 99.2769 326.784 99.5349C326.616 99.7869 326.391 99.9489 326.109 100.021C326.427 100.099 326.697 100.273 326.919 100.543C327.147 100.807 327.261 101.173 327.261 101.641C327.261 102.301 327.099 102.772 326.775 103.054C326.451 103.336 325.965 103.477 325.317 103.477H322.671V96.8349ZM325.227 99.6429C325.455 99.6429 325.638 99.5589 325.776 99.3909C325.914 99.2229 325.983 98.9979 325.983 98.7159C325.983 98.1279 325.722 97.8339 325.2 97.8339H323.778V99.6429H325.227ZM325.281 102.478C325.581 102.478 325.809 102.4 325.965 102.244C326.121 102.082 326.199 101.818 326.199 101.452C326.199 101.158 326.112 100.927 325.938 100.759C325.77 100.591 325.551 100.507 325.281 100.507H323.778V102.478H325.281Z" fill="#00367A"/>
<path d="M329.728 103.477C329.236 103.477 328.864 103.363 328.612 103.135C328.366 102.901 328.243 102.52 328.243 101.992V96.8349H329.35V101.812C329.35 102.058 329.407 102.229 329.521 102.325C329.641 102.421 329.803 102.469 330.007 102.469H332.212V103.477H329.728Z" fill="#00367A"/>
<path d="M335.509 103.531C334.867 103.531 334.357 103.447 333.979 103.279C333.601 103.105 333.315 102.778 333.123 102.298C332.931 101.812 332.835 101.104 332.835 100.174C332.835 99.2439 332.931 98.5329 333.123 98.0409C333.321 97.5489 333.61 97.2159 333.988 97.0419C334.366 96.8619 334.873 96.7719 335.509 96.7719C336.151 96.7719 336.66 96.8619 337.038 97.0419C337.422 97.2159 337.711 97.5489 337.903 98.0409C338.095 98.5269 338.191 99.2379 338.191 100.174C338.191 101.104 338.092 101.812 337.894 102.298C337.702 102.778 337.416 103.105 337.038 103.279C336.666 103.447 336.157 103.531 335.509 103.531ZM335.509 102.532C335.923 102.532 336.237 102.472 336.453 102.352C336.675 102.232 336.835 102.007 336.931 101.677C337.027 101.341 337.075 100.84 337.075 100.174C337.075 99.4839 337.024 98.9679 336.922 98.6259C336.826 98.2839 336.669 98.0559 336.453 97.9419C336.237 97.8279 335.923 97.7709 335.509 97.7709C335.107 97.7709 334.797 97.8309 334.582 97.9509C334.365 98.0649 334.206 98.2929 334.104 98.6349C334.002 98.9709 333.951 99.4839 333.951 100.174C333.951 100.846 333.997 101.347 334.087 101.677C334.183 102.007 334.338 102.232 334.554 102.352C334.77 102.472 335.089 102.532 335.509 102.532Z" fill="#00367A"/>
<path d="M341.478 103.531C340.914 103.531 340.464 103.444 340.128 103.27C339.792 103.09 339.534 102.754 339.354 102.262C339.18 101.77 339.093 101.059 339.093 100.129C339.093 99.2469 339.183 98.5629 339.363 98.0769C339.543 97.5849 339.807 97.2459 340.155 97.0599C340.503 96.8679 340.953 96.7719 341.505 96.7719C341.865 96.7719 342.225 96.8019 342.585 96.8619C342.951 96.9159 343.263 96.9819 343.521 97.0599V97.9149C343.341 97.8789 343.083 97.8459 342.747 97.8159C342.417 97.7859 342.078 97.7709 341.73 97.7709C341.334 97.7709 341.028 97.8339 340.812 97.9599C340.602 98.0799 340.449 98.3079 340.353 98.6439C340.257 98.9799 340.209 99.4809 340.209 100.147C340.209 100.813 340.254 101.314 340.344 101.65C340.434 101.986 340.584 102.217 340.794 102.343C341.004 102.469 341.313 102.532 341.721 102.532C342.405 102.532 343.005 102.499 343.521 102.433V103.288C342.975 103.45 342.294 103.531 341.478 103.531Z" fill="#00367A"/>
<path d="M344.52 96.8349H345.627V99.6699H346.617L348.138 96.8349H349.326L347.499 100.165L349.371 103.477H348.183L346.608 100.678H345.627V103.477H344.52V96.8349Z" fill="#00367A"/>
<path d="M326.292 110.202L330.535 114.445L326.292 118.687L322.05 114.445L326.292 110.202Z" fill="#4C93E0"/>
<g filter="url(#filter5_d)">
<path d="M419.057 275.782C419.057 289.053 408.299 299.811 395.029 299.811C381.758 299.811 371 289.053 371 275.782C371 262.511 381.758 251.753 395.029 251.753C408.299 251.753 419.057 262.511 419.057 275.782Z" fill="#4C93E0"/>
</g>
<path d="M390.512 269.487H391.988L398.486 279.657V269.487H400.286V282.753H398.828L392.33 272.583V282.753H390.512V269.487Z" fill="white"/>
<path fill-rule="evenodd" clip-rule="evenodd" d="M438.43 282.591C438.43 282.039 437.982 281.591 437.43 281.591H403.43C402.877 281.591 402.43 282.039 402.43 282.591V317.65C402.43 318.203 402.877 318.65 403.43 318.65H432.097C432.35 318.65 432.593 318.554 432.778 318.382L438.111 313.415C438.314 313.226 438.43 312.961 438.43 312.683V282.591Z" fill="white"/>
<path fill-rule="evenodd" clip-rule="evenodd" d="M437.43 282.091H403.43C403.153 282.091 402.93 282.315 402.93 282.591V317.65C402.93 317.926 403.153 318.15 403.43 318.15H432.097C432.223 318.15 432.345 318.102 432.437 318.016L437.77 313.049C437.872 312.955 437.93 312.822 437.93 312.683V282.591C437.93 282.315 437.706 282.091 437.43 282.091ZM437.43 281.591C437.982 281.591 438.43 282.039 438.43 282.591V312.683C438.43 312.961 438.314 313.226 438.111 313.415L432.778 318.382C432.593 318.554 432.35 318.65 432.097 318.65H403.43C402.877 318.65 402.43 318.203 402.43 317.65V282.591C402.43 282.039 402.877 281.591 403.43 281.591H437.43Z" fill="#4C93E0"/>
<path fill-rule="evenodd" clip-rule="evenodd" d="M433.426 313.165C433.012 313.165 432.676 313.501 432.676 313.915V318.163H432.176V313.915C432.176 313.225 432.736 312.665 433.426 312.665H438.243V313.165H433.426Z" fill="#4C93E0"/>
<path d="M409.913 290.7H411.887C412.839 290.7 413.315 291.148 413.315 292.044C413.315 292.348 413.247 292.6 413.112 292.8C412.981 292.996 412.806 293.122 412.587 293.178C412.834 293.239 413.044 293.374 413.217 293.584C413.394 293.79 413.483 294.074 413.483 294.438C413.483 294.952 413.357 295.318 413.105 295.537C412.853 295.757 412.475 295.866 411.971 295.866H409.913V290.7ZM411.901 292.884C412.078 292.884 412.22 292.819 412.328 292.688C412.435 292.558 412.489 292.383 412.489 292.163C412.489 291.706 412.286 291.477 411.88 291.477H410.774V292.884H411.901ZM411.943 295.089C412.176 295.089 412.353 295.029 412.475 294.907C412.596 294.781 412.657 294.576 412.657 294.291C412.657 294.063 412.589 293.883 412.454 293.752C412.323 293.622 412.153 293.556 411.943 293.556H410.774V295.089H411.943Z" fill="#00367A"/>
<path d="M415.402 295.866C415.019 295.866 414.73 295.778 414.534 295.6C414.342 295.418 414.247 295.122 414.247 294.711V290.7H415.108V294.571C415.108 294.763 415.152 294.896 415.241 294.97C415.334 295.045 415.46 295.082 415.619 295.082H417.334V295.866H415.402Z" fill="#00367A"/>
<path d="M419.898 295.908C419.398 295.908 419.002 295.843 418.708 295.712C418.414 295.577 418.192 295.323 418.043 294.949C417.893 294.571 417.819 294.021 417.819 293.297C417.819 292.574 417.893 292.021 418.043 291.638C418.197 291.256 418.421 290.997 418.715 290.861C419.009 290.721 419.403 290.651 419.898 290.651C420.397 290.651 420.794 290.721 421.088 290.861C421.386 290.997 421.61 291.256 421.76 291.638C421.909 292.016 421.984 292.569 421.984 293.297C421.984 294.021 421.907 294.571 421.753 294.949C421.603 295.323 421.382 295.577 421.088 295.712C420.798 295.843 420.402 295.908 419.898 295.908ZM419.898 295.131C420.22 295.131 420.465 295.085 420.633 294.991C420.805 294.898 420.929 294.723 421.004 294.466C421.078 294.205 421.116 293.815 421.116 293.297C421.116 292.761 421.076 292.359 420.997 292.093C420.922 291.827 420.801 291.65 420.633 291.561C420.465 291.473 420.22 291.428 419.898 291.428C419.585 291.428 419.345 291.475 419.177 291.568C419.009 291.657 418.885 291.834 418.806 292.1C418.726 292.362 418.687 292.761 418.687 293.297C418.687 293.82 418.722 294.21 418.792 294.466C418.866 294.723 418.988 294.898 419.156 294.991C419.324 295.085 419.571 295.131 419.898 295.131Z" fill="#00367A"/>
<path d="M424.541 295.908C424.102 295.908 423.752 295.841 423.491 295.705C423.229 295.565 423.029 295.304 422.889 294.921C422.753 294.539 422.686 293.986 422.686 293.262C422.686 292.576 422.756 292.044 422.896 291.666C423.036 291.284 423.241 291.02 423.512 290.875C423.782 290.726 424.132 290.651 424.562 290.651C424.842 290.651 425.122 290.675 425.402 290.721C425.686 290.763 425.929 290.815 426.13 290.875V291.54C425.99 291.512 425.789 291.487 425.528 291.463C425.271 291.44 425.007 291.428 424.737 291.428C424.429 291.428 424.191 291.477 424.023 291.575C423.859 291.669 423.74 291.846 423.666 292.107C423.591 292.369 423.554 292.758 423.554 293.276C423.554 293.794 423.589 294.184 423.659 294.445C423.729 294.707 423.845 294.886 424.009 294.984C424.172 295.082 424.412 295.131 424.73 295.131C425.262 295.131 425.728 295.106 426.13 295.054V295.719C425.705 295.845 425.175 295.908 424.541 295.908Z" fill="#00367A"/>
<path d="M426.907 290.7H427.768V292.905H428.538L429.721 290.7H430.645L429.224 293.29L430.68 295.866H429.756L428.531 293.689H427.768V295.866H426.907V290.7Z" fill="#00367A"/>
<path d="M412.258 299.591L415.086 302.42L412.258 305.248L409.43 302.42L412.258 299.591Z" fill="#4C93E0"/>
<path d="M420.689 299.591L423.518 302.42L420.689 305.248L417.861 302.42L420.689 299.591Z" fill="#4C93E0"/>
<path d="M428.689 299.591L431.518 302.42L428.689 305.248L425.861 302.42L428.689 299.591Z" fill="#4C93E0"/>
<path d="M412.258 307.591L415.086 310.42L412.258 313.248L409.43 310.42L412.258 307.591Z" fill="#4C93E0"/>
<g filter="url(#filter6_d)">
<path d="M474.057 183.779C474.057 197.049 463.299 207.807 450.029 207.807C436.758 207.807 426 197.049 426 183.779C426 170.508 436.758 159.75 450.029 159.75C463.299 159.75 474.057 170.508 474.057 183.779Z" fill="#4C93E0"/>
</g>
<path d="M444.512 177.484H445.988L452.486 187.654V177.484H454.286V190.75H452.828L446.33 180.58V190.75H444.512V177.484Z" fill="white"/>
<path fill-rule="evenodd" clip-rule="evenodd" d="M493 190.588C493 190.036 492.552 189.588 492 189.588H458C457.448 189.588 457 190.036 457 190.588V225.647C457 226.199 457.448 226.647 458 226.647H486.667C486.92 226.647 487.163 226.551 487.349 226.379L492.682 221.412C492.885 221.223 493 220.957 493 220.68V190.588Z" fill="white"/>
<path fill-rule="evenodd" clip-rule="evenodd" d="M492 190.088H458C457.724 190.088 457.5 190.312 457.5 190.588V225.647C457.5 225.923 457.724 226.147 458 226.147H486.667C486.793 226.147 486.915 226.099 487.008 226.013L492.341 221.046C492.442 220.951 492.5 220.819 492.5 220.68V190.588C492.5 190.312 492.276 190.088 492 190.088ZM492 189.588C492.552 189.588 493 190.036 493 190.588V220.68C493 220.957 492.885 221.223 492.682 221.412L487.349 226.379C487.163 226.551 486.92 226.647 486.667 226.647H458C457.448 226.647 457 226.199 457 225.647V190.588C457 190.036 457.448 189.588 458 189.588H492Z" fill="#4C93E0"/>
<path fill-rule="evenodd" clip-rule="evenodd" d="M487.997 221.162C487.582 221.162 487.247 221.497 487.247 221.912V226.16H486.747V221.912C486.747 221.221 487.306 220.662 487.997 220.662H492.813V221.162H487.997Z" fill="#4C93E0"/>
<path d="M464.483 198.697H466.457C467.409 198.697 467.885 199.145 467.885 200.041C467.885 200.344 467.817 200.596 467.682 200.797C467.551 200.993 467.376 201.119 467.157 201.175C467.404 201.235 467.614 201.371 467.787 201.581C467.964 201.786 468.053 202.071 468.053 202.435C468.053 202.948 467.927 203.314 467.675 203.534C467.423 203.753 467.045 203.863 466.541 203.863H464.483V198.697ZM466.471 200.881C466.648 200.881 466.791 200.815 466.898 200.685C467.005 200.554 467.059 200.379 467.059 200.16C467.059 199.702 466.856 199.474 466.45 199.474H465.344V200.881H466.471ZM466.513 203.086C466.746 203.086 466.924 203.025 467.045 202.904C467.166 202.778 467.227 202.572 467.227 202.288C467.227 202.059 467.159 201.879 467.024 201.749C466.893 201.618 466.723 201.553 466.513 201.553H465.344V203.086H466.513Z" fill="#00367A"/>
<path d="M469.972 203.863C469.589 203.863 469.3 203.774 469.104 203.597C468.913 203.415 468.817 203.118 468.817 202.708V198.697H469.678V202.568C469.678 202.759 469.722 202.892 469.811 202.967C469.904 203.041 470.03 203.079 470.189 203.079H471.904V203.863H469.972Z" fill="#00367A"/>
<path d="M474.468 203.905C473.969 203.905 473.572 203.839 473.278 203.709C472.984 203.573 472.762 203.319 472.613 202.946C472.464 202.568 472.389 202.017 472.389 201.294C472.389 200.57 472.464 200.017 472.613 199.635C472.767 199.252 472.991 198.993 473.285 198.858C473.579 198.718 473.973 198.648 474.468 198.648C474.967 198.648 475.364 198.718 475.658 198.858C475.957 198.993 476.181 199.252 476.33 199.635C476.479 200.013 476.554 200.566 476.554 201.294C476.554 202.017 476.477 202.568 476.323 202.946C476.174 203.319 475.952 203.573 475.658 203.709C475.369 203.839 474.972 203.905 474.468 203.905ZM474.468 203.128C474.79 203.128 475.035 203.081 475.203 202.988C475.376 202.894 475.499 202.719 475.574 202.463C475.649 202.201 475.686 201.812 475.686 201.294C475.686 200.757 475.646 200.356 475.567 200.09C475.492 199.824 475.371 199.646 475.203 199.558C475.035 199.469 474.79 199.425 474.468 199.425C474.155 199.425 473.915 199.471 473.747 199.565C473.579 199.653 473.455 199.831 473.376 200.097C473.297 200.358 473.257 200.757 473.257 201.294C473.257 201.816 473.292 202.206 473.362 202.463C473.437 202.719 473.558 202.894 473.726 202.988C473.894 203.081 474.141 203.128 474.468 203.128Z" fill="#00367A"/>
<path d="M479.111 203.905C478.673 203.905 478.323 203.837 478.061 203.702C477.8 203.562 477.599 203.3 477.459 202.918C477.324 202.535 477.256 201.982 477.256 201.259C477.256 200.573 477.326 200.041 477.466 199.663C477.606 199.28 477.812 199.016 478.082 198.872C478.353 198.722 478.703 198.648 479.132 198.648C479.412 198.648 479.692 198.671 479.972 198.718C480.257 198.76 480.5 198.811 480.7 198.872V199.537C480.56 199.509 480.36 199.483 480.098 199.46C479.842 199.436 479.578 199.425 479.307 199.425C478.999 199.425 478.761 199.474 478.593 199.572C478.43 199.665 478.311 199.842 478.236 200.104C478.162 200.365 478.124 200.755 478.124 201.273C478.124 201.791 478.159 202.18 478.229 202.442C478.299 202.703 478.416 202.883 478.579 202.981C478.743 203.079 478.983 203.128 479.3 203.128C479.832 203.128 480.299 203.102 480.7 203.051V203.716C480.276 203.842 479.746 203.905 479.111 203.905Z" fill="#00367A"/>
<path d="M481.477 198.697H482.338V200.902H483.108L484.291 198.697H485.215L483.794 201.287L485.25 203.863H484.326L483.101 201.686H482.338V203.863H481.477V198.697Z" fill="#00367A"/>
<path d="M466.828 207.588L469.657 210.416L466.828 213.245L464 210.416L466.828 207.588Z" fill="#4C93E0"/>
<path d="M475.26 207.588L478.088 210.416L475.26 213.245L472.431 210.416L475.26 207.588Z" fill="#4C93E0"/>
<path d="M483.26 207.588L486.088 210.416L483.26 213.245L480.431 210.416L483.26 207.588Z" fill="#4C93E0"/>
<path d="M466.828 215.588L469.657 218.416L466.828 221.245L464 218.416L466.828 215.588Z" fill="#4C93E0"/>
<g filter="url(#filter7_d)">
<path d="M460.057 100.144C460.057 113.414 449.299 124.172 436.029 124.172C422.758 124.172 412 113.414 412 100.144C412 86.873 422.758 76.115 436.029 76.115C449.299 76.115 460.057 86.873 460.057 100.144Z" fill="#4C93E0"/>
</g>
<path d="M431.512 93.849H432.988L439.486 104.019V93.849H441.286V107.115H439.828L433.33 96.945V107.115H431.512V93.849Z" fill="white"/>
<path fill-rule="evenodd" clip-rule="evenodd" d="M479.397 106.953C479.397 106.401 478.949 105.953 478.397 105.953H444.397C443.845 105.953 443.397 106.401 443.397 106.953V142.012C443.397 142.564 443.845 143.012 444.397 143.012H473.064C473.317 143.012 473.561 142.916 473.746 142.744L479.079 137.777C479.282 137.588 479.397 137.322 479.397 137.045V106.953Z" fill="white"/>
<path fill-rule="evenodd" clip-rule="evenodd" d="M478.397 106.453H444.397C444.121 106.453 443.897 106.677 443.897 106.953V142.012C443.897 142.288 444.121 142.512 444.397 142.512H473.064C473.191 142.512 473.312 142.464 473.405 142.378L478.738 137.411C478.839 137.316 478.897 137.184 478.897 137.045V106.953C478.897 106.677 478.673 106.453 478.397 106.453ZM478.397 105.953C478.949 105.953 479.397 106.401 479.397 106.953V137.045C479.397 137.322 479.282 137.588 479.079 137.777L473.746 142.744C473.561 142.916 473.317 143.012 473.064 143.012H444.397C443.845 143.012 443.397 142.564 443.397 142.012V106.953C443.397 106.401 443.845 105.953 444.397 105.953H478.397Z" fill="#4C93E0"/>
<path fill-rule="evenodd" clip-rule="evenodd" d="M474.394 137.527C473.98 137.527 473.644 137.862 473.644 138.277V142.525H473.144V138.277C473.144 137.586 473.703 137.027 474.394 137.027H479.21V137.527H474.394Z" fill="#4C93E0"/>
<path d="M450.88 115.062H452.854C453.806 115.062 454.282 115.51 454.282 116.406C454.282 116.709 454.214 116.961 454.079 117.162C453.948 117.358 453.773 117.484 453.554 117.54C453.801 117.6 454.011 117.736 454.184 117.946C454.361 118.151 454.45 118.436 454.45 118.8C454.45 119.313 454.324 119.679 454.072 119.899C453.82 120.118 453.442 120.228 452.938 120.228H450.88V115.062ZM452.868 117.246C453.045 117.246 453.188 117.18 453.295 117.05C453.402 116.919 453.456 116.744 453.456 116.525C453.456 116.067 453.253 115.839 452.847 115.839H451.741V117.246H452.868ZM452.91 119.451C453.143 119.451 453.321 119.39 453.442 119.269C453.563 119.143 453.624 118.937 453.624 118.653C453.624 118.424 453.556 118.244 453.421 118.114C453.29 117.983 453.12 117.918 452.91 117.918H451.741V119.451H452.91Z" fill="#00367A"/>
<path d="M456.369 120.228C455.986 120.228 455.697 120.139 455.501 119.962C455.31 119.78 455.214 119.483 455.214 119.073V115.062H456.075V118.933C456.075 119.124 456.119 119.257 456.208 119.332C456.301 119.406 456.427 119.444 456.586 119.444H458.301V120.228H456.369Z" fill="#00367A"/>
<path d="M460.865 120.27C460.366 120.27 459.969 120.204 459.675 120.074C459.381 119.938 459.159 119.684 459.01 119.311C458.861 118.933 458.786 118.382 458.786 117.659C458.786 116.935 458.861 116.382 459.01 116C459.164 115.617 459.388 115.358 459.682 115.223C459.976 115.083 460.37 115.013 460.865 115.013C461.364 115.013 461.761 115.083 462.055 115.223C462.354 115.358 462.578 115.617 462.727 116C462.876 116.378 462.951 116.931 462.951 117.659C462.951 118.382 462.874 118.933 462.72 119.311C462.571 119.684 462.349 119.938 462.055 120.074C461.766 120.204 461.369 120.27 460.865 120.27ZM460.865 119.493C461.187 119.493 461.432 119.446 461.6 119.353C461.773 119.259 461.896 119.084 461.971 118.828C462.046 118.566 462.083 118.177 462.083 117.659C462.083 117.122 462.043 116.721 461.964 116.455C461.889 116.189 461.768 116.011 461.6 115.923C461.432 115.834 461.187 115.79 460.865 115.79C460.552 115.79 460.312 115.836 460.144 115.93C459.976 116.018 459.852 116.196 459.773 116.462C459.694 116.723 459.654 117.122 459.654 117.659C459.654 118.181 459.689 118.571 459.759 118.828C459.834 119.084 459.955 119.259 460.123 119.353C460.291 119.446 460.538 119.493 460.865 119.493Z" fill="#00367A"/>
<path d="M465.508 120.27C465.07 120.27 464.72 120.202 464.458 120.067C464.197 119.927 463.996 119.665 463.856 119.283C463.721 118.9 463.653 118.347 463.653 117.624C463.653 116.938 463.723 116.406 463.863 116.028C464.003 115.645 464.209 115.381 464.479 115.237C464.75 115.087 465.1 115.013 465.529 115.013C465.809 115.013 466.089 115.036 466.369 115.083C466.654 115.125 466.897 115.176 467.097 115.237V115.902C466.957 115.874 466.757 115.848 466.495 115.825C466.239 115.801 465.975 115.79 465.704 115.79C465.396 115.79 465.158 115.839 464.99 115.937C464.827 116.03 464.708 116.207 464.633 116.469C464.559 116.73 464.521 117.12 464.521 117.638C464.521 118.156 464.556 118.545 464.626 118.807C464.696 119.068 464.813 119.248 464.976 119.346C465.14 119.444 465.38 119.493 465.697 119.493C466.229 119.493 466.696 119.467 467.097 119.416V120.081C466.673 120.207 466.143 120.27 465.508 120.27Z" fill="#00367A"/>
<path d="M467.874 115.062H468.735V117.267H469.505L470.688 115.062H471.612L470.191 117.652L471.647 120.228H470.723L469.498 118.051H468.735V120.228H467.874V115.062Z" fill="#00367A"/>
<path d="M453.225 123.953L456.054 126.781L453.225 129.61L450.397 126.781L453.225 123.953Z" fill="#4C93E0"/>
<path d="M461.657 123.953L464.485 126.781L461.657 129.61L458.828 126.781L461.657 123.953Z" fill="#4C93E0"/>
<path d="M469.657 123.953L472.485 126.781L469.657 129.61L466.828 126.781L469.657 123.953Z" fill="#4C93E0"/>
<path d="M453.226 131.953L456.054 134.781L453.226 137.61L450.397 134.781L453.226 131.953Z" fill="#4C93E0"/>
<g filter="url(#filter8_d)">
<path d="M417.057 24.0287C417.057 37.2995 406.299 48.0575 393.029 48.0575C379.758 48.0575 369 37.2995 369 24.0287C369 10.758 379.758 0 393.029 0C406.299 0 417.057 10.758 417.057 24.0287Z" fill="#4C93E0"/>
</g>
<path d="M387.512 17.734H388.988L395.486 27.904V17.734H397.286V31H395.828L389.33 20.83V31H387.512V17.734Z" fill="white"/>
<path fill-rule="evenodd" clip-rule="evenodd" d="M435.999 30.8379C435.999 30.2856 435.551 29.8379 434.999 29.8379H400.999C400.447 29.8379 399.999 30.2856 399.999 30.8379V65.8969C399.999 66.4492 400.447 66.8969 400.999 66.8969H429.666C429.919 66.8969 430.163 66.8011 430.348 66.6287L435.681 61.6617C435.884 61.4725 435.999 61.2075 435.999 60.9299V30.8379Z" fill="white"/>
<path fill-rule="evenodd" clip-rule="evenodd" d="M434.999 30.3379H400.999C400.723 30.3379 400.499 30.5617 400.499 30.8379V65.8969C400.499 66.1731 400.723 66.3969 400.999 66.3969H429.666C429.793 66.3969 429.914 66.349 430.007 66.2628L435.34 61.2958C435.441 61.2012 435.499 61.0687 435.499 60.9299V30.8379C435.499 30.5617 435.275 30.3379 434.999 30.3379ZM434.999 29.8379C435.551 29.8379 435.999 30.2856 435.999 30.8379V60.9299C435.999 61.2075 435.884 61.4725 435.681 61.6617L430.348 66.6287C430.163 66.8011 429.919 66.8969 429.666 66.8969H400.999C400.447 66.8969 399.999 66.4492 399.999 65.8969V30.8379C399.999 30.2856 400.447 29.8379 400.999 29.8379H434.999Z" fill="#4C93E0"/>
<path fill-rule="evenodd" clip-rule="evenodd" d="M430.996 61.4116C430.582 61.4116 430.246 61.7474 430.246 62.1616V66.4096H429.746V62.1616C429.746 61.4713 430.305 60.9116 430.996 60.9116H435.812V61.4116H430.996Z" fill="#4C93E0"/>
<path d="M407.482 38.9468H409.456C410.408 38.9468 410.884 39.3948 410.884 40.2908C410.884 40.5942 410.816 40.8462 410.681 41.0468C410.55 41.2428 410.375 41.3688 410.156 41.4248C410.403 41.4855 410.613 41.6208 410.786 41.8308C410.963 42.0362 411.052 42.3208 411.052 42.6848C411.052 43.1982 410.926 43.5645 410.674 43.7838C410.422 44.0032 410.044 44.1128 409.54 44.1128H407.482V38.9468ZM409.47 41.1308C409.647 41.1308 409.79 41.0655 409.897 40.9348C410.004 40.8042 410.058 40.6292 410.058 40.4098C410.058 39.9525 409.855 39.7238 409.449 39.7238H408.343V41.1308H409.47ZM409.512 43.3358C409.745 43.3358 409.923 43.2752 410.044 43.1538C410.165 43.0278 410.226 42.8225 410.226 42.5378C410.226 42.3092 410.158 42.1295 410.023 41.9988C409.892 41.8682 409.722 41.8028 409.512 41.8028H408.343V43.3358H409.512Z" fill="#00367A"/>
<path d="M412.971 44.1128C412.588 44.1128 412.299 44.0242 412.103 43.8468C411.912 43.6648 411.816 43.3685 411.816 42.9578V38.9468H412.677V42.8178C412.677 43.0092 412.721 43.1422 412.81 43.2168C412.903 43.2915 413.029 43.3288 413.188 43.3288H414.903V44.1128H412.971Z" fill="#00367A"/>
<path d="M417.467 44.1548C416.968 44.1548 416.571 44.0895 416.277 43.9588C415.983 43.8235 415.762 43.5692 415.612 43.1958C415.463 42.8178 415.388 42.2672 415.388 41.5438C415.388 40.8205 415.463 40.2675 415.612 39.8848C415.766 39.5022 415.99 39.2432 416.284 39.1078C416.578 38.9678 416.973 38.8978 417.467 38.8978C417.967 38.8978 418.363 38.9678 418.657 39.1078C418.956 39.2432 419.18 39.5022 419.329 39.8848C419.479 40.2628 419.553 40.8158 419.553 41.5438C419.553 42.2672 419.476 42.8178 419.322 43.1958C419.173 43.5692 418.951 43.8235 418.657 43.9588C418.368 44.0895 417.971 44.1548 417.467 44.1548ZM417.467 43.3778C417.789 43.3778 418.034 43.3312 418.202 43.2378C418.375 43.1445 418.499 42.9695 418.573 42.7128C418.648 42.4515 418.685 42.0618 418.685 41.5438C418.685 41.0072 418.646 40.6058 418.566 40.3398C418.492 40.0738 418.37 39.8965 418.202 39.8078C418.034 39.7192 417.789 39.6748 417.467 39.6748C417.155 39.6748 416.914 39.7215 416.746 39.8148C416.578 39.9035 416.455 40.0808 416.375 40.3468C416.296 40.6082 416.256 41.0072 416.256 41.5438C416.256 42.0665 416.291 42.4562 416.361 42.7128C416.436 42.9695 416.557 43.1445 416.725 43.2378C416.893 43.3312 417.141 43.3778 417.467 43.3778Z" fill="#00367A"/>
<path d="M422.11 44.1548C421.672 44.1548 421.322 44.0872 421.06 43.9518C420.799 43.8118 420.598 43.5505 420.458 43.1678C420.323 42.7852 420.255 42.2322 420.255 41.5088C420.255 40.8228 420.325 40.2908 420.465 39.9128C420.605 39.5302 420.811 39.2665 421.081 39.1218C421.352 38.9725 421.702 38.8978 422.131 38.8978C422.411 38.8978 422.691 38.9212 422.971 38.9678C423.256 39.0098 423.499 39.0612 423.699 39.1218V39.7868C423.559 39.7588 423.359 39.7332 423.097 39.7098C422.841 39.6865 422.577 39.6748 422.306 39.6748C421.998 39.6748 421.76 39.7238 421.592 39.8218C421.429 39.9152 421.31 40.0925 421.235 40.3538C421.161 40.6152 421.123 41.0048 421.123 41.5228C421.123 42.0408 421.158 42.4305 421.228 42.6918C421.298 42.9532 421.415 43.1328 421.578 43.2308C421.742 43.3288 421.982 43.3778 422.299 43.3778C422.831 43.3778 423.298 43.3522 423.699 43.3008V43.9658C423.275 44.0918 422.745 44.1548 422.11 44.1548Z" fill="#00367A"/>
<path d="M424.476 38.9468H425.337V41.1518H426.107L427.29 38.9468H428.214L426.793 41.5368L428.249 44.1128H427.325L426.1 41.9358H425.337V44.1128H424.476V38.9468Z" fill="#00367A"/>
<path d="M409.828 47.8379L412.656 50.6663L409.828 53.4947L406.999 50.6663L409.828 47.8379Z" fill="#4C93E0"/>
<path d="M418.259 47.8379L421.087 50.6663L418.259 53.4947L415.43 50.6663L418.259 47.8379Z" fill="#4C93E0"/>
<path d="M426.259 47.8379L429.087 50.6663L426.259 53.4947L423.43 50.6663L426.259 47.8379Z" fill="#4C93E0"/>
<path d="M409.828 55.8379L412.656 58.6663L409.828 61.4947L406.999 58.6663L409.828 55.8379Z" fill="#4C93E0"/>
<path d="M32.0711 294L39.1421 301.071L32.0711 308.142L25 301.071L32.0711 294Z" fill="#4C93E0"/>
<path d="M41.6567 300.605H47.9207V301.514H41.6567V300.605Z" fill="#6F6F84"/>
<path d="M51.1059 297.023H53.8509C54.3849 297.023 54.8259 297.176 55.1739 297.482C55.5219 297.782 55.6959 298.37 55.6959 299.246C55.6959 300.77 55.0869 301.532 53.8689 301.532C53.6829 301.532 53.4099 301.517 53.0499 301.487C52.6899 301.457 52.4109 301.427 52.2129 301.397V303.665H51.1059V297.023ZM53.7069 300.524C53.9829 300.524 54.1959 300.425 54.3459 300.227C54.5019 300.029 54.5799 299.705 54.5799 299.255C54.5799 298.433 54.3009 298.022 53.7429 298.022H52.2129V300.524H53.7069Z" fill="#6F6F84"/>
<path d="M56.643 297.023H59.343C59.907 297.023 60.354 297.173 60.684 297.473C61.014 297.767 61.179 298.304 61.179 299.084C61.179 299.672 61.074 300.101 60.864 300.371C60.66 300.641 60.39 300.833 60.054 300.947L61.332 303.665H60.207L59.055 301.109C58.689 301.109 58.254 301.103 57.75 301.091V303.665H56.643V297.023ZM59.154 300.218C59.442 300.218 59.664 300.137 59.82 299.975C59.982 299.807 60.063 299.51 60.063 299.084C60.063 298.676 59.982 298.397 59.82 298.247C59.664 298.097 59.442 298.022 59.154 298.022H57.75V300.218H59.154Z" fill="#6F6F84"/>
<path d="M63.763 303.71C63.343 303.71 62.98 303.617 62.674 303.431C62.374 303.245 62.224 302.87 62.224 302.306V298.472C62.224 297.962 62.362 297.593 62.638 297.365C62.914 297.137 63.247 297.023 63.637 297.023C64.201 297.023 64.687 297.032 65.095 297.05C65.503 297.068 65.971 297.092 66.499 297.122V298.049H63.988C63.778 298.049 63.616 298.103 63.502 298.211C63.388 298.313 63.331 298.469 63.331 298.679V299.858L66.094 299.921V300.794L63.331 300.857V302C63.331 302.444 63.547 302.666 63.979 302.666H66.499V303.593C65.743 303.659 64.831 303.698 63.763 303.71Z" fill="#6F6F84"/>
<path d="M67.1538 300.605H69.8718V301.505H67.1538V300.605Z" fill="#6F6F84"/>
<path d="M70.0454 297.023H71.1974L72.9074 302.468L74.6174 297.023H75.7694L73.6094 303.665H72.2054L70.0454 297.023Z" fill="#6F6F84"/>
<path d="M78.9995 303.719C78.3575 303.719 77.8475 303.635 77.4695 303.467C77.0915 303.293 76.8065 302.966 76.6145 302.486C76.4225 302 76.3265 301.292 76.3265 300.362C76.3265 299.432 76.4225 298.721 76.6145 298.229C76.8125 297.737 77.1005 297.404 77.4785 297.23C77.8565 297.05 78.3635 296.96 78.9995 296.96C79.6415 296.96 80.1515 297.05 80.5295 297.23C80.9135 297.404 81.2015 297.737 81.3935 298.229C81.5855 298.715 81.6815 299.426 81.6815 300.362C81.6815 301.292 81.5825 302 81.3845 302.486C81.1925 302.966 80.9075 303.293 80.5295 303.467C80.1575 303.635 79.6475 303.719 78.9995 303.719ZM78.9995 302.72C79.4135 302.72 79.7285 302.66 79.9445 302.54C80.1665 302.42 80.3255 302.195 80.4215 301.865C80.5175 301.529 80.5655 301.028 80.5655 300.362C80.5655 299.672 80.5145 299.156 80.4125 298.814C80.3165 298.472 80.1605 298.244 79.9445 298.13C79.7285 298.016 79.4135 297.959 78.9995 297.959C78.5975 297.959 78.2885 298.019 78.0725 298.139C77.8565 298.253 77.6975 298.481 77.5955 298.823C77.4935 299.159 77.4425 299.672 77.4425 300.362C77.4425 301.034 77.4875 301.535 77.5775 301.865C77.6735 302.195 77.8295 302.42 78.0455 302.54C78.2615 302.66 78.5795 302.72 78.9995 302.72Z" fill="#6F6F84"/>
<path d="M84.1423 298.022H82.2343V297.023H87.1573V298.022H85.2583V303.665H84.1423V298.022Z" fill="#6F6F84"/>
<path d="M89.3744 303.71C88.9544 303.71 88.5914 303.617 88.2854 303.431C87.9854 303.245 87.8354 302.87 87.8354 302.306V298.472C87.8354 297.962 87.9734 297.593 88.2494 297.365C88.5254 297.137 88.8584 297.023 89.2484 297.023C89.8124 297.023 90.2984 297.032 90.7064 297.05C91.1144 297.068 91.5824 297.092 92.1104 297.122V298.049H89.5994C89.3894 298.049 89.2274 298.103 89.1134 298.211C88.9994 298.313 88.9424 298.469 88.9424 298.679V299.858L91.7054 299.921V300.794L88.9424 300.857V302C88.9424 302.444 89.1584 302.666 89.5904 302.666H92.1104V303.593C91.3544 303.659 90.4424 303.698 89.3744 303.71Z" fill="#6F6F84"/>
<mask id="path-93-inside-1" fill="white">
<path fill-rule="evenodd" clip-rule="evenodd" d="M108.5 284.5H10.5V315.5H108.5V284.5ZM10 284V316H109V284H10Z"/>
</mask>
<path fill-rule="evenodd" clip-rule="evenodd" d="M108.5 284.5H10.5V315.5H108.5V284.5ZM10 284V316H109V284H10Z" fill="#6F6F84"/>
<path d="M10.5 284.5V284H10V284.5H10.5ZM108.5 284.5H109V284H108.5V284.5ZM10.5 315.5H10V316H10.5V315.5ZM108.5 315.5V316H109V315.5H108.5ZM10 284V283.5H9.5V284H10ZM10 316H9.5V316.5H10V316ZM109 316V316.5H109.5V316H109ZM109 284H109.5V283.5H109V284ZM10.5 285H108.5V284H10.5V285ZM11 315.5V284.5H10V315.5H11ZM108.5 315H10.5V316H108.5V315ZM108 284.5V315.5H109V284.5H108ZM10 284.5H109V283.5H10V284.5ZM10.5 316V284H9.5V316H10.5ZM109 315.5H10V316.5H109V315.5ZM108.5 284V316H109.5V284H108.5Z" fill="#6F6F84" mask="url(#path-93-inside-1)"/>
<defs>
<filter id="filter0_d" x="0" y="107.202" width="111.455" height="116.455" filterUnits="userSpaceOnUse" color-interpolation-filters="sRGB">
<feFlood flood-opacity="0" result="BackgroundImageFix"/>
<feColorMatrix in="SourceAlpha" type="matrix" values="0 0 0 0 0 0 0 0 0 0 0 0 0 0 0 0 0 0 127 0"/>
<feOffset dy="15"/>
<feGaussianBlur stdDeviation="5"/>
<feColorMatrix type="matrix" values="0 0 0 0 0.298039 0 0 0 0 0.576471 0 0 0 0 0.878431 0 0 0 0.15 0"/>
<feBlend mode="normal" in2="BackgroundImageFix" result="effect1_dropShadow"/>
<feBlend mode="normal" in="SourceGraphic" in2="effect1_dropShadow" result="shape"/>
</filter>
<filter id="filter1_d" x="116" y="12.2019" width="84" height="88" filterUnits="userSpaceOnUse" color-interpolation-filters="sRGB">
<feFlood flood-opacity="0" result="BackgroundImageFix"/>
<feColorMatrix in="SourceAlpha" type="matrix" values="0 0 0 0 0 0 0 0 0 0 0 0 0 0 0 0 0 0 127 0"/>
<feOffset dy="15"/>
<feGaussianBlur stdDeviation="5"/>
<feColorMatrix type="matrix" values="0 0 0 0 0.298039 0 0 0 0 0.576471 0 0 0 0 0.878431 0 0 0 0.15 0"/>
<feBlend mode="normal" in2="BackgroundImageFix" result="effect1_dropShadow"/>
<feBlend mode="normal" in="SourceGraphic" in2="effect1_dropShadow" result="shape"/>
</filter>
<filter id="filter2_d" x="188.05" y="136.202" width="84" height="88" filterUnits="userSpaceOnUse" color-interpolation-filters="sRGB">
<feFlood flood-opacity="0" result="BackgroundImageFix"/>
<feColorMatrix in="SourceAlpha" type="matrix" values="0 0 0 0 0 0 0 0 0 0 0 0 0 0 0 0 0 0 127 0"/>
<feOffset dy="15"/>
<feGaussianBlur stdDeviation="5"/>
<feColorMatrix type="matrix" values="0 0 0 0 0.298039 0 0 0 0 0.576471 0 0 0 0 0.878431 0 0 0 0.15 0"/>
<feBlend mode="normal" in2="BackgroundImageFix" result="effect1_dropShadow"/>
<feBlend mode="normal" in="SourceGraphic" in2="effect1_dropShadow" result="shape"/>
</filter>
<filter id="filter3_d" x="126.049" y="227.202" width="84" height="88" filterUnits="userSpaceOnUse" color-interpolation-filters="sRGB">
<feFlood flood-opacity="0" result="BackgroundImageFix"/>
<feColorMatrix in="SourceAlpha" type="matrix" values="0 0 0 0 0 0 0 0 0 0 0 0 0 0 0 0 0 0 127 0"/>
<feOffset dy="15"/>
<feGaussianBlur stdDeviation="5"/>
<feColorMatrix type="matrix" values="0 0 0 0 0.298039 0 0 0 0 0.576471 0 0 0 0 0.878431 0 0 0 0.15 0"/>
<feBlend mode="normal" in2="BackgroundImageFix" result="effect1_dropShadow"/>
<feBlend mode="normal" in="SourceGraphic" in2="effect1_dropShadow" result="shape"/>
</filter>
<filter id="filter4_d" x="256.05" y="49.2019" width="84" height="88" filterUnits="userSpaceOnUse" color-interpolation-filters="sRGB">
<feFlood flood-opacity="0" result="BackgroundImageFix"/>
<feColorMatrix in="SourceAlpha" type="matrix" values="0 0 0 0 0 0 0 0 0 0 0 0 0 0 0 0 0 0 127 0"/>
<feOffset dy="15"/>
<feGaussianBlur stdDeviation="5"/>
<feColorMatrix type="matrix" values="0 0 0 0 0.298039 0 0 0 0 0.576471 0 0 0 0 0.878431 0 0 0 0.15 0"/>
<feBlend mode="normal" in2="BackgroundImageFix" result="effect1_dropShadow"/>
<feBlend mode="normal" in="SourceGraphic" in2="effect1_dropShadow" result="shape"/>
</filter>
<filter id="filter5_d" x="361" y="251.753" width="68.0575" height="73.0575" filterUnits="userSpaceOnUse" color-interpolation-filters="sRGB">
<feFlood flood-opacity="0" result="BackgroundImageFix"/>
<feColorMatrix in="SourceAlpha" type="matrix" values="0 0 0 0 0 0 0 0 0 0 0 0 0 0 0 0 0 0 127 0"/>
<feOffset dy="15"/>
<feGaussianBlur stdDeviation="5"/>
<feColorMatrix type="matrix" values="0 0 0 0 0.298039 0 0 0 0 0.576471 0 0 0 0 0.878431 0 0 0 0.15 0"/>
<feBlend mode="normal" in2="BackgroundImageFix" result="effect1_dropShadow"/>
<feBlend mode="normal" in="SourceGraphic" in2="effect1_dropShadow" result="shape"/>
</filter>
<filter id="filter6_d" x="416" y="159.75" width="68.0575" height="73.0575" filterUnits="userSpaceOnUse" color-interpolation-filters="sRGB">
<feFlood flood-opacity="0" result="BackgroundImageFix"/>
<feColorMatrix in="SourceAlpha" type="matrix" values="0 0 0 0 0 0 0 0 0 0 0 0 0 0 0 0 0 0 127 0"/>
<feOffset dy="15"/>
<feGaussianBlur stdDeviation="5"/>
<feColorMatrix type="matrix" values="0 0 0 0 0.298039 0 0 0 0 0.576471 0 0 0 0 0.878431 0 0 0 0.15 0"/>
<feBlend mode="normal" in2="BackgroundImageFix" result="effect1_dropShadow"/>
<feBlend mode="normal" in="SourceGraphic" in2="effect1_dropShadow" result="shape"/>
</filter>
<filter id="filter7_d" x="402" y="76.115" width="68.0575" height="73.0575" filterUnits="userSpaceOnUse" color-interpolation-filters="sRGB">
<feFlood flood-opacity="0" result="BackgroundImageFix"/>
<feColorMatrix in="SourceAlpha" type="matrix" values="0 0 0 0 0 0 0 0 0 0 0 0 0 0 0 0 0 0 127 0"/>
<feOffset dy="15"/>
<feGaussianBlur stdDeviation="5"/>
<feColorMatrix type="matrix" values="0 0 0 0 0.298039 0 0 0 0 0.576471 0 0 0 0 0.878431 0 0 0 0.15 0"/>
<feBlend mode="normal" in2="BackgroundImageFix" result="effect1_dropShadow"/>
<feBlend mode="normal" in="SourceGraphic" in2="effect1_dropShadow" result="shape"/>
</filter>
<filter id="filter8_d" x="359" y="0" width="68.0575" height="73.0575" filterUnits="userSpaceOnUse" color-interpolation-filters="sRGB">
<feFlood flood-opacity="0" result="BackgroundImageFix"/>
<feColorMatrix in="SourceAlpha" type="matrix" values="0 0 0 0 0 0 0 0 0 0 0 0 0 0 0 0 0 0 127 0"/>
<feOffset dy="15"/>
<feGaussianBlur stdDeviation="5"/>
<feColorMatrix type="matrix" values="0 0 0 0 0.298039 0 0 0 0 0.576471 0 0 0 0 0.878431 0 0 0 0.15 0"/>
<feBlend mode="normal" in2="BackgroundImageFix" result="effect1_dropShadow"/>
<feBlend mode="normal" in="SourceGraphic" in2="effect1_dropShadow" result="shape"/>
</filter>
</defs>
</svg>
