<svg width="501" height="170" viewBox="0 0 501 170" fill="none" xmlns="http://www.w3.org/2000/svg">
<rect width="500" height="170" fill="white"/>
<line x1="87" y1="43" x2="87" y2="86" stroke="#6F6F84" stroke-width="2" stroke-linecap="round" stroke-linejoin="round"/>
<line x1="87" y1="93" x2="87" y2="110" stroke="#6F6F84" stroke-width="2" stroke-linecap="round" stroke-linejoin="round" stroke-dasharray="6 6"/>
<line x1="420" y1="43" x2="420" y2="89.5" stroke="#6F6F84" stroke-width="2" stroke-linecap="round" stroke-linejoin="round"/>
<line x1="420" y1="96.8889" x2="420" y2="138" stroke="#6F6F84" stroke-width="2" stroke-linecap="round" stroke-linejoin="round" stroke-dasharray="6 6"/>
<mask maskUnits="userSpaceOnUse" x="0" y="0" width="0" height="0" fill="black">
<rect fill="white" width="0" height="0"/>
</mask>
<path d="M88.2929 49.2929C87.9024 49.6834 87.9024 50.3166 88.2929 50.7071L94.6569 57.0711C95.0474 57.4616 95.6805 57.4616 96.0711 57.0711C96.4616 56.6805 96.4616 56.0474 96.0711 55.6569L90.4142 50L96.0711 44.3431C96.4616 43.9526 96.4616 43.3195 96.0711 42.9289C95.6805 42.5384 95.0474 42.5384 94.6569 42.9289L88.2929 49.2929ZM418.707 50.7071C419.098 50.3166 419.098 49.6834 418.707 49.2929L412.343 42.9289C411.953 42.5384 411.319 42.5384 410.929 42.9289C410.538 43.3195 410.538 43.9526 410.929 44.3431L416.586 50L410.929 55.6569C410.538 56.0474 410.538 56.6805 410.929 57.0711C411.319 57.4616 411.953 57.4616 412.343 57.0711L418.707 50.7071ZM89 51H418V49H89V51Z" fill="#333351" mask="url(#)"/>
<mask maskUnits="userSpaceOnUse" x="0" y="0" width="0" height="0" fill="black">
<rect fill="white" width="0" height="0"/>
</mask>
<path d="M88.1464 106.146C87.9512 106.342 87.9512 106.658 88.1464 106.854L91.3284 110.036C91.5237 110.231 91.8403 110.231 92.0355 110.036C92.2308 109.84 92.2308 109.524 92.0355 109.328L89.2071 106.5L92.0355 103.672C92.2308 103.476 92.2308 103.16 92.0355 102.964C91.8403 102.769 91.5237 102.769 91.3284 102.964L88.1464 106.146ZM195.854 106.854C196.049 106.658 196.049 106.342 195.854 106.146L192.672 102.964C192.476 102.769 192.16 102.769 191.964 102.964C191.769 103.16 191.769 103.476 191.964 103.672L194.793 106.5L191.964 109.328C191.769 109.524 191.769 109.84 191.964 110.036C192.16 110.231 192.476 110.231 192.672 110.036L195.854 106.854ZM88.5 107H195.5V106H88.5V107Z" fill="#333351" mask="url(#)"/>
<path d="M110.099 95.76V95.796C110.561 95.838 110.891 95.997 111.089 96.273C111.287 96.543 111.386 96.936 111.386 97.452C111.386 98.076 111.227 98.502 110.909 98.73C110.591 98.958 110.048 99.072 109.28 99.072C108.128 99.072 107.255 99.048 106.661 99V92.79C107.195 92.742 107.972 92.718 108.992 92.718C109.82 92.718 110.393 92.832 110.711 93.06C111.029 93.282 111.188 93.708 111.188 94.338C111.188 94.788 111.101 95.13 110.927 95.364C110.759 95.592 110.483 95.724 110.099 95.76ZM108.002 95.328H109.001C109.337 95.328 109.565 95.274 109.685 95.166C109.811 95.058 109.874 94.845 109.874 94.527C109.874 94.215 109.808 94.008 109.676 93.906C109.544 93.804 109.295 93.753 108.929 93.753L108.002 93.744V95.328ZM108.002 98.037H109.046C109.424 98.037 109.679 97.983 109.811 97.875C109.943 97.761 110.009 97.533 110.009 97.191C110.009 96.819 109.94 96.57 109.802 96.444C109.664 96.312 109.4 96.243 109.01 96.237H108.002V98.037ZM113.642 92.7V97.551C113.642 97.851 113.81 98.001 114.146 98.001H114.506L114.659 98.928C114.431 99.048 114.077 99.108 113.597 99.108C113.201 99.108 112.889 99.003 112.661 98.793C112.433 98.577 112.319 98.274 112.319 97.884V92.7H113.642ZM117.352 94.437C118.18 94.437 118.765 94.617 119.107 94.977C119.455 95.331 119.629 95.934 119.629 96.786C119.629 97.638 119.455 98.241 119.107 98.595C118.765 98.943 118.18 99.117 117.352 99.117C116.518 99.117 115.927 98.943 115.579 98.595C115.237 98.241 115.066 97.638 115.066 96.786C115.066 95.928 115.237 95.322 115.579 94.968C115.927 94.614 116.518 94.437 117.352 94.437ZM117.352 95.436C116.998 95.436 116.761 95.526 116.641 95.706C116.521 95.886 116.461 96.246 116.461 96.786C116.461 97.314 116.521 97.668 116.641 97.848C116.761 98.028 116.998 98.118 117.352 98.118C117.694 98.118 117.925 98.028 118.045 97.848C118.171 97.668 118.234 97.314 118.234 96.786C118.234 96.252 118.174 95.895 118.054 95.715C117.934 95.529 117.7 95.436 117.352 95.436ZM124.173 97.947L124.29 98.811C123.834 99.009 123.261 99.108 122.571 99.108C121.755 99.108 121.179 98.934 120.843 98.586C120.513 98.232 120.348 97.629 120.348 96.777C120.348 95.919 120.516 95.316 120.852 94.968C121.188 94.614 121.767 94.437 122.589 94.437C123.261 94.437 123.807 94.53 124.227 94.716L124.083 95.544C123.435 95.532 123.012 95.526 122.814 95.526C122.406 95.526 122.124 95.613 121.968 95.787C121.818 95.961 121.743 96.291 121.743 96.777C121.743 97.263 121.818 97.593 121.968 97.767C122.124 97.941 122.406 98.028 122.814 98.028C123.336 98.028 123.789 98.001 124.173 97.947ZM126.79 96.939H126.367C126.409 97.209 126.43 97.431 126.43 97.605V99H125.098V92.7H126.43V95.301C126.43 95.595 126.409 95.865 126.367 96.111H126.781L127.879 94.563H129.373L128.221 96.102C128.125 96.264 127.987 96.405 127.807 96.525V96.543C127.957 96.645 128.095 96.804 128.221 97.02L129.526 99H128.032L126.79 96.939ZM133.087 94.563L133.186 95.211C133.372 94.989 133.627 94.806 133.951 94.662C134.281 94.518 134.614 94.446 134.95 94.446C135.97 94.446 136.48 95.238 136.48 96.822C136.48 97.674 136.342 98.271 136.066 98.613C135.796 98.949 135.37 99.117 134.788 99.117C134.188 99.117 133.693 98.973 133.303 98.685C133.333 98.991 133.342 99.309 133.33 99.639V100.71H132.007V94.563H133.087ZM133.33 95.913V97.947C133.798 98.067 134.134 98.127 134.338 98.127C134.632 98.127 134.833 98.043 134.941 97.875C135.055 97.707 135.112 97.356 135.112 96.822C135.112 96.3 135.061 95.949 134.959 95.769C134.857 95.583 134.677 95.49 134.419 95.49C134.125 95.49 133.762 95.631 133.33 95.913ZM140.589 94.437L140.454 95.67H140.094C139.8 95.67 139.347 95.772 138.735 95.976V99H137.403V94.563H138.438L138.555 95.211C139.161 94.695 139.761 94.437 140.355 94.437H140.589ZM143.262 94.437C144.09 94.437 144.675 94.617 145.017 94.977C145.365 95.331 145.539 95.934 145.539 96.786C145.539 97.638 145.365 98.241 145.017 98.595C144.675 98.943 144.09 99.117 143.262 99.117C142.428 99.117 141.837 98.943 141.489 98.595C141.147 98.241 140.976 97.638 140.976 96.786C140.976 95.928 141.147 95.322 141.489 94.968C141.837 94.614 142.428 94.437 143.262 94.437ZM143.262 95.436C142.908 95.436 142.671 95.526 142.551 95.706C142.431 95.886 142.371 96.246 142.371 96.786C142.371 97.314 142.431 97.668 142.551 97.848C142.671 98.028 142.908 98.118 143.262 98.118C143.604 98.118 143.835 98.028 143.955 97.848C144.081 97.668 144.144 97.314 144.144 96.786C144.144 96.252 144.084 95.895 143.964 95.715C143.844 95.529 143.61 95.436 143.262 95.436ZM150.695 92.7V99H149.642L149.534 98.352C149.108 98.856 148.544 99.108 147.842 99.108C147.29 99.108 146.888 98.91 146.636 98.514C146.39 98.112 146.267 97.521 146.267 96.741C146.267 95.889 146.405 95.292 146.681 94.95C146.957 94.608 147.386 94.437 147.968 94.437C148.538 94.437 149.018 94.569 149.408 94.833C149.378 94.503 149.363 94.194 149.363 93.906V92.7H150.695ZM149.363 97.65V95.598C148.961 95.484 148.646 95.427 148.418 95.427C148.118 95.427 147.911 95.511 147.797 95.679C147.689 95.847 147.635 96.198 147.635 96.732C147.635 97.242 147.689 97.584 147.797 97.758C147.905 97.926 148.097 98.01 148.373 98.01C148.559 98.01 148.718 97.986 148.85 97.938C148.982 97.884 149.153 97.788 149.363 97.65ZM156.003 94.563V99H154.95L154.851 98.388C154.239 98.874 153.627 99.117 153.015 99.117C152.181 99.117 151.764 98.706 151.764 97.884V94.563H153.096V97.479C153.09 97.671 153.123 97.806 153.195 97.884C153.267 97.962 153.393 98.001 153.573 98.001C153.831 98.001 154.2 97.878 154.68 97.632V94.563H156.003ZM160.735 97.947L160.852 98.811C160.396 99.009 159.823 99.108 159.133 99.108C158.317 99.108 157.741 98.934 157.405 98.586C157.075 98.232 156.91 97.629 156.91 96.777C156.91 95.919 157.078 95.316 157.414 94.968C157.75 94.614 158.329 94.437 159.151 94.437C159.823 94.437 160.369 94.53 160.789 94.716L160.645 95.544C159.997 95.532 159.574 95.526 159.376 95.526C158.968 95.526 158.686 95.613 158.53 95.787C158.38 95.961 158.305 96.291 158.305 96.777C158.305 97.263 158.38 97.593 158.53 97.767C158.686 97.941 158.968 98.028 159.376 98.028C159.898 98.028 160.351 98.001 160.735 97.947ZM163.389 95.454V97.551C163.389 97.719 163.425 97.836 163.497 97.902C163.569 97.968 163.695 98.001 163.875 98.001H164.442L164.586 98.928C164.244 99.048 163.827 99.108 163.335 99.108C162.933 99.108 162.621 98.997 162.399 98.775C162.177 98.547 162.066 98.232 162.066 97.83V95.454H161.283V94.608L162.066 94.563V93.321H163.389V94.563H164.622V95.454H163.389ZM165.757 92.601H166.351C166.609 92.601 166.738 92.73 166.738 92.988V93.474C166.738 93.732 166.609 93.861 166.351 93.861H165.757C165.499 93.861 165.37 93.732 165.37 93.474V92.988C165.37 92.73 165.499 92.601 165.757 92.601ZM166.72 99H165.397V94.563H166.72V99ZM169.945 94.437C170.773 94.437 171.358 94.617 171.7 94.977C172.048 95.331 172.222 95.934 172.222 96.786C172.222 97.638 172.048 98.241 171.7 98.595C171.358 98.943 170.773 99.117 169.945 99.117C169.111 99.117 168.52 98.943 168.172 98.595C167.83 98.241 167.659 97.638 167.659 96.786C167.659 95.928 167.83 95.322 168.172 94.968C168.52 94.614 169.111 94.437 169.945 94.437ZM169.945 95.436C169.591 95.436 169.354 95.526 169.234 95.706C169.114 95.886 169.054 96.246 169.054 96.786C169.054 97.314 169.114 97.668 169.234 97.848C169.354 98.028 169.591 98.118 169.945 98.118C170.287 98.118 170.518 98.028 170.638 97.848C170.764 97.668 170.827 97.314 170.827 96.786C170.827 96.252 170.767 95.895 170.647 95.715C170.527 95.529 170.293 95.436 169.945 95.436ZM174.211 94.563L174.31 95.22C174.952 94.698 175.585 94.437 176.209 94.437C176.611 94.437 176.917 94.542 177.127 94.752C177.343 94.962 177.451 95.268 177.451 95.67V99H176.128V96.084C176.128 95.886 176.095 95.751 176.029 95.679C175.969 95.601 175.858 95.562 175.696 95.562C175.414 95.562 175.003 95.697 174.463 95.967V99H173.131V94.563H174.211Z" fill="#333351"/>
<line x1="197" y1="80" x2="197" y2="124" stroke="#6F6F84" stroke-width="2" stroke-linecap="round" stroke-linejoin="round" stroke-dasharray="6 6"/>
<mask maskUnits="userSpaceOnUse" x="0" y="0" width="0" height="0" fill="black">
<rect fill="white" width="0" height="0"/>
</mask>
<path d="M198.146 120.146C197.951 120.342 197.951 120.658 198.146 120.854L201.328 124.036C201.524 124.231 201.84 124.231 202.036 124.036C202.231 123.84 202.231 123.524 202.036 123.328L199.207 120.5L202.036 117.672C202.231 117.476 202.231 117.16 202.036 116.964C201.84 116.769 201.524 116.769 201.328 116.964L198.146 120.146ZM305.854 120.854C306.049 120.658 306.049 120.342 305.854 120.146L302.672 116.964C302.476 116.769 302.16 116.769 301.964 116.964C301.769 117.16 301.769 117.476 301.964 117.672L304.793 120.5L301.964 123.328C301.769 123.524 301.769 123.84 301.964 124.036C302.16 124.231 302.476 124.231 302.672 124.036L305.854 120.854ZM198.5 121H305.5V120H198.5V121Z" fill="#333351" mask="url(#)"/>
<path d="M222.532 109.76V109.796C222.994 109.838 223.324 109.997 223.522 110.273C223.72 110.543 223.819 110.936 223.819 111.452C223.819 112.076 223.66 112.502 223.342 112.73C223.024 112.958 222.481 113.072 221.713 113.072C220.561 113.072 219.688 113.048 219.094 113V106.79C219.628 106.742 220.405 106.718 221.425 106.718C222.253 106.718 222.826 106.832 223.144 107.06C223.462 107.282 223.621 107.708 223.621 108.338C223.621 108.788 223.534 109.13 223.36 109.364C223.192 109.592 222.916 109.724 222.532 109.76ZM220.435 109.328H221.434C221.77 109.328 221.998 109.274 222.118 109.166C222.244 109.058 222.307 108.845 222.307 108.527C222.307 108.215 222.241 108.008 222.109 107.906C221.977 107.804 221.728 107.753 221.362 107.753L220.435 107.744V109.328ZM220.435 112.037H221.479C221.857 112.037 222.112 111.983 222.244 111.875C222.376 111.761 222.442 111.533 222.442 111.191C222.442 110.819 222.373 110.57 222.235 110.444C222.097 110.312 221.833 110.243 221.443 110.237H220.435V112.037ZM226.076 106.7V111.551C226.076 111.851 226.244 112.001 226.58 112.001H226.94L227.093 112.928C226.865 113.048 226.511 113.108 226.031 113.108C225.635 113.108 225.323 113.003 225.095 112.793C224.867 112.577 224.753 112.274 224.753 111.884V106.7H226.076ZM229.785 108.437C230.613 108.437 231.198 108.617 231.54 108.977C231.888 109.331 232.062 109.934 232.062 110.786C232.062 111.638 231.888 112.241 231.54 112.595C231.198 112.943 230.613 113.117 229.785 113.117C228.951 113.117 228.36 112.943 228.012 112.595C227.67 112.241 227.499 111.638 227.499 110.786C227.499 109.928 227.67 109.322 228.012 108.968C228.36 108.614 228.951 108.437 229.785 108.437ZM229.785 109.436C229.431 109.436 229.194 109.526 229.074 109.706C228.954 109.886 228.894 110.246 228.894 110.786C228.894 111.314 228.954 111.668 229.074 111.848C229.194 112.028 229.431 112.118 229.785 112.118C230.127 112.118 230.358 112.028 230.478 111.848C230.604 111.668 230.667 111.314 230.667 110.786C230.667 110.252 230.607 109.895 230.487 109.715C230.367 109.529 230.133 109.436 229.785 109.436ZM236.606 111.947L236.723 112.811C236.267 113.009 235.694 113.108 235.004 113.108C234.188 113.108 233.612 112.934 233.276 112.586C232.946 112.232 232.781 111.629 232.781 110.777C232.781 109.919 232.949 109.316 233.285 108.968C233.621 108.614 234.2 108.437 235.022 108.437C235.694 108.437 236.24 108.53 236.66 108.716L236.516 109.544C235.868 109.532 235.445 109.526 235.247 109.526C234.839 109.526 234.557 109.613 234.401 109.787C234.251 109.961 234.176 110.291 234.176 110.777C234.176 111.263 234.251 111.593 234.401 111.767C234.557 111.941 234.839 112.028 235.247 112.028C235.769 112.028 236.222 112.001 236.606 111.947ZM239.224 110.939H238.801C238.843 111.209 238.864 111.431 238.864 111.605V113H237.532V106.7H238.864V109.301C238.864 109.595 238.843 109.865 238.801 110.111H239.215L240.313 108.563H241.807L240.655 110.102C240.559 110.264 240.421 110.405 240.241 110.525V110.543C240.391 110.645 240.529 110.804 240.655 111.02L241.96 113H240.466L239.224 110.939ZM248.684 108.563L247.226 112.685C247.154 112.895 247.01 113 246.794 113H245.642C245.426 113 245.282 112.895 245.21 112.685L243.752 108.563H245.165L245.966 111.344C246.032 111.59 246.095 111.854 246.155 112.136H246.272L246.479 111.344L247.28 108.563H248.684ZM249.356 109.553L249.23 108.653C250.028 108.509 250.799 108.437 251.543 108.437C252.143 108.437 252.584 108.56 252.866 108.806C253.148 109.046 253.289 109.466 253.289 110.066V113H252.236L252.101 112.325C251.657 112.847 251.111 113.108 250.463 113.108C250.037 113.108 249.689 112.997 249.419 112.775C249.149 112.547 249.014 112.232 249.014 111.83V111.38C249.014 111.026 249.134 110.75 249.374 110.552C249.614 110.354 249.947 110.255 250.373 110.255H251.957V110.057C251.951 109.829 251.897 109.676 251.795 109.598C251.699 109.52 251.51 109.481 251.228 109.481C250.736 109.481 250.112 109.505 249.356 109.553ZM250.328 111.479V111.65C250.328 111.956 250.502 112.109 250.85 112.109C251.21 112.109 251.579 111.965 251.957 111.677V111.056H250.76C250.472 111.062 250.328 111.203 250.328 111.479ZM255.677 106.7V111.551C255.677 111.851 255.845 112.001 256.181 112.001H256.541L256.694 112.928C256.466 113.048 256.112 113.108 255.632 113.108C255.236 113.108 254.924 113.003 254.696 112.793C254.468 112.577 254.354 112.274 254.354 111.884V106.7H255.677ZM257.686 106.601H258.28C258.538 106.601 258.667 106.73 258.667 106.988V107.474C258.667 107.732 258.538 107.861 258.28 107.861H257.686C257.428 107.861 257.299 107.732 257.299 107.474V106.988C257.299 106.73 257.428 106.601 257.686 106.601ZM258.649 113H257.326V108.563H258.649V113ZM264.025 106.7V113H262.972L262.864 112.352C262.438 112.856 261.874 113.108 261.172 113.108C260.62 113.108 260.218 112.91 259.966 112.514C259.72 112.112 259.597 111.521 259.597 110.741C259.597 109.889 259.735 109.292 260.011 108.95C260.287 108.608 260.716 108.437 261.298 108.437C261.868 108.437 262.348 108.569 262.738 108.833C262.708 108.503 262.693 108.194 262.693 107.906V106.7H264.025ZM262.693 111.65V109.598C262.291 109.484 261.976 109.427 261.748 109.427C261.448 109.427 261.241 109.511 261.127 109.679C261.019 109.847 260.965 110.198 260.965 110.732C260.965 111.242 261.019 111.584 261.127 111.758C261.235 111.926 261.427 112.01 261.703 112.01C261.889 112.01 262.048 111.986 262.18 111.938C262.312 111.884 262.483 111.788 262.693 111.65ZM265.238 109.553L265.112 108.653C265.91 108.509 266.681 108.437 267.425 108.437C268.025 108.437 268.466 108.56 268.748 108.806C269.03 109.046 269.171 109.466 269.171 110.066V113H268.118L267.983 112.325C267.539 112.847 266.993 113.108 266.345 113.108C265.919 113.108 265.571 112.997 265.301 112.775C265.031 112.547 264.896 112.232 264.896 111.83V111.38C264.896 111.026 265.016 110.75 265.256 110.552C265.496 110.354 265.829 110.255 266.255 110.255H267.839V110.057C267.833 109.829 267.779 109.676 267.677 109.598C267.581 109.52 267.392 109.481 267.11 109.481C266.618 109.481 265.994 109.505 265.238 109.553ZM266.21 111.479V111.65C266.21 111.956 266.384 112.109 266.732 112.109C267.092 112.109 267.461 111.965 267.839 111.677V111.056H266.642C266.354 111.062 266.21 111.203 266.21 111.479ZM271.955 109.454V111.551C271.955 111.719 271.991 111.836 272.063 111.902C272.135 111.968 272.261 112.001 272.441 112.001H273.008L273.152 112.928C272.81 113.048 272.393 113.108 271.901 113.108C271.499 113.108 271.187 112.997 270.965 112.775C270.743 112.547 270.632 112.232 270.632 111.83V109.454H269.849V108.608L270.632 108.563V107.321H271.955V108.563H273.188V109.454H271.955ZM274.323 106.601H274.917C275.175 106.601 275.304 106.73 275.304 106.988V107.474C275.304 107.732 275.175 107.861 274.917 107.861H274.323C274.065 107.861 273.936 107.732 273.936 107.474V106.988C273.936 106.73 274.065 106.601 274.323 106.601ZM275.286 113H273.963V108.563H275.286V113ZM278.512 108.437C279.34 108.437 279.925 108.617 280.267 108.977C280.615 109.331 280.789 109.934 280.789 110.786C280.789 111.638 280.615 112.241 280.267 112.595C279.925 112.943 279.34 113.117 278.512 113.117C277.678 113.117 277.087 112.943 276.739 112.595C276.397 112.241 276.226 111.638 276.226 110.786C276.226 109.928 276.397 109.322 276.739 108.968C277.087 108.614 277.678 108.437 278.512 108.437ZM278.512 109.436C278.158 109.436 277.921 109.526 277.801 109.706C277.681 109.886 277.621 110.246 277.621 110.786C277.621 111.314 277.681 111.668 277.801 111.848C277.921 112.028 278.158 112.118 278.512 112.118C278.854 112.118 279.085 112.028 279.205 111.848C279.331 111.668 279.394 111.314 279.394 110.786C279.394 110.252 279.334 109.895 279.214 109.715C279.094 109.529 278.86 109.436 278.512 109.436ZM282.777 108.563L282.876 109.22C283.518 108.698 284.151 108.437 284.775 108.437C285.177 108.437 285.483 108.542 285.693 108.752C285.909 108.962 286.017 109.268 286.017 109.67V113H284.694V110.084C284.694 109.886 284.661 109.751 284.595 109.679C284.535 109.601 284.424 109.562 284.262 109.562C283.98 109.562 283.569 109.697 283.029 109.967V113H281.697V108.563H282.777Z" fill="#333351"/>
<line x1="307" y1="80" x2="307" y2="138" stroke="#6F6F84" stroke-width="2" stroke-linecap="round" stroke-linejoin="round" stroke-dasharray="6 6"/>
<mask maskUnits="userSpaceOnUse" x="0" y="0" width="0" height="0" fill="black">
<rect fill="white" width="0" height="0"/>
</mask>
<path d="M308.146 134.146C307.951 134.342 307.951 134.658 308.146 134.854L311.328 138.036C311.524 138.231 311.84 138.231 312.036 138.036C312.231 137.84 312.231 137.524 312.036 137.328L309.207 134.5L312.036 131.672C312.231 131.476 312.231 131.16 312.036 130.964C311.84 130.769 311.524 130.769 311.328 130.964L308.146 134.146ZM418.799 134.854C418.994 134.658 418.994 134.342 418.799 134.146L415.617 130.964C415.422 130.769 415.105 130.769 414.91 130.964C414.715 131.16 414.715 131.476 414.91 131.672L417.738 134.5L414.91 137.328C414.715 137.524 414.715 137.84 414.91 138.036C415.105 138.231 415.422 138.231 415.617 138.036L418.799 134.854ZM308.5 135H418.445V134H308.5V135Z" fill="#333351" mask="url(#)"/>
<path d="M331.8 124.651L330.549 124.21C330.087 124.042 329.757 123.814 329.559 123.526C329.361 123.238 329.262 122.86 329.262 122.392C329.262 121.708 329.427 121.252 329.757 121.024C330.093 120.79 330.681 120.673 331.521 120.673C332.313 120.673 332.994 120.754 333.564 120.916L333.474 121.852C332.952 121.834 332.304 121.825 331.53 121.825C331.17 121.825 330.93 121.858 330.81 121.924C330.69 121.984 330.63 122.14 330.63 122.392C330.63 122.596 330.675 122.743 330.765 122.833C330.855 122.923 331.026 123.01 331.278 123.094L332.457 123.499C332.937 123.667 333.276 123.898 333.474 124.192C333.672 124.48 333.771 124.858 333.771 125.326C333.771 126.022 333.603 126.496 333.267 126.748C332.931 126.994 332.331 127.117 331.467 127.117C330.765 127.117 330.054 127.039 329.334 126.883L329.415 125.893C330.693 125.923 331.377 125.938 331.467 125.938C331.833 125.938 332.076 125.899 332.196 125.821C332.322 125.743 332.385 125.581 332.385 125.335C332.385 125.125 332.343 124.978 332.259 124.894C332.175 124.804 332.022 124.723 331.8 124.651ZM339.038 122.563L337.463 127.063C337.379 127.303 337.274 127.525 337.148 127.729C337.028 127.933 336.872 128.128 336.68 128.314C336.488 128.506 336.248 128.647 335.96 128.737C335.678 128.827 335.363 128.851 335.015 128.809L334.907 128.026C335.267 127.93 335.549 127.804 335.753 127.648C335.957 127.498 336.116 127.294 336.23 127.036L336.248 127H335.996C335.774 127 335.63 126.892 335.564 126.676L334.115 122.563H335.537L336.365 125.434C336.419 125.644 336.464 125.866 336.5 126.1H336.617C336.635 126.028 336.665 125.917 336.707 125.767C336.749 125.611 336.779 125.5 336.797 125.434L337.616 122.563H339.038ZM340.734 122.563L340.833 123.22C341.475 122.698 342.108 122.437 342.732 122.437C343.134 122.437 343.44 122.542 343.65 122.752C343.866 122.962 343.974 123.268 343.974 123.67V127H342.651V124.084C342.651 123.886 342.618 123.751 342.552 123.679C342.492 123.601 342.381 123.562 342.219 123.562C341.937 123.562 341.526 123.697 340.986 123.967V127H339.654V122.563H340.734ZM348.678 125.947L348.795 126.811C348.339 127.009 347.766 127.108 347.076 127.108C346.26 127.108 345.684 126.934 345.348 126.586C345.018 126.232 344.853 125.629 344.853 124.777C344.853 123.919 345.021 123.316 345.357 122.968C345.693 122.614 346.272 122.437 347.094 122.437C347.766 122.437 348.312 122.53 348.732 122.716L348.588 123.544C347.94 123.532 347.517 123.526 347.319 123.526C346.911 123.526 346.629 123.613 346.473 123.787C346.323 123.961 346.248 124.291 346.248 124.777C346.248 125.263 346.323 125.593 346.473 125.767C346.629 125.941 346.911 126.028 347.319 126.028C347.841 126.028 348.294 126.001 348.678 125.947ZM350.945 120.7V122.239C350.945 122.545 350.918 122.854 350.864 123.166C351.482 122.68 352.088 122.437 352.682 122.437C353.084 122.437 353.39 122.542 353.6 122.752C353.816 122.962 353.924 123.268 353.924 123.67V127H352.601V124.084C352.601 123.886 352.568 123.751 352.502 123.679C352.442 123.601 352.331 123.562 352.169 123.562C351.851 123.562 351.44 123.697 350.936 123.967V127H349.604V120.7H350.945ZM358.177 122.437L358.042 123.67H357.682C357.388 123.67 356.935 123.772 356.323 123.976V127H354.991V122.563H356.026L356.143 123.211C356.749 122.695 357.349 122.437 357.943 122.437H358.177ZM360.85 122.437C361.678 122.437 362.263 122.617 362.605 122.977C362.953 123.331 363.127 123.934 363.127 124.786C363.127 125.638 362.953 126.241 362.605 126.595C362.263 126.943 361.678 127.117 360.85 127.117C360.016 127.117 359.425 126.943 359.077 126.595C358.735 126.241 358.564 125.638 358.564 124.786C358.564 123.928 358.735 123.322 359.077 122.968C359.425 122.614 360.016 122.437 360.85 122.437ZM360.85 123.436C360.496 123.436 360.259 123.526 360.139 123.706C360.019 123.886 359.959 124.246 359.959 124.786C359.959 125.314 360.019 125.668 360.139 125.848C360.259 126.028 360.496 126.118 360.85 126.118C361.192 126.118 361.423 126.028 361.543 125.848C361.669 125.668 361.732 125.314 361.732 124.786C361.732 124.252 361.672 123.895 361.552 123.715C361.432 123.529 361.198 123.436 360.85 123.436ZM365.115 122.563L365.214 123.22C365.856 122.698 366.489 122.437 367.113 122.437C367.515 122.437 367.821 122.542 368.031 122.752C368.247 122.962 368.355 123.268 368.355 123.67V127H367.032V124.084C367.032 123.886 366.999 123.751 366.933 123.679C366.873 123.601 366.762 123.562 366.6 123.562C366.318 123.562 365.907 123.697 365.367 123.967V127H364.035V122.563H365.115ZM369.819 120.601H370.413C370.671 120.601 370.8 120.73 370.8 120.988V121.474C370.8 121.732 370.671 121.861 370.413 121.861H369.819C369.561 121.861 369.432 121.732 369.432 121.474V120.988C369.432 120.73 369.561 120.601 369.819 120.601ZM370.782 127H369.459V122.563H370.782V127ZM373.881 125.353L372.774 125.056C372.366 124.936 372.084 124.774 371.928 124.57C371.772 124.36 371.694 124.072 371.694 123.706C371.694 123.244 371.835 122.917 372.117 122.725C372.405 122.533 372.894 122.437 373.584 122.437C374.382 122.449 375.066 122.506 375.636 122.608L375.546 123.463C374.79 123.451 374.22 123.445 373.836 123.445C373.626 123.445 373.479 123.448 373.395 123.454C373.317 123.454 373.236 123.463 373.152 123.481C373.074 123.499 373.026 123.529 373.008 123.571C372.99 123.607 372.981 123.664 372.981 123.742C372.981 123.772 372.981 123.799 372.981 123.823C372.987 123.847 372.996 123.871 373.008 123.895C373.02 123.913 373.029 123.928 373.035 123.94C373.047 123.952 373.065 123.967 373.089 123.985C373.113 123.997 373.131 124.006 373.143 124.012C373.161 124.018 373.188 124.03 373.224 124.048C373.266 124.06 373.296 124.069 373.314 124.075C373.338 124.081 373.377 124.093 373.431 124.111C373.491 124.123 373.536 124.132 373.566 124.138L374.7 124.444C375.096 124.558 375.378 124.711 375.546 124.903C375.714 125.089 375.798 125.368 375.798 125.74C375.798 126.268 375.645 126.628 375.339 126.82C375.033 127.006 374.508 127.099 373.764 127.099C373.044 127.099 372.381 127.048 371.775 126.946L371.856 126.082C372.072 126.094 372.585 126.1 373.395 126.1C373.857 126.1 374.157 126.082 374.295 126.046C374.439 126.004 374.511 125.911 374.511 125.767C374.511 125.737 374.508 125.71 374.502 125.686C374.502 125.662 374.496 125.641 374.484 125.623C374.472 125.599 374.46 125.581 374.448 125.569C374.436 125.557 374.415 125.545 374.385 125.533C374.361 125.515 374.34 125.503 374.322 125.497C374.31 125.485 374.283 125.473 374.241 125.461C374.199 125.443 374.166 125.431 374.142 125.425C374.118 125.419 374.076 125.41 374.016 125.398C373.956 125.38 373.911 125.365 373.881 125.353ZM376.773 123.553L376.647 122.653C377.445 122.509 378.216 122.437 378.96 122.437C379.56 122.437 380.001 122.56 380.283 122.806C380.565 123.046 380.706 123.466 380.706 124.066V127H379.653L379.518 126.325C379.074 126.847 378.528 127.108 377.88 127.108C377.454 127.108 377.106 126.997 376.836 126.775C376.566 126.547 376.431 126.232 376.431 125.83V125.38C376.431 125.026 376.551 124.75 376.791 124.552C377.031 124.354 377.364 124.255 377.79 124.255H379.374V124.057C379.368 123.829 379.314 123.676 379.212 123.598C379.116 123.52 378.927 123.481 378.645 123.481C378.153 123.481 377.529 123.505 376.773 123.553ZM377.745 125.479V125.65C377.745 125.956 377.919 126.109 378.267 126.109C378.627 126.109 378.996 125.965 379.374 125.677V125.056H378.177C377.889 125.062 377.745 125.203 377.745 125.479ZM383.491 123.454V125.551C383.491 125.719 383.527 125.836 383.599 125.902C383.671 125.968 383.797 126.001 383.977 126.001H384.544L384.688 126.928C384.346 127.048 383.929 127.108 383.437 127.108C383.035 127.108 382.723 126.997 382.501 126.775C382.279 126.547 382.168 126.232 382.168 125.83V123.454H381.385V122.608L382.168 122.563V121.321H383.491V122.563H384.724V123.454H383.491ZM385.859 120.601H386.453C386.711 120.601 386.84 120.73 386.84 120.988V121.474C386.84 121.732 386.711 121.861 386.453 121.861H385.859C385.601 121.861 385.472 121.732 385.472 121.474V120.988C385.472 120.73 385.601 120.601 385.859 120.601ZM386.822 127H385.499V122.563H386.822V127ZM390.047 122.437C390.875 122.437 391.46 122.617 391.802 122.977C392.15 123.331 392.324 123.934 392.324 124.786C392.324 125.638 392.15 126.241 391.802 126.595C391.46 126.943 390.875 127.117 390.047 127.117C389.213 127.117 388.622 126.943 388.274 126.595C387.932 126.241 387.761 125.638 387.761 124.786C387.761 123.928 387.932 123.322 388.274 122.968C388.622 122.614 389.213 122.437 390.047 122.437ZM390.047 123.436C389.693 123.436 389.456 123.526 389.336 123.706C389.216 123.886 389.156 124.246 389.156 124.786C389.156 125.314 389.216 125.668 389.336 125.848C389.456 126.028 389.693 126.118 390.047 126.118C390.389 126.118 390.62 126.028 390.74 125.848C390.866 125.668 390.929 125.314 390.929 124.786C390.929 124.252 390.869 123.895 390.749 123.715C390.629 123.529 390.395 123.436 390.047 123.436ZM394.313 122.563L394.412 123.22C395.054 122.698 395.687 122.437 396.311 122.437C396.713 122.437 397.019 122.542 397.229 122.752C397.445 122.962 397.553 123.268 397.553 123.67V127H396.23V124.084C396.23 123.886 396.197 123.751 396.131 123.679C396.071 123.601 395.96 123.562 395.798 123.562C395.516 123.562 395.105 123.697 394.565 123.967V127H393.233V122.563H394.313Z" fill="#333351"/>
<path d="M470.755 101.578L470.359 104.35C470.329 104.585 470.348 104.742 470.414 104.823C470.487 104.904 470.645 104.944 470.887 104.944H471.646L471.701 105.934C471.327 106.059 470.872 106.121 470.337 106.121C469.845 106.121 469.482 105.982 469.248 105.703C469.02 105.424 468.943 105.032 469.017 104.526L469.435 101.578H468.456L468.577 100.665L469.578 100.61L469.798 99.059H471.118L470.898 100.61H472.46L472.339 101.578H470.755ZM474.181 98.267H474.786C474.918 98.267 475.013 98.3037 475.072 98.377C475.138 98.4503 475.163 98.5493 475.149 98.674L475.072 99.279C475.028 99.521 474.888 99.642 474.654 99.642H474.049C473.77 99.642 473.649 99.5027 473.686 99.224L473.774 98.63C473.796 98.388 473.931 98.267 474.181 98.267ZM474.093 106H472.762L473.521 100.61H474.841L474.093 106ZM477.379 100.61L477.357 101.677C478.149 100.863 478.9 100.456 479.612 100.456C480.015 100.456 480.327 100.555 480.547 100.753C480.767 100.951 480.884 101.226 480.899 101.578C481.295 101.182 481.661 100.896 481.999 100.72C482.336 100.544 482.684 100.456 483.044 100.456C483.52 100.456 483.869 100.592 484.089 100.863C484.316 101.134 484.393 101.505 484.32 101.974L483.759 106H482.439L482.945 102.326C482.989 102.047 482.97 101.857 482.89 101.754C482.816 101.644 482.681 101.589 482.483 101.589C482.255 101.589 482.024 101.662 481.79 101.809C481.562 101.948 481.229 102.223 480.789 102.634L480.316 106H479.04L479.546 102.326C479.582 102.062 479.568 101.875 479.502 101.765C479.436 101.648 479.296 101.589 479.084 101.589C478.849 101.589 478.614 101.659 478.38 101.798C478.152 101.937 477.822 102.201 477.39 102.59L476.917 106H475.597L476.356 100.61H477.379ZM489.919 104.911L490.007 105.78C489.442 106.015 488.68 106.132 487.719 106.132C486.758 106.132 486.091 105.89 485.717 105.406C485.343 104.915 485.222 104.167 485.354 103.162C485.493 102.128 485.783 101.42 486.223 101.039C486.663 100.65 487.389 100.456 488.401 100.456C489.296 100.456 489.897 100.61 490.205 100.918C490.52 101.219 490.638 101.662 490.557 102.249C490.484 102.777 490.278 103.158 489.941 103.393C489.604 103.628 489.087 103.767 488.39 103.811L486.685 103.954C486.692 104.379 486.795 104.669 486.993 104.823C487.191 104.97 487.492 105.043 487.895 105.043C488.504 105.043 489.178 104.999 489.919 104.911ZM486.762 103.052L488.302 102.92C488.61 102.898 488.834 102.832 488.973 102.722C489.12 102.605 489.211 102.407 489.248 102.128C489.27 101.849 489.215 101.677 489.083 101.611C488.951 101.545 488.669 101.512 488.236 101.512C487.752 101.519 487.411 101.626 487.213 101.831C487.015 102.029 486.865 102.436 486.762 103.052Z" fill="#333351"/>
<path d="M229.996 35.208H227.524V42H225.688V35.208H223.216V33.72H229.996V35.208ZM232.871 42H231.047V33.72H232.871V42ZM241.199 33.72H242.963C243.403 33.72 243.631 33.948 243.647 34.404L243.971 42H242.243L241.967 35.148H241.763L240.515 40.272C240.435 40.664 240.187 40.86 239.771 40.86H238.571C238.155 40.86 237.907 40.664 237.827 40.272L236.567 35.148H236.363L236.123 42H234.395L234.695 34.404C234.719 33.948 234.947 33.72 235.379 33.72H237.143C237.535 33.72 237.775 33.916 237.863 34.308L238.871 38.436C238.935 38.7 239.007 39.088 239.087 39.6H239.243C239.251 39.56 239.279 39.396 239.327 39.108C239.383 38.82 239.427 38.596 239.459 38.436L240.455 34.308C240.551 33.916 240.799 33.72 241.199 33.72ZM250.993 40.572L251.077 41.916C250.325 41.996 249.045 42.036 247.237 42.036C246.685 42.036 246.245 41.888 245.917 41.592C245.589 41.288 245.421 40.88 245.413 40.368V35.352C245.421 34.84 245.589 34.436 245.917 34.14C246.245 33.836 246.685 33.684 247.237 33.684C249.045 33.684 250.325 33.724 251.077 33.804L250.993 35.16H247.813C247.613 35.16 247.469 35.208 247.381 35.304C247.293 35.4 247.249 35.556 247.249 35.772V37.032H250.549V38.352H247.249V39.948C247.249 40.172 247.293 40.332 247.381 40.428C247.469 40.524 247.613 40.572 247.813 40.572H250.993ZM258.06 38.868L256.392 38.28C255.776 38.056 255.336 37.752 255.072 37.368C254.808 36.984 254.676 36.48 254.676 35.856C254.676 34.944 254.896 34.336 255.336 34.032C255.784 33.72 256.568 33.564 257.688 33.564C258.744 33.564 259.652 33.672 260.412 33.888L260.292 35.136C259.596 35.112 258.732 35.1 257.7 35.1C257.22 35.1 256.9 35.144 256.74 35.232C256.58 35.312 256.5 35.52 256.5 35.856C256.5 36.128 256.56 36.324 256.68 36.444C256.8 36.564 257.028 36.68 257.364 36.792L258.936 37.332C259.576 37.556 260.028 37.864 260.292 38.256C260.556 38.64 260.688 39.144 260.688 39.768C260.688 40.696 260.464 41.328 260.016 41.664C259.568 41.992 258.768 42.156 257.616 42.156C256.68 42.156 255.732 42.052 254.772 41.844L254.88 40.524C256.584 40.564 257.496 40.584 257.616 40.584C258.104 40.584 258.428 40.532 258.588 40.428C258.756 40.324 258.84 40.108 258.84 39.78C258.84 39.5 258.784 39.304 258.672 39.192C258.56 39.072 258.356 38.964 258.06 38.868ZM263.785 33.72V39.9C263.785 40.116 263.833 40.272 263.929 40.368C264.033 40.464 264.201 40.512 264.433 40.512H267.277L267.361 41.904C266.553 41.992 265.385 42.036 263.857 42.036C263.217 42.036 262.741 41.876 262.429 41.556C262.117 41.236 261.961 40.808 261.961 40.272V33.72H263.785ZM268.746 34.488C269.266 33.872 270.19 33.564 271.518 33.564C272.846 33.564 273.77 33.872 274.29 34.488C274.81 35.096 275.07 36.22 275.07 37.86C275.07 39.5 274.81 40.628 274.29 41.244C273.77 41.852 272.846 42.156 271.518 42.156C270.19 42.156 269.266 41.852 268.746 41.244C268.234 40.628 267.978 39.5 267.978 37.86C267.978 36.22 268.234 35.096 268.746 34.488ZM272.79 35.628C272.566 35.236 272.142 35.04 271.518 35.04C270.894 35.04 270.466 35.236 270.234 35.628C270.01 36.02 269.898 36.764 269.898 37.86C269.898 38.956 270.01 39.7 270.234 40.092C270.466 40.484 270.894 40.68 271.518 40.68C272.142 40.68 272.566 40.484 272.79 40.092C273.022 39.7 273.138 38.956 273.138 37.86C273.138 36.764 273.022 36.02 272.79 35.628ZM282.531 35.208H280.059V42H278.223V35.208H275.751V33.72H282.531V35.208Z" fill="#333351"/>
<g filter="url(#filter0_d)">
<path d="M18 77C16.8954 77 16 77.8954 16 79C16 80.1046 16.8954 81 18 81L18 77ZM490.414 80.4143C491.195 79.6332 491.195 78.3669 490.414 77.5858L477.686 64.8579C476.905 64.0769 475.639 64.0769 474.858 64.8579C474.077 65.639 474.077 66.9053 474.858 67.6863L486.172 79L474.858 90.3137C474.077 91.0948 474.077 92.3611 474.858 93.1422C475.639 93.9232 476.905 93.9232 477.686 93.1422L490.414 80.4143ZM18 81L489 81L489 77L18 77L18 81Z" fill="#4C93E0"/>
</g>
<defs>
<filter id="filter0_d" x="6" y="54.2721" width="495" height="49.4559" filterUnits="userSpaceOnUse" color-interpolation-filters="sRGB">
<feFlood flood-opacity="0" result="BackgroundImageFix"/>
<feColorMatrix in="SourceAlpha" type="matrix" values="0 0 0 0 0 0 0 0 0 0 0 0 0 0 0 0 0 0 127 0"/>
<feOffset/>
<feGaussianBlur stdDeviation="5"/>
<feColorMatrix type="matrix" values="0 0 0 0 0.298039 0 0 0 0 0.576471 0 0 0 0 0.878431 0 0 0 0.15 0"/>
<feBlend mode="normal" in2="BackgroundImageFix" result="effect1_dropShadow"/>
<feBlend mode="normal" in="SourceGraphic" in2="effect1_dropShadow" result="shape"/>
</filter>
</defs>
</svg>
