<svg width="544" height="97" viewBox="0 0 544 97" fill="none" xmlns="http://www.w3.org/2000/svg">
<path d="M116.675 6.76038L117.548 0.550383C118.058 0.502383 118.772 0.478383 119.69 0.478383C120.47 0.478383 121.01 0.598383 121.31 0.838383C121.616 1.07838 121.724 1.51338 121.634 2.14338C121.568 2.58738 121.439 2.92038 121.247 3.14238C121.055 3.36438 120.767 3.49338 120.383 3.52938L120.374 3.57438C121.214 3.64038 121.556 4.20138 121.4 5.25738C121.31 5.88138 121.103 6.30138 120.779 6.51738C120.461 6.72738 119.936 6.83238 119.204 6.83238C118.094 6.83238 117.251 6.80838 116.675 6.76038ZM118.295 3.13338H119.393C119.777 3.13338 120.053 3.07038 120.221 2.94438C120.389 2.81238 120.497 2.56638 120.545 2.20638C120.593 1.87038 120.554 1.65138 120.428 1.54938C120.302 1.44138 120.038 1.38738 119.636 1.38738H118.538L118.295 3.13338ZM117.899 5.91438L119.024 5.92338C119.468 5.92338 119.777 5.86038 119.951 5.73438C120.131 5.60238 120.248 5.34438 120.302 4.96038C120.356 4.56438 120.317 4.30038 120.185 4.16838C120.053 4.03038 119.774 3.95838 119.348 3.95238H118.178L117.899 5.91438Z" fill="#333351"/>
<path d="M124.207 0.460383L123.505 5.41038C123.481 5.59638 123.499 5.72538 123.559 5.79738C123.625 5.86338 123.754 5.89638 123.946 5.89638H124.342L124.387 6.71538C124.195 6.81138 123.886 6.85938 123.46 6.85938C123.082 6.85938 122.797 6.75138 122.605 6.53538C122.413 6.31938 122.341 6.01638 122.389 5.62638L123.118 0.460383H124.207Z" fill="#333351"/>
<path d="M127.579 2.22438C128.359 2.22438 128.899 2.41038 129.199 2.78238C129.505 3.14838 129.598 3.75438 129.478 4.60038C129.364 5.42838 129.121 6.01638 128.749 6.36438C128.383 6.70638 127.816 6.87738 127.048 6.87738C126.274 6.87738 125.731 6.69438 125.419 6.32838C125.107 5.96238 125.008 5.35938 125.122 4.51938C125.242 3.68538 125.485 3.09438 125.851 2.74638C126.217 2.39838 126.793 2.22438 127.579 2.22438ZM127.57 3.09738C127.156 3.09738 126.856 3.19938 126.67 3.40338C126.484 3.60738 126.349 4.00638 126.265 4.60038C126.181 5.15238 126.193 5.52438 126.301 5.71638C126.409 5.90838 126.661 6.00438 127.057 6.00438C127.471 6.00438 127.771 5.90238 127.957 5.69838C128.143 5.48838 128.275 5.09538 128.353 4.51938C128.431 3.95538 128.416 3.57738 128.308 3.38538C128.206 3.19338 127.96 3.09738 127.57 3.09738Z" fill="#333351"/>
<path d="M133.728 5.87838L133.8 6.60738C133.344 6.78138 132.801 6.86838 132.171 6.86838C131.379 6.86838 130.836 6.68538 130.542 6.31938C130.248 5.95338 130.161 5.35038 130.281 4.51038C130.401 3.67038 130.641 3.07938 131.001 2.73738C131.361 2.39538 131.925 2.22438 132.693 2.22438C133.329 2.22438 133.845 2.31138 134.241 2.48538L134.088 3.15138C133.476 3.13938 133.065 3.13338 132.855 3.13338C132.375 3.13338 132.033 3.22938 131.829 3.42138C131.631 3.60738 131.496 3.99138 131.424 4.57338C131.352 5.16138 131.379 5.54238 131.505 5.71638C131.631 5.88438 131.919 5.96838 132.369 5.96838C132.873 5.96838 133.326 5.93838 133.728 5.87838Z" fill="#333351"/>
<path d="M137.977 2.35038H139.093C138.865 3.14838 138.391 3.80838 137.671 4.33038C137.779 4.47438 137.881 4.65438 137.977 4.87038L138.805 6.76038H137.644L136.852 4.82538C136.642 4.93938 136.336 5.08638 135.934 5.26638L135.709 6.76038H134.62L135.502 0.460383H136.6L136.222 3.27738C136.174 3.63738 136.072 4.00638 135.916 4.38438C137.11 3.75438 137.797 3.07638 137.977 2.35038Z" fill="#333351"/>
<path d="M146.254 2.84538L145.813 4.25838H146.803L146.578 4.92438H145.606L145.03 6.76038H144.184L144.76 4.92438H143.347L142.771 6.76038H141.925L142.501 4.92438H141.448L141.673 4.25838H142.708L143.158 2.84538H142.114L142.348 2.17038H143.365L143.878 0.550383H144.724L144.211 2.17038H145.624L146.137 0.550383H146.983L146.47 2.17038H147.478L147.244 2.84538H146.254ZM145.417 2.84538H143.995L143.554 4.25838H144.967L145.417 2.84538Z" fill="#333351"/>
<path d="M149.947 6.76038H148.822L149.47 2.16138C149.5 1.92138 149.542 1.71438 149.596 1.54038L148.093 1.98138L148.057 1.18038L149.695 0.550383H150.82L149.947 6.76038Z" fill="#333351"/>
<path d="M151.595 6.70638L151.73 5.92338C152.192 5.94138 152.645 5.94738 153.089 5.94138C153.647 5.92938 154.04 5.79138 154.268 5.52738C154.496 5.26338 154.679 4.76838 154.817 4.04238C154.415 4.44438 153.944 4.64538 153.404 4.64538C152.24 4.64538 151.733 3.95838 151.883 2.58438C151.973 1.79838 152.204 1.24638 152.576 0.928383C152.954 0.604383 153.515 0.442383 154.259 0.442383C155.093 0.442383 155.633 0.667383 155.879 1.11738C156.131 1.56738 156.164 2.40438 155.978 3.62838C155.846 4.51038 155.663 5.18538 155.429 5.65338C155.201 6.12138 154.91 6.44238 154.556 6.61638C154.208 6.78438 153.734 6.86838 153.134 6.86838C152.582 6.86838 152.069 6.81438 151.595 6.70638ZM153.656 3.77238C153.896 3.77238 154.112 3.72738 154.304 3.63738C154.496 3.54738 154.718 3.38238 154.97 3.14238C155.084 2.42838 155.09 1.95438 154.988 1.72038C154.892 1.48038 154.622 1.36038 154.178 1.36038C153.746 1.36038 153.443 1.45338 153.269 1.63938C153.095 1.82538 152.978 2.15538 152.918 2.62938C152.87 3.04338 152.897 3.33738 152.999 3.51138C153.101 3.68538 153.32 3.77238 153.656 3.77238Z" fill="#333351"/>
<path fill-rule="evenodd" clip-rule="evenodd" d="M72.8899 13.3008C72.8899 12.1962 73.7853 11.3008 74.8899 11.3008H197.05C198.155 11.3008 199.05 12.1962 199.05 13.3008V14.7604C199.05 15.3127 198.602 15.7604 198.05 15.7604C197.498 15.7604 197.05 15.3127 197.05 14.7604L197.05 13.3008H74.8899V14.7604C74.8899 15.3127 74.4422 15.7604 73.8899 15.7604C73.3376 15.7604 72.8899 15.3127 72.8899 14.7604V13.3008Z" fill="#333351" stroke="#333351" stroke-width="2" stroke-linecap="round"/>
<path d="M241.862 6.76059L242.735 0.550593C243.245 0.502594 243.959 0.478594 244.877 0.478594C245.657 0.478594 246.197 0.598594 246.497 0.838593C246.803 1.07859 246.911 1.51359 246.821 2.14359C246.755 2.58759 246.626 2.92059 246.434 3.14259C246.242 3.36459 245.954 3.49359 245.57 3.52959L245.561 3.57459C246.401 3.64059 246.743 4.20159 246.587 5.25759C246.497 5.88159 246.29 6.30159 245.966 6.51759C245.648 6.72759 245.123 6.83259 244.391 6.83259C243.281 6.83259 242.438 6.80859 241.862 6.76059ZM243.482 3.13359H244.58C244.964 3.13359 245.24 3.07059 245.408 2.94459C245.576 2.81259 245.684 2.56659 245.732 2.20659C245.78 1.87059 245.741 1.65159 245.615 1.54959C245.489 1.44159 245.225 1.38759 244.823 1.38759H243.725L243.482 3.13359ZM243.086 5.91459L244.211 5.92359C244.655 5.92359 244.964 5.86059 245.138 5.73459C245.318 5.60259 245.435 5.34459 245.489 4.96059C245.543 4.56459 245.504 4.30059 245.372 4.16859C245.24 4.03059 244.961 3.95859 244.535 3.95259H243.365L243.086 5.91459Z" fill="#333351"/>
<path d="M249.394 0.460593L248.692 5.41059C248.668 5.59659 248.686 5.72559 248.746 5.79759C248.812 5.86359 248.941 5.89659 249.133 5.89659H249.529L249.574 6.71559C249.382 6.81159 249.073 6.85959 248.647 6.85959C248.269 6.85959 247.984 6.75159 247.792 6.53559C247.6 6.31959 247.528 6.01659 247.576 5.62659L248.305 0.460593H249.394Z" fill="#333351"/>
<path d="M252.766 2.22459C253.546 2.22459 254.086 2.41059 254.386 2.78259C254.692 3.14859 254.785 3.75459 254.665 4.60059C254.551 5.42859 254.308 6.01659 253.936 6.36459C253.57 6.70659 253.003 6.87759 252.235 6.87759C251.461 6.87759 250.918 6.69459 250.606 6.32859C250.294 5.96259 250.195 5.35959 250.309 4.51959C250.429 3.68559 250.672 3.09459 251.038 2.74659C251.404 2.39859 251.98 2.22459 252.766 2.22459ZM252.757 3.09759C252.343 3.09759 252.043 3.19959 251.857 3.40359C251.671 3.60759 251.536 4.00659 251.452 4.60059C251.368 5.15259 251.38 5.52459 251.488 5.71659C251.596 5.90859 251.848 6.00459 252.244 6.00459C252.658 6.00459 252.958 5.90259 253.144 5.69859C253.33 5.48859 253.462 5.09559 253.54 4.51959C253.618 3.95559 253.603 3.57759 253.495 3.38559C253.393 3.19359 253.147 3.09759 252.757 3.09759Z" fill="#333351"/>
<path d="M258.915 5.87859L258.987 6.60759C258.531 6.78159 257.988 6.86859 257.358 6.86859C256.566 6.86859 256.023 6.68559 255.729 6.31959C255.435 5.95359 255.348 5.35059 255.468 4.51059C255.588 3.67059 255.828 3.07959 256.188 2.73759C256.548 2.39559 257.112 2.22459 257.88 2.22459C258.516 2.22459 259.032 2.31159 259.428 2.48559L259.275 3.15159C258.663 3.13959 258.252 3.13359 258.042 3.13359C257.562 3.13359 257.22 3.22959 257.016 3.42159C256.818 3.60759 256.683 3.99159 256.611 4.57359C256.539 5.16159 256.566 5.54259 256.692 5.71659C256.818 5.88459 257.106 5.96859 257.556 5.96859C258.06 5.96859 258.513 5.93859 258.915 5.87859Z" fill="#333351"/>
<path d="M263.164 2.35059H264.28C264.052 3.14859 263.578 3.80859 262.858 4.33059C262.966 4.47459 263.068 4.65459 263.164 4.87059L263.992 6.76059H262.831L262.039 4.82559C261.829 4.93959 261.523 5.08659 261.121 5.26659L260.896 6.76059H259.807L260.689 0.460593H261.787L261.409 3.27759C261.361 3.63759 261.259 4.00659 261.103 4.38459C262.297 3.75459 262.984 3.07659 263.164 2.35059Z" fill="#333351"/>
<path d="M271.441 2.84559L271 4.25859H271.99L271.765 4.92459H270.793L270.217 6.76059H269.371L269.947 4.92459H268.534L267.958 6.76059H267.112L267.688 4.92459H266.635L266.86 4.25859H267.895L268.345 2.84559H267.301L267.535 2.17059H268.552L269.065 0.550593H269.911L269.398 2.17059H270.811L271.324 0.550593H272.17L271.657 2.17059H272.665L272.431 2.84559H271.441ZM270.604 2.84559H269.182L268.741 4.25859H270.154L270.604 2.84559Z" fill="#333351"/>
<path d="M273.57 1.53159V0.658594C274.284 0.514594 274.944 0.442594 275.55 0.442594C276.204 0.442594 276.69 0.544594 277.008 0.748594C277.326 0.952594 277.455 1.33059 277.395 1.88259C277.353 2.24859 277.239 2.58459 277.053 2.89059C276.867 3.19659 276.549 3.56559 276.099 3.99759L274.236 5.75259C274.476 5.71659 274.785 5.69859 275.163 5.69859H277.071L276.927 6.76059H272.697L272.796 6.06759C272.826 5.84559 272.889 5.68659 272.985 5.59059L274.857 3.80859C275.331 3.37659 275.676 3.01659 275.892 2.72859C276.114 2.44059 276.237 2.16759 276.261 1.90959C276.285 1.70559 276.234 1.57359 276.108 1.51359C275.982 1.45359 275.757 1.42359 275.433 1.42359C274.833 1.42359 274.212 1.45959 273.57 1.53159Z" fill="#333351"/>
<path d="M280.918 0.433594C281.758 0.433594 282.322 0.691594 282.61 1.20759C282.898 1.71759 282.961 2.54859 282.799 3.70059C282.637 4.85859 282.355 5.67759 281.953 6.15759C281.557 6.63759 280.954 6.87759 280.144 6.87759C279.316 6.87759 278.755 6.62559 278.461 6.12159C278.167 5.61159 278.104 4.77459 278.272 3.61059C278.428 2.45259 278.704 1.63359 279.1 1.15359C279.502 0.673594 280.108 0.433594 280.918 0.433594ZM280.891 1.37859C280.429 1.37859 280.087 1.54659 279.865 1.88259C279.643 2.21259 279.475 2.81259 279.361 3.68259C279.235 4.54059 279.226 5.13159 279.334 5.45559C279.448 5.77359 279.721 5.93259 280.153 5.93259C280.621 5.93259 280.966 5.76759 281.188 5.43759C281.416 5.10159 281.59 4.49859 281.71 3.62859C281.836 2.77059 281.839 2.18259 281.719 1.86459C281.605 1.54059 281.329 1.37859 280.891 1.37859Z" fill="#333351"/>
<path fill-rule="evenodd" clip-rule="evenodd" d="M200.163 13.3008C200.163 12.1962 201.058 11.3008 202.163 11.3008H322.14C323.245 11.3008 324.14 12.1962 324.14 13.3008V14.7604C324.14 15.3127 323.693 15.7604 323.14 15.7604C322.588 15.7604 322.14 15.3127 322.14 14.7604L322.14 13.3008H202.163V14.7604C202.163 15.3127 201.715 15.7604 201.163 15.7604C200.611 15.7604 200.163 15.3127 200.163 14.7604V13.3008Z" fill="#333351" stroke="#333351" stroke-width="2" stroke-linecap="round"/>
<path d="M367.804 6.76038L368.677 0.550383C369.187 0.502383 369.901 0.478383 370.819 0.478383C371.599 0.478383 372.139 0.598383 372.439 0.838383C372.745 1.07838 372.853 1.51338 372.763 2.14338C372.697 2.58738 372.568 2.92038 372.376 3.14238C372.184 3.36438 371.896 3.49338 371.512 3.52938L371.503 3.57438C372.343 3.64038 372.685 4.20138 372.529 5.25738C372.439 5.88138 372.232 6.30138 371.908 6.51738C371.59 6.72738 371.065 6.83238 370.333 6.83238C369.223 6.83238 368.38 6.80838 367.804 6.76038ZM369.424 3.13338H370.522C370.906 3.13338 371.182 3.07038 371.35 2.94438C371.518 2.81238 371.626 2.56638 371.674 2.20638C371.722 1.87038 371.683 1.65138 371.557 1.54938C371.431 1.44138 371.167 1.38738 370.765 1.38738H369.667L369.424 3.13338ZM369.028 5.91438L370.153 5.92338C370.597 5.92338 370.906 5.86038 371.08 5.73438C371.26 5.60238 371.377 5.34438 371.431 4.96038C371.485 4.56438 371.446 4.30038 371.314 4.16838C371.182 4.03038 370.903 3.95838 370.477 3.95238H369.307L369.028 5.91438Z" fill="#333351"/>
<path d="M375.337 0.460383L374.635 5.41038C374.611 5.59638 374.629 5.72538 374.689 5.79738C374.755 5.86338 374.884 5.89638 375.076 5.89638H375.472L375.517 6.71538C375.325 6.81138 375.016 6.85938 374.59 6.85938C374.212 6.85938 373.927 6.75138 373.735 6.53538C373.543 6.31938 373.471 6.01638 373.519 5.62638L374.248 0.460383H375.337Z" fill="#333351"/>
<path d="M378.708 2.22438C379.488 2.22438 380.028 2.41038 380.328 2.78238C380.634 3.14838 380.727 3.75438 380.607 4.60038C380.493 5.42838 380.25 6.01638 379.878 6.36438C379.512 6.70638 378.945 6.87738 378.177 6.87738C377.403 6.87738 376.86 6.69438 376.548 6.32838C376.236 5.96238 376.137 5.35938 376.251 4.51938C376.371 3.68538 376.614 3.09438 376.98 2.74638C377.346 2.39838 377.922 2.22438 378.708 2.22438ZM378.699 3.09738C378.285 3.09738 377.985 3.19938 377.799 3.40338C377.613 3.60738 377.478 4.00638 377.394 4.60038C377.31 5.15238 377.322 5.52438 377.43 5.71638C377.538 5.90838 377.79 6.00438 378.186 6.00438C378.6 6.00438 378.9 5.90238 379.086 5.69838C379.272 5.48838 379.404 5.09538 379.482 4.51938C379.56 3.95538 379.545 3.57738 379.437 3.38538C379.335 3.19338 379.089 3.09738 378.699 3.09738Z" fill="#333351"/>
<path d="M384.857 5.87838L384.929 6.60738C384.473 6.78138 383.93 6.86838 383.3 6.86838C382.508 6.86838 381.965 6.68538 381.671 6.31938C381.377 5.95338 381.29 5.35038 381.41 4.51038C381.53 3.67038 381.77 3.07938 382.13 2.73738C382.49 2.39538 383.054 2.22438 383.822 2.22438C384.458 2.22438 384.974 2.31138 385.37 2.48538L385.217 3.15138C384.605 3.13938 384.194 3.13338 383.984 3.13338C383.504 3.13338 383.162 3.22938 382.958 3.42138C382.76 3.60738 382.625 3.99138 382.553 4.57338C382.481 5.16138 382.508 5.54238 382.634 5.71638C382.76 5.88438 383.048 5.96838 383.498 5.96838C384.002 5.96838 384.455 5.93838 384.857 5.87838Z" fill="#333351"/>
<path d="M389.106 2.35038H390.222C389.994 3.14838 389.52 3.80838 388.8 4.33038C388.908 4.47438 389.01 4.65438 389.106 4.87038L389.934 6.76038H388.773L387.981 4.82538C387.771 4.93938 387.465 5.08638 387.063 5.26638L386.838 6.76038H385.749L386.631 0.460383H387.729L387.351 3.27738C387.303 3.63738 387.201 4.00638 387.045 4.38438C388.239 3.75438 388.926 3.07638 389.106 2.35038Z" fill="#333351"/>
<path d="M397.383 2.84538L396.942 4.25838H397.932L397.707 4.92438H396.735L396.159 6.76038H395.313L395.889 4.92438H394.476L393.9 6.76038H393.054L393.63 4.92438H392.577L392.802 4.25838H393.837L394.287 2.84538H393.243L393.477 2.17038H394.494L395.007 0.550383H395.853L395.34 2.17038H396.753L397.266 0.550383H398.112L397.599 2.17038H398.607L398.373 2.84538H397.383ZM396.546 2.84538H395.124L394.683 4.25838H396.096L396.546 2.84538Z" fill="#333351"/>
<path d="M399.512 1.53138V0.658383C400.226 0.514383 400.886 0.442383 401.492 0.442383C402.146 0.442383 402.632 0.544383 402.95 0.748383C403.268 0.952383 403.397 1.33038 403.337 1.88238C403.295 2.24838 403.181 2.58438 402.995 2.89038C402.809 3.19638 402.491 3.56538 402.041 3.99738L400.178 5.75238C400.418 5.71638 400.727 5.69838 401.105 5.69838H403.013L402.869 6.76038H398.639L398.738 6.06738C398.768 5.84538 398.831 5.68638 398.927 5.59038L400.799 3.80838C401.273 3.37638 401.618 3.01638 401.834 2.72838C402.056 2.44038 402.179 2.16738 402.203 1.90938C402.227 1.70538 402.176 1.57338 402.05 1.51338C401.924 1.45338 401.699 1.42338 401.375 1.42338C400.775 1.42338 400.154 1.45938 399.512 1.53138Z" fill="#333351"/>
<path d="M406.068 6.76038H404.943L405.591 2.16138C405.621 1.92138 405.663 1.71438 405.717 1.54038L404.214 1.98138L404.178 1.18038L405.816 0.550383H406.941L406.068 6.76038Z" fill="#333351"/>
<path d="M459.351 3.16059H460.431L459.927 6.76059H459.117L459.09 5.96859C458.574 6.57459 457.941 6.87759 457.191 6.87759C456.567 6.87759 456.126 6.61659 455.868 6.09459C455.616 5.57259 455.553 4.74459 455.679 3.61059C455.763 2.95659 455.886 2.41959 456.048 1.99959C456.216 1.57359 456.435 1.24959 456.705 1.02759C456.975 0.799594 457.266 0.643594 457.578 0.559594C457.896 0.475594 458.286 0.433594 458.748 0.433594C459.456 0.433594 460.065 0.505594 460.575 0.649594L460.422 1.47759C459.846 1.44159 459.318 1.42359 458.838 1.42359C458.382 1.42359 458.034 1.48059 457.794 1.59459C457.554 1.70259 457.359 1.91859 457.209 2.24259C457.059 2.56659 456.942 3.05259 456.858 3.70059C456.768 4.52859 456.777 5.10159 456.885 5.41959C456.993 5.73759 457.239 5.89659 457.623 5.89659C457.893 5.89659 458.13 5.83659 458.334 5.71659C458.544 5.59659 458.793 5.39559 459.081 5.11359L459.351 3.16059Z" fill="#333351"/>
<path d="M464.912 5.86959L464.984 6.58059C464.522 6.77259 463.898 6.86859 463.112 6.86859C462.326 6.86859 461.78 6.67059 461.474 6.27459C461.168 5.87259 461.069 5.26059 461.177 4.43859C461.291 3.59259 461.528 3.01359 461.888 2.70159C462.248 2.38359 462.842 2.22459 463.67 2.22459C464.402 2.22459 464.894 2.35059 465.146 2.60259C465.404 2.84859 465.5 3.21159 465.434 3.69159C465.374 4.12359 465.206 4.43559 464.93 4.62759C464.654 4.81959 464.231 4.93359 463.661 4.96959L462.266 5.08659C462.272 5.43459 462.356 5.67159 462.518 5.79759C462.68 5.91759 462.926 5.97759 463.256 5.97759C463.754 5.97759 464.306 5.94159 464.912 5.86959ZM462.329 4.34859L463.589 4.24059C463.841 4.22259 464.024 4.16859 464.138 4.07859C464.258 3.98259 464.333 3.82059 464.363 3.59259C464.381 3.36459 464.336 3.22359 464.228 3.16959C464.12 3.11559 463.889 3.08859 463.535 3.08859C463.139 3.09459 462.86 3.18159 462.698 3.34959C462.536 3.51159 462.413 3.84459 462.329 4.34859Z" fill="#333351"/>
<path d="M467.467 2.35059L467.44 3.25959C468.184 2.56959 468.868 2.22459 469.492 2.22459C469.864 2.22459 470.146 2.33259 470.338 2.54859C470.536 2.76459 470.608 3.07059 470.554 3.46659L470.086 6.76059H468.997L469.411 3.77259C469.441 3.52659 469.432 3.36159 469.384 3.27759C469.342 3.18759 469.243 3.14559 469.087 3.15159C468.859 3.15159 468.625 3.21759 468.385 3.34959C468.145 3.48159 467.833 3.69759 467.449 3.99759L467.071 6.76059H465.982L466.603 2.35059H467.467Z" fill="#333351"/>
<path d="M475.125 5.86959L475.197 6.58059C474.735 6.77259 474.111 6.86859 473.325 6.86859C472.539 6.86859 471.993 6.67059 471.687 6.27459C471.381 5.87259 471.282 5.26059 471.39 4.43859C471.504 3.59259 471.741 3.01359 472.101 2.70159C472.461 2.38359 473.055 2.22459 473.883 2.22459C474.615 2.22459 475.107 2.35059 475.359 2.60259C475.617 2.84859 475.713 3.21159 475.647 3.69159C475.587 4.12359 475.419 4.43559 475.143 4.62759C474.867 4.81959 474.444 4.93359 473.874 4.96959L472.479 5.08659C472.485 5.43459 472.569 5.67159 472.731 5.79759C472.893 5.91759 473.139 5.97759 473.469 5.97759C473.967 5.97759 474.519 5.94159 475.125 5.86959ZM472.542 4.34859L473.802 4.24059C474.054 4.22259 474.237 4.16859 474.351 4.07859C474.471 3.98259 474.546 3.82059 474.576 3.59259C474.594 3.36459 474.549 3.22359 474.441 3.16959C474.333 3.11559 474.102 3.08859 473.748 3.08859C473.352 3.09459 473.073 3.18159 472.911 3.34959C472.749 3.51159 472.626 3.84459 472.542 4.34859Z" fill="#333351"/>
<path d="M478.436 5.15859L477.311 4.65459C476.969 4.49859 476.729 4.31559 476.591 4.10559C476.453 3.89559 476.402 3.63459 476.438 3.32259C476.486 2.91459 476.66 2.62959 476.96 2.46759C477.266 2.29959 477.731 2.21859 478.355 2.22459C479.057 2.23659 479.708 2.29059 480.308 2.38659L480.191 3.13359C479.621 3.11559 479.033 3.10659 478.427 3.10659C478.061 3.10659 477.818 3.12159 477.698 3.15159C477.578 3.18159 477.509 3.26259 477.491 3.39459C477.473 3.51459 477.5 3.60759 477.572 3.67359C477.644 3.73359 477.785 3.80859 477.995 3.89859L479.12 4.40259C479.492 4.56459 479.747 4.74159 479.885 4.93359C480.023 5.11959 480.071 5.37759 480.029 5.70759C479.999 5.91159 479.945 6.08259 479.867 6.22059C479.789 6.35859 479.693 6.46959 479.579 6.55359C479.471 6.63759 479.324 6.70359 479.138 6.75159C478.958 6.79359 478.775 6.82059 478.589 6.83259C478.403 6.85059 478.172 6.85959 477.896 6.85959C477.668 6.85959 477.467 6.85359 477.293 6.84159C477.119 6.83559 476.987 6.82659 476.897 6.81459C476.813 6.80859 476.684 6.79359 476.51 6.76959C476.336 6.74559 476.195 6.72759 476.087 6.71559L476.204 5.95059C476.522 5.97459 476.978 5.98659 477.572 5.98659C478.118 5.98659 478.478 5.96559 478.652 5.92359C478.832 5.87559 478.937 5.77959 478.967 5.63559C478.961 5.59959 478.961 5.57259 478.967 5.55459C478.979 5.53059 478.976 5.50659 478.958 5.48259C478.94 5.45859 478.928 5.44059 478.922 5.42859C478.922 5.41659 478.907 5.40159 478.877 5.38359C478.853 5.36559 478.835 5.35059 478.823 5.33859C478.811 5.32659 478.787 5.31459 478.751 5.30259C478.715 5.28459 478.685 5.26959 478.661 5.25759C478.637 5.24559 478.601 5.23059 478.553 5.21259C478.505 5.18859 478.466 5.17059 478.436 5.15859Z" fill="#333351"/>
<path d="M482.015 0.433594H482.51C482.618 0.433594 482.696 0.463594 482.744 0.523594C482.798 0.583594 482.819 0.664594 482.807 0.766594L482.744 1.26159C482.708 1.45959 482.594 1.55859 482.402 1.55859H481.907C481.679 1.55859 481.58 1.44459 481.61 1.21659L481.682 0.730594C481.7 0.532594 481.811 0.433594 482.015 0.433594ZM481.943 6.76059H480.854L481.475 2.35059H482.555L481.943 6.76059Z" fill="#333351"/>
<path d="M485.414 5.15859L484.289 4.65459C483.947 4.49859 483.707 4.31559 483.569 4.10559C483.431 3.89559 483.38 3.63459 483.416 3.32259C483.464 2.91459 483.638 2.62959 483.938 2.46759C484.244 2.29959 484.709 2.21859 485.333 2.22459C486.035 2.23659 486.686 2.29059 487.286 2.38659L487.169 3.13359C486.599 3.11559 486.011 3.10659 485.405 3.10659C485.039 3.10659 484.796 3.12159 484.676 3.15159C484.556 3.18159 484.487 3.26259 484.469 3.39459C484.451 3.51459 484.478 3.60759 484.55 3.67359C484.622 3.73359 484.763 3.80859 484.973 3.89859L486.098 4.40259C486.47 4.56459 486.725 4.74159 486.863 4.93359C487.001 5.11959 487.049 5.37759 487.007 5.70759C486.977 5.91159 486.923 6.08259 486.845 6.22059C486.767 6.35859 486.671 6.46959 486.557 6.55359C486.449 6.63759 486.302 6.70359 486.116 6.75159C485.936 6.79359 485.753 6.82059 485.567 6.83259C485.381 6.85059 485.15 6.85959 484.874 6.85959C484.646 6.85959 484.445 6.85359 484.271 6.84159C484.097 6.83559 483.965 6.82659 483.875 6.81459C483.791 6.80859 483.662 6.79359 483.488 6.76959C483.314 6.74559 483.173 6.72759 483.065 6.71559L483.182 5.95059C483.5 5.97459 483.956 5.98659 484.55 5.98659C485.096 5.98659 485.456 5.96559 485.63 5.92359C485.81 5.87559 485.915 5.77959 485.945 5.63559C485.939 5.59959 485.939 5.57259 485.945 5.55459C485.957 5.53059 485.954 5.50659 485.936 5.48259C485.918 5.45859 485.906 5.44059 485.9 5.42859C485.9 5.41659 485.885 5.40159 485.855 5.38359C485.831 5.36559 485.813 5.35059 485.801 5.33859C485.789 5.32659 485.765 5.31459 485.729 5.30259C485.693 5.28459 485.663 5.26959 485.639 5.25759C485.615 5.24559 485.579 5.23059 485.531 5.21259C485.483 5.18859 485.444 5.17059 485.414 5.15859Z" fill="#333351"/>
<path d="M489.855 6.76059L490.728 0.550593C491.238 0.502594 491.952 0.478594 492.87 0.478594C493.65 0.478594 494.19 0.598594 494.49 0.838593C494.796 1.07859 494.904 1.51359 494.814 2.14359C494.748 2.58759 494.619 2.92059 494.427 3.14259C494.235 3.36459 493.947 3.49359 493.563 3.52959L493.554 3.57459C494.394 3.64059 494.736 4.20159 494.58 5.25759C494.49 5.88159 494.283 6.30159 493.959 6.51759C493.641 6.72759 493.116 6.83259 492.384 6.83259C491.274 6.83259 490.431 6.80859 489.855 6.76059ZM491.475 3.13359H492.573C492.957 3.13359 493.233 3.07059 493.401 2.94459C493.569 2.81259 493.677 2.56659 493.725 2.20659C493.773 1.87059 493.734 1.65159 493.608 1.54959C493.482 1.44159 493.218 1.38759 492.816 1.38759H491.718L491.475 3.13359ZM491.079 5.91459L492.204 5.92359C492.648 5.92359 492.957 5.86059 493.131 5.73459C493.311 5.60259 493.428 5.34459 493.482 4.96059C493.536 4.56459 493.497 4.30059 493.365 4.16859C493.233 4.03059 492.954 3.95859 492.528 3.95259H491.358L491.079 5.91459Z" fill="#333351"/>
<path d="M497.388 0.460593L496.686 5.41059C496.662 5.59659 496.68 5.72559 496.74 5.79759C496.806 5.86359 496.935 5.89659 497.127 5.89659H497.523L497.568 6.71559C497.376 6.81159 497.067 6.85959 496.641 6.85959C496.263 6.85959 495.978 6.75159 495.786 6.53559C495.594 6.31959 495.522 6.01659 495.57 5.62659L496.299 0.460593H497.388Z" fill="#333351"/>
<path d="M500.759 2.22459C501.539 2.22459 502.079 2.41059 502.379 2.78259C502.685 3.14859 502.778 3.75459 502.658 4.60059C502.544 5.42859 502.301 6.01659 501.929 6.36459C501.563 6.70659 500.996 6.87759 500.228 6.87759C499.454 6.87759 498.911 6.69459 498.599 6.32859C498.287 5.96259 498.188 5.35959 498.302 4.51959C498.422 3.68559 498.665 3.09459 499.031 2.74659C499.397 2.39859 499.973 2.22459 500.759 2.22459ZM500.75 3.09759C500.336 3.09759 500.036 3.19959 499.85 3.40359C499.664 3.60759 499.529 4.00659 499.445 4.60059C499.361 5.15259 499.373 5.52459 499.481 5.71659C499.589 5.90859 499.841 6.00459 500.237 6.00459C500.651 6.00459 500.951 5.90259 501.137 5.69859C501.323 5.48859 501.455 5.09559 501.533 4.51959C501.611 3.95559 501.596 3.57759 501.488 3.38559C501.386 3.19359 501.14 3.09759 500.75 3.09759Z" fill="#333351"/>
<path d="M506.908 5.87859L506.98 6.60759C506.524 6.78159 505.981 6.86859 505.351 6.86859C504.559 6.86859 504.016 6.68559 503.722 6.31959C503.428 5.95359 503.341 5.35059 503.461 4.51059C503.581 3.67059 503.821 3.07959 504.181 2.73759C504.541 2.39559 505.105 2.22459 505.873 2.22459C506.509 2.22459 507.025 2.31159 507.421 2.48559L507.268 3.15159C506.656 3.13959 506.245 3.13359 506.035 3.13359C505.555 3.13359 505.213 3.22959 505.009 3.42159C504.811 3.60759 504.676 3.99159 504.604 4.57359C504.532 5.16159 504.559 5.54259 504.685 5.71659C504.811 5.88459 505.099 5.96859 505.549 5.96859C506.053 5.96859 506.506 5.93859 506.908 5.87859Z" fill="#333351"/>
<path d="M511.157 2.35059H512.273C512.045 3.14859 511.571 3.80859 510.851 4.33059C510.959 4.47459 511.061 4.65459 511.157 4.87059L511.985 6.76059H510.824L510.032 4.82559C509.822 4.93959 509.516 5.08659 509.114 5.26659L508.889 6.76059H507.8L508.682 0.460593H509.78L509.402 3.27759C509.354 3.63759 509.252 4.00659 509.096 4.38459C510.29 3.75459 510.977 3.07659 511.157 2.35059Z" fill="#333351"/>
<path fill-rule="evenodd" clip-rule="evenodd" d="M325.195 13.3008C325.195 12.1962 326.091 11.3008 327.195 11.3008H449.511C450.616 11.3008 451.511 12.1962 451.511 13.3008V14.7604C451.511 15.3127 451.063 15.7604 450.511 15.7604C449.959 15.7604 449.511 15.3127 449.511 14.7604V13.3008H327.195V14.7604C327.195 15.3127 326.748 15.7604 326.195 15.7604C325.643 15.7604 325.195 15.3127 325.195 14.7604V13.3008Z" fill="#333351" stroke="#333351" stroke-width="2" stroke-linecap="round"/>
<path d="M511.144 57.1714L510.748 59.9434C510.719 60.178 510.737 60.3357 510.803 60.4164C510.877 60.497 511.034 60.5374 511.276 60.5374H512.035L512.09 61.5274C511.716 61.652 511.262 61.7144 510.726 61.7144C510.235 61.7144 509.872 61.575 509.637 61.2964C509.41 61.0177 509.333 60.6254 509.406 60.1194L509.824 57.1714H508.845L508.966 56.2584L509.967 56.2034L510.187 54.6524H511.507L511.287 56.2034H512.849L512.728 57.1714H511.144Z" fill="#333351"/>
<path d="M514.571 53.8604H515.176C515.308 53.8604 515.403 53.897 515.462 53.9704C515.528 54.0437 515.553 54.1427 515.539 54.2674L515.462 54.8724C515.418 55.1144 515.278 55.2354 515.044 55.2354H514.439C514.16 55.2354 514.039 55.096 514.076 54.8174L514.164 54.2234C514.186 53.9814 514.321 53.8604 514.571 53.8604ZM514.483 61.5934H513.152L513.911 56.2034H515.231L514.483 61.5934Z" fill="#333351"/>
<path d="M517.768 56.2034L517.746 57.2704C518.538 56.4564 519.29 56.0494 520.001 56.0494C520.405 56.0494 520.716 56.1484 520.936 56.3464C521.156 56.5444 521.274 56.8194 521.288 57.1714C521.684 56.7754 522.051 56.4894 522.388 56.3134C522.726 56.1374 523.074 56.0494 523.433 56.0494C523.91 56.0494 524.258 56.185 524.478 56.4564C524.706 56.7277 524.783 57.098 524.709 57.5674L524.148 61.5934H522.828L523.334 57.9194C523.378 57.6407 523.36 57.45 523.279 57.3474C523.206 57.2374 523.07 57.1824 522.872 57.1824C522.645 57.1824 522.414 57.2557 522.179 57.4024C521.952 57.5417 521.618 57.8167 521.178 58.2274L520.705 61.5934H519.429L519.935 57.9194C519.972 57.6554 519.957 57.4684 519.891 57.3584C519.825 57.241 519.686 57.1824 519.473 57.1824C519.239 57.1824 519.004 57.252 518.769 57.3914C518.542 57.5307 518.212 57.7947 517.779 58.1834L517.306 61.5934H515.986L516.745 56.2034H517.768Z" fill="#333351"/>
<path d="M530.309 60.5044L530.397 61.3734C529.832 61.608 529.07 61.7254 528.109 61.7254C527.148 61.7254 526.481 61.4834 526.107 60.9994C525.733 60.508 525.612 59.76 525.744 58.7554C525.883 57.7214 526.173 57.0137 526.613 56.6324C527.053 56.2437 527.779 56.0494 528.791 56.0494C529.686 56.0494 530.287 56.2034 530.595 56.5114C530.91 56.812 531.028 57.2557 530.947 57.8424C530.874 58.3704 530.668 58.7517 530.331 58.9864C529.994 59.221 529.477 59.3604 528.78 59.4044L527.075 59.5474C527.082 59.9727 527.185 60.2624 527.383 60.4164C527.581 60.563 527.882 60.6364 528.285 60.6364C528.894 60.6364 529.568 60.5924 530.309 60.5044ZM527.152 58.6454L528.692 58.5134C529 58.4914 529.224 58.4254 529.363 58.3154C529.51 58.198 529.601 58 529.638 57.7214C529.66 57.4427 529.605 57.2704 529.473 57.2044C529.341 57.1384 529.059 57.1054 528.626 57.1054C528.142 57.1127 527.801 57.219 527.603 57.4244C527.405 57.6224 527.255 58.0294 527.152 58.6454Z" fill="#333351"/>
<path d="M22.3899 12.7607C22.3899 14.9699 20.599 16.7607 18.3899 16.7607C16.1808 16.7607 14.3899 14.9699 14.3899 12.7607C14.3899 10.5516 16.1808 8.76074 18.3899 8.76074C20.599 8.76074 22.3899 10.5516 22.3899 12.7607Z" fill="#B4B4C0"/>
<path d="M38.3899 13.0049C38.3899 15.214 36.599 17.0049 34.3899 17.0049C32.1808 17.0049 30.3899 15.214 30.3899 13.0049C30.3899 10.7957 32.1808 9.00488 34.3899 9.00488C36.599 9.00488 38.3899 10.7957 38.3899 13.0049Z" fill="#B4B4C0"/>
<path d="M54.3899 13.0049C54.3899 15.214 52.599 17.0049 50.3899 17.0049C48.1808 17.0049 46.3899 15.214 46.3899 13.0049C46.3899 10.7957 48.1808 9.00488 50.3899 9.00488C52.599 9.00488 54.3899 10.7957 54.3899 13.0049Z" fill="#B4B4C0"/>
<g filter="url(#filter0_d)">
<path fill-rule="evenodd" clip-rule="evenodd" d="M517.909 21.3817L530.637 34.1097C531.418 34.8907 531.418 36.157 530.637 36.9381L517.909 49.666C517.128 50.447 515.861 50.447 515.08 49.666C514.299 48.885 514.299 47.6186 515.08 46.8376L524.394 37.5239L14.3899 37.5239C13.2853 37.5239 12.3899 36.6284 12.3899 35.5239C12.3899 34.4193 13.2853 33.5239 14.3899 33.5239L524.394 33.5239L515.08 24.2102C514.299 23.4291 514.299 22.1628 515.08 21.3817C515.861 20.6007 517.128 20.6007 517.909 21.3817Z" fill="#4C93E0"/>
<path fill-rule="evenodd" clip-rule="evenodd" d="M517.909 21.3817L530.637 34.1097C531.418 34.8907 531.418 36.157 530.637 36.9381L517.909 49.666C517.128 50.447 515.861 50.447 515.08 49.666C514.299 48.885 514.299 47.6186 515.08 46.8376L524.394 37.5239L14.3899 37.5239C13.2853 37.5239 12.3899 36.6284 12.3899 35.5239C12.3899 34.4193 13.2853 33.5239 14.3899 33.5239L524.394 33.5239L515.08 24.2102C514.299 23.4291 514.299 22.1628 515.08 21.3817C515.861 20.6007 517.128 20.6007 517.909 21.3817Z" stroke="#4C93E0" stroke-width="4" stroke-linecap="round" stroke-linejoin="round"/>
</g>
<g filter="url(#filter1_d)">
<path fill-rule="evenodd" clip-rule="evenodd" d="M73.3899 26.7607C74.4945 26.7607 75.3899 27.6562 75.3899 28.7607V41.7607C75.3899 42.8653 74.4945 43.7607 73.3899 43.7607C72.2853 43.7607 71.3899 42.8653 71.3899 41.7607V28.7607C71.3899 27.6562 72.2853 26.7607 73.3899 26.7607Z" fill="#4C93E0"/>
<path fill-rule="evenodd" clip-rule="evenodd" d="M73.3899 26.7607C74.4945 26.7607 75.3899 27.6562 75.3899 28.7607V41.7607C75.3899 42.8653 74.4945 43.7607 73.3899 43.7607C72.2853 43.7607 71.3899 42.8653 71.3899 41.7607V28.7607C71.3899 27.6562 72.2853 26.7607 73.3899 26.7607Z" stroke="#4C93E0" stroke-width="4" stroke-linecap="round" stroke-linejoin="round"/>
</g>
<g filter="url(#filter2_d)">
<path fill-rule="evenodd" clip-rule="evenodd" d="M198.89 26.7607C199.994 26.7607 200.89 27.6562 200.89 28.7607V41.7607C200.89 42.8653 199.994 43.7607 198.89 43.7607C197.785 43.7607 196.89 42.8653 196.89 41.7607V28.7607C196.89 27.6562 197.785 26.7607 198.89 26.7607Z" fill="#4C93E0"/>
<path fill-rule="evenodd" clip-rule="evenodd" d="M198.89 26.7607C199.994 26.7607 200.89 27.6562 200.89 28.7607V41.7607C200.89 42.8653 199.994 43.7607 198.89 43.7607C197.785 43.7607 196.89 42.8653 196.89 41.7607V28.7607C196.89 27.6562 197.785 26.7607 198.89 26.7607Z" stroke="#4C93E0" stroke-width="4" stroke-linecap="round" stroke-linejoin="round"/>
</g>
<g filter="url(#filter3_d)">
<path fill-rule="evenodd" clip-rule="evenodd" d="M323.89 26.7607C324.994 26.7607 325.89 27.6562 325.89 28.7607V41.7607C325.89 42.8653 324.994 43.7607 323.89 43.7607C322.785 43.7607 321.89 42.8653 321.89 41.7607V28.7607C321.89 27.6562 322.785 26.7607 323.89 26.7607Z" fill="#4C93E0"/>
<path fill-rule="evenodd" clip-rule="evenodd" d="M323.89 26.7607C324.994 26.7607 325.89 27.6562 325.89 28.7607V41.7607C325.89 42.8653 324.994 43.7607 323.89 43.7607C322.785 43.7607 321.89 42.8653 321.89 41.7607V28.7607C321.89 27.6562 322.785 26.7607 323.89 26.7607Z" stroke="#4C93E0" stroke-width="4" stroke-linecap="round" stroke-linejoin="round"/>
</g>
<g filter="url(#filter4_d)">
<path fill-rule="evenodd" clip-rule="evenodd" d="M448.89 26.7607C449.994 26.7607 450.89 27.6562 450.89 28.7607V41.7607C450.89 42.8653 449.994 43.7607 448.89 43.7607C447.785 43.7607 446.89 42.8653 446.89 41.7607V28.7607C446.89 27.6562 447.785 26.7607 448.89 26.7607Z" fill="#4C93E0"/>
<path fill-rule="evenodd" clip-rule="evenodd" d="M448.89 26.7607C449.994 26.7607 450.89 27.6562 450.89 28.7607V41.7607C450.89 42.8653 449.994 43.7607 448.89 43.7607C447.785 43.7607 446.89 42.8653 446.89 41.7607V28.7607C446.89 27.6562 447.785 26.7607 448.89 26.7607Z" stroke="#4C93E0" stroke-width="4" stroke-linecap="round" stroke-linejoin="round"/>
</g>
<g filter="url(#filter5_d)">
<rect x="468.751" y="17.5239" width="36" height="36" rx="8" fill="white"/>
<rect x="469.751" y="18.5239" width="34" height="34" rx="7" stroke="#4C93E0" stroke-width="2"/>
</g>
<path d="M485.403 41.8639C484.347 41.8639 483.519 41.5939 482.919 41.0539C482.319 40.5139 481.899 39.7579 481.659 38.7859C481.431 37.8019 481.317 36.5779 481.317 35.1139C481.317 33.5779 481.449 32.3239 481.713 31.3519C481.989 30.3799 482.481 29.6359 483.189 29.1199C483.909 28.5919 484.923 28.3279 486.231 28.3279C487.083 28.3279 487.851 28.3819 488.535 28.4899C489.219 28.5859 489.951 28.7299 490.731 28.9219V30.9739C490.263 30.9139 489.663 30.8599 488.931 30.8119C488.211 30.7519 487.473 30.7219 486.717 30.7219C485.949 30.7219 485.373 30.8599 484.989 31.1359C484.605 31.3999 484.341 31.8439 484.197 32.4679C484.053 33.0799 483.981 33.9679 483.981 35.1319C483.981 36.2959 484.053 37.1839 484.197 37.7959C484.341 38.3959 484.575 38.8159 484.899 39.0559C485.223 39.2959 485.685 39.4159 486.285 39.4159C486.741 39.4159 487.191 39.3799 487.635 39.3079C488.079 39.2359 488.463 39.1459 488.787 39.0379V36.4459H486.393V34.3399C486.753 34.2919 487.221 34.2499 487.797 34.2139C488.385 34.1779 488.943 34.1599 489.471 34.1599C490.215 34.1599 490.839 34.1779 491.343 34.2139V41.7739H489.345L488.985 40.8739C488.541 41.1379 488.001 41.3719 487.365 41.5759C486.741 41.7679 486.087 41.8639 485.403 41.8639Z" fill="#4C93E0"/>
<path fill-rule="evenodd" clip-rule="evenodd" d="M448.997 45.1582C449.549 45.1582 449.997 45.6059 449.997 46.1582L449.997 49.5841C449.997 50.1364 449.549 50.5841 448.997 50.5841C448.444 50.5841 447.997 50.1364 447.997 49.5841L447.997 46.1582C447.997 45.6059 448.444 45.1582 448.997 45.1582ZM448.997 55.436C449.549 55.436 449.997 55.8837 449.997 56.436L449.997 63.2878C449.997 63.8401 449.549 64.2878 448.997 64.2878C448.444 64.2878 447.997 63.8401 447.997 63.2878L447.997 56.436C447.997 55.8837 448.444 55.436 448.997 55.436ZM448.997 69.1397C449.549 69.1397 449.997 69.5874 449.997 70.1397L449.997 76.9915C449.997 77.5438 449.549 77.9915 448.997 77.9915C448.444 77.9915 447.997 77.5438 447.997 76.9915L447.997 70.1397C447.997 69.5874 448.444 69.1397 448.997 69.1397ZM448.997 82.8434C449.549 82.8434 449.997 83.2911 449.997 83.8434L449.997 87.2693C449.997 87.8216 449.549 88.2693 448.997 88.2693C448.444 88.2693 447.997 87.8216 447.997 87.2693L447.997 83.8434C447.997 83.2911 448.444 82.8434 448.997 82.8434Z" fill="#6F6F84" stroke="#6F6F84" stroke-width="2" stroke-linecap="round" stroke-linejoin="round" stroke-dasharray="6 6"/>
<path fill-rule="evenodd" clip-rule="evenodd" d="M444.614 89.2338L447.796 92.4158C447.991 92.6111 447.991 92.9277 447.796 93.1229L444.614 96.3049C444.419 96.5002 444.102 96.5002 443.907 96.3049C443.712 96.1097 443.712 95.7931 443.907 95.5978L446.235 93.2694H11V92.2694L446.235 92.2694L443.907 89.941C443.712 89.7457 443.712 89.4291 443.907 89.2338C444.102 89.0386 444.419 89.0386 444.614 89.2338Z" fill="#333351"/>
<path d="M447.796 92.4158L447.442 92.7694L447.442 92.7694L447.796 92.4158ZM444.614 89.2338L444.26 89.5874L444.26 89.5874L444.614 89.2338ZM447.796 93.1229L447.442 92.7694L447.442 92.7694L447.796 93.1229ZM444.614 96.3049L444.26 95.9514L444.26 95.9514L444.614 96.3049ZM443.907 96.3049L444.26 95.9514L444.26 95.9513L443.907 96.3049ZM443.907 95.5978L444.26 95.9514L444.26 95.9514L443.907 95.5978ZM446.235 93.2694L446.589 93.6229L447.442 92.7694H446.235V93.2694ZM11 93.2694H10.5V93.7694H11V93.2694ZM11 92.2694L11 91.7694L10.5 91.7694V92.2694H11ZM446.235 92.2694L446.235 92.7694L447.442 92.7694L446.589 91.9158L446.235 92.2694ZM443.907 89.941L444.26 89.5874L444.26 89.5874L443.907 89.941ZM443.907 89.2338L444.26 89.5874L444.26 89.5874L443.907 89.2338ZM448.15 92.0623L444.968 88.8803L444.26 89.5874L447.442 92.7694L448.15 92.0623ZM448.15 93.4765C448.54 93.086 448.54 92.4528 448.15 92.0623L447.442 92.7694V92.7694L448.15 93.4765ZM444.968 96.6585L448.15 93.4765L447.442 92.7694L444.26 95.9514L444.968 96.6585ZM443.553 96.6585C443.944 97.049 444.577 97.049 444.968 96.6585L444.26 95.9514H444.26L443.553 96.6585ZM443.553 95.2442C443.163 95.6348 443.163 96.268 443.553 96.6585L444.26 95.9513V95.9514L443.553 95.2442ZM445.882 92.9158L443.553 95.2443L444.26 95.9514L446.589 93.6229L445.882 92.9158ZM11 93.7694H446.235V92.7694H11V93.7694ZM10.5 92.2694V93.2694H11.5V92.2694H10.5ZM446.235 91.7694L11 91.7694L11 92.7694L446.235 92.7694L446.235 91.7694ZM443.553 90.2945L445.882 92.6229L446.589 91.9158L444.26 89.5874L443.553 90.2945ZM443.553 88.8803C443.163 89.2708 443.163 89.904 443.553 90.2945L444.26 89.5874V89.5874L443.553 88.8803ZM444.968 88.8803C444.577 88.4898 443.944 88.4898 443.553 88.8803L444.26 89.5874H444.26L444.968 88.8803Z" fill="#333351"/>
<path d="M221.171 79.0591L219.488 84.8911C219.458 85.0051 219.398 85.0981 219.308 85.1701C219.224 85.2361 219.122 85.2691 219.002 85.2691H217.751C217.631 85.2691 217.526 85.2361 217.436 85.1701C217.352 85.0981 217.295 85.0051 217.265 84.8911L215.573 79.0591H216.986L218.111 83.5411C218.171 83.7811 218.222 84.0121 218.264 84.2341H218.489C218.507 84.1201 218.558 83.8891 218.642 83.5411L219.758 79.0591H221.171Z" fill="#333351"/>
<path d="M223.526 80.7061C224.354 80.7061 224.939 80.8861 225.281 81.2461C225.629 81.6001 225.803 82.2031 225.803 83.0551C225.803 83.9071 225.629 84.5101 225.281 84.8641C224.939 85.2121 224.354 85.3861 223.526 85.3861C222.692 85.3861 222.101 85.2121 221.753 84.8641C221.411 84.5101 221.24 83.9071 221.24 83.0551C221.24 82.1971 221.411 81.5911 221.753 81.2371C222.101 80.8831 222.692 80.7061 223.526 80.7061ZM223.526 81.7051C223.172 81.7051 222.935 81.7951 222.815 81.9751C222.695 82.1551 222.635 82.5151 222.635 83.0551C222.635 83.5831 222.695 83.9371 222.815 84.1171C222.935 84.2971 223.172 84.3871 223.526 84.3871C223.868 84.3871 224.099 84.2971 224.219 84.1171C224.345 83.9371 224.408 83.5831 224.408 83.0551C224.408 82.5211 224.348 82.1641 224.228 81.9841C224.108 81.7981 223.874 81.7051 223.526 81.7051Z" fill="#333351"/>
<path d="M228.422 81.7231V83.8201C228.422 83.9881 228.458 84.1051 228.53 84.1711C228.602 84.2371 228.728 84.2701 228.908 84.2701H229.475L229.619 85.1971C229.277 85.3171 228.86 85.3771 228.368 85.3771C227.966 85.3771 227.654 85.2661 227.432 85.0441C227.21 84.8161 227.099 84.5011 227.099 84.0991V81.7231H226.316V80.8771L227.099 80.8321V79.5901H228.422V80.8321H229.655V81.7231H228.422Z" fill="#333351"/>
<path d="M230.79 78.8701H231.384C231.642 78.8701 231.771 78.9991 231.771 79.2571V79.7431C231.771 80.0011 231.642 80.1301 231.384 80.1301H230.79C230.532 80.1301 230.403 80.0011 230.403 79.7431V79.2571C230.403 78.9991 230.532 78.8701 230.79 78.8701ZM231.753 85.2691H230.43V80.8321H231.753V85.2691Z" fill="#333351"/>
<path d="M233.961 80.8321L234.06 81.4891C234.702 80.9671 235.335 80.7061 235.959 80.7061C236.361 80.7061 236.667 80.8111 236.877 81.0211C237.093 81.2311 237.201 81.5371 237.201 81.9391V85.2691H235.878V82.3531C235.878 82.1551 235.845 82.0201 235.779 81.9481C235.719 81.8701 235.608 81.8311 235.446 81.8311C235.164 81.8311 234.753 81.9661 234.213 82.2361V85.2691H232.881V80.8321H233.961Z" fill="#333351"/>
<path d="M242.751 81.4171L242.193 81.4891C242.265 81.6571 242.301 81.8701 242.301 82.1281C242.301 82.6441 242.145 83.0101 241.833 83.2261C241.527 83.4421 240.987 83.5501 240.213 83.5501C239.955 83.5501 239.7 83.5351 239.448 83.5051C239.376 83.6011 239.361 83.7091 239.403 83.8291C239.451 83.9491 239.553 84.0181 239.709 84.0361L241.32 84.2251C241.776 84.2791 242.103 84.4111 242.301 84.6211C242.505 84.8311 242.607 85.1401 242.607 85.5481C242.607 86.1121 242.436 86.4931 242.094 86.6911C241.758 86.8891 241.152 86.9881 240.276 86.9881C239.364 86.9881 238.746 86.8921 238.422 86.7001C238.098 86.5141 237.936 86.1691 237.936 85.6651C237.936 85.4371 237.987 85.2511 238.089 85.1071C238.197 84.9571 238.38 84.8221 238.638 84.7021C238.434 84.5041 238.35 84.2611 238.386 83.9731C238.428 83.6791 238.56 83.4661 238.782 83.3341C238.344 83.1301 238.125 82.7311 238.125 82.1371C238.125 81.6151 238.281 81.2461 238.593 81.0301C238.905 80.8141 239.448 80.7061 240.222 80.7061C240.69 80.7061 241.077 80.7481 241.383 80.8321H242.814L242.751 81.4171ZM240.213 82.7041C240.537 82.7041 240.759 82.6621 240.879 82.5781C241.005 82.4941 241.068 82.3441 241.068 82.1281C241.068 81.9061 241.008 81.7561 240.888 81.6781C240.768 81.6001 240.543 81.5611 240.213 81.5611C239.883 81.5611 239.655 81.6001 239.529 81.6781C239.409 81.7561 239.349 81.9061 239.349 82.1281C239.349 82.3441 239.409 82.4941 239.529 82.5781C239.655 82.6621 239.883 82.7041 240.213 82.7041ZM240.609 85.0981L239.493 84.9811C239.301 85.1371 239.205 85.3081 239.205 85.4941C239.205 85.7101 239.271 85.8481 239.403 85.9081C239.535 85.9681 239.82 85.9981 240.258 85.9981C240.696 85.9981 240.984 85.9651 241.122 85.8991C241.266 85.8391 241.338 85.7101 241.338 85.5121C241.338 85.3561 241.293 85.2571 241.203 85.2151C241.113 85.1731 240.915 85.1341 240.609 85.0981Z" fill="#333351"/>
<path d="M467.715 78.0591L466.032 83.8911C466.002 84.0051 465.942 84.0981 465.852 84.1701C465.768 84.2361 465.666 84.2691 465.546 84.2691H464.295C464.175 84.2691 464.07 84.2361 463.98 84.1701C463.896 84.0981 463.839 84.0051 463.809 83.8911L462.117 78.0591H463.53L464.655 82.5411C464.715 82.7811 464.766 83.0121 464.808 83.2341H465.033C465.051 83.1201 465.102 82.8891 465.186 82.5411L466.302 78.0591H467.715Z" fill="#333351"/>
<path d="M470.07 79.7061C470.898 79.7061 471.483 79.8861 471.825 80.2461C472.173 80.6001 472.347 81.2031 472.347 82.0551C472.347 82.9071 472.173 83.5101 471.825 83.8641C471.483 84.2121 470.898 84.3861 470.07 84.3861C469.236 84.3861 468.645 84.2121 468.297 83.8641C467.955 83.5101 467.784 82.9071 467.784 82.0551C467.784 81.1971 467.955 80.5911 468.297 80.2371C468.645 79.8831 469.236 79.7061 470.07 79.7061ZM470.07 80.7051C469.716 80.7051 469.479 80.7951 469.359 80.9751C469.239 81.1551 469.179 81.5151 469.179 82.0551C469.179 82.5831 469.239 82.9371 469.359 83.1171C469.479 83.2971 469.716 83.3871 470.07 83.3871C470.412 83.3871 470.643 83.2971 470.763 83.1171C470.889 82.9371 470.952 82.5831 470.952 82.0551C470.952 81.5211 470.892 81.1641 470.772 80.9841C470.652 80.7981 470.418 80.7051 470.07 80.7051Z" fill="#333351"/>
<path d="M474.966 80.7231V82.8201C474.966 82.9881 475.002 83.1051 475.074 83.1711C475.146 83.2371 475.272 83.2701 475.452 83.2701H476.019L476.163 84.1971C475.821 84.3171 475.404 84.3771 474.912 84.3771C474.51 84.3771 474.198 84.2661 473.976 84.0441C473.754 83.8161 473.643 83.5011 473.643 83.0991V80.7231H472.86V79.8771L473.643 79.8321V78.5901H474.966V79.8321H476.199V80.7231H474.966Z" fill="#333351"/>
<path d="M479.764 82.4961H478.162C478.204 82.8201 478.3 83.0391 478.45 83.1531C478.606 83.2611 478.861 83.3151 479.215 83.3151C479.689 83.3151 480.241 83.2821 480.871 83.2161L480.997 84.0441C480.535 84.2661 479.89 84.3771 479.062 84.3771C478.228 84.3771 477.634 84.1971 477.28 83.8371C476.926 83.4771 476.749 82.8831 476.749 82.0551C476.749 81.1851 476.92 80.5761 477.262 80.2281C477.61 79.8801 478.192 79.7061 479.008 79.7061C479.746 79.7061 480.28 79.8351 480.61 80.0931C480.94 80.3451 481.108 80.7321 481.114 81.2541C481.114 81.6681 481.006 81.9801 480.79 82.1901C480.58 82.3941 480.238 82.4961 479.764 82.4961ZM478.135 81.6951H479.395C479.557 81.6951 479.665 81.6561 479.719 81.5781C479.779 81.5001 479.809 81.3861 479.809 81.2361C479.809 81.0261 479.755 80.8821 479.647 80.8041C479.539 80.7201 479.341 80.6781 479.053 80.6781C478.711 80.6781 478.477 80.7471 478.351 80.8851C478.225 81.0171 478.153 81.2871 478.135 81.6951Z" fill="#333351"/>
<path d="M484.006 84.2691V78.0591C484.564 78.0051 485.35 77.9781 486.364 77.9781C487.234 77.9781 487.828 78.1191 488.146 78.4011C488.47 78.6831 488.632 79.2171 488.632 80.0031C488.632 80.7891 488.479 81.3261 488.173 81.6141C487.873 81.8961 487.33 82.0371 486.544 82.0371C486.148 82.0371 485.758 82.0131 485.374 81.9651V84.2691H484.006ZM485.374 80.9841H486.337C486.691 80.9781 486.931 80.9091 487.057 80.7771C487.189 80.6451 487.255 80.3871 487.255 80.0031C487.255 79.6191 487.189 79.3611 487.057 79.2291C486.931 79.0971 486.691 79.0311 486.337 79.0311L485.374 79.0401V80.9841Z" fill="#333351"/>
<path d="M492.639 79.7061L492.504 80.9391H492.145C491.851 80.9391 491.397 81.0411 490.785 81.2451V84.2691H489.453V79.8321H490.488L490.605 80.4801C491.211 79.9641 491.811 79.7061 492.405 79.7061H492.639Z" fill="#333351"/>
<path d="M495.312 79.7061C496.14 79.7061 496.725 79.8861 497.067 80.2461C497.415 80.6001 497.589 81.2031 497.589 82.0551C497.589 82.9071 497.415 83.5101 497.067 83.8641C496.725 84.2121 496.14 84.3861 495.312 84.3861C494.478 84.3861 493.887 84.2121 493.539 83.8641C493.197 83.5101 493.026 82.9071 493.026 82.0551C493.026 81.1971 493.197 80.5911 493.539 80.2371C493.887 79.8831 494.478 79.7061 495.312 79.7061ZM495.312 80.7051C494.958 80.7051 494.721 80.7951 494.601 80.9751C494.481 81.1551 494.421 81.5151 494.421 82.0551C494.421 82.5831 494.481 82.9371 494.601 83.1171C494.721 83.2971 494.958 83.3871 495.312 83.3871C495.654 83.3871 495.885 83.2971 496.005 83.1171C496.131 82.9371 496.194 82.5831 496.194 82.0551C496.194 81.5211 496.134 81.1641 496.014 80.9841C495.894 80.7981 495.66 80.7051 495.312 80.7051Z" fill="#333351"/>
<path d="M502.133 83.2161L502.25 84.0801C501.794 84.2781 501.221 84.3771 500.531 84.3771C499.715 84.3771 499.139 84.2031 498.803 83.8551C498.473 83.5011 498.308 82.8981 498.308 82.0461C498.308 81.1881 498.476 80.5851 498.812 80.2371C499.148 79.8831 499.727 79.7061 500.549 79.7061C501.221 79.7061 501.767 79.7991 502.187 79.9851L502.043 80.8131C501.395 80.8011 500.972 80.7951 500.774 80.7951C500.366 80.7951 500.084 80.8821 499.928 81.0561C499.778 81.2301 499.703 81.5601 499.703 82.0461C499.703 82.5321 499.778 82.8621 499.928 83.0361C500.084 83.2101 500.366 83.2971 500.774 83.2971C501.296 83.2971 501.749 83.2701 502.133 83.2161Z" fill="#333351"/>
<path d="M505.823 82.4961H504.221C504.263 82.8201 504.359 83.0391 504.509 83.1531C504.665 83.2611 504.92 83.3151 505.274 83.3151C505.748 83.3151 506.3 83.2821 506.93 83.2161L507.056 84.0441C506.594 84.2661 505.949 84.3771 505.121 84.3771C504.287 84.3771 503.693 84.1971 503.339 83.8371C502.985 83.4771 502.808 82.8831 502.808 82.0551C502.808 81.1851 502.979 80.5761 503.321 80.2281C503.669 79.8801 504.251 79.7061 505.067 79.7061C505.805 79.7061 506.339 79.8351 506.669 80.0931C506.999 80.3451 507.167 80.7321 507.173 81.2541C507.173 81.6681 507.065 81.9801 506.849 82.1901C506.639 82.3941 506.297 82.4961 505.823 82.4961ZM504.194 81.6951H505.454C505.616 81.6951 505.724 81.6561 505.778 81.5781C505.838 81.5001 505.868 81.3861 505.868 81.2361C505.868 81.0261 505.814 80.8821 505.706 80.8041C505.598 80.7201 505.4 80.6781 505.112 80.6781C504.77 80.6781 504.536 80.7471 504.41 80.8851C504.284 81.0171 504.212 81.2871 504.194 81.6951Z" fill="#333351"/>
<path d="M510.005 82.6221L508.898 82.3251C508.49 82.2051 508.208 82.0431 508.052 81.8391C507.896 81.6291 507.818 81.3411 507.818 80.9751C507.818 80.5131 507.959 80.1861 508.241 79.9941C508.529 79.8021 509.018 79.7061 509.708 79.7061C510.506 79.7181 511.19 79.7751 511.76 79.8771L511.67 80.7321C510.914 80.7201 510.344 80.7141 509.96 80.7141C509.75 80.7141 509.603 80.7171 509.519 80.7231C509.441 80.7231 509.36 80.7321 509.276 80.7501C509.198 80.7681 509.15 80.7981 509.132 80.8401C509.114 80.8761 509.105 80.9331 509.105 81.0111C509.105 81.0411 509.105 81.0681 509.105 81.0921C509.111 81.1161 509.12 81.1401 509.132 81.1641C509.144 81.1821 509.153 81.1971 509.159 81.2091C509.171 81.2211 509.189 81.2361 509.213 81.2541C509.237 81.2661 509.255 81.2751 509.267 81.2811C509.285 81.2871 509.312 81.2991 509.348 81.3171C509.39 81.3291 509.42 81.3381 509.438 81.3441C509.462 81.3501 509.501 81.3621 509.555 81.3801C509.615 81.3921 509.66 81.4011 509.69 81.4071L510.824 81.7131C511.22 81.8271 511.502 81.9801 511.67 82.1721C511.838 82.3581 511.922 82.6371 511.922 83.0091C511.922 83.5371 511.769 83.8971 511.463 84.0891C511.157 84.2751 510.632 84.3681 509.888 84.3681C509.168 84.3681 508.505 84.3171 507.899 84.2151L507.98 83.3511C508.196 83.3631 508.709 83.3691 509.519 83.3691C509.981 83.3691 510.281 83.3511 510.419 83.3151C510.563 83.2731 510.635 83.1801 510.635 83.0361C510.635 83.0061 510.632 82.9791 510.626 82.9551C510.626 82.9311 510.62 82.9101 510.608 82.8921C510.596 82.8681 510.584 82.8501 510.572 82.8381C510.56 82.8261 510.539 82.8141 510.509 82.8021C510.485 82.7841 510.464 82.7721 510.446 82.7661C510.434 82.7541 510.407 82.7421 510.365 82.7301C510.323 82.7121 510.29 82.7001 510.266 82.6941C510.242 82.6881 510.2 82.6791 510.14 82.6671C510.08 82.6491 510.035 82.6341 510.005 82.6221Z" fill="#333351"/>
<path d="M514.751 82.6221L513.644 82.3251C513.236 82.2051 512.954 82.0431 512.798 81.8391C512.642 81.6291 512.564 81.3411 512.564 80.9751C512.564 80.5131 512.705 80.1861 512.987 79.9941C513.275 79.8021 513.764 79.7061 514.454 79.7061C515.252 79.7181 515.936 79.7751 516.506 79.8771L516.416 80.7321C515.66 80.7201 515.09 80.7141 514.706 80.7141C514.496 80.7141 514.349 80.7171 514.265 80.7231C514.187 80.7231 514.106 80.7321 514.022 80.7501C513.944 80.7681 513.896 80.7981 513.878 80.8401C513.86 80.8761 513.851 80.9331 513.851 81.0111C513.851 81.0411 513.851 81.0681 513.851 81.0921C513.857 81.1161 513.866 81.1401 513.878 81.1641C513.89 81.1821 513.899 81.1971 513.905 81.2091C513.917 81.2211 513.935 81.2361 513.959 81.2541C513.983 81.2661 514.001 81.2751 514.013 81.2811C514.031 81.2871 514.058 81.2991 514.094 81.3171C514.136 81.3291 514.166 81.3381 514.184 81.3441C514.208 81.3501 514.247 81.3621 514.301 81.3801C514.361 81.3921 514.406 81.4011 514.436 81.4071L515.57 81.7131C515.966 81.8271 516.248 81.9801 516.416 82.1721C516.584 82.3581 516.668 82.6371 516.668 83.0091C516.668 83.5371 516.515 83.8971 516.209 84.0891C515.903 84.2751 515.378 84.3681 514.634 84.3681C513.914 84.3681 513.251 84.3171 512.645 84.2151L512.726 83.3511C512.942 83.3631 513.455 83.3691 514.265 83.3691C514.727 83.3691 515.027 83.3511 515.165 83.3151C515.309 83.2731 515.381 83.1801 515.381 83.0361C515.381 83.0061 515.378 82.9791 515.372 82.9551C515.372 82.9311 515.366 82.9101 515.354 82.8921C515.342 82.8681 515.33 82.8501 515.318 82.8381C515.306 82.8261 515.285 82.8141 515.255 82.8021C515.231 82.7841 515.21 82.7721 515.192 82.7661C515.18 82.7541 515.153 82.7421 515.111 82.7301C515.069 82.7121 515.036 82.7001 515.012 82.6941C514.988 82.6881 514.946 82.6791 514.886 82.6671C514.826 82.6491 514.781 82.6341 514.751 82.6221Z" fill="#333351"/>
<path d="M517.922 77.8701H518.516C518.774 77.8701 518.903 77.9991 518.903 78.2571V78.7431C518.903 79.0011 518.774 79.1301 518.516 79.1301H517.922C517.664 79.1301 517.535 79.0011 517.535 78.7431V78.2571C517.535 77.9991 517.664 77.8701 517.922 77.8701ZM518.885 84.2691H517.562V79.8321H518.885V84.2691Z" fill="#333351"/>
<path d="M521.093 79.8321L521.192 80.4891C521.834 79.9671 522.467 79.7061 523.091 79.7061C523.493 79.7061 523.799 79.8111 524.009 80.0211C524.225 80.2311 524.333 80.5371 524.333 80.9391V84.2691H523.01V81.3531C523.01 81.1551 522.977 81.0201 522.911 80.9481C522.851 80.8701 522.74 80.8311 522.578 80.8311C522.296 80.8311 521.885 80.9661 521.345 81.2361V84.2691H520.013V79.8321H521.093Z" fill="#333351"/>
<path d="M529.883 80.4171L529.325 80.4891C529.397 80.6571 529.433 80.8701 529.433 81.1281C529.433 81.6441 529.277 82.0101 528.965 82.2261C528.659 82.4421 528.119 82.5501 527.345 82.5501C527.087 82.5501 526.832 82.5351 526.58 82.5051C526.508 82.6011 526.493 82.7091 526.535 82.8291C526.583 82.9491 526.685 83.0181 526.841 83.0361L528.452 83.2251C528.908 83.2791 529.235 83.4111 529.433 83.6211C529.637 83.8311 529.739 84.1401 529.739 84.5481C529.739 85.1121 529.568 85.4931 529.226 85.6911C528.89 85.8891 528.284 85.9881 527.408 85.9881C526.496 85.9881 525.878 85.8921 525.554 85.7001C525.23 85.5141 525.068 85.1691 525.068 84.6651C525.068 84.4371 525.119 84.2511 525.221 84.1071C525.329 83.9571 525.512 83.8221 525.77 83.7021C525.566 83.5041 525.482 83.2611 525.518 82.9731C525.56 82.6791 525.692 82.4661 525.914 82.3341C525.476 82.1301 525.257 81.7311 525.257 81.1371C525.257 80.6151 525.413 80.2461 525.725 80.0301C526.037 79.8141 526.58 79.7061 527.354 79.7061C527.822 79.7061 528.209 79.7481 528.515 79.8321H529.946L529.883 80.4171ZM527.345 81.7041C527.669 81.7041 527.891 81.6621 528.011 81.5781C528.137 81.4941 528.2 81.3441 528.2 81.1281C528.2 80.9061 528.14 80.7561 528.02 80.6781C527.9 80.6001 527.675 80.5611 527.345 80.5611C527.015 80.5611 526.787 80.6001 526.661 80.6781C526.541 80.7561 526.481 80.9061 526.481 81.1281C526.481 81.3441 526.541 81.4941 526.661 81.5781C526.787 81.6621 527.015 81.7041 527.345 81.7041ZM527.741 84.0981L526.625 83.9811C526.433 84.1371 526.337 84.3081 526.337 84.4941C526.337 84.7101 526.403 84.8481 526.535 84.9081C526.667 84.9681 526.952 84.9981 527.39 84.9981C527.828 84.9981 528.116 84.9651 528.254 84.8991C528.398 84.8391 528.47 84.7101 528.47 84.5121C528.47 84.3561 528.425 84.2571 528.335 84.2151C528.245 84.1731 528.047 84.1341 527.741 84.0981Z" fill="#333351"/>
<defs>
<filter id="filter0_d" x="0.389893" y="18.7959" width="542.833" height="58.4559" filterUnits="userSpaceOnUse" color-interpolation-filters="sRGB">
<feFlood flood-opacity="0" result="BackgroundImageFix"/>
<feColorMatrix in="SourceAlpha" type="matrix" values="0 0 0 0 0 0 0 0 0 0 0 0 0 0 0 0 0 0 127 0"/>
<feOffset dy="15"/>
<feGaussianBlur stdDeviation="5"/>
<feColorMatrix type="matrix" values="0 0 0 0 0.298039 0 0 0 0 0.576471 0 0 0 0 0.878431 0 0 0 0.15 0"/>
<feBlend mode="normal" in2="BackgroundImageFix" result="effect1_dropShadow"/>
<feBlend mode="normal" in="SourceGraphic" in2="effect1_dropShadow" result="shape"/>
</filter>
<filter id="filter1_d" x="59.3899" y="24.7607" width="28" height="46" filterUnits="userSpaceOnUse" color-interpolation-filters="sRGB">
<feFlood flood-opacity="0" result="BackgroundImageFix"/>
<feColorMatrix in="SourceAlpha" type="matrix" values="0 0 0 0 0 0 0 0 0 0 0 0 0 0 0 0 0 0 127 0"/>
<feOffset dy="15"/>
<feGaussianBlur stdDeviation="5"/>
<feColorMatrix type="matrix" values="0 0 0 0 0.298039 0 0 0 0 0.576471 0 0 0 0 0.878431 0 0 0 0.15 0"/>
<feBlend mode="normal" in2="BackgroundImageFix" result="effect1_dropShadow"/>
<feBlend mode="normal" in="SourceGraphic" in2="effect1_dropShadow" result="shape"/>
</filter>
<filter id="filter2_d" x="184.89" y="24.7607" width="28" height="46" filterUnits="userSpaceOnUse" color-interpolation-filters="sRGB">
<feFlood flood-opacity="0" result="BackgroundImageFix"/>
<feColorMatrix in="SourceAlpha" type="matrix" values="0 0 0 0 0 0 0 0 0 0 0 0 0 0 0 0 0 0 127 0"/>
<feOffset dy="15"/>
<feGaussianBlur stdDeviation="5"/>
<feColorMatrix type="matrix" values="0 0 0 0 0.298039 0 0 0 0 0.576471 0 0 0 0 0.878431 0 0 0 0.15 0"/>
<feBlend mode="normal" in2="BackgroundImageFix" result="effect1_dropShadow"/>
<feBlend mode="normal" in="SourceGraphic" in2="effect1_dropShadow" result="shape"/>
</filter>
<filter id="filter3_d" x="309.89" y="24.7607" width="28" height="46" filterUnits="userSpaceOnUse" color-interpolation-filters="sRGB">
<feFlood flood-opacity="0" result="BackgroundImageFix"/>
<feColorMatrix in="SourceAlpha" type="matrix" values="0 0 0 0 0 0 0 0 0 0 0 0 0 0 0 0 0 0 127 0"/>
<feOffset dy="15"/>
<feGaussianBlur stdDeviation="5"/>
<feColorMatrix type="matrix" values="0 0 0 0 0.298039 0 0 0 0 0.576471 0 0 0 0 0.878431 0 0 0 0.15 0"/>
<feBlend mode="normal" in2="BackgroundImageFix" result="effect1_dropShadow"/>
<feBlend mode="normal" in="SourceGraphic" in2="effect1_dropShadow" result="shape"/>
</filter>
<filter id="filter4_d" x="434.89" y="24.7607" width="28" height="46" filterUnits="userSpaceOnUse" color-interpolation-filters="sRGB">
<feFlood flood-opacity="0" result="BackgroundImageFix"/>
<feColorMatrix in="SourceAlpha" type="matrix" values="0 0 0 0 0 0 0 0 0 0 0 0 0 0 0 0 0 0 127 0"/>
<feOffset dy="15"/>
<feGaussianBlur stdDeviation="5"/>
<feColorMatrix type="matrix" values="0 0 0 0 0.298039 0 0 0 0 0.576471 0 0 0 0 0.878431 0 0 0 0.15 0"/>
<feBlend mode="normal" in2="BackgroundImageFix" result="effect1_dropShadow"/>
<feBlend mode="normal" in="SourceGraphic" in2="effect1_dropShadow" result="shape"/>
</filter>
<filter id="filter5_d" x="458.751" y="17.5239" width="56" height="61" filterUnits="userSpaceOnUse" color-interpolation-filters="sRGB">
<feFlood flood-opacity="0" result="BackgroundImageFix"/>
<feColorMatrix in="SourceAlpha" type="matrix" values="0 0 0 0 0 0 0 0 0 0 0 0 0 0 0 0 0 0 127 0"/>
<feOffset dy="15"/>
<feGaussianBlur stdDeviation="5"/>
<feColorMatrix type="matrix" values="0 0 0 0 0.298039 0 0 0 0 0.576471 0 0 0 0 0.878431 0 0 0 0.15 0"/>
<feBlend mode="normal" in2="BackgroundImageFix" result="effect1_dropShadow"/>
<feBlend mode="normal" in="SourceGraphic" in2="effect1_dropShadow" result="shape"/>
</filter>
</defs>
</svg>
